<svg viewBox="0 0 743 529" fill="none"
    xmlns="http://www.w3.org/2000/svg">
    <path d="M307.638 424.25C307.638 424.25 328.995 412.291 319.029 396.062C319.029 396.062 311.056 386.096 302.515 383.53C302.515 383.53 307.07 407.732 302.515 408.305C297.961 408.877 299.381 380.969 299.381 380.969C299.381 380.969 276.905 370.151 268.059 371.003C268.059 371.003 282.011 394.637 277.457 394.069C272.902 393.5 257.241 369.582 257.241 369.582C257.241 369.582 234.18 365.312 230.477 378.976C226.775 392.639 232.755 399.476 236.173 400.332C239.591 401.189 261.511 400.9 260.943 403.725C260.375 406.549 245.566 411.129 237.309 408.568C237.309 408.568 246.423 431.044 258.382 429.92C270.341 428.796 274.039 421.379 281.443 420.811C288.847 420.243 294.254 422.236 290.556 424.229C286.858 426.222 274.327 424.882 268.347 429.962C262.368 435.043 257.525 438.181 268.631 440.458C279.738 442.736 299.665 441.306 303.652 432.77L307.638 424.25Z" fill="#A8D29F"/>
    <path d="M313.333 445.034C307.354 433.928 307.638 424.254 307.638 424.254C300.806 402.627 241.011 383.25 241.011 383.25C317.035 414.005 303.651 432.795 303.651 432.795C305.7 433.991 308.774 439.687 310.903 444.059C311.208 444.805 311.688 445.836 312.404 447.231C312.693 447.863 312.926 448.38 313.083 448.741C316.997 458.537 314.923 475.457 314.923 475.457L317.298 476.094C322.552 459.037 313.333 445.034 313.333 445.034Z" fill="#82B378"/>
    <path d="M515.932 528.217H730.383C737.135 528.217 742.609 522.743 742.609 515.991V87.135C742.609 80.3827 737.135 74.9089 730.383 74.9089H515.932C509.179 74.9089 503.705 80.3827 503.705 87.135L503.705 515.991C503.705 522.743 509.179 528.217 515.932 528.217Z" fill="#4A75CB"/>
    <path d="M492.773 528.217H707.224C713.976 528.217 719.45 522.743 719.45 515.991V87.135C719.45 80.3827 713.976 74.9089 707.224 74.9089H492.773C486.02 74.9089 480.547 80.3827 480.547 87.135L480.547 515.991C480.547 522.743 486.02 528.217 492.773 528.217Z" fill="#699FF0"/>
    <path d="M564.976 96.9057H627.078C627.718 96.9035 628.332 96.6481 628.785 96.1953C629.237 95.7424 629.493 95.1289 629.495 94.4885C629.494 93.8478 629.239 93.2336 628.786 92.7805C628.333 92.3274 627.719 92.0724 627.078 92.0713H564.976C564.336 92.0735 563.722 92.3289 563.269 92.7817C562.817 93.2346 562.561 93.8481 562.559 94.4885C562.561 95.1289 562.817 95.7424 563.269 96.1953C563.722 96.6481 564.336 96.9035 564.976 96.9057Z" fill="#4A75CB"/>
    <path d="M638.121 96.9057C638.761 96.9035 639.375 96.6481 639.828 96.1953C640.28 95.7424 640.536 95.1289 640.538 94.4885C640.536 93.8481 640.28 93.2346 639.828 92.7817C639.375 92.3289 638.761 92.0735 638.121 92.0713C637.48 92.0735 636.867 92.3289 636.414 92.7817C635.961 93.2346 635.706 93.8481 635.704 94.4885C635.706 95.1289 635.961 95.7424 636.414 96.1953C636.867 96.6481 637.48 96.9035 638.121 96.9057Z" fill="#4A75CB"/>
    <path d="M612.625 503.171C612.625 500.088 611.711 497.075 609.999 494.512C608.286 491.949 605.852 489.952 603.005 488.772C600.157 487.593 597.023 487.284 594 487.885C590.977 488.487 588.2 489.971 586.02 492.151C583.841 494.33 582.356 497.107 581.755 500.13C581.154 503.154 581.462 506.287 582.642 509.135C583.822 511.983 585.819 514.417 588.382 516.129C590.945 517.842 593.958 518.756 597.04 518.756C599.087 518.756 601.114 518.353 603.005 517.57C604.896 516.787 606.615 515.639 608.062 514.192C609.509 512.745 610.657 511.027 611.44 509.136C612.223 507.244 612.626 505.218 612.625 503.171Z" fill="#4A75CB"/>
    <path d="M699.565 110.858H500.94V477.51H699.565V110.858Z" fill="white"/>
    <path d="M298.541 121.85H106.291C100.239 121.85 95.3325 126.756 95.3325 132.808V517.263C95.3325 523.315 100.239 528.221 106.291 528.221H298.541C304.593 528.221 309.499 523.315 309.499 517.263V132.808C309.499 126.756 304.593 121.85 298.541 121.85Z" fill="#4A75CB"/>
    <path d="M319.3 121.85H127.049C120.997 121.85 116.091 126.756 116.091 132.808V517.263C116.091 523.315 120.997 528.221 127.049 528.221H319.3C325.352 528.221 330.258 523.315 330.258 517.263V132.808C330.258 126.756 325.352 121.85 319.3 121.85Z" fill="#699FF0"/>
    <path d="M322.146 154.338H123.75V483.625H322.146V154.338Z" fill="white"/>
    <path d="M198.888 137.231H254.552C255.127 137.231 255.678 137.459 256.084 137.866C256.491 138.272 256.719 138.823 256.719 139.398C256.719 139.973 256.491 140.524 256.084 140.93C255.678 141.337 255.127 141.565 254.552 141.565H198.888C198.313 141.565 197.762 141.337 197.355 140.93C196.949 140.524 196.721 139.973 196.721 139.398C196.721 138.823 196.949 138.272 197.355 137.866C197.762 137.459 198.313 137.231 198.888 137.231Z" fill="#4A75CB"/>
    <path d="M188.998 137.231C189.427 137.23 189.847 137.357 190.203 137.594C190.56 137.832 190.839 138.17 191.003 138.566C191.168 138.962 191.212 139.398 191.129 139.818C191.045 140.239 190.839 140.625 190.536 140.929C190.234 141.232 189.847 141.439 189.427 141.523C189.006 141.607 188.571 141.564 188.174 141.401C187.778 141.237 187.439 140.959 187.201 140.602C186.963 140.246 186.836 139.827 186.836 139.398C186.838 138.825 187.066 138.276 187.471 137.87C187.876 137.464 188.425 137.234 188.998 137.231Z" fill="#4A75CB"/>
    <path d="M233.732 511.157C235.139 505.194 231.446 499.219 225.483 497.812C219.52 496.404 213.545 500.097 212.138 506.06C210.73 512.024 214.423 517.999 220.386 519.406C226.35 520.813 232.325 517.12 233.732 511.157Z" fill="#4A75CB"/>
    <path d="M638.256 30.033L697.818 47.5092L661.441 14.1641L658.112 22.6838L642.934 23.2224L638.256 30.033Z" fill="#82B378"/>
    <path d="M697.818 47.5093L650.983 14.0963L601.744 4.42311L697.818 47.5093Z" fill="#A8D29F"/>
    <path d="M661.441 14.1641L697.818 47.5093L672.793 0L661.441 14.1641Z" fill="#A8D29F"/>
    <path d="M598.317 262.468C614.124 261.75 626.356 248.354 625.638 232.547C624.92 216.74 611.524 204.508 595.717 205.225C579.91 205.943 567.678 219.339 568.396 235.146C569.114 250.953 582.51 263.185 598.317 262.468Z" fill="#A8D29F"/>
    <path d="M223.857 274.341C239.664 273.624 251.897 260.228 251.179 244.421C250.461 228.614 237.065 216.381 221.258 217.099C205.451 217.817 193.219 231.213 193.937 247.02C194.654 262.827 208.05 275.059 223.857 274.341Z" fill="#A8D29F"/>
    <path d="M580.349 235.842L589.708 245.202C590.22 245.712 590.914 245.999 591.638 245.999H592.999C593.722 245.999 594.416 245.712 594.929 245.202L613.745 226.415C614.13 226.034 614.392 225.547 614.499 225.016C614.607 224.486 614.553 223.935 614.346 223.435C614.139 222.934 613.788 222.507 613.337 222.207C612.887 221.907 612.357 221.748 611.815 221.75H610.933C610.22 221.751 609.536 222.029 609.025 222.526L593.622 237.585C593.109 238.081 592.422 238.356 591.709 238.351C590.995 238.347 590.312 238.062 589.806 237.56L584.242 231.996C583.985 231.739 583.679 231.537 583.343 231.4C583.006 231.263 582.646 231.194 582.283 231.199C581.745 231.2 581.22 231.36 580.773 231.658C580.326 231.957 579.978 232.381 579.771 232.877C579.564 233.373 579.509 233.919 579.612 234.447C579.715 234.974 579.971 235.46 580.349 235.842Z" fill="white"/>
    <path d="M205.889 247.716L215.249 257.076C215.761 257.586 216.455 257.873 217.178 257.873H218.539C219.263 257.873 219.957 257.586 220.469 257.076L239.285 238.289C239.67 237.908 239.933 237.421 240.04 236.89C240.147 236.36 240.094 235.809 239.887 235.309C239.68 234.808 239.329 234.381 238.878 234.081C238.427 233.781 237.897 233.622 237.356 233.624H236.474C235.761 233.625 235.076 233.903 234.565 234.4L219.163 249.459C218.65 249.955 217.963 250.23 217.249 250.225C216.536 250.221 215.853 249.936 215.346 249.434L209.782 243.87C209.525 243.613 209.219 243.411 208.883 243.274C208.547 243.137 208.186 243.068 207.823 243.073C207.286 243.074 206.76 243.234 206.314 243.532C205.867 243.831 205.518 244.255 205.311 244.751C205.105 245.247 205.049 245.793 205.152 246.321C205.255 246.848 205.511 247.334 205.889 247.716Z" fill="white"/>
    <path d="M54.3626 219.892C53.5526 219.998 52.7554 220.096 51.9623 220.193C51.5271 220.249 51.0873 220.13 50.7397 219.862C50.3922 219.594 50.1653 219.199 50.1091 218.764C50.0529 218.329 50.1718 217.889 50.4399 217.541C50.7079 217.194 51.103 216.967 51.5383 216.911C52.9632 216.737 54.4135 216.555 55.8893 216.355C56.3153 216.316 56.7398 216.444 57.0736 216.712C57.4074 216.979 57.6246 217.366 57.6795 217.79C57.7343 218.214 57.6227 218.643 57.368 218.987C57.1132 219.331 56.7352 219.562 56.3133 219.633L54.3626 219.892ZM60.7237 219.044C60.2977 219.083 59.8732 218.955 59.5394 218.687C59.2056 218.42 58.9884 218.033 58.9335 217.609C58.8786 217.185 58.9903 216.756 59.245 216.412C59.4998 216.068 59.8778 215.837 60.2997 215.766C61.7288 215.562 63.1749 215.342 64.6464 215.117C65.0692 215.072 65.4932 215.191 65.8303 215.45C66.1673 215.71 66.3916 216.089 66.4566 216.509C66.5215 216.929 66.4221 217.358 66.179 217.707C65.9359 218.056 65.5678 218.298 65.1511 218.382C63.6725 218.611 62.2122 218.83 60.7704 219.04L60.7237 219.044ZM47.6028 220.689H47.5646C46.0676 220.85 44.5961 220.995 43.1543 221.113C42.9327 221.144 42.7072 221.129 42.4915 221.07C42.2757 221.011 42.0743 220.908 41.8992 220.769C41.7242 220.63 41.5792 220.456 41.4731 220.26C41.3669 220.063 41.3019 219.846 41.2818 219.623C41.2617 219.401 41.287 219.176 41.3562 218.963C41.4253 218.751 41.5369 218.554 41.6842 218.386C41.8315 218.217 42.0114 218.081 42.2131 217.984C42.4147 217.887 42.6339 217.832 42.8574 217.823C44.2696 217.695 45.7369 217.551 47.2169 217.398C47.6425 217.366 48.064 217.5 48.3934 217.771C48.7228 218.042 48.9346 218.431 48.9844 218.855C49.0343 219.278 48.9183 219.705 48.6608 220.045C48.4033 220.386 48.0243 220.613 47.6028 220.681V220.689ZM69.4342 217.678C69.0114 217.719 68.5891 217.595 68.2548 217.333C67.9206 217.071 67.7001 216.69 67.639 216.27C67.5779 215.849 67.681 215.422 67.9268 215.075C68.1726 214.729 68.5423 214.49 68.9593 214.409C70.387 214.174 71.8331 213.932 73.2976 213.684C73.5158 213.636 73.7413 213.633 73.9605 213.676C74.1797 213.718 74.3882 213.804 74.5733 213.929C74.7584 214.054 74.9163 214.215 75.0374 214.402C75.1586 214.59 75.2406 214.8 75.2784 215.02C75.3162 215.24 75.3091 215.465 75.2575 215.682C75.2058 215.899 75.1108 216.104 74.978 216.283C74.8452 216.463 74.6775 216.614 74.4849 216.727C74.2923 216.839 74.0788 216.912 73.8574 216.94C72.3858 217.191 70.9312 217.437 69.4936 217.67L69.4342 217.678ZM38.8244 221.495H38.7269C37.2087 221.601 35.7117 221.69 34.291 221.754C34.0744 221.764 33.8579 221.731 33.654 221.657C33.45 221.584 33.2625 221.471 33.1022 221.325C32.9419 221.178 32.812 221.002 32.7198 220.806C32.6277 220.61 32.5751 220.397 32.5651 220.18C32.555 219.964 32.5878 219.747 32.6614 219.543C32.7351 219.339 32.8482 219.152 32.9943 218.992C33.1404 218.831 33.3166 218.701 33.5129 218.609C33.7092 218.517 33.9218 218.464 34.1384 218.454C35.5336 218.391 37.0009 218.302 38.4979 218.2C38.9204 218.181 39.3339 218.325 39.6535 218.602C39.9731 218.879 40.1745 219.268 40.2163 219.689C40.2581 220.11 40.1371 220.53 39.8783 220.865C39.6194 221.199 39.2423 221.422 38.8244 221.487V221.495ZM78.1363 216.19C77.7152 216.23 77.2946 216.108 76.9609 215.848C76.6272 215.588 76.4058 215.21 76.3423 214.792C76.2787 214.374 76.3779 213.947 76.6193 213.6C76.8607 213.252 77.226 213.011 77.6401 212.924C79.0707 212.67 80.5126 212.407 81.9657 212.136C82.3864 212.079 82.8128 212.186 83.1567 212.435C83.5005 212.684 83.7354 213.056 83.8128 213.473C83.8902 213.891 83.8041 214.322 83.5723 214.678C83.3406 215.033 82.981 215.286 82.5679 215.384C81.1063 215.667 79.6573 215.931 78.2211 216.177L78.1363 216.19ZM30.0164 221.868H29.834C28.2861 221.894 26.7807 221.868 25.3643 221.868C25.1408 221.874 24.9185 221.834 24.7109 221.751C24.5033 221.668 24.3147 221.543 24.1565 221.385C23.9982 221.228 23.8736 221.039 23.7902 220.832C23.7068 220.624 23.6664 220.402 23.6713 220.179C23.6761 219.955 23.7263 219.735 23.8186 219.531C23.911 219.328 24.0437 219.145 24.2087 218.994C24.3736 218.843 24.5675 218.728 24.7785 218.654C24.9895 218.58 25.2133 218.55 25.4363 218.565C26.8103 218.594 28.2734 218.594 29.7789 218.565C30.1971 218.564 30.6 218.723 30.9063 219.007C31.2126 219.292 31.3996 219.682 31.4297 220.1C31.4598 220.517 31.3308 220.93 31.0685 221.256C30.8063 221.581 30.4303 221.796 30.0164 221.856V221.868ZM86.7959 214.583C86.3763 214.624 85.9569 214.503 85.6233 214.245C85.2897 213.988 85.0671 213.612 85.001 213.196C84.935 212.779 85.0304 212.353 85.2678 212.005C85.5053 211.657 85.8669 211.412 86.2786 211.321C87.7091 211.039 89.1482 210.756 90.5957 210.473C91.021 210.4 91.458 210.496 91.8134 210.741C92.1689 210.986 92.4146 211.36 92.4982 211.783C92.5818 212.206 92.4965 212.646 92.2607 213.007C92.0249 213.368 91.6572 213.623 91.236 213.717C89.7829 214 88.3382 214.283 86.902 214.566L86.7959 214.583ZM95.4513 212.886C95.2375 212.922 95.0188 212.915 94.8076 212.865C94.5965 212.816 94.3972 212.726 94.221 212.6C94.0447 212.474 93.8951 212.314 93.7806 212.13C93.6661 211.946 93.589 211.741 93.5536 211.527C93.5182 211.313 93.5253 211.095 93.5745 210.883C93.6237 210.672 93.7139 210.473 93.8401 210.297C93.9664 210.121 94.126 209.971 94.3101 209.856C94.4941 209.742 94.6989 209.665 94.9128 209.629L99.2256 208.743C99.4422 208.688 99.6678 208.677 99.8887 208.711C100.11 208.746 100.321 208.824 100.511 208.943C100.7 209.061 100.864 209.217 100.992 209.4C101.12 209.584 101.209 209.791 101.254 210.01C101.299 210.229 101.3 210.455 101.256 210.674C101.211 210.893 101.123 211.101 100.996 211.285C100.869 211.469 100.706 211.625 100.517 211.745C100.328 211.864 100.116 211.943 99.8957 211.979L95.5701 212.869L95.4513 212.886ZM104.086 211.092C103.657 211.16 103.219 211.055 102.867 210.802C102.514 210.548 102.276 210.166 102.204 209.738C102.131 209.31 102.23 208.871 102.479 208.516C102.728 208.161 103.107 207.918 103.534 207.84L107.822 206.894C108.245 206.815 108.682 206.905 109.04 207.143C109.398 207.381 109.649 207.75 109.74 208.17C109.831 208.591 109.755 209.03 109.527 209.395C109.3 209.76 108.939 210.022 108.521 210.126L104.204 211.05L104.086 211.092ZM21.2126 221.656C21.1011 221.667 20.9889 221.667 20.8775 221.656C19.2787 221.542 17.7648 221.372 16.3738 221.164C15.9408 221.099 15.5514 220.864 15.2914 220.512C15.0313 220.16 14.9219 219.719 14.9871 219.286C15.0524 218.853 15.2869 218.463 15.6392 218.203C15.9915 217.943 16.4328 217.834 16.8658 217.899C18.1719 218.094 19.6053 218.251 21.1065 218.361C21.5125 218.394 21.8919 218.576 22.1722 218.871C22.4525 219.167 22.6139 219.555 22.6254 219.963C22.637 220.37 22.4979 220.767 22.2348 221.078C21.9718 221.389 21.6032 221.592 21.1998 221.648L21.2126 221.656ZM112.703 209.214C112.285 209.259 111.865 209.144 111.529 208.891C111.193 208.638 110.966 208.267 110.894 207.852C110.822 207.438 110.911 207.012 111.142 206.66C111.373 206.309 111.73 206.059 112.139 205.961C113.552 205.647 114.986 205.328 116.439 205.003C116.865 204.91 117.311 204.99 117.679 205.225C118.047 205.46 118.307 205.831 118.402 206.257C118.498 206.682 118.422 207.129 118.19 207.498C117.958 207.868 117.589 208.131 117.164 208.23L112.851 209.188C112.805 209.201 112.754 209.205 112.703 209.214ZM121.307 207.28C120.878 207.353 120.437 207.253 120.081 207.003C119.725 206.752 119.483 206.371 119.406 205.942C119.33 205.513 119.427 205.072 119.675 204.714C119.923 204.356 120.302 204.111 120.731 204.032C122.144 203.706 123.575 203.377 125.022 203.043C125.238 202.983 125.463 202.966 125.685 202.995C125.907 203.024 126.12 203.098 126.313 203.212C126.505 203.326 126.673 203.477 126.805 203.658C126.937 203.838 127.032 204.044 127.082 204.262C127.133 204.48 127.139 204.706 127.099 204.926C127.06 205.146 126.976 205.356 126.854 205.543C126.731 205.73 126.571 205.89 126.385 206.014C126.198 206.137 125.989 206.222 125.769 206.262L121.468 207.255C121.415 207.267 121.362 207.276 121.307 207.28ZM129.899 205.291C129.482 205.338 129.062 205.225 128.725 204.974C128.388 204.724 128.16 204.354 128.085 203.941C128.011 203.528 128.096 203.102 128.324 202.749C128.553 202.396 128.906 202.144 129.314 202.043L133.597 201.029C133.812 200.968 134.036 200.951 134.258 200.98C134.479 201.008 134.692 201.08 134.884 201.193C135.077 201.306 135.245 201.456 135.377 201.636C135.51 201.815 135.605 202.019 135.657 202.236C135.709 202.453 135.716 202.678 135.679 202.898C135.641 203.118 135.56 203.328 135.439 203.516C135.318 203.703 135.161 203.864 134.976 203.989C134.792 204.114 134.584 204.201 134.365 204.244L130.069 205.261L129.899 205.291ZM12.519 220.291C12.3021 220.321 12.0813 220.306 11.8701 220.248C10.3332 219.845 8.84453 219.276 7.43007 218.552C7.05503 218.34 6.77749 217.99 6.65654 217.576C6.53559 217.163 6.58077 216.719 6.78244 216.338C6.98412 215.957 7.32637 215.67 7.73641 215.538C8.14644 215.406 8.59187 215.439 8.97794 215.63C10.1764 216.247 11.4393 216.731 12.7437 217.072C13.114 217.171 13.4383 217.395 13.661 217.707C13.8838 218.019 13.9911 218.398 13.9645 218.78C13.9379 219.163 13.7791 219.524 13.5154 219.802C13.2516 220.079 12.8993 220.257 12.519 220.303V220.291ZM138.47 203.247C138.055 203.292 137.638 203.179 137.303 202.929C136.968 202.68 136.74 202.313 136.664 201.903C136.588 201.492 136.671 201.068 136.895 200.716C137.119 200.363 137.468 200.109 137.872 200.003L142.172 198.964C142.387 198.9 142.612 198.881 142.835 198.907C143.057 198.933 143.272 199.004 143.467 199.116C143.661 199.228 143.83 199.378 143.965 199.557C144.099 199.736 144.196 199.941 144.249 200.159C144.302 200.377 144.31 200.603 144.273 200.824C144.235 201.045 144.154 201.256 144.032 201.445C143.911 201.633 143.753 201.795 143.567 201.92C143.382 202.046 143.172 202.132 142.952 202.174L138.665 203.213C138.603 203.229 138.541 203.24 138.478 203.247H138.47ZM147.036 201.156C146.619 201.206 146.2 201.095 145.862 200.846C145.524 200.598 145.293 200.23 145.216 199.818C145.139 199.405 145.221 198.979 145.447 198.625C145.672 198.272 146.023 198.017 146.43 197.912L150.708 196.852C150.923 196.787 151.149 196.766 151.371 196.791C151.594 196.816 151.809 196.886 152.004 196.997C152.199 197.108 152.37 197.257 152.505 197.435C152.641 197.614 152.738 197.818 152.792 198.036C152.846 198.253 152.856 198.48 152.82 198.701C152.784 198.922 152.703 199.134 152.583 199.323C152.462 199.512 152.305 199.675 152.12 199.801C151.935 199.927 151.726 200.015 151.506 200.058L147.223 201.122L147.036 201.156ZM155.59 199.036C155.172 199.087 154.751 198.978 154.411 198.73C154.072 198.482 153.84 198.114 153.762 197.7C153.684 197.287 153.767 196.86 153.993 196.505C154.219 196.151 154.571 195.896 154.979 195.792L159.249 194.715C159.464 194.649 159.689 194.627 159.912 194.651C160.135 194.674 160.35 194.743 160.546 194.853C160.741 194.963 160.912 195.111 161.049 195.289C161.185 195.467 161.284 195.67 161.339 195.888C161.394 196.105 161.405 196.331 161.37 196.552C161.335 196.774 161.256 196.986 161.137 197.176C161.017 197.365 160.861 197.529 160.676 197.656C160.492 197.783 160.283 197.872 160.064 197.916L155.789 198.998C155.726 199.01 155.662 199.018 155.598 199.023L155.59 199.036ZM164.139 196.86C163.724 196.908 163.307 196.797 162.971 196.55C162.635 196.303 162.404 195.938 162.326 195.528C162.248 195.118 162.327 194.694 162.549 194.34C162.77 193.986 163.117 193.729 163.52 193.62L167.786 192.522C168.211 192.41 168.662 192.47 169.042 192.691C169.422 192.912 169.699 193.274 169.811 193.699C169.923 194.124 169.863 194.575 169.642 194.955C169.421 195.335 169.059 195.611 168.634 195.724L164.359 196.822L164.139 196.86ZM172.659 194.655C172.24 194.714 171.814 194.61 171.469 194.364C171.125 194.118 170.888 193.75 170.808 193.334C170.728 192.918 170.811 192.488 171.039 192.131C171.267 191.775 171.624 191.52 172.035 191.42L176.276 190.304C176.486 190.249 176.704 190.235 176.919 190.263C177.134 190.292 177.342 190.363 177.529 190.472C177.717 190.581 177.881 190.726 178.013 190.898C178.145 191.07 178.241 191.267 178.297 191.477C178.352 191.686 178.366 191.905 178.337 192.12C178.309 192.335 178.238 192.542 178.129 192.73C178.02 192.918 177.875 193.082 177.703 193.214C177.531 193.345 177.334 193.442 177.124 193.497L172.879 194.596C172.81 194.617 172.739 194.633 172.667 194.643L172.659 194.655ZM5.05099 215.952C4.75667 215.989 4.45795 215.946 4.18578 215.828C3.9136 215.71 3.6779 215.522 3.50312 215.282C3.40559 215.147 3.31228 215.011 3.22746 214.858C2.4446 213.653 1.77996 212.375 1.24279 211.042C1.15279 210.838 1.10488 210.618 1.10196 210.395C1.09903 210.172 1.14114 209.951 1.22576 209.745C1.31037 209.539 1.43575 209.352 1.59437 209.196C1.75298 209.039 1.94158 208.917 2.14882 208.835C2.35605 208.753 2.57766 208.714 2.80036 208.72C3.02306 208.726 3.24223 208.777 3.44476 208.87C3.64728 208.963 3.82897 209.095 3.97891 209.26C4.12886 209.425 4.24397 209.618 4.31734 209.829C4.77783 210.97 5.34582 212.065 6.01365 213.098C6.06878 213.183 6.12392 213.264 6.18329 213.344C6.31084 213.52 6.4025 213.719 6.45299 213.93C6.50349 214.141 6.51183 214.36 6.47756 214.574C6.44328 214.789 6.36706 214.994 6.25325 215.179C6.13944 215.364 5.9903 215.524 5.81434 215.651C5.58996 215.815 5.32706 215.919 5.05099 215.952ZM181.187 192.403C180.77 192.457 180.348 192.35 180.007 192.104C179.667 191.859 179.432 191.492 179.352 191.08C179.271 190.667 179.351 190.24 179.574 189.884C179.798 189.528 180.148 189.27 180.555 189.163L184.796 188.031C185.211 187.942 185.645 188.016 186.007 188.238C186.37 188.46 186.633 188.813 186.742 189.224C186.851 189.634 186.798 190.071 186.593 190.444C186.389 190.816 186.049 191.096 185.644 191.224L181.378 192.361L181.187 192.403ZM189.719 190.122C189.306 190.17 188.889 190.06 188.553 189.815C188.217 189.57 187.986 189.206 187.905 188.798C187.825 188.39 187.902 187.966 188.12 187.612C188.338 187.257 188.682 186.998 189.083 186.886L193.349 185.737C193.761 185.657 194.187 185.737 194.542 185.959C194.897 186.182 195.154 186.531 195.261 186.936C195.369 187.34 195.319 187.771 195.122 188.14C194.924 188.51 194.594 188.791 194.198 188.926L189.923 190.079C189.856 190.099 189.788 190.113 189.719 190.122ZM198.243 187.815C197.829 187.865 197.411 187.757 197.074 187.512C196.736 187.267 196.503 186.903 196.422 186.494C196.341 186.085 196.418 185.66 196.637 185.305C196.856 184.95 197.201 184.691 197.603 184.579L201.844 183.417C202.055 183.353 202.277 183.332 202.497 183.355C202.717 183.378 202.93 183.445 203.123 183.552C203.317 183.658 203.487 183.803 203.624 183.977C203.76 184.15 203.861 184.35 203.919 184.563C203.978 184.776 203.993 184.999 203.964 185.218C203.935 185.437 203.862 185.648 203.75 185.838C203.638 186.029 203.489 186.195 203.311 186.327C203.134 186.459 202.932 186.554 202.717 186.606L198.476 187.768C198.4 187.789 198.322 187.803 198.243 187.811V187.815ZM206.75 185.482C206.338 185.529 205.924 185.42 205.589 185.176C205.254 184.932 205.023 184.571 204.941 184.165C204.86 183.758 204.934 183.336 205.148 182.982C205.363 182.627 205.703 182.367 206.101 182.251L210.342 181.076C210.551 181.018 210.769 181.002 210.984 181.028C211.2 181.054 211.408 181.122 211.596 181.229C211.785 181.335 211.951 181.478 212.085 181.649C212.219 181.819 212.317 182.015 212.376 182.223C212.434 182.432 212.45 182.651 212.424 182.866C212.398 183.081 212.33 183.289 212.223 183.478C212.117 183.667 211.974 183.833 211.803 183.966C211.633 184.1 211.437 184.199 211.228 184.257L206.988 185.436C206.909 185.456 206.83 185.471 206.75 185.482ZM215.232 183.125C214.819 183.173 214.404 183.065 214.067 182.822C213.731 182.578 213.498 182.217 213.416 181.81C213.334 181.403 213.408 180.98 213.623 180.624C213.839 180.269 214.18 180.008 214.579 179.893L218.819 178.706C219.028 178.647 219.247 178.63 219.462 178.656C219.677 178.682 219.885 178.75 220.074 178.857C220.263 178.963 220.43 179.105 220.564 179.276C220.697 179.447 220.796 179.642 220.855 179.851C220.913 180.06 220.93 180.278 220.904 180.493C220.878 180.709 220.81 180.917 220.704 181.106C220.598 181.295 220.455 181.461 220.285 181.595C220.114 181.729 219.919 181.828 219.71 181.886L215.469 183.074C215.395 183.101 215.32 183.126 215.244 183.146L215.232 183.125ZM223.713 180.741C223.3 180.792 222.883 180.685 222.545 180.442C222.207 180.199 221.974 179.837 221.891 179.429C221.808 179.022 221.882 178.597 222.098 178.242C222.314 177.886 222.656 177.624 223.056 177.51L227.297 176.31C227.714 176.204 228.155 176.266 228.528 176.481C228.901 176.696 229.175 177.048 229.292 177.461C229.41 177.875 229.361 178.319 229.158 178.697C228.954 179.076 228.61 179.361 228.2 179.49L223.959 180.69L223.713 180.741ZM232.195 178.333C231.785 178.379 231.372 178.27 231.038 178.027C230.704 177.784 230.473 177.426 230.39 177.021C230.307 176.617 230.378 176.196 230.59 175.841C230.801 175.487 231.138 175.224 231.533 175.105L235.774 173.892C236.195 173.772 236.647 173.824 237.03 174.037C237.413 174.249 237.696 174.606 237.816 175.027C237.936 175.448 237.884 175.9 237.672 176.283C237.459 176.666 237.103 176.948 236.681 177.069L232.441 178.282C232.368 178.306 232.292 178.323 232.216 178.333H232.195ZM1.92133 207.802H1.8577C1.64156 207.821 1.42364 207.798 1.21641 207.734C1.00919 207.669 0.81675 207.564 0.650107 207.425C0.483464 207.286 0.345886 207.116 0.245288 206.923C0.144691 206.731 0.0830503 206.521 0.0638705 206.305C-0.0849532 204.682 0.026703 203.045 0.394637 201.457C0.49305 201.031 0.757006 200.66 1.12841 200.428C1.49981 200.196 1.94823 200.121 2.37507 200.219C2.8019 200.318 3.17215 200.581 3.40438 200.953C3.6366 201.324 3.7118 201.773 3.61339 202.2C3.32336 203.45 3.23599 204.738 3.35468 206.016C3.39389 206.437 3.27016 206.857 3.00898 207.189C2.7478 207.521 2.36911 207.74 1.95099 207.802H1.92133ZM240.676 175.903C240.265 175.95 239.851 175.843 239.516 175.6C239.181 175.358 238.948 174.999 238.865 174.594C238.781 174.189 238.853 173.767 239.065 173.412C239.277 173.057 239.614 172.794 240.01 172.675L244.251 171.454C244.672 171.333 245.124 171.383 245.507 171.595C245.89 171.806 246.174 172.161 246.295 172.582C246.417 173.003 246.366 173.454 246.155 173.838C245.943 174.221 245.588 174.505 245.167 174.626L240.926 175.852C240.85 175.874 240.772 175.891 240.693 175.903H240.676ZM249.158 173.451C248.746 173.501 248.331 173.395 247.994 173.153C247.658 172.911 247.424 172.552 247.34 172.146C247.256 171.74 247.327 171.317 247.539 170.961C247.752 170.605 248.09 170.342 248.488 170.224L252.729 168.994C253.142 168.895 253.577 168.958 253.945 169.172C254.313 169.385 254.584 169.732 254.703 170.14C254.822 170.548 254.779 170.986 254.584 171.363C254.388 171.741 254.055 172.028 253.653 172.166L249.412 173.401C249.332 173.424 249.249 173.441 249.166 173.451H249.158ZM257.639 170.979C257.224 171.039 256.802 170.938 256.458 170.698C256.114 170.457 255.875 170.095 255.789 169.684C255.703 169.273 255.777 168.846 255.996 168.487C256.214 168.129 256.561 167.868 256.965 167.756L261.206 166.514C261.618 166.414 262.053 166.476 262.42 166.688C262.788 166.9 263.06 167.245 263.18 167.652C263.301 168.059 263.26 168.496 263.067 168.874C262.874 169.252 262.543 169.541 262.143 169.681L257.902 170.928C257.814 170.954 257.723 170.971 257.631 170.979H257.639ZM266.121 168.49C265.711 168.537 265.299 168.43 264.965 168.189C264.63 167.948 264.398 167.591 264.313 167.187C264.228 166.784 264.297 166.364 264.506 166.008C264.715 165.653 265.049 165.389 265.442 165.267L269.683 163.995C269.895 163.92 270.119 163.89 270.343 163.905C270.566 163.92 270.785 163.98 270.984 164.082C271.184 164.184 271.361 164.326 271.504 164.498C271.647 164.671 271.754 164.871 271.818 165.086C271.881 165.301 271.901 165.526 271.874 165.749C271.848 165.972 271.777 166.187 271.665 166.381C271.553 166.575 271.402 166.745 271.223 166.879C271.043 167.013 270.838 167.11 270.62 167.162C269.221 167.584 267.807 168.008 266.38 168.435C266.285 168.46 266.189 168.479 266.091 168.49H266.121ZM274.573 165.979C274.163 166.026 273.751 165.919 273.416 165.678C273.082 165.437 272.85 165.08 272.765 164.677C272.68 164.274 272.748 163.853 272.957 163.498C273.166 163.143 273.5 162.878 273.894 162.756L278.135 161.484C278.345 161.414 278.568 161.386 278.789 161.403C279.01 161.421 279.225 161.482 279.422 161.584C279.619 161.687 279.793 161.827 279.935 161.998C280.076 162.169 280.181 162.367 280.245 162.579C280.308 162.792 280.328 163.015 280.304 163.235C280.279 163.456 280.211 163.669 280.102 163.862C279.993 164.056 279.847 164.225 279.672 164.361C279.496 164.496 279.295 164.595 279.081 164.652L274.84 165.924C274.742 165.95 274.643 165.968 274.543 165.979H274.573ZM3.84238 199.418C3.54072 199.455 3.23454 199.409 2.95747 199.284C2.6804 199.159 2.44316 198.96 2.27182 198.709C2.10047 198.458 2.00164 198.164 1.98619 197.86C1.97074 197.557 2.03928 197.255 2.18425 196.988C2.94693 195.612 3.84323 194.315 4.86017 193.116C5.14135 192.778 5.54504 192.567 5.98246 192.527C6.41987 192.487 6.85518 192.623 7.19259 192.904C7.53001 193.185 7.74188 193.589 7.78165 194.026C7.82141 194.464 7.68581 194.899 7.40463 195.236C6.52894 196.268 5.75627 197.383 5.09765 198.565C4.96939 198.801 4.78519 199.003 4.56119 199.151C4.33719 199.3 4.0802 199.391 3.81269 199.418H3.84238ZM283.025 163.452C282.614 163.503 282.199 163.398 281.862 163.158C281.525 162.918 281.29 162.56 281.203 162.155C281.117 161.75 281.186 161.328 281.396 160.971C281.606 160.615 281.942 160.35 282.338 160.229L286.578 158.956C286.991 158.852 287.428 158.911 287.798 159.121C288.169 159.331 288.444 159.675 288.567 160.082C288.69 160.49 288.651 160.929 288.458 161.309C288.265 161.688 287.934 161.979 287.532 162.12L283.292 163.392C283.194 163.42 283.095 163.439 282.995 163.452H283.025ZM291.468 160.907C291.057 160.958 290.642 160.853 290.305 160.613C289.968 160.373 289.733 160.015 289.647 159.611C289.561 159.206 289.629 158.784 289.839 158.427C290.049 158.07 290.385 157.805 290.781 157.684L295.022 156.412C295.229 156.349 295.447 156.328 295.663 156.349C295.878 156.37 296.088 156.434 296.279 156.536C296.47 156.638 296.639 156.777 296.777 156.944C296.914 157.112 297.018 157.305 297.081 157.512C297.143 157.72 297.165 157.938 297.144 158.154C297.122 158.369 297.059 158.579 296.957 158.77C296.855 158.961 296.716 159.13 296.548 159.268C296.38 159.405 296.188 159.508 295.98 159.571L291.739 160.844C291.644 160.872 291.546 160.892 291.447 160.903L291.468 160.907ZM299.907 158.363C299.499 158.41 299.088 158.303 298.754 158.063C298.42 157.824 298.188 157.469 298.102 157.067C298.015 156.665 298.082 156.246 298.288 155.89C298.494 155.535 298.824 155.269 299.216 155.144L303.431 153.872C303.642 153.796 303.866 153.764 304.089 153.777C304.312 153.791 304.531 153.849 304.731 153.95C304.931 154.05 305.109 154.19 305.253 154.361C305.398 154.532 305.506 154.73 305.572 154.944C305.637 155.158 305.659 155.384 305.634 155.606C305.61 155.829 305.541 156.044 305.432 156.239C305.322 156.434 305.174 156.605 304.996 156.741C304.818 156.877 304.615 156.976 304.398 157.031L300.157 158.303C300.065 158.323 299.971 158.335 299.877 158.337L299.907 158.363ZM308.342 155.78C307.933 155.829 307.521 155.723 307.186 155.484C306.851 155.245 306.617 154.889 306.53 154.487C306.443 154.085 306.509 153.664 306.716 153.308C306.922 152.952 307.254 152.686 307.646 152.561L311.862 151.264C312.072 151.19 312.295 151.159 312.517 151.174C312.739 151.188 312.956 151.248 313.155 151.348C313.353 151.448 313.53 151.588 313.673 151.758C313.817 151.928 313.925 152.126 313.99 152.338C314.056 152.551 314.077 152.775 314.054 152.997C314.031 153.218 313.963 153.432 313.855 153.627C313.747 153.822 313.601 153.993 313.425 154.129C313.25 154.266 313.048 154.366 312.833 154.423L308.618 155.721C308.517 155.741 308.415 155.753 308.312 155.755L308.342 155.78ZM9.40626 192.675C9.05605 192.722 8.69983 192.656 8.39007 192.486C8.08031 192.316 7.83339 192.051 7.68567 191.73C7.53796 191.409 7.49727 191.049 7.56959 190.703C7.64191 190.357 7.82342 190.043 8.08739 189.808C9.15606 188.845 10.352 187.878 11.6369 186.929C11.9908 186.685 12.4258 186.588 12.8497 186.659C13.2736 186.73 13.6532 186.964 13.9079 187.31C14.1626 187.656 14.2725 188.088 14.2143 188.514C14.1561 188.94 13.9344 189.327 13.5961 189.592C12.396 190.474 11.2892 191.373 10.3011 192.263C10.0423 192.491 9.71916 192.632 9.37657 192.666L9.40626 192.675ZM316.768 153.164C316.36 153.212 315.947 153.107 315.612 152.867C315.277 152.628 315.044 152.273 314.957 151.871C314.87 151.468 314.936 151.048 315.142 150.692C315.349 150.336 315.68 150.069 316.073 149.945L320.284 148.639C320.696 148.529 321.135 148.582 321.509 148.788C321.883 148.994 322.162 149.337 322.289 149.744C322.417 150.152 322.381 150.593 322.191 150.974C322 151.356 321.67 151.65 321.268 151.794L317.052 153.104C316.949 153.129 316.844 153.146 316.739 153.155L316.768 153.164ZM325.195 150.547C324.785 150.597 324.372 150.493 324.036 150.254C323.699 150.016 323.464 149.66 323.377 149.257C323.289 148.854 323.355 148.433 323.562 148.076C323.769 147.719 324.102 147.452 324.495 147.328L328.706 146.014C329.12 145.898 329.563 145.948 329.941 146.153C330.318 146.358 330.601 146.702 330.73 147.112C330.858 147.522 330.822 147.966 330.629 148.35C330.435 148.734 330.1 149.028 329.694 149.169L325.479 150.483C325.376 150.512 325.271 150.531 325.165 150.539L325.195 150.547ZM333.617 147.914C333.207 147.966 332.792 147.863 332.454 147.624C332.117 147.386 331.88 147.03 331.792 146.626C331.704 146.222 331.77 145.8 331.977 145.443C332.185 145.085 332.519 144.818 332.913 144.695L337.124 143.372C337.542 143.24 337.995 143.28 338.383 143.482C338.772 143.685 339.064 144.033 339.196 144.451C339.327 144.869 339.287 145.322 339.085 145.71C338.883 146.099 338.534 146.391 338.116 146.523L333.905 147.85C333.801 147.878 333.695 147.896 333.587 147.905L333.617 147.914ZM16.4459 187.416C16.0739 187.459 15.6984 187.374 15.3808 187.176C15.0633 186.977 14.8225 186.677 14.6979 186.323C14.5733 185.97 14.5722 185.585 14.6948 185.231C14.8175 184.878 15.0566 184.576 15.373 184.376C16.5901 183.612 17.8963 182.845 19.2575 182.09C19.6392 181.9 20.0793 181.865 20.4862 181.992C20.8931 182.119 21.2353 182.398 21.4415 182.771C21.6477 183.144 21.702 183.582 21.5929 183.994C21.4839 184.406 21.22 184.76 20.8563 184.982C19.5459 185.703 18.3119 186.441 17.1329 187.175C16.9241 187.304 16.6897 187.386 16.4459 187.416ZM342.005 145.25C341.598 145.297 341.188 145.191 340.855 144.953C340.522 144.714 340.289 144.361 340.202 143.961C340.114 143.561 340.178 143.143 340.381 142.787C340.584 142.431 340.912 142.164 341.301 142.036L345.508 140.704C345.715 140.639 345.932 140.614 346.148 140.633C346.364 140.651 346.574 140.712 346.767 140.811C346.96 140.911 347.131 141.047 347.27 141.213C347.41 141.379 347.516 141.571 347.582 141.777C347.647 141.984 347.672 142.201 347.653 142.417C347.635 142.633 347.574 142.844 347.475 143.036C347.375 143.229 347.238 143.4 347.073 143.54C346.907 143.679 346.715 143.785 346.509 143.851L342.298 145.187C342.202 145.216 342.104 145.237 342.005 145.25ZM350.423 142.579C350.015 142.627 349.605 142.522 349.27 142.284C348.936 142.046 348.702 141.693 348.613 141.292C348.525 140.891 348.589 140.472 348.793 140.116C348.996 139.76 349.325 139.492 349.715 139.364L353.917 138.02C354.328 137.908 354.767 137.959 355.141 138.162C355.516 138.365 355.797 138.705 355.927 139.11C356.057 139.516 356.026 139.956 355.84 140.339C355.653 140.722 355.326 141.019 354.927 141.166C353.595 141.593 352.191 142.041 350.716 142.511C350.621 142.543 350.523 142.566 350.423 142.579ZM24.1599 183.146C23.7727 183.194 23.3811 183.103 23.0542 182.89C22.7274 182.677 22.4863 182.355 22.3737 181.982C22.261 181.609 22.284 181.207 22.4386 180.849C22.5932 180.491 22.8694 180.199 23.2184 180.025C24.4907 179.388 25.8689 178.752 27.2641 178.116C27.4631 178.02 27.6794 177.964 27.9002 177.953C28.121 177.942 28.3419 177.975 28.5497 178.05C28.7575 178.126 28.948 178.242 29.1101 178.393C29.2721 178.543 29.4024 178.724 29.4931 178.926C29.5839 179.128 29.6333 179.345 29.6384 179.566C29.6435 179.787 29.6043 180.007 29.523 180.213C29.4417 180.419 29.32 180.606 29.1651 180.764C29.0102 180.921 28.8252 181.046 28.6212 181.131C27.2599 181.742 25.9368 182.366 24.6857 182.989C24.5201 183.069 24.3425 183.122 24.1599 183.146ZM358.841 139.89C358.43 139.949 358.012 139.85 357.67 139.614C357.328 139.378 357.088 139.022 356.998 138.616C356.907 138.211 356.973 137.787 357.182 137.428C357.391 137.069 357.727 136.802 358.124 136.68L362.335 135.323C362.748 135.205 363.19 135.253 363.568 135.455C363.946 135.657 364.231 135.998 364.362 136.406C364.494 136.815 364.462 137.258 364.273 137.643C364.083 138.028 363.752 138.324 363.349 138.469L359.138 139.826C359.041 139.856 358.941 139.877 358.841 139.89ZM367.267 137.167C366.861 137.216 366.451 137.111 366.117 136.875C365.783 136.638 365.549 136.287 365.459 135.887C365.37 135.488 365.431 135.07 365.632 134.713C365.833 134.357 366.158 134.087 366.546 133.957C369.146 133.109 370.533 132.655 370.533 132.655C370.943 132.541 371.381 132.588 371.756 132.788C372.132 132.989 372.416 133.326 372.549 133.73C372.682 134.134 372.655 134.574 372.472 134.959C372.289 135.343 371.965 135.642 371.567 135.793L367.568 137.1C367.47 137.13 367.369 137.15 367.267 137.159V137.167ZM32.2088 179.503C31.8111 179.555 31.4078 179.461 31.0743 179.238C30.7408 179.015 30.4997 178.678 30.3959 178.291C30.2922 177.903 30.3328 177.491 30.5103 177.131C30.6878 176.772 30.99 176.489 31.3607 176.335C32.6923 175.788 34.0875 175.233 35.5039 174.69C35.7088 174.601 35.9295 174.555 36.1527 174.554C36.3759 174.553 36.597 174.597 36.8026 174.684C37.0083 174.771 37.1943 174.898 37.3494 175.059C37.5045 175.219 37.6255 175.409 37.7051 175.618C37.7847 175.826 37.8213 176.049 37.8127 176.272C37.8041 176.495 37.7504 176.714 37.6549 176.916C37.5593 177.117 37.424 177.298 37.2569 177.446C37.0899 177.594 36.8946 177.706 36.6828 177.777C35.2961 178.307 33.9263 178.85 32.6202 179.393C32.4884 179.447 32.3501 179.484 32.2088 179.503ZM40.4529 176.361C40.0491 176.411 39.641 176.31 39.3067 176.078C38.9725 175.846 38.7354 175.499 38.6409 175.103C38.5465 174.707 38.6012 174.291 38.7946 173.933C38.9881 173.575 39.3067 173.301 39.6896 173.163C41.0551 172.68 42.4673 172.192 43.8964 171.713C44.3057 171.596 44.7442 171.642 45.1205 171.841C45.4969 172.04 45.7821 172.376 45.917 172.779C46.0519 173.183 46.0261 173.623 45.8448 174.008C45.6636 174.393 45.3409 174.693 44.9438 174.847C43.5359 175.317 42.1407 175.797 40.8006 176.276C40.688 176.316 40.5714 176.344 40.4529 176.361ZM48.8326 173.562C48.4257 173.608 48.0161 173.502 47.6829 173.264C47.3497 173.026 47.1168 172.672 47.0292 172.272C46.9416 171.872 47.0055 171.454 47.2086 171.098C47.4117 170.743 47.7396 170.475 48.1287 170.347C49.5112 169.923 50.9403 169.499 52.3694 169.05C52.7886 168.93 53.2381 168.981 53.62 169.191C54.002 169.401 54.2856 169.753 54.4091 170.171C54.5326 170.589 54.4861 171.039 54.2796 171.423C54.0732 171.807 53.7235 172.094 53.3066 172.222C51.886 172.646 50.4738 173.07 49.1083 173.494C49.018 173.518 48.9258 173.535 48.8326 173.545V173.562ZM57.3142 171.055C56.9017 171.104 56.486 170.996 56.1496 170.752C55.8133 170.509 55.5809 170.148 55.4986 169.741C55.4163 169.333 55.4902 168.91 55.7056 168.555C55.921 168.2 56.2621 167.939 56.6611 167.824C58.0732 167.43 59.5151 167.039 60.9485 166.662C61.3719 166.549 61.8228 166.61 62.2017 166.83C62.5807 167.05 62.8567 167.411 62.9692 167.835C63.0817 168.258 63.0213 168.709 62.8014 169.088C62.5815 169.467 62.2201 169.743 61.7966 169.855C60.376 170.228 58.9511 170.619 57.5559 171.009C57.4719 171.025 57.3869 171.035 57.3014 171.038L57.3142 171.055ZM65.8381 168.778C65.416 168.841 64.9858 168.739 64.6379 168.491C64.2901 168.244 64.0515 167.872 63.9725 167.452C63.8934 167.033 63.98 166.599 64.214 166.242C64.448 165.885 64.8113 165.633 65.2274 165.538C66.6438 165.182 68.0984 164.83 69.5403 164.486C69.7554 164.424 69.9809 164.406 70.2032 164.434C70.4255 164.461 70.6398 164.534 70.8333 164.646C71.0267 164.759 71.1953 164.91 71.3287 165.09C71.4621 165.27 71.5575 165.475 71.6093 165.693C71.661 165.911 71.668 166.137 71.6297 166.358C71.5914 166.578 71.5088 166.789 71.3867 166.977C71.2646 167.164 71.1056 167.325 70.9194 167.45C70.7333 167.574 70.5238 167.66 70.3036 167.701C68.8745 168.04 67.4369 168.392 66.0289 168.744L65.8381 168.778ZM74.4384 166.738C74.014 166.799 73.5825 166.692 73.2355 166.441C72.8885 166.189 72.6531 165.812 72.5792 165.39C72.5053 164.967 72.5988 164.533 72.8397 164.178C73.0807 163.824 73.4502 163.577 73.8701 163.49C75.3204 163.163 76.7793 162.845 78.2169 162.544C78.6398 162.47 79.0751 162.562 79.4308 162.803C79.7864 163.044 80.0346 163.413 80.1227 163.834C80.2108 164.254 80.132 164.692 79.903 165.055C79.674 165.418 79.3126 165.678 78.8954 165.78C77.4747 166.077 76.0287 166.391 74.5953 166.713C74.5465 166.725 74.4969 166.734 74.4468 166.738H74.4384ZM83.1022 164.915C82.6729 164.979 82.2355 164.871 81.885 164.615C81.5345 164.359 81.2991 163.975 81.2299 163.546C81.1607 163.118 81.2633 162.679 81.5153 162.325C81.7674 161.972 82.1486 161.732 82.5764 161.658C85.3329 161.115 86.9232 160.844 86.991 160.81C87.2097 160.761 87.4358 160.758 87.6558 160.8C87.8758 160.842 88.085 160.928 88.2708 161.053C88.4565 161.178 88.615 161.339 88.7365 161.527C88.858 161.715 88.9401 161.926 88.9778 162.147C89.0154 162.367 89.0078 162.593 88.9555 162.811C88.9032 163.029 88.8072 163.234 88.6734 163.413C88.5396 163.593 88.3707 163.743 88.177 163.855C87.9833 163.968 87.7688 164.04 87.5466 164.067C87.5466 164.067 85.9266 164.342 83.2125 164.877L83.1022 164.915Z" fill="#A8D29F"/>
    <path d="M390.503 159.393L448.079 116.26L391.872 126.858L397.466 135.866L387.428 150.322L390.503 159.393Z" fill="#82B378"/>
    <path d="M448.079 116.26L384.548 136.51L341.377 175.487L448.079 116.26Z" fill="#A8D29F"/>
    <path d="M391.872 126.858L448.079 116.261L386.614 106.486L391.872 126.858Z" fill="#A8D29F"/>
    <path d="M183.239 421.053C185.261 421.053 186.797 421.522 187.849 422.46C188.901 423.399 189.427 424.701 189.427 426.366C189.459 427.431 189.176 428.482 188.613 429.386C188.038 430.246 187.2 430.897 186.225 431.243L189.571 437.235C189.616 437.317 189.641 437.409 189.643 437.502C189.643 437.643 189.587 437.779 189.488 437.879C189.389 437.979 189.254 438.036 189.113 438.037H187.048C186.788 438.058 186.53 437.976 186.331 437.808C186.201 437.684 186.091 437.541 186.004 437.384L182.828 431.731H179.597V437.384C179.596 437.557 179.526 437.722 179.404 437.844C179.282 437.967 179.116 438.036 178.944 438.037H176.98C176.807 438.035 176.642 437.965 176.519 437.843C176.397 437.721 176.326 437.557 176.323 437.384V421.693C176.326 421.52 176.397 421.355 176.519 421.233C176.642 421.111 176.807 421.042 176.98 421.04L183.239 421.053ZM179.597 428.686H183.116C183.883 428.722 184.645 428.555 185.326 428.202C185.877 427.88 186.149 427.265 186.149 426.358C186.149 425.45 185.877 424.844 185.326 424.538C184.641 424.199 183.88 424.04 183.116 424.076H179.597V428.686Z" fill="white"/>
    <path d="M578.144 344.01C581.001 344.485 583.857 345.319 586.713 345.737C588.168 345.966 589.642 346.04 591.112 345.96C587.813 343.009 585.642 340.303 585.642 337.324C585.642 326.342 596.782 329.228 596.782 319.274H595.354C594.937 321.089 594.127 322.789 592.983 324.252C591.838 325.715 590.388 326.905 588.734 327.738C585.121 329.559 580.936 329.897 576.909 329.595C574.647 329.461 572.414 329.011 570.275 328.256C569.622 328.016 568.985 327.732 568.369 327.407C571.375 329.472 574.681 331.336 574.681 337.324C574.681 339.555 573.089 341.714 570.547 344.089C573.047 343.535 575.633 343.508 578.144 344.01Z" fill="#00887B"/>
    <path d="M576.818 329.35C580.9 329.652 585.14 329.35 588.801 327.537C590.477 326.725 591.947 325.562 593.107 324.134C594.266 322.706 595.087 321.046 595.509 319.274H563.28C563.28 323.701 565.617 325.528 568.164 327.214C568.788 327.532 569.434 327.809 570.096 328.043C572.263 328.78 574.526 329.22 576.818 329.35Z" fill="#009687"/>
    <path d="M589.194 410.527C610.708 401.934 620.207 376.798 607.802 359.691C601.911 353.895 595.665 349.598 591.339 345.765C589.847 345.846 588.351 345.771 586.875 345.541C583.977 345.12 581.079 344.28 578.18 343.802C575.636 343.301 573.017 343.33 570.485 343.889C561.427 352.301 540.464 363.495 535.885 390.775C534.725 397.673 535.262 403.897 537.501 409.245C544.645 415.034 567.246 419.309 589.194 410.527Z" fill="#009687"/>
    <path d="M623.524 390.554C621.632 376.365 614.89 366.764 607.651 359.562C619.97 376.618 610.53 401.679 589.174 410.247C567.357 419.003 544.915 414.741 537.835 408.969C541.677 418.18 550.607 424.768 564.782 427.629C569.758 428.616 574.819 429.112 579.892 429.11C611.566 428.966 626.626 413.86 623.524 390.554Z" fill="#00887B"/>
    <path d="M597.206 319.062C597.206 321.753 589.601 323.939 580.261 323.939C570.921 323.939 563.28 321.775 563.28 319.062C563.28 316.35 570.921 314.186 580.261 314.186C589.601 314.186 597.206 316.357 597.206 319.062Z" fill="#4CB5AB"/>
    <path d="M595.933 319.066C595.933 321.521 588.9 323.515 580.261 323.515C571.622 323.515 564.552 321.521 564.552 319.066C564.552 316.611 571.622 314.61 580.261 314.61C588.9 314.61 595.933 316.596 595.933 319.066Z" fill="#00786C"/>
    <path d="M588.839 329.879L583.635 330.173C583.946 330.378 584.207 330.654 584.399 330.98C584.591 331.306 584.708 331.673 584.743 332.054C584.777 332.435 584.728 332.819 584.597 333.176C584.467 333.534 584.26 333.856 583.992 334.117L589.039 333.839C589.544 333.811 590.017 333.576 590.355 333.185C590.693 332.794 590.868 332.28 590.842 331.755C590.815 331.229 590.589 330.737 590.214 330.385C589.838 330.033 589.343 329.851 588.839 329.879Z" fill="#B1DEDB"/>
    <path d="M583.823 330.3L571.801 330.928C571.314 330.954 570.859 331.169 570.534 331.526C570.373 331.703 570.249 331.909 570.169 332.133C570.089 332.357 570.055 332.595 570.068 332.832C570.081 333.069 570.141 333.301 570.246 333.515C570.35 333.729 570.496 333.921 570.675 334.079C571.038 334.399 571.515 334.564 572.001 334.538L584.174 333.897C584.432 333.658 584.632 333.365 584.757 333.039C584.883 332.713 584.931 332.363 584.897 332.015C584.864 331.668 584.751 331.333 584.566 331.036C584.381 330.739 584.129 330.487 583.83 330.3H583.823Z" fill="#DEF0F0"/>
    <path d="M588.847 333.696L583.314 334.009C583.697 334.296 583.987 334.697 584.147 335.161C584.307 335.624 584.327 336.127 584.207 336.603C584.043 337.159 583.688 337.633 583.211 337.934L589.067 337.613C589.564 337.585 590.03 337.353 590.363 336.966C590.696 336.579 590.868 336.07 590.842 335.551C590.816 335.031 590.593 334.544 590.223 334.196C589.853 333.848 589.366 333.668 588.869 333.696H588.847Z" fill="#B1DEDB"/>
    <path d="M583.983 336.521C584.102 336.08 584.081 335.613 583.924 335.184C583.766 334.755 583.478 334.383 583.099 334.117L571.336 334.734C570.857 334.775 570.412 334.996 570.096 335.351C569.78 335.706 569.618 336.168 569.643 336.638C569.669 337.109 569.88 337.551 570.232 337.872C570.585 338.192 571.051 338.367 571.532 338.357L582.997 337.755C583.469 337.476 583.82 337.037 583.983 336.521Z" fill="#DEF0F0"/>
    <path d="M584.429 340.043C584.543 339.606 584.477 339.145 584.245 338.753C584.013 338.36 583.633 338.068 583.183 337.934L570.942 338.581C570.454 338.621 570.001 338.84 569.68 339.193C569.359 339.545 569.193 340.003 569.219 340.469C569.245 340.936 569.46 341.374 569.818 341.692C570.177 342.01 570.651 342.183 571.141 342.174L582.939 341.576L583.146 341.485C583.454 341.345 583.728 341.144 583.949 340.895C584.171 340.647 584.334 340.356 584.429 340.043Z" fill="#DEF0F0"/>
    <path d="M588.36 337.51L583.002 337.799C583.456 337.944 583.838 338.261 584.071 338.686C584.304 339.11 584.37 339.61 584.256 340.083C584.165 340.421 584.005 340.735 583.788 341.005C583.571 341.275 583.3 341.495 582.995 341.651L582.787 341.75L588.567 341.431C588.822 341.424 589.072 341.365 589.304 341.258C589.535 341.15 589.744 340.996 589.916 340.805C590.089 340.613 590.222 340.388 590.308 340.142C590.394 339.897 590.431 339.636 590.418 339.375C590.404 339.115 590.339 338.86 590.227 338.626C590.115 338.391 589.959 338.182 589.767 338.011C589.575 337.84 589.352 337.71 589.11 337.629C588.868 337.548 588.613 337.518 588.36 337.54V337.51Z" fill="#B1DEDB"/>
    <path d="M700.256 435.895H674.812V445.225H700.256V435.895Z" fill="#333333"/>
    <path d="M700.256 408.754H674.812V435.895H700.256V408.754Z" fill="#4D4D4D"/>
    <path d="M674.812 435.895H654.456V411.318V408.754H674.812V435.895Z" fill="white"/>
    <path d="M681.553 419.695C681.553 419.953 681.476 420.206 681.333 420.42C681.189 420.635 680.985 420.802 680.747 420.901C680.508 421 680.245 421.026 679.992 420.976C679.739 420.925 679.506 420.801 679.324 420.618C679.141 420.436 679.017 420.203 678.966 419.95C678.916 419.696 678.942 419.434 679.041 419.195C679.139 418.957 679.307 418.753 679.521 418.609C679.736 418.466 679.989 418.389 680.247 418.389C680.419 418.389 680.589 418.422 680.747 418.488C680.906 418.553 681.05 418.649 681.171 418.77C681.293 418.892 681.389 419.036 681.454 419.195C681.52 419.353 681.553 419.523 681.553 419.695Z" fill="white"/>
    <path d="M592.117 451.473C596.807 451.473 600.59 448.906 602.759 447.598C605.151 446.152 618.826 440.542 629.677 438.467C640.528 436.392 648.641 434.578 648.641 434.578C648.641 434.578 653.072 428.859 653.101 411.299C653.541 411.299 653.995 411.299 654.456 411.299V439.392C632.12 439.392 612.514 445.899 603.429 449.514C598.781 451.372 595.222 451.834 592.117 451.473Z" fill="#FEB8A3"/>
    <path d="M665.455 442.49C665.931 442.492 666.397 442.354 666.793 442.093C667.189 441.833 667.499 441.462 667.681 441.028C667.864 440.594 667.912 440.116 667.82 439.655C667.727 439.194 667.498 438.77 667.162 438.438C666.825 438.105 666.397 437.879 665.93 437.788C665.463 437.697 664.979 437.744 664.54 437.925C664.1 438.105 663.725 438.411 663.462 438.802C663.198 439.194 663.058 439.654 663.06 440.124C663.06 440.751 663.312 441.353 663.761 441.797C664.211 442.241 664.82 442.49 665.455 442.49ZM674.812 445.225H654.456V435.895H674.812V445.225Z" fill="#E3F1FC"/>
    <path d="M566.535 423.354C564.924 424.242 563.565 429.627 568.277 430.429C572.988 431.23 574.686 430.984 574.686 430.984C575.532 430.01 576.681 426.573 575.618 423.563C572.265 423.094 567.72 422.697 566.535 423.354ZM614.51 431.36C601.163 436.623 583.495 431.952 571.362 431.952C566.593 431.952 564.338 430.147 563.796 427.88C564.187 431.064 566.354 433.576 570.589 433.822C575.192 434.096 584.846 434.818 590.295 435.583C595.743 436.348 607.522 436.464 612.638 435.034C617.754 433.605 620.702 431.815 620.131 429.93C619.561 428.046 616.041 427.945 614.495 431.324L614.51 431.36ZM611.778 411.211C631.289 402.216 638.218 410.561 653.184 411.045C653.184 428.58 648.711 434.291 648.711 434.291C648.711 434.291 640.574 436.103 629.692 438.175C618.809 440.247 605.123 445.856 602.695 447.292C600.527 448.599 596.726 451.191 592.022 451.162C589.13 450.732 586.342 449.773 583.798 448.332L574.108 443.344C560.234 436.211 536.763 424.17 532.117 422.054C528.627 420.466 528.237 418.25 529.819 416.806C531.048 415.658 533.483 414.98 536.583 415.413C543.664 416.395 556.267 420.091 564.656 423.354C565.411 422.008 566.502 420.882 567.823 420.085C569.144 419.287 570.65 418.847 572.193 418.806C580.496 418.813 591.711 420.473 611.778 411.211Z" fill="#FECBBB"/>
    <path d="M570.867 433.937C566.666 433.685 564.515 431.106 564.128 427.838C564.665 430.165 566.902 432.018 571.634 432.018C583.671 432.018 601.201 436.812 614.442 431.41V431.373C615.977 427.905 619.461 428.016 620.035 429.943C620.608 431.869 617.683 433.715 612.6 435.182C607.517 436.649 595.838 436.538 590.432 435.745C585.026 434.952 575.434 434.219 570.867 433.937Z" fill="#FEB8A3"/>
    <path d="M529.239 423.056C533.347 425.213 553.297 434.059 565.824 439.712C558.149 436.835 533.499 427.91 527.167 425.767C521.976 424.005 523.752 419.798 526.488 420.236C526.755 421.171 527.557 422.171 529.239 423.056Z" fill="#FEAA90"/>
    <path d="M575.59 423.722C576.613 426.753 575.507 430.212 574.693 431.193C574.693 431.193 573.058 431.447 568.523 430.633C563.987 429.819 565.295 424.405 566.846 423.511C567.987 422.865 572.363 423.264 575.59 423.722Z" fill="#FAE8E6"/>
    <path d="M529.99 416.89C528.407 418.335 528.797 420.554 532.29 422.144C536.939 424.262 560.423 436.316 574.306 443.457L574.269 443.529C572.447 442.662 569.454 441.296 565.846 439.67C553.301 433.989 533.324 425.085 529.181 422.917C527.467 422.014 526.664 421.009 526.447 420.077C525.992 418.126 528.118 416.507 529.947 416.861L529.99 416.89Z" fill="#FEAA90"/>
    <path d="M521.368 442.762C521.368 443.02 521.445 443.273 521.588 443.488C521.732 443.702 521.936 443.87 522.174 443.969C522.413 444.067 522.676 444.093 522.929 444.043C523.182 443.992 523.415 443.868 523.597 443.685C523.78 443.503 523.904 443.27 523.955 443.017C524.005 442.764 523.979 442.501 523.88 442.262C523.782 442.024 523.614 441.82 523.4 441.676C523.185 441.533 522.932 441.456 522.674 441.456C522.502 441.456 522.332 441.489 522.174 441.555C522.015 441.62 521.871 441.716 521.75 441.838C521.628 441.959 521.532 442.103 521.467 442.262C521.401 442.42 521.368 442.591 521.368 442.762Z" fill="white"/>
    <path d="M603.429 360.491H601.548V358.61C601.548 358.367 601.451 358.133 601.279 357.961C601.107 357.789 600.874 357.693 600.631 357.693C600.388 357.693 600.155 357.789 599.983 357.961C599.811 358.133 599.714 358.367 599.714 358.61V360.491H597.833C597.59 360.491 597.357 360.588 597.185 360.759C597.013 360.931 596.916 361.165 596.916 361.408C596.916 361.651 597.013 361.884 597.185 362.056C597.357 362.228 597.59 362.325 597.833 362.325H599.714V364.21C599.714 364.453 599.811 364.686 599.983 364.858C600.155 365.03 600.388 365.127 600.631 365.127C600.874 365.127 601.107 365.03 601.279 364.858C601.451 364.686 601.548 364.453 601.548 364.21V362.325H603.429C603.672 362.325 603.906 362.228 604.077 362.056C604.249 361.884 604.346 361.651 604.346 361.408C604.346 361.165 604.249 360.931 604.077 360.759C603.906 360.588 603.672 360.491 603.429 360.491Z" fill="#009687"/>
    <path d="M622.214 458.07H620.329V456.189C620.329 455.946 620.232 455.712 620.06 455.54C619.888 455.369 619.655 455.272 619.412 455.272C619.169 455.272 618.935 455.369 618.763 455.54C618.591 455.712 618.495 455.946 618.495 456.189V458.07H616.614C616.37 458.07 616.137 458.167 615.965 458.339C615.793 458.511 615.697 458.744 615.697 458.987C615.697 459.23 615.793 459.463 615.965 459.635C616.137 459.807 616.37 459.904 616.614 459.904H618.495V461.785C618.495 462.028 618.591 462.261 618.763 462.433C618.935 462.605 619.169 462.702 619.412 462.702C619.655 462.702 619.888 462.605 620.06 462.433C620.232 462.261 620.329 462.028 620.329 461.785V459.904H622.214C622.457 459.904 622.69 459.807 622.862 459.635C623.034 459.463 623.131 459.23 623.131 458.987C623.131 458.744 623.034 458.511 622.862 458.339C622.69 458.167 622.457 458.07 622.214 458.07Z" fill="#4CB5AB"/>
    <path d="M247.33 464.007H245.445V462.126C245.445 461.883 245.348 461.649 245.177 461.478C245.005 461.306 244.771 461.209 244.528 461.209C244.285 461.209 244.052 461.306 243.88 461.478C243.708 461.649 243.611 461.883 243.611 462.126V464.007H241.73C241.487 464.007 241.254 464.104 241.082 464.276C240.91 464.448 240.813 464.681 240.813 464.924C240.813 465.167 240.91 465.4 241.082 465.572C241.254 465.744 241.487 465.841 241.73 465.841H243.611V467.722C243.611 467.965 243.708 468.198 243.88 468.37C244.052 468.542 244.285 468.639 244.528 468.639C244.771 468.639 245.005 468.542 245.177 468.37C245.348 468.198 245.445 467.965 245.445 467.722V465.841H247.33C247.573 465.841 247.807 465.744 247.979 465.572C248.151 465.4 248.247 465.167 248.247 464.924C248.247 464.681 248.151 464.448 247.979 464.276C247.807 464.104 247.573 464.007 247.33 464.007Z" fill="#4CB5AB"/>
    <path d="M530.358 346.669H528.472V344.788C528.472 344.545 528.376 344.311 528.204 344.139C528.032 343.967 527.799 343.871 527.555 343.871C527.312 343.871 527.079 343.967 526.907 344.139C526.735 344.311 526.639 344.545 526.639 344.788V346.669H524.757C524.514 346.669 524.281 346.766 524.109 346.937C523.937 347.109 523.841 347.343 523.841 347.586C523.841 347.829 523.937 348.062 524.109 348.234C524.281 348.406 524.514 348.503 524.757 348.503H526.639V350.384C526.639 350.627 526.735 350.86 526.907 351.032C527.079 351.204 527.312 351.301 527.555 351.301C527.799 351.301 528.032 351.204 528.204 351.032C528.376 350.86 528.472 350.627 528.472 350.384V348.503H530.358C530.601 348.503 530.834 348.406 531.006 348.234C531.178 348.062 531.274 347.829 531.274 347.586C531.274 347.343 531.178 347.109 531.006 346.937C530.834 346.766 530.601 346.669 530.358 346.669Z" fill="#4CB5AB"/>
    <path d="M155.474 352.606H153.589V350.725C153.589 350.481 153.492 350.248 153.32 350.076C153.148 349.904 152.915 349.808 152.672 349.808C152.429 349.808 152.196 349.904 152.024 350.076C151.852 350.248 151.755 350.481 151.755 350.725V352.606H149.874C149.631 352.606 149.397 352.702 149.226 352.874C149.054 353.046 148.957 353.28 148.957 353.523C148.957 353.766 149.054 353.999 149.226 354.171C149.397 354.343 149.631 354.44 149.874 354.44H151.755V356.321C151.755 356.564 151.852 356.797 152.024 356.969C152.196 357.141 152.429 357.238 152.672 357.238C152.915 357.238 153.148 357.141 153.32 356.969C153.492 356.797 153.589 356.564 153.589 356.321V354.44H155.474C155.717 354.44 155.95 354.343 156.122 354.171C156.294 353.999 156.391 353.766 156.391 353.523C156.391 353.28 156.294 353.046 156.122 352.874C155.95 352.702 155.717 352.606 155.474 352.606Z" fill="#4CB5AB"/>
    <path d="M172.013 397.982H170.128V396.101C170.128 395.858 170.031 395.624 169.859 395.452C169.687 395.281 169.454 395.184 169.211 395.184C168.968 395.184 168.734 395.281 168.562 395.452C168.391 395.624 168.294 395.858 168.294 396.101V397.982H166.413C166.17 397.982 165.936 398.079 165.764 398.251C165.592 398.422 165.496 398.656 165.496 398.899C165.496 399.142 165.592 399.375 165.764 399.547C165.936 399.719 166.17 399.816 166.413 399.816H168.294V401.697C168.294 401.94 168.391 402.173 168.562 402.345C168.734 402.517 168.968 402.614 169.211 402.614C169.454 402.614 169.687 402.517 169.859 402.345C170.031 402.173 170.128 401.94 170.128 401.697V399.816H172.013C172.256 399.816 172.489 399.719 172.661 399.547C172.833 399.375 172.93 399.142 172.93 398.899C172.93 398.656 172.833 398.422 172.661 398.251C172.489 398.079 172.256 397.982 172.013 397.982Z" fill="#4CB5AB"/>
    <path d="M522.724 453.96H520.839V452.079C520.839 451.836 520.742 451.603 520.57 451.431C520.398 451.259 520.165 451.162 519.922 451.162C519.679 451.162 519.446 451.259 519.274 451.431C519.102 451.603 519.005 451.836 519.005 452.079V453.96H517.124C516.881 453.96 516.648 454.057 516.476 454.229C516.304 454.401 516.207 454.634 516.207 454.877C516.207 455.12 516.304 455.353 516.476 455.525C516.648 455.697 516.881 455.794 517.124 455.794H519.005V457.675C519.005 457.918 519.102 458.151 519.274 458.323C519.446 458.495 519.679 458.592 519.922 458.592C520.165 458.592 520.398 458.495 520.57 458.323C520.742 458.151 520.839 457.918 520.839 457.675V455.794H522.724C522.967 455.794 523.2 455.697 523.372 455.525C523.544 455.353 523.641 455.12 523.641 454.877C523.641 454.634 523.544 454.401 523.372 454.229C523.2 454.057 522.967 453.96 522.724 453.96Z" fill="#4CB5AB"/>
    <path d="M147.841 459.897H145.955V458.016C145.955 457.773 145.859 457.54 145.687 457.368C145.515 457.196 145.282 457.099 145.039 457.099C144.795 457.099 144.562 457.196 144.39 457.368C144.218 457.54 144.122 457.773 144.122 458.016V459.897H142.24C141.997 459.897 141.764 459.994 141.592 460.166C141.42 460.338 141.324 460.571 141.324 460.814C141.324 461.057 141.42 461.291 141.592 461.462C141.764 461.634 141.997 461.731 142.24 461.731H144.122V463.612C144.122 463.855 144.218 464.089 144.39 464.261C144.562 464.432 144.795 464.529 145.039 464.529C145.282 464.529 145.515 464.432 145.687 464.261C145.859 464.089 145.955 463.855 145.955 463.612V461.731H147.841C148.084 461.731 148.317 461.634 148.489 461.462C148.661 461.291 148.757 461.057 148.757 460.814C148.757 460.571 148.661 460.338 148.489 460.166C148.317 459.994 148.084 459.897 147.841 459.897Z" fill="#4CB5AB"/>
    <path d="M662.245 344.973H660.36V343.091C660.36 342.848 660.263 342.615 660.091 342.443C659.919 342.271 659.686 342.175 659.443 342.175C659.2 342.175 658.966 342.271 658.795 342.443C658.623 342.615 658.526 342.848 658.526 343.091V344.973H656.645C656.402 344.973 656.168 345.069 655.996 345.241C655.825 345.413 655.728 345.646 655.728 345.89C655.728 346.133 655.825 346.366 655.996 346.538C656.168 346.71 656.402 346.806 656.645 346.806H658.526V348.688C658.526 348.931 658.623 349.164 658.795 349.336C658.966 349.508 659.2 349.604 659.443 349.604C659.686 349.604 659.919 349.508 660.091 349.336C660.263 349.164 660.36 348.931 660.36 348.688V346.806H662.245C662.488 346.806 662.721 346.71 662.893 346.538C663.065 346.366 663.162 346.133 663.162 345.89C663.162 345.646 663.065 345.413 662.893 345.241C662.721 345.069 662.488 344.973 662.245 344.973Z" fill="#4CB5AB"/>
    <path d="M287.362 350.91H285.476V349.028C285.476 348.785 285.38 348.552 285.208 348.38C285.036 348.208 284.803 348.112 284.56 348.112C284.316 348.112 284.083 348.208 283.911 348.38C283.739 348.552 283.643 348.785 283.643 349.028V350.91H281.762C281.518 350.91 281.285 351.006 281.113 351.178C280.941 351.35 280.845 351.583 280.845 351.826C280.845 352.07 280.941 352.303 281.113 352.475C281.285 352.647 281.518 352.743 281.762 352.743H283.643V354.624C283.643 354.868 283.739 355.101 283.911 355.273C284.083 355.445 284.316 355.541 284.56 355.541C284.803 355.541 285.036 355.445 285.208 355.273C285.38 355.101 285.476 354.868 285.476 354.624V352.743H287.362C287.605 352.743 287.838 352.647 288.01 352.475C288.182 352.303 288.278 352.07 288.278 351.826C288.278 351.583 288.182 351.35 288.01 351.178C287.838 351.006 287.605 350.91 287.362 350.91Z" fill="#4CB5AB"/>
    <path d="M286.513 381.443H284.628V379.562C284.628 379.319 284.532 379.086 284.36 378.914C284.188 378.742 283.955 378.645 283.711 378.645C283.468 378.645 283.235 378.742 283.063 378.914C282.891 379.086 282.795 379.319 282.795 379.562V381.443H280.913C280.67 381.443 280.437 381.54 280.265 381.712C280.093 381.884 279.996 382.117 279.996 382.36C279.996 382.603 280.093 382.836 280.265 383.008C280.437 383.18 280.67 383.277 280.913 383.277H282.795V385.158C282.795 385.401 282.891 385.634 283.063 385.806C283.235 385.978 283.468 386.075 283.711 386.075C283.955 386.075 284.188 385.978 284.36 385.806C284.532 385.634 284.628 385.401 284.628 385.158V383.277H286.513C286.757 383.277 286.99 383.18 287.162 383.008C287.334 382.836 287.43 382.603 287.43 382.36C287.43 382.117 287.334 381.884 287.162 381.712C286.99 381.54 286.757 381.443 286.513 381.443Z" fill="#4CB5AB"/>
    <path d="M589.74 381.486C589.74 381.775 589.655 382.056 589.495 382.296C589.334 382.536 589.107 382.722 588.84 382.832C588.574 382.942 588.281 382.971 587.998 382.915C587.715 382.858 587.456 382.719 587.252 382.515C587.049 382.311 586.91 382.051 586.855 381.768C586.799 381.485 586.828 381.192 586.939 380.926C587.05 380.66 587.237 380.433 587.477 380.273C587.717 380.114 587.999 380.029 588.288 380.03C588.479 380.03 588.668 380.067 588.845 380.141C589.021 380.214 589.181 380.321 589.316 380.457C589.451 380.592 589.558 380.752 589.631 380.929C589.704 381.106 589.741 381.295 589.74 381.486Z" fill="#4CB5AB"/>
    <path d="M592.269 472.64C592.269 472.916 592.187 473.185 592.034 473.414C591.88 473.643 591.663 473.822 591.408 473.927C591.153 474.033 590.873 474.06 590.602 474.006C590.332 473.952 590.084 473.819 589.889 473.624C589.694 473.428 589.562 473.18 589.509 472.909C589.455 472.639 589.484 472.359 589.59 472.104C589.696 471.85 589.875 471.632 590.105 471.48C590.334 471.327 590.604 471.246 590.88 471.247C591.062 471.247 591.243 471.283 591.412 471.353C591.581 471.423 591.734 471.526 591.863 471.655C591.992 471.785 592.095 471.938 592.164 472.107C592.234 472.276 592.269 472.457 592.269 472.64Z" fill="#009687"/>
    <path d="M217.385 478.577C217.385 478.853 217.303 479.122 217.15 479.352C216.997 479.581 216.779 479.759 216.524 479.865C216.269 479.97 215.989 479.997 215.719 479.943C215.448 479.889 215.2 479.756 215.006 479.561C214.811 479.366 214.678 479.117 214.625 478.847C214.572 478.576 214.6 478.296 214.706 478.041C214.812 477.787 214.991 477.57 215.221 477.417C215.451 477.264 215.72 477.183 215.996 477.184C216.179 477.184 216.36 477.22 216.528 477.29C216.697 477.36 216.851 477.463 216.98 477.592C217.109 477.722 217.211 477.875 217.28 478.044C217.35 478.213 217.386 478.394 217.385 478.577Z" fill="#009687"/>
    <path d="M644.888 459.927C644.888 460.14 644.825 460.348 644.707 460.525C644.589 460.702 644.421 460.84 644.224 460.921C644.028 461.003 643.811 461.024 643.603 460.982C643.394 460.941 643.203 460.838 643.052 460.688C642.902 460.538 642.799 460.346 642.758 460.137C642.716 459.929 642.738 459.712 642.819 459.516C642.9 459.319 643.038 459.151 643.215 459.033C643.392 458.915 643.6 458.852 643.813 458.852C644.098 458.853 644.371 458.967 644.572 459.168C644.774 459.37 644.887 459.643 644.888 459.927Z" fill="#009687"/>
    <path d="M654.437 389.416C655.172 389.416 655.767 388.821 655.767 388.087C655.767 387.352 655.172 386.757 654.437 386.757C653.703 386.757 653.108 387.352 653.108 388.087C653.108 388.821 653.703 389.416 654.437 389.416Z" fill="#009687"/>
    <path d="M308.22 436.538C308.955 436.538 309.55 435.943 309.55 435.208C309.55 434.474 308.955 433.879 308.22 433.879C307.486 433.879 306.891 434.474 306.891 435.208C306.891 435.943 307.486 436.538 308.22 436.538Z" fill="#009687"/>
    <path d="M568.618 352.267C568.618 352.43 568.57 352.589 568.48 352.724C568.389 352.859 568.261 352.964 568.111 353.026C567.961 353.089 567.796 353.105 567.636 353.073C567.477 353.041 567.33 352.963 567.216 352.848C567.101 352.733 567.022 352.587 566.991 352.428C566.959 352.268 566.975 352.103 567.037 351.953C567.1 351.803 567.205 351.675 567.34 351.584C567.475 351.494 567.634 351.446 567.796 351.446C568.014 351.446 568.223 351.532 568.377 351.686C568.531 351.84 568.618 352.049 568.618 352.267Z" fill="#009687"/>
    <path d="M234.728 363.063C237.932 363.584 241.06 364.503 244.264 364.97C245.882 365.217 247.521 365.298 249.155 365.21C245.492 361.951 243.077 358.974 243.077 355.688C243.077 343.58 255.46 346.77 255.46 335.793H253.875C253.412 337.795 252.513 339.67 251.242 341.284C249.97 342.898 248.358 344.211 246.521 345.13C242.508 347.133 237.85 347.524 233.37 347.188C230.856 347.033 228.375 346.537 225.995 345.713C225.268 345.446 224.56 345.129 223.875 344.766C227.223 347.051 230.9 349.109 230.9 355.743C230.9 358.206 229.123 360.586 226.297 363.207C229.068 362.579 231.938 362.53 234.728 363.063Z" fill="#FE9F00"/>
    <path d="M233.37 347.168C237.85 347.511 242.508 347.12 246.521 345.109C248.359 344.191 249.971 342.877 251.242 341.263C252.513 339.649 253.413 337.774 253.875 335.773H218.511C218.511 340.774 221.077 342.832 223.876 344.739C224.56 345.102 225.268 345.418 225.996 345.686C228.375 346.512 230.856 347.01 233.37 347.168Z" fill="#FEB200"/>
    <path d="M227.278 435.712C210.718 430.676 190.871 413.409 195.152 394.976C191.807 401.06 189.531 407.673 188.422 414.528C184.992 435.149 195.227 450.31 219.924 455.284C225.411 456.358 230.989 456.901 236.581 456.903C260.873 456.793 276.301 448.739 282.311 435.245C267.829 441.07 243.914 440.768 227.278 435.712Z" fill="#FE9F00"/>
    <path d="M284.901 414.387C281.141 386.26 259.978 374.495 249.351 365.069C247.717 365.157 246.078 365.076 244.46 364.829C241.256 364.362 238.128 363.457 234.924 362.922C232.138 362.371 229.267 362.402 226.493 363.011C219.084 369.871 204.403 378.481 195.348 394.835C191.067 413.269 210.913 430.508 227.474 435.571C244.034 440.634 268.025 440.929 282.472 435.105C285.113 429.191 285.95 422.207 284.901 414.387Z" fill="#FEB200"/>
    <path d="M255.46 335.725C255.46 338.688 247.173 341.096 237.006 341.096C226.839 341.096 218.483 338.688 218.483 335.725C218.483 332.761 226.812 330.36 237.006 330.36C247.2 330.36 255.46 332.761 255.46 335.725Z" fill="#FEC007"/>
    <path d="M254.129 335.725C254.129 338.469 246.446 340.712 236.978 340.712C227.511 340.712 219.828 338.476 219.828 335.725C219.828 332.974 227.553 330.744 236.978 330.744C246.404 330.744 254.129 332.974 254.129 335.725Z" fill="#FE9F00"/>
    <path d="M246.467 347.744L240.91 348.046C241.241 348.256 241.519 348.54 241.724 348.875C241.928 349.209 242.053 349.586 242.09 349.977C242.126 350.368 242.073 350.761 241.934 351.128C241.794 351.495 241.573 351.825 241.287 352.093L246.686 351.805C246.982 351.835 247.28 351.8 247.561 351.704C247.842 351.607 248.099 351.451 248.313 351.246C248.528 351.041 248.696 350.792 248.806 350.516C248.915 350.239 248.963 349.943 248.947 349.646C248.931 349.35 248.851 349.06 248.713 348.797C248.574 348.535 248.38 348.305 248.145 348.124C247.909 347.943 247.637 347.816 247.347 347.75C247.058 347.685 246.757 347.682 246.467 347.744Z" fill="#4E342E"/>
    <path d="M240.909 348.046L227.58 348.732C227.1 348.833 226.671 349.103 226.373 349.493C226.074 349.883 225.924 350.366 225.951 350.856C225.977 351.347 226.178 351.811 226.517 352.166C226.856 352.522 227.311 352.744 227.8 352.793L241.287 352.073C241.573 351.804 241.794 351.474 241.933 351.108C242.072 350.741 242.126 350.347 242.089 349.956C242.053 349.566 241.928 349.189 241.723 348.854C241.519 348.519 241.24 348.236 240.909 348.025V348.046Z" fill="#5D4037"/>
    <path d="M246.308 351.935L240.313 352.258C240.729 352.555 241.044 352.973 241.217 353.455C241.39 353.936 241.412 354.459 241.28 354.954C241.098 355.528 240.712 356.016 240.196 356.326L246.528 355.983C247.008 355.881 247.436 355.611 247.735 355.222C248.034 354.832 248.184 354.348 248.157 353.858C248.131 353.368 247.93 352.903 247.591 352.548C247.252 352.193 246.797 351.971 246.308 351.922V351.935Z" fill="#4E342E"/>
    <path d="M241.28 354.954C241.412 354.459 241.39 353.936 241.217 353.455C241.044 352.973 240.729 352.555 240.313 352.258L227.422 352.944C227.125 352.911 226.825 352.943 226.541 353.038C226.258 353.132 225.999 353.288 225.781 353.493C225.564 353.698 225.394 353.948 225.283 354.226C225.173 354.504 225.124 354.802 225.14 355.1C225.156 355.399 225.237 355.69 225.377 355.954C225.517 356.218 225.713 356.448 225.951 356.629C226.189 356.809 226.464 356.936 226.756 357C227.048 357.063 227.35 357.063 227.642 356.998L240.196 356.312C240.71 356.005 241.095 355.523 241.28 354.954Z" fill="#5D4037"/>
    <path d="M241.458 358.83C241.572 358.336 241.493 357.819 241.238 357.381C240.983 356.944 240.571 356.621 240.086 356.477L226.935 357.163C226.455 357.264 226.027 357.534 225.728 357.924C225.429 358.313 225.279 358.797 225.306 359.287C225.332 359.777 225.533 360.242 225.872 360.597C226.211 360.952 226.666 361.175 227.155 361.224L239.853 360.538L240.079 360.428C240.408 360.272 240.7 360.05 240.938 359.775C241.175 359.499 241.353 359.177 241.458 358.83Z" fill="#5D4037"/>
    <path d="M245.849 356.175L240.114 356.477C240.599 356.621 241.01 356.944 241.265 357.382C241.52 357.819 241.599 358.337 241.486 358.83C241.384 359.182 241.209 359.509 240.973 359.789C240.737 360.069 240.444 360.296 240.114 360.456L239.887 360.565L246.061 360.229C246.358 360.262 246.659 360.23 246.942 360.135C247.226 360.04 247.485 359.885 247.702 359.68C247.919 359.474 248.089 359.224 248.2 358.947C248.311 358.669 248.36 358.371 248.344 358.073C248.328 357.774 248.247 357.483 248.107 357.219C247.966 356.955 247.771 356.725 247.532 356.544C247.294 356.363 247.02 356.237 246.728 356.173C246.436 356.109 246.133 356.11 245.842 356.175H245.849Z" fill="#4E342E"/>
    <path d="M152.715 460.121H123.937V468.991H152.715V460.121Z" fill="#546E7A"/>
    <path d="M152.715 434.333H123.937V460.12H152.715V434.333Z" fill="#607D8A"/>
    <path d="M152.715 460.12H171.834V436.768V434.333H152.715V460.12Z" fill="white"/>
    <path d="M231.188 474.863C226.722 474.863 223.121 472.427 221.056 471.186C218.778 469.814 205.758 464.49 195.426 462.521C185.095 460.552 177.37 458.831 177.37 458.831C177.37 458.831 173.151 453.404 173.124 436.741C172.705 436.741 172.273 436.741 171.834 436.741V463.427C193.101 463.427 211.767 469.601 220.418 473.031C224.843 474.767 228.211 475.206 231.188 474.863Z" fill="#FE8965"/>
    <path d="M163.725 464.141C163.73 463.692 163.6 463.252 163.353 462.878C163.106 462.503 162.753 462.211 162.338 462.038C161.924 461.865 161.468 461.819 161.028 461.907C160.588 461.994 160.184 462.211 159.868 462.529C159.551 462.848 159.337 463.253 159.252 463.693C159.167 464.134 159.216 464.59 159.391 465.003C159.567 465.416 159.861 465.767 160.238 466.012C160.614 466.257 161.054 466.384 161.503 466.377C162.092 466.37 162.656 466.131 163.071 465.713C163.487 465.295 163.722 464.73 163.725 464.141ZM152.749 460.121H171.834V468.991H152.749V460.121Z" fill="#E3F1FC"/>
    <path d="M246.734 448.636C245.725 451.497 246.816 454.762 247.619 455.689C247.619 455.689 249.231 455.929 253.704 455.16C258.176 454.392 256.887 449.281 255.357 448.437C254.28 447.813 249.944 448.19 246.734 448.636ZM209.826 456.011C208.358 452.8 205.024 452.903 204.475 454.687C203.926 456.471 206.725 458.179 211.589 459.537C216.453 460.895 227.628 460.793 232.801 460.058C237.973 459.324 247.138 458.645 251.508 458.385C255.528 458.151 257.586 455.764 257.957 452.739C257.442 454.893 255.302 456.608 250.774 456.608C239.256 456.608 222.483 461.046 209.812 456.045L209.826 456.011ZM249.985 444.122C251.45 444.161 252.88 444.58 254.134 445.338C255.388 446.095 256.424 447.166 257.141 448.444C265.105 445.337 277.035 441.824 283.792 440.898C286.735 440.486 289.047 441.131 290.213 442.222C291.716 443.594 291.345 445.7 288.032 447.209C283.621 449.219 261.339 460.662 248.167 467.44L238.968 472.18C236.553 473.55 233.907 474.462 231.161 474.87C226.695 474.87 223.093 472.434 221.029 471.193C218.751 469.821 205.73 464.497 195.399 462.528C185.067 460.559 177.37 458.831 177.37 458.831C177.37 458.831 173.151 453.404 173.124 436.741C187.331 436.281 193.938 428.351 212.433 436.898C231.483 445.7 242.13 444.122 250.013 444.122H249.985Z" fill="#FEAA90"/>
    <path d="M251.536 458.385C255.556 458.151 257.614 455.764 257.984 452.739C257.47 454.893 255.33 456.608 250.802 456.608C239.284 456.608 222.51 461.046 209.84 456.045V456.011C208.372 452.801 205.038 452.903 204.489 454.687C203.94 456.471 206.739 458.179 211.603 459.537C216.467 460.896 227.642 460.793 232.814 460.059C237.987 459.325 247.166 458.645 251.536 458.385Z" fill="#FE8965"/>
    <path d="M290.982 447.951C287.079 450.009 268.124 458.447 256.222 463.839C263.514 461.095 286.935 452.581 292.951 450.537C297.884 448.856 296.196 444.843 293.596 445.261C293.383 446.139 292.608 447.093 290.982 447.951Z" fill="#FE8965"/>
    <path d="M246.734 448.636C245.726 451.497 246.817 454.763 247.619 455.689C247.619 455.689 249.231 455.929 253.704 455.16C258.177 454.392 256.887 449.281 255.358 448.438C254.28 447.813 249.945 448.191 246.734 448.636Z" fill="#FECBBB"/>
    <path d="M290.241 442.215C291.743 443.587 291.373 445.693 288.06 447.203C283.648 449.213 261.367 460.655 248.195 467.433L248.229 467.502C249.958 466.679 252.798 465.382 256.221 463.839C268.124 458.446 287.092 450.008 290.982 447.95C292.608 447.093 293.369 446.139 293.575 445.254C294.007 443.402 291.99 441.865 290.255 442.202L290.241 442.215Z" fill="#FE8965"/>
    <path d="M194.898 358.768C196.406 358.768 197.629 357.546 197.629 356.038C197.629 354.53 196.406 353.307 194.898 353.307C193.39 353.307 192.168 354.53 192.168 356.038C192.168 357.546 193.39 358.768 194.898 358.768Z" fill="#009687"/>
    <path d="M646.353 365.761C646.353 366.16 646.236 366.549 646.015 366.881C645.794 367.212 645.48 367.471 645.112 367.624C644.744 367.777 644.34 367.817 643.949 367.739C643.558 367.662 643.199 367.47 642.918 367.188C642.636 366.907 642.444 366.548 642.367 366.157C642.289 365.766 642.329 365.361 642.482 364.994C642.635 364.626 642.893 364.311 643.225 364.091C643.556 363.87 643.946 363.752 644.344 363.753C644.877 363.754 645.387 363.966 645.763 364.343C646.14 364.719 646.352 365.229 646.353 365.761Z" fill="#4CB5AB"/>
    <path d="M300.136 412.883C300.137 413.281 300.019 413.671 299.799 414.003C299.578 414.334 299.263 414.593 298.896 414.745C298.528 414.898 298.123 414.938 297.732 414.861C297.341 414.783 296.983 414.592 296.701 414.31C296.419 414.028 296.228 413.669 296.15 413.279C296.072 412.888 296.113 412.483 296.265 412.115C296.418 411.747 296.677 411.433 297.008 411.212C297.34 410.992 297.729 410.874 298.128 410.875C298.66 410.876 299.17 411.088 299.547 411.464C299.923 411.841 300.135 412.351 300.136 412.883Z" fill="#4CB5AB"/>
    <path d="M678.836 382.35C678.837 382.748 678.72 383.137 678.499 383.469C678.278 383.801 677.964 384.059 677.596 384.212C677.228 384.365 676.823 384.405 676.432 384.327C676.042 384.25 675.683 384.058 675.401 383.776C675.119 383.495 674.928 383.136 674.85 382.745C674.773 382.354 674.813 381.95 674.966 381.582C675.118 381.214 675.377 380.9 675.709 380.679C676.04 380.458 676.43 380.341 676.828 380.341C677.36 380.342 677.87 380.554 678.247 380.931C678.623 381.307 678.835 381.817 678.836 382.35Z" fill="#4CB5AB"/>
    <path d="M303.952 388.287C303.953 388.685 303.836 389.075 303.615 389.406C303.394 389.738 303.08 389.996 302.712 390.149C302.344 390.302 301.939 390.342 301.549 390.264C301.158 390.187 300.799 389.995 300.517 389.713C300.236 389.432 300.044 389.073 299.966 388.682C299.889 388.292 299.929 387.887 300.082 387.519C300.235 387.151 300.493 386.837 300.825 386.616C301.156 386.395 301.546 386.278 301.944 386.278C302.476 386.279 302.987 386.491 303.363 386.868C303.739 387.244 303.951 387.754 303.952 388.287Z" fill="#4CB5AB"/>
    <path d="M524.048 377.685C524.049 378.083 523.932 378.473 523.711 378.804C523.49 379.136 523.176 379.394 522.808 379.547C522.44 379.7 522.035 379.74 521.644 379.663C521.254 379.585 520.895 379.393 520.613 379.112C520.332 378.83 520.14 378.471 520.062 378.08C519.985 377.69 520.025 377.285 520.178 376.917C520.331 376.549 520.589 376.235 520.921 376.014C521.252 375.793 521.642 375.676 522.04 375.677C522.572 375.678 523.083 375.89 523.459 376.266C523.835 376.642 524.047 377.153 524.048 377.685Z" fill="#4CB5AB"/>
    <path d="M149.165 383.622C149.166 384.02 149.048 384.41 148.827 384.741C148.607 385.073 148.292 385.331 147.924 385.484C147.557 385.637 147.152 385.677 146.761 385.6C146.37 385.522 146.011 385.33 145.73 385.049C145.448 384.767 145.256 384.408 145.179 384.017C145.101 383.627 145.141 383.222 145.294 382.854C145.447 382.486 145.706 382.172 146.037 381.951C146.369 381.73 146.758 381.613 147.157 381.614C147.689 381.615 148.199 381.827 148.575 382.203C148.952 382.579 149.164 383.09 149.165 383.622Z" fill="#4CB5AB"/>
    <path d="M186.908 338.246C186.908 338.644 186.791 339.034 186.57 339.365C186.349 339.697 186.035 339.955 185.667 340.108C185.299 340.261 184.894 340.301 184.504 340.223C184.113 340.146 183.754 339.954 183.472 339.672C183.191 339.391 182.999 339.032 182.922 338.641C182.844 338.251 182.884 337.846 183.037 337.478C183.19 337.11 183.448 336.796 183.78 336.575C184.111 336.354 184.501 336.237 184.899 336.237C185.432 336.238 185.942 336.45 186.318 336.827C186.695 337.203 186.907 337.713 186.908 338.246Z" fill="#4CB5AB"/>
    <path d="M637.276 332.308C637.277 332.707 637.16 333.096 636.939 333.428C636.718 333.759 636.404 334.018 636.036 334.171C635.668 334.324 635.263 334.364 634.873 334.286C634.482 334.209 634.123 334.017 633.841 333.735C633.56 333.454 633.368 333.095 633.29 332.704C633.213 332.313 633.253 331.908 633.406 331.541C633.559 331.173 633.817 330.858 634.149 330.638C634.48 330.417 634.87 330.299 635.268 330.3C635.8 330.301 636.311 330.513 636.687 330.89C637.063 331.266 637.275 331.776 637.276 332.308Z" fill="#4CB5AB"/>
    <path d="M529.28 284.713C529.28 285.674 528.935 286.465 528.246 287.087C527.556 287.698 526.674 288.003 525.599 288.003H520.612V276.808H524.582C525.622 276.808 526.47 277.102 527.126 277.69C527.793 278.267 528.127 279.013 528.127 279.929C528.127 280.755 527.85 281.427 527.296 281.948C528.619 282.434 529.28 283.356 529.28 284.713ZM524.395 278.776H522.817V281.337H524.395C524.859 281.337 525.215 281.224 525.464 280.998C525.724 280.772 525.854 280.455 525.854 280.048C525.854 279.652 525.724 279.341 525.464 279.115C525.215 278.889 524.859 278.776 524.395 278.776ZM527.024 284.628C527.024 284.198 526.883 283.859 526.6 283.61C526.317 283.35 525.927 283.22 525.43 283.22H522.817V286.036H525.43C525.927 286.036 526.317 285.911 526.6 285.663C526.883 285.414 527.024 285.069 527.024 284.628Z" fill="#A8D29F"/>
    <path d="M538.208 288.003L537.581 286.545H533.001L532.373 288.003H529.914L534.918 276.604H535.681L540.668 288.003H538.208ZM536.784 284.662L535.291 280.879L533.798 284.662H536.784Z" fill="#A8D29F"/>
    <path d="M551.645 288.003H549.067L546.166 284.051H544.487V288.003H542.197V276.808H546.404C547.58 276.808 548.547 277.141 549.305 277.809C550.062 278.476 550.441 279.347 550.441 280.421C550.441 281.122 550.266 281.755 549.915 282.321C549.576 282.875 549.095 283.305 548.473 283.61L551.645 288.003ZM544.487 278.826V282.032H546.404C546.935 282.032 547.348 281.885 547.642 281.591C547.948 281.297 548.1 280.907 548.1 280.421C548.1 279.946 547.942 279.562 547.625 279.268C547.32 278.973 546.913 278.826 546.404 278.826H544.487Z" fill="#A8D29F"/>
    <path d="M555.144 288.003V278.877H551.565V276.808H561.03V278.877H557.434V288.003H555.144Z" fill="#A8D29F"/>
    <path d="M562.539 288.003V276.808H570.071V278.877H564.829V281.15H568.68V283.101H564.829V285.934H570.275V288.003H562.539Z" fill="#A8D29F"/>
    <path d="M581.712 288.003H579.133L576.233 284.051H574.553V288.003H572.263V276.808H576.47C577.646 276.808 578.613 277.141 579.371 277.809C580.129 278.476 580.507 279.347 580.507 280.421C580.507 281.122 580.332 281.755 579.982 282.321C579.642 282.875 579.162 283.305 578.54 283.61L581.712 288.003ZM574.553 278.826V282.032H576.47C577.002 282.032 577.415 281.885 577.709 281.591C578.014 281.297 578.167 280.907 578.167 280.421C578.167 279.946 578.008 279.562 577.692 279.268C577.386 278.973 576.979 278.826 576.47 278.826H574.553Z" fill="#A8D29F"/>
    <path d="M587.868 288.003V276.808H590.158V288.003H587.868Z" fill="#A8D29F"/>
    <path d="M599.965 276.808H602.255V288.207H601.492L595.012 281.286V288.003H592.722V276.604H593.468L599.965 283.491V276.808Z" fill="#A8D29F"/>
    <path d="M604.815 288.003V276.808H607.105V288.003H604.815Z" fill="#A8D29F"/>
    <path d="M612.196 288.003V278.877H608.617V276.808H618.082V278.877H614.486V288.003H612.196Z" fill="#A8D29F"/>
    <path d="M619.591 288.003V276.808H621.881V288.003H619.591Z" fill="#A8D29F"/>
    <path d="M631.671 288.003L631.043 286.545H626.463L625.836 288.003H623.376L628.38 276.604H629.143L634.131 288.003H631.671ZM630.246 284.662L628.753 280.879L627.261 284.662H630.246Z" fill="#A8D29F"/>
    <path d="M636.911 288.003V278.877H633.332V276.808H642.798V278.877H639.201V288.003H636.911Z" fill="#A8D29F"/>
    <path d="M644.307 288.003V276.808H651.838V278.877H646.597V281.15H650.447V283.101H646.597V285.934H652.042V288.003H644.307Z" fill="#A8D29F"/>
    <path d="M654.031 288.003V276.808H657.695C659.481 276.785 660.952 277.3 662.105 278.352C663.259 279.392 663.824 280.732 663.801 282.372C663.824 284 663.253 285.352 662.088 286.426C660.923 287.5 659.459 288.026 657.695 288.003H654.031ZM656.321 285.934H657.678C658.809 285.934 659.719 285.612 660.409 284.967C661.099 284.311 661.443 283.446 661.443 282.372C661.443 281.286 661.104 280.432 660.426 279.81C659.747 279.188 658.831 278.877 657.678 278.877H656.321V285.934Z" fill="#A8D29F"/>
    <path d="M671.209 283.898L670.768 276.808H673.499L673.075 283.898H671.209ZM670.582 286.629C670.582 286.188 670.729 285.815 671.023 285.51C671.328 285.205 671.712 285.052 672.176 285.052C672.617 285.052 672.985 285.205 673.279 285.51C673.584 285.815 673.737 286.188 673.737 286.629C673.737 287.082 673.584 287.461 673.279 287.766C672.985 288.06 672.617 288.207 672.176 288.207C671.712 288.207 671.328 288.06 671.023 287.766C670.729 287.461 670.582 287.082 670.582 286.629Z" fill="#A8D29F"/>
    <path d="M157.365 296.9C157.365 297.861 157.021 298.653 156.331 299.275C155.641 299.886 154.759 300.191 153.684 300.191H148.697V288.995H152.667C153.707 288.995 154.555 289.289 155.211 289.877C155.878 290.454 156.212 291.2 156.212 292.116C156.212 292.942 155.935 293.615 155.381 294.135C156.704 294.621 157.365 295.543 157.365 296.9ZM152.48 290.963H150.902V293.524H152.48C152.944 293.524 153.3 293.411 153.549 293.185C153.809 292.959 153.939 292.642 153.939 292.235C153.939 291.839 153.809 291.528 153.549 291.302C153.3 291.076 152.944 290.963 152.48 290.963ZM155.109 296.815C155.109 296.386 154.968 296.046 154.685 295.797C154.403 295.537 154.012 295.407 153.515 295.407H150.902V298.223H153.515C154.012 298.223 154.403 298.099 154.685 297.85C154.968 297.601 155.109 297.256 155.109 296.815Z" fill="#A8D29F"/>
    <path d="M166.294 300.191L165.666 298.732H161.086L160.458 300.191H157.999L163.003 288.792H163.766L168.753 300.191H166.294ZM164.869 296.849L163.376 293.066L161.883 296.849H164.869Z" fill="#A8D29F"/>
    <path d="M179.731 300.191H177.152L174.251 296.239H172.572V300.191H170.282V288.995H174.489C175.665 288.995 176.632 289.329 177.39 289.996C178.147 290.663 178.526 291.534 178.526 292.608C178.526 293.31 178.351 293.943 178 294.508C177.661 295.062 177.18 295.492 176.558 295.797L179.731 300.191ZM172.572 291.014V294.22H174.489C175.02 294.22 175.433 294.073 175.727 293.779C176.033 293.485 176.185 293.095 176.185 292.608C176.185 292.133 176.027 291.749 175.71 291.455C175.405 291.161 174.998 291.014 174.489 291.014H172.572Z" fill="#A8D29F"/>
    <path d="M183.229 300.191V291.065H179.65V288.995H189.115V291.065H185.519V300.191H183.229Z" fill="#A8D29F"/>
    <path d="M190.625 300.191V288.995H198.156V291.065H192.915V293.338H196.765V295.289H192.915V298.121H198.36V300.191H190.625Z" fill="#A8D29F"/>
    <path d="M209.797 300.191H207.219L204.318 296.239H202.638V300.191H200.348V288.995H204.555C205.731 288.995 206.698 289.329 207.456 289.996C208.214 290.663 208.593 291.534 208.593 292.608C208.593 293.31 208.417 293.943 208.067 294.508C207.727 295.062 207.247 295.492 206.625 295.797L209.797 300.191ZM202.638 291.014V294.22H204.555C205.087 294.22 205.5 294.073 205.794 293.779C206.099 293.485 206.252 293.095 206.252 292.608C206.252 292.133 206.093 291.749 205.777 291.455C205.471 291.161 205.064 291.014 204.555 291.014H202.638Z" fill="#A8D29F"/>
    <path d="M215.953 300.191V288.995H218.243V300.191H215.953Z" fill="#A8D29F"/>
    <path d="M228.05 288.995H230.34V300.394H229.577L223.097 293.474V300.191H220.807V288.792H221.553L228.05 295.679V288.995Z" fill="#A8D29F"/>
    <path d="M232.9 300.191V288.995H235.19V300.191H232.9Z" fill="#A8D29F"/>
    <path d="M240.281 300.191V291.065H236.702V288.995H246.167V291.065H242.571V300.191H240.281Z" fill="#A8D29F"/>
    <path d="M247.676 300.191V288.995H249.966V300.191H247.676Z" fill="#A8D29F"/>
    <path d="M259.756 300.191L259.128 298.732H254.548L253.921 300.191H251.461L256.465 288.792H257.229L262.216 300.191H259.756ZM258.331 296.849L256.838 293.066L255.346 296.849H258.331Z" fill="#A8D29F"/>
    <path d="M264.997 300.191V291.065H261.417V288.995H270.883V291.065H267.287V300.191H264.997Z" fill="#A8D29F"/>
    <path d="M272.392 300.191V288.995H279.923V291.065H274.682V293.338H278.532V295.289H274.682V298.121H280.127V300.191H272.392Z" fill="#A8D29F"/>
    <path d="M282.116 300.191V288.995H285.78C287.566 288.973 289.037 289.487 290.19 290.539C291.344 291.579 291.909 292.919 291.886 294.559C291.909 296.188 291.338 297.539 290.173 298.613C289.008 299.688 287.544 300.214 285.78 300.191H282.116ZM284.406 298.121H285.763C286.894 298.121 287.804 297.799 288.494 297.155C289.184 296.499 289.529 295.634 289.529 294.559C289.529 293.474 289.189 292.62 288.511 291.998C287.832 291.376 286.916 291.065 285.763 291.065H284.406V298.121Z" fill="#A8D29F"/>
    <path d="M299.294 296.086L298.853 288.995H301.584L301.16 296.086H299.294ZM298.667 298.817C298.667 298.376 298.814 298.003 299.108 297.697C299.413 297.392 299.797 297.239 300.261 297.239C300.702 297.239 301.07 297.392 301.364 297.697C301.669 298.003 301.822 298.376 301.822 298.817C301.822 299.269 301.669 299.648 301.364 299.953C301.07 300.247 300.702 300.394 300.261 300.394C299.797 300.394 299.413 300.247 299.108 299.953C298.814 299.648 298.667 299.269 298.667 298.817Z" fill="#A8D29F"/>
</svg>
