<svg xmlns="http://www.w3.org/2000/svg" fill="none" viewBox="0 0 1310 463"><rect width="83" height="8" y="228" fill="#FFBC36"/><rect width="177" height="8" x="116" y="228" fill="#FFBC36"/><rect width="287" height="8" x="326" y="228" fill="#FFBC36"/><rect width="324" height="8" x="646" y="228" fill="#FFBC36"/><rect width="307" height="8" x="1003" y="228" fill="#FFBC36"/><g filter="url(#filter0_d)"><circle cx="99.5" cy="231.5" r="8.5" fill="#1A2639"/></g><g filter="url(#filter1_d)"><circle cx="309.5" cy="231.5" r="8.5" fill="#1A2639"/></g><g filter="url(#filter2_d)"><circle cx="629.5" cy="231.5" r="8.5" fill="#1A2639"/></g><g filter="url(#filter3_d)"><circle cx="986.5" cy="231.5" r="8.5" fill="#1A2639"/></g><line x1="100.5" x2="100.5" y1="0" y2="215" stroke="#1A2639"/><line x1="310.5" x2="310.5" y1="248" y2="463" stroke="#1A2639"/><line x1="630.5" x2="630.5" y1="0" y2="215" stroke="#1A2639"/><line x1="987.5" x2="987.5" y1="244" y2="459" stroke="#1A2639"/><path fill="#fff" d="M134.99 134H130.43L125.3 127.01H122.33V134H118.28V114.2H125.72C127.8 114.2 129.51 114.79 130.85 115.97C132.19 117.15 132.86 118.69 132.86 120.59C132.86 121.83 132.55 122.95 131.93 123.95C131.33 124.93 130.48 125.69 129.38 126.23L134.99 134ZM122.33 117.77V123.44H125.72C126.66 123.44 127.39 123.18 127.91 122.66C128.45 122.14 128.72 121.45 128.72 120.59C128.72 119.75 128.44 119.07 127.88 118.55C127.34 118.03 126.62 117.77 125.72 117.77H122.33ZM150.41 127.94H140C140.24 128.88 140.72 129.61 141.44 130.13C142.18 130.63 143.09 130.88 144.17 130.88C145.63 130.88 147.01 130.38 148.31 129.38L149.99 132.14C148.21 133.62 146.23 134.36 144.05 134.36C141.77 134.4 139.83 133.66 138.23 132.14C136.65 130.6 135.88 128.75 135.92 126.59C135.88 124.45 136.63 122.61 138.17 121.07C139.71 119.53 141.55 118.78 143.69 118.82C145.73 118.82 147.4 119.48 148.7 120.8C150.02 122.12 150.68 123.76 150.68 125.72C150.68 126.44 150.59 127.18 150.41 127.94ZM140 125.09H146.75C146.73 124.19 146.41 123.47 145.79 122.93C145.19 122.37 144.44 122.09 143.54 122.09C142.68 122.09 141.93 122.36 141.29 122.9C140.65 123.44 140.22 124.17 140 125.09ZM165.03 119.15H168.75V132.35C168.75 134.73 168.06 136.56 166.68 137.84C165.3 139.12 163.43 139.76 161.07 139.76C158.29 139.76 155.86 138.84 153.78 137L155.91 134.18C157.63 135.46 159.24 136.1 160.74 136.1C161.96 136.1 162.92 135.8 163.62 135.2C164.34 134.6 164.7 133.73 164.7 132.59V131.78C163.62 132.96 162.11 133.55 160.17 133.55C158.11 133.55 156.41 132.86 155.07 131.48C153.73 130.1 153.06 128.33 153.06 126.17C153.06 123.99 153.73 122.22 155.07 120.86C156.41 119.5 158.11 118.82 160.17 118.82C162.33 118.82 163.95 119.55 165.03 121.01V119.15ZM164.76 126.11C164.76 124.89 164.4 123.95 163.68 123.29C162.98 122.61 162.09 122.27 161.01 122.27C159.89 122.27 158.97 122.62 158.25 123.32C157.53 124.02 157.17 124.96 157.17 126.14C157.17 127.32 157.53 128.28 158.25 129.02C158.99 129.76 159.91 130.13 161.01 130.13C162.07 130.13 162.96 129.77 163.68 129.05C164.4 128.33 164.76 127.35 164.76 126.11ZM172.766 134V119.15H176.816V134H172.766ZM172.196 113.75C172.196 113.03 172.446 112.43 172.946 111.95C173.446 111.47 174.056 111.23 174.776 111.23C175.496 111.23 176.106 111.47 176.606 111.95C177.126 112.43 177.386 113.03 177.386 113.75C177.386 114.45 177.126 115.04 176.606 115.52C176.106 116 175.496 116.24 174.776 116.24C174.056 116.24 173.446 116 172.946 115.52C172.446 115.04 172.196 114.45 172.196 113.75ZM179.473 131.48L181.513 129.02C182.793 130.36 184.183 131.03 185.683 131.03C186.243 131.03 186.693 130.93 187.033 130.73C187.393 130.51 187.573 130.2 187.573 129.8C187.573 129.5 187.463 129.27 187.243 129.11C187.043 128.93 186.643 128.71 186.043 128.45L184.453 127.79C183.033 127.21 182.003 126.58 181.363 125.9C180.723 125.2 180.403 124.32 180.403 123.26C180.403 121.88 180.903 120.8 181.903 120.02C182.903 119.22 184.223 118.82 185.863 118.82C188.063 118.82 189.843 119.56 191.203 121.04L189.163 123.53C188.163 122.59 187.053 122.12 185.833 122.12C184.773 122.12 184.243 122.47 184.243 123.17C184.243 123.45 184.353 123.68 184.573 123.86C184.793 124.04 185.203 124.25 185.803 124.49L187.243 125.09C188.723 125.69 189.783 126.33 190.423 127.01C191.083 127.69 191.413 128.56 191.413 129.62C191.413 131.1 190.863 132.26 189.763 133.1C188.683 133.94 187.303 134.36 185.623 134.36C182.963 134.36 180.913 133.4 179.473 131.48ZM204.015 130.61V134C203.055 134.24 202.125 134.36 201.225 134.36C199.325 134.36 197.855 133.89 196.815 132.95C195.795 132.01 195.285 130.62 195.285 128.78V122.57H192.945V119.15H195.285V115.4H199.335V119.15H203.535V122.57H199.335V128.42C199.335 129.26 199.545 129.86 199.965 130.22C200.405 130.56 201.115 130.73 202.095 130.73C202.435 130.73 203.075 130.69 204.015 130.61ZM220.312 127.94H209.902C210.142 128.88 210.622 129.61 211.342 130.13C212.082 130.63 212.992 130.88 214.072 130.88C215.532 130.88 216.912 130.38 218.212 129.38L219.892 132.14C218.112 133.62 216.132 134.36 213.952 134.36C211.672 134.4 209.732 133.66 208.132 132.14C206.552 130.6 205.782 128.75 205.822 126.59C205.782 124.45 206.532 122.61 208.072 121.07C209.612 119.53 211.452 118.78 213.592 118.82C215.632 118.82 217.302 119.48 218.602 120.8C219.922 122.12 220.582 123.76 220.582 125.72C220.582 126.44 220.492 127.18 220.312 127.94ZM209.902 125.09H216.652C216.632 124.19 216.312 123.47 215.692 122.93C215.092 122.37 214.342 122.09 213.442 122.09C212.582 122.09 211.832 122.36 211.192 122.9C210.552 123.44 210.122 124.17 209.902 125.09ZM232.862 119.15V122.72H231.782C230.542 122.72 229.562 123.05 228.842 123.71C228.142 124.37 227.792 125.33 227.792 126.59V134H223.742V119.15H227.462V120.92C228.502 119.62 229.862 118.97 231.542 118.97C232.042 118.97 232.482 119.03 232.862 119.15ZM253.921 119.15H258.181L251.071 135.29C250.391 136.83 249.581 137.96 248.641 138.68C247.701 139.4 246.541 139.76 245.161 139.76C244.321 139.76 243.451 139.64 242.551 139.4V136.01C243.371 136.09 243.951 136.13 244.291 136.13C245.051 136.13 245.671 135.98 246.151 135.68C246.631 135.38 247.041 134.86 247.381 134.12L247.831 133.1L242.131 119.15H246.421L250.051 128.9L253.921 119.15ZM259.113 126.56C259.073 124.44 259.843 122.61 261.423 121.07C263.003 119.53 264.883 118.78 267.063 118.82C269.243 118.78 271.123 119.53 272.703 121.07C274.303 122.61 275.083 124.44 275.043 126.56C275.083 128.68 274.303 130.52 272.703 132.08C271.103 133.62 269.213 134.37 267.033 134.33C264.853 134.37 262.973 133.62 261.393 132.08C259.833 130.52 259.073 128.68 259.113 126.56ZM269.793 129.47C270.533 128.71 270.903 127.75 270.903 126.59C270.903 125.43 270.533 124.46 269.793 123.68C269.073 122.9 268.163 122.51 267.063 122.51C265.943 122.51 265.023 122.9 264.303 123.68C263.583 124.44 263.223 125.41 263.223 126.59C263.223 127.75 263.583 128.71 264.303 129.47C265.023 130.23 265.943 130.61 267.063 130.61C268.163 130.61 269.073 130.23 269.793 129.47ZM278.055 127.46V119.15H282.105V127.79C282.105 128.65 282.365 129.34 282.885 129.86C283.425 130.38 284.105 130.64 284.925 130.64C285.725 130.64 286.385 130.38 286.905 129.86C287.425 129.32 287.685 128.63 287.685 127.79V119.15H291.735V127.46C291.735 129.5 291.085 131.16 289.785 132.44C288.505 133.72 286.885 134.36 284.925 134.36C282.925 134.36 281.275 133.73 279.975 132.47C278.695 131.19 278.055 129.52 278.055 127.46ZM304.728 119.15V122.72H303.648C302.408 122.72 301.428 123.05 300.708 123.71C300.008 124.37 299.658 125.33 299.658 126.59V134H295.608V119.15H299.328V120.92C300.368 119.62 301.728 118.97 303.408 118.97C303.908 118.97 304.348 119.03 304.728 119.15ZM315.917 134V114.2H323.357C325.437 114.2 327.147 114.79 328.487 115.97C329.827 117.15 330.497 118.69 330.497 120.59C330.497 122.47 329.827 124.01 328.487 125.21C327.147 126.41 325.437 127.01 323.357 127.01H319.967V134H315.917ZM319.967 123.47H323.357C324.297 123.47 325.027 123.21 325.547 122.69C326.087 122.15 326.357 121.45 326.357 120.59C326.357 119.75 326.077 119.07 325.517 118.55C324.977 118.03 324.257 117.77 323.357 117.77H319.967V123.47ZM342.579 119.15V122.72H341.499C340.259 122.72 339.279 123.05 338.559 123.71C337.859 124.37 337.509 125.33 337.509 126.59V134H333.459V119.15H337.179V120.92C338.219 119.62 339.579 118.97 341.259 118.97C341.759 118.97 342.199 119.03 342.579 119.15ZM343.957 126.56C343.917 124.44 344.687 122.61 346.267 121.07C347.847 119.53 349.727 118.78 351.907 118.82C354.087 118.78 355.967 119.53 357.547 121.07C359.147 122.61 359.927 124.44 359.887 126.56C359.927 128.68 359.147 130.52 357.547 132.08C355.947 133.62 354.057 134.37 351.877 134.33C349.697 134.37 347.817 133.62 346.237 132.08C344.677 130.52 343.917 128.68 343.957 126.56ZM354.637 129.47C355.377 128.71 355.747 127.75 355.747 126.59C355.747 125.43 355.377 124.46 354.637 123.68C353.917 122.9 353.007 122.51 351.907 122.51C350.787 122.51 349.867 122.9 349.147 123.68C348.427 124.44 348.067 125.41 348.067 126.59C348.067 127.75 348.427 128.71 349.147 129.47C349.867 130.23 350.787 130.61 351.907 130.61C353.007 130.61 353.917 130.23 354.637 129.47ZM373.849 111.5H377.899V134H374.179V132.17C373.159 133.63 371.569 134.36 369.409 134.36C367.329 134.36 365.609 133.63 364.249 132.17C362.889 130.69 362.209 128.83 362.209 126.59C362.209 124.35 362.889 122.5 364.249 121.04C365.609 119.56 367.329 118.82 369.409 118.82C371.289 118.82 372.769 119.41 373.849 120.59V111.5ZM372.829 129.59C373.549 128.87 373.909 127.87 373.909 126.59C373.909 125.31 373.549 124.31 372.829 123.59C372.109 122.85 371.219 122.48 370.159 122.48C369.059 122.48 368.139 122.86 367.399 123.62C366.679 124.38 366.319 125.36 366.319 126.56C366.319 127.78 366.679 128.77 367.399 129.53C368.119 130.29 369.039 130.67 370.159 130.67C371.239 130.67 372.129 130.31 372.829 129.59ZM381.766 127.46V119.15H385.816V127.79C385.816 128.65 386.076 129.34 386.596 129.86C387.136 130.38 387.816 130.64 388.636 130.64C389.436 130.64 390.096 130.38 390.616 129.86C391.136 129.32 391.396 128.63 391.396 127.79V119.15H395.446V127.46C395.446 129.5 394.796 131.16 393.496 132.44C392.216 133.72 390.596 134.36 388.636 134.36C386.636 134.36 384.986 133.73 383.686 132.47C382.406 131.19 381.766 129.52 381.766 127.46ZM398.479 126.56C398.479 124.4 399.249 122.57 400.789 121.07C402.329 119.57 404.209 118.82 406.429 118.82C409.349 118.82 411.499 120.04 412.879 122.48L410.059 124.67C409.059 123.23 407.869 122.51 406.489 122.51C405.349 122.51 404.409 122.9 403.669 123.68C402.949 124.44 402.589 125.4 402.589 126.56C402.589 127.74 402.949 128.72 403.669 129.5C404.409 130.26 405.349 130.64 406.489 130.64C407.869 130.64 409.059 129.93 410.059 128.51L412.879 130.67C412.219 131.83 411.329 132.74 410.209 133.4C409.109 134.04 407.849 134.36 406.429 134.36C404.249 134.4 402.369 133.65 400.789 132.11C399.209 130.55 398.439 128.7 398.479 126.56ZM425.411 130.61V134C424.451 134.24 423.521 134.36 422.621 134.36C420.721 134.36 419.251 133.89 418.211 132.95C417.191 132.01 416.681 130.62 416.681 128.78V122.57H414.341V119.15H416.681V115.4H420.731V119.15H424.931V122.57H420.731V128.42C420.731 129.26 420.941 129.86 421.361 130.22C421.801 130.56 422.511 130.73 423.491 130.73C423.831 130.73 424.471 130.69 425.411 130.61Z"/><path fill="url(#paint0_linear)" d="M118.4 64.28L125.84 58.68C129.573 63.8 133.893 66.36 138.8 66.36C141.147 66.36 142.987 65.8533 144.32 64.84C145.653 63.7733 146.32 62.3333 146.32 60.52C146.32 59.0267 145.867 57.88 144.96 57.08C144.053 56.2267 142.267 55.1867 139.6 53.96L133.92 51.4C125.387 47.6133 121.12 42.5467 121.12 36.2C121.12 31.72 122.773 28.12 126.08 25.4C129.387 22.6267 133.573 21.24 138.64 21.24C142.587 21.24 146.053 22.1467 149.04 23.96C152.027 25.72 154.373 28.1467 156.08 31.24L148.72 36.92C146 32.8667 142.64 30.84 138.64 30.84C136.72 30.84 135.147 31.2933 133.92 32.2C132.693 33.1067 132.08 34.36 132.08 35.96C132.08 37.2933 132.507 38.3867 133.36 39.24C134.267 40.04 135.893 40.9733 138.24 42.04L144.24 44.68C148.773 46.7067 152.08 48.92 154.16 51.32C156.24 53.6667 157.28 56.6 157.28 60.12C157.28 64.8667 155.547 68.7067 152.08 71.64C148.613 74.52 144.187 75.96 138.8 75.96C134.373 75.96 130.373 74.92 126.8 72.84C123.28 70.76 120.48 67.9067 118.4 64.28ZM178.688 75V31.96H161.808V22.2H206.448V31.96H189.488V75H178.688ZM213.564 75V22.2H249.084V31.96H224.364V42.68H242.524V51.88H224.364V65.24H250.044V75H213.564ZM259.424 75V22.2H279.264C284.81 22.2 289.37 23.7733 292.944 26.92C296.517 30.0667 298.304 34.1733 298.304 39.24C298.304 44.2533 296.517 48.36 292.944 51.56C289.37 54.76 284.81 56.36 279.264 56.36H270.224V75H259.424ZM270.224 46.92H279.264C281.77 46.92 283.717 46.2267 285.104 44.84C286.544 43.4 287.264 41.5333 287.264 39.24C287.264 37 286.517 35.1867 285.024 33.8C283.584 32.4133 281.664 31.72 279.264 31.72H270.224V46.92ZM342.044 22.2H345.644V75H334.844V35L324.844 38.2L322.284 28.68L342.044 22.2Z"/><path fill="url(#paint1_linear)" d="M328.4 425.28L335.84 419.68C339.573 424.8 343.893 427.36 348.8 427.36C351.147 427.36 352.987 426.853 354.32 425.84C355.653 424.773 356.32 423.333 356.32 421.52C356.32 420.027 355.867 418.88 354.96 418.08C354.053 417.227 352.267 416.187 349.6 414.96L343.92 412.4C335.387 408.613 331.12 403.547 331.12 397.2C331.12 392.72 332.773 389.12 336.08 386.4C339.387 383.627 343.573 382.24 348.64 382.24C352.587 382.24 356.053 383.147 359.04 384.96C362.027 386.72 364.373 389.147 366.08 392.24L358.72 397.92C356 393.867 352.64 391.84 348.64 391.84C346.72 391.84 345.147 392.293 343.92 393.2C342.693 394.107 342.08 395.36 342.08 396.96C342.08 398.293 342.507 399.387 343.36 400.24C344.267 401.04 345.893 401.973 348.24 403.04L354.24 405.68C358.773 407.707 362.08 409.92 364.16 412.32C366.24 414.667 367.28 417.6 367.28 421.12C367.28 425.867 365.547 429.707 362.08 432.64C358.613 435.52 354.187 436.96 348.8 436.96C344.373 436.96 340.373 435.92 336.8 433.84C333.28 431.76 330.48 428.907 328.4 425.28ZM388.688 436V392.96H371.808V383.2H416.448V392.96H399.488V436H388.688ZM423.564 436V383.2H459.084V392.96H434.364V403.68H452.524V412.88H434.364V426.24H460.044V436H423.564ZM469.424 436V383.2H489.264C494.81 383.2 499.37 384.773 502.944 387.92C506.517 391.067 508.304 395.173 508.304 400.24C508.304 405.253 506.517 409.36 502.944 412.56C499.37 415.76 494.81 417.36 489.264 417.36H480.224V436H469.424ZM480.224 407.92H489.264C491.77 407.92 493.717 407.227 495.104 405.84C496.544 404.4 497.264 402.533 497.264 400.24C497.264 398 496.517 396.187 495.024 394.8C493.584 393.413 491.664 392.72 489.264 392.72H480.224V407.92ZM553.724 426.8H573.404V436L534.444 436.08V433.76L553.324 413.28C555.99 410.347 557.884 407.893 559.004 405.92C560.177 403.893 560.764 401.92 560.764 400C560.764 397.707 560.097 395.84 558.764 394.4C557.43 392.96 555.644 392.24 553.404 392.24C551.164 392.24 549.35 392.987 547.964 394.48C546.63 395.973 545.964 397.92 545.964 400.32C545.964 401.12 546.097 402.4 546.364 404.16H535.484C535.11 402.827 534.924 401.333 534.924 399.68C534.924 394.987 536.657 390.907 540.124 387.44C543.644 383.973 548.124 382.24 553.564 382.24C558.844 382.24 563.217 383.867 566.684 387.12C570.15 390.32 571.884 394.32 571.884 399.12C571.884 402.693 570.924 406.027 569.004 409.12C566.977 412.32 564.15 415.813 560.524 419.6L553.724 426.8Z"/><path fill="url(#paint2_linear)" d="M651.4 64.28L658.84 58.68C662.573 63.8 666.893 66.36 671.8 66.36C674.147 66.36 675.987 65.8533 677.32 64.84C678.653 63.7733 679.32 62.3333 679.32 60.52C679.32 59.0267 678.867 57.88 677.96 57.08C677.053 56.2267 675.267 55.1867 672.6 53.96L666.92 51.4C658.387 47.6133 654.12 42.5467 654.12 36.2C654.12 31.72 655.773 28.12 659.08 25.4C662.387 22.6267 666.573 21.24 671.64 21.24C675.587 21.24 679.053 22.1467 682.04 23.96C685.027 25.72 687.373 28.1467 689.08 31.24L681.72 36.92C679 32.8667 675.64 30.84 671.64 30.84C669.72 30.84 668.147 31.2933 666.92 32.2C665.693 33.1067 665.08 34.36 665.08 35.96C665.08 37.2933 665.507 38.3867 666.36 39.24C667.267 40.04 668.893 40.9733 671.24 42.04L677.24 44.68C681.773 46.7067 685.08 48.92 687.16 51.32C689.24 53.6667 690.28 56.6 690.28 60.12C690.28 64.8667 688.547 68.7067 685.08 71.64C681.613 74.52 677.187 75.96 671.8 75.96C667.373 75.96 663.373 74.92 659.8 72.84C656.28 70.76 653.48 67.9067 651.4 64.28ZM711.688 75V31.96H694.808V22.2H739.448V31.96H722.488V75H711.688ZM746.564 75V22.2H782.084V31.96H757.364V42.68H775.524V51.88H757.364V65.24H783.044V75H746.564ZM792.424 75V22.2H812.264C817.81 22.2 822.37 23.7733 825.944 26.92C829.517 30.0667 831.304 34.1733 831.304 39.24C831.304 44.2533 829.517 48.36 825.944 51.56C822.37 54.76 817.81 56.36 812.264 56.36H803.224V75H792.424ZM803.224 46.92H812.264C814.77 46.92 816.717 46.2267 818.104 44.84C819.544 43.4 820.264 41.5333 820.264 39.24C820.264 37 819.517 35.1867 818.024 33.8C816.584 32.4133 814.664 31.72 812.264 31.72H803.224V46.92ZM894.164 57.72C894.164 62.9467 892.217 67.2933 888.324 70.76C884.484 74.2267 879.79 75.96 874.244 75.96C869.977 75.96 866.164 74.8933 862.804 72.76C859.444 70.6267 856.857 67.6933 855.044 63.96L862.564 58.68C864.217 61.1867 865.924 63.0267 867.684 64.2C869.497 65.3733 871.577 65.96 873.924 65.96C876.644 65.96 878.857 65.24 880.564 63.8C882.27 62.3067 883.124 60.3067 883.124 57.8C883.124 55.3467 882.19 53.48 880.324 52.2C878.51 50.8667 875.844 50.2 872.324 50.2H865.684V47.4L876.724 31.96H859.124V22.2H893.124V25.08L881.444 41.56C884.964 42.4667 887.977 44.36 890.484 47.24C892.937 50.0133 894.164 53.5067 894.164 57.72Z"/><path fill="url(#paint3_linear)" d="M1005.4 425.28L1012.84 419.68C1016.57 424.8 1020.89 427.36 1025.8 427.36C1028.15 427.36 1029.99 426.853 1031.32 425.84C1032.65 424.773 1033.32 423.333 1033.32 421.52C1033.32 420.027 1032.87 418.88 1031.96 418.08C1031.05 417.227 1029.27 416.187 1026.6 414.96L1020.92 412.4C1012.39 408.613 1008.12 403.547 1008.12 397.2C1008.12 392.72 1009.77 389.12 1013.08 386.4C1016.39 383.627 1020.57 382.24 1025.64 382.24C1029.59 382.24 1033.05 383.147 1036.04 384.96C1039.03 386.72 1041.37 389.147 1043.08 392.24L1035.72 397.92C1033 393.867 1029.64 391.84 1025.64 391.84C1023.72 391.84 1022.15 392.293 1020.92 393.2C1019.69 394.107 1019.08 395.36 1019.08 396.96C1019.08 398.293 1019.51 399.387 1020.36 400.24C1021.27 401.04 1022.89 401.973 1025.24 403.04L1031.24 405.68C1035.77 407.707 1039.08 409.92 1041.16 412.32C1043.24 414.667 1044.28 417.6 1044.28 421.12C1044.28 425.867 1042.55 429.707 1039.08 432.64C1035.61 435.52 1031.19 436.96 1025.8 436.96C1021.37 436.96 1017.37 435.92 1013.8 433.84C1010.28 431.76 1007.48 428.907 1005.4 425.28ZM1065.69 436V392.96H1048.81V383.2H1093.45V392.96H1076.49V436H1065.69ZM1100.56 436V383.2H1136.08V392.96H1111.36V403.68H1129.52V412.88H1111.36V426.24H1137.04V436H1100.56ZM1146.42 436V383.2H1166.26C1171.81 383.2 1176.37 384.773 1179.94 387.92C1183.52 391.067 1185.3 395.173 1185.3 400.24C1185.3 405.253 1183.52 409.36 1179.94 412.56C1176.37 415.76 1171.81 417.36 1166.26 417.36H1157.22V436H1146.42ZM1157.22 407.92H1166.26C1168.77 407.92 1170.72 407.227 1172.1 405.84C1173.54 404.4 1174.26 402.533 1174.26 400.24C1174.26 398 1173.52 396.187 1172.02 394.8C1170.58 393.413 1168.66 392.72 1166.26 392.72H1157.22V407.92ZM1252.88 418.24V427.36H1246.16V436H1235.36V427.36H1209.12V424.48L1225.44 383.2H1236.56L1222.56 418.24H1235.36V403.44H1246.16V418.24H1252.88Z"/><path fill="#fff" d="M326.9 341.98L329.69 339.88C331.09 341.8 332.71 342.76 334.55 342.76C335.43 342.76 336.12 342.57 336.62 342.19C337.12 341.79 337.37 341.25 337.37 340.57C337.37 340.01 337.2 339.58 336.86 339.28C336.52 338.96 335.85 338.57 334.85 338.11L332.72 337.15C329.52 335.73 327.92 333.83 327.92 331.45C327.92 329.77 328.54 328.42 329.78 327.4C331.02 326.36 332.59 325.84 334.49 325.84C335.97 325.84 337.27 326.18 338.39 326.86C339.51 327.52 340.39 328.43 341.03 329.59L338.27 331.72C337.25 330.2 335.99 329.44 334.49 329.44C333.77 329.44 333.18 329.61 332.72 329.95C332.26 330.29 332.03 330.76 332.03 331.36C332.03 331.86 332.19 332.27 332.51 332.59C332.85 332.89 333.46 333.24 334.34 333.64L336.59 334.63C338.29 335.39 339.53 336.22 340.31 337.12C341.09 338 341.48 339.1 341.48 340.42C341.48 342.2 340.83 343.64 339.53 344.74C338.23 345.82 336.57 346.36 334.55 346.36C332.89 346.36 331.39 345.97 330.05 345.19C328.73 344.41 327.68 343.34 326.9 341.98ZM358.418 339.94H348.008C348.248 340.88 348.728 341.61 349.448 342.13C350.188 342.63 351.098 342.88 352.178 342.88C353.638 342.88 355.018 342.38 356.318 341.38L357.998 344.14C356.218 345.62 354.238 346.36 352.058 346.36C349.778 346.4 347.838 345.66 346.238 344.14C344.658 342.6 343.888 340.75 343.928 338.59C343.888 336.45 344.638 334.61 346.178 333.07C347.718 331.53 349.558 330.78 351.698 330.82C353.738 330.82 355.408 331.48 356.708 332.8C358.028 334.12 358.688 335.76 358.688 337.72C358.688 338.44 358.598 339.18 358.418 339.94ZM348.008 337.09H354.758C354.738 336.19 354.418 335.47 353.798 334.93C353.198 334.37 352.448 334.09 351.548 334.09C350.688 334.09 349.938 334.36 349.298 334.9C348.658 335.44 348.228 336.17 348.008 337.09ZM361.848 346V323.5H365.898V346H361.848ZM383.555 339.94H373.145C373.385 340.88 373.865 341.61 374.585 342.13C375.325 342.63 376.235 342.88 377.315 342.88C378.775 342.88 380.155 342.38 381.455 341.38L383.135 344.14C381.355 345.62 379.375 346.36 377.195 346.36C374.915 346.4 372.975 345.66 371.375 344.14C369.795 342.6 369.025 340.75 369.065 338.59C369.025 336.45 369.775 334.61 371.315 333.07C372.855 331.53 374.695 330.78 376.835 330.82C378.875 330.82 380.545 331.48 381.845 332.8C383.165 334.12 383.825 335.76 383.825 337.72C383.825 338.44 383.735 339.18 383.555 339.94ZM373.145 337.09H379.895C379.875 336.19 379.555 335.47 378.935 334.93C378.335 334.37 377.585 334.09 376.685 334.09C375.825 334.09 375.075 334.36 374.435 334.9C373.795 335.44 373.365 336.17 373.145 337.09ZM386.145 338.56C386.145 336.4 386.915 334.57 388.455 333.07C389.995 331.57 391.875 330.82 394.095 330.82C397.015 330.82 399.165 332.04 400.545 334.48L397.725 336.67C396.725 335.23 395.535 334.51 394.155 334.51C393.015 334.51 392.075 334.9 391.335 335.68C390.615 336.44 390.255 337.4 390.255 338.56C390.255 339.74 390.615 340.72 391.335 341.5C392.075 342.26 393.015 342.64 394.155 342.64C395.535 342.64 396.725 341.93 397.725 340.51L400.545 342.67C399.885 343.83 398.995 344.74 397.875 345.4C396.775 346.04 395.515 346.36 394.095 346.36C391.915 346.4 390.035 345.65 388.455 344.11C386.875 342.55 386.105 340.7 386.145 338.56ZM413.077 342.61V346C412.117 346.24 411.187 346.36 410.287 346.36C408.387 346.36 406.917 345.89 405.877 344.95C404.857 344.01 404.347 342.62 404.347 340.78V334.57H402.007V331.15H404.347V327.4H408.397V331.15H412.597V334.57H408.397V340.42C408.397 341.26 408.607 341.86 409.027 342.22C409.467 342.56 410.177 342.73 411.157 342.73C411.497 342.73 412.137 342.69 413.077 342.61ZM434.566 331.15H438.826L431.716 347.29C431.036 348.83 430.226 349.96 429.286 350.68C428.346 351.4 427.186 351.76 425.806 351.76C424.966 351.76 424.096 351.64 423.196 351.4V348.01C424.016 348.09 424.596 348.13 424.936 348.13C425.696 348.13 426.316 347.98 426.796 347.68C427.276 347.38 427.686 346.86 428.026 346.12L428.476 345.1L422.776 331.15H427.066L430.696 340.9L434.566 331.15ZM439.758 338.56C439.718 336.44 440.488 334.61 442.068 333.07C443.648 331.53 445.528 330.78 447.708 330.82C449.888 330.78 451.768 331.53 453.348 333.07C454.948 334.61 455.728 336.44 455.688 338.56C455.728 340.68 454.948 342.52 453.348 344.08C451.748 345.62 449.858 346.37 447.678 346.33C445.498 346.37 443.618 345.62 442.038 344.08C440.478 342.52 439.718 340.68 439.758 338.56ZM450.438 341.47C451.178 340.71 451.548 339.75 451.548 338.59C451.548 337.43 451.178 336.46 450.438 335.68C449.718 334.9 448.808 334.51 447.708 334.51C446.588 334.51 445.668 334.9 444.948 335.68C444.228 336.44 443.868 337.41 443.868 338.59C443.868 339.75 444.228 340.71 444.948 341.47C445.668 342.23 446.588 342.61 447.708 342.61C448.808 342.61 449.718 342.23 450.438 341.47ZM458.7 339.46V331.15H462.75V339.79C462.75 340.65 463.01 341.34 463.53 341.86C464.07 342.38 464.75 342.64 465.57 342.64C466.37 342.64 467.03 342.38 467.55 341.86C468.07 341.32 468.33 340.63 468.33 339.79V331.15H472.38V339.46C472.38 341.5 471.73 343.16 470.43 344.44C469.15 345.72 467.53 346.36 465.57 346.36C463.57 346.36 461.92 345.73 460.62 344.47C459.34 343.19 458.7 341.52 458.7 339.46ZM485.372 331.15V334.72H484.292C483.052 334.72 482.072 335.05 481.352 335.71C480.652 336.37 480.302 337.33 480.302 338.59V346H476.252V331.15H479.972V332.92C481.012 331.62 482.372 330.97 484.052 330.97C484.552 330.97 484.992 331.03 485.372 331.15ZM509.911 333.04C511.291 334.5 511.981 336.34 511.981 338.56C511.981 340.78 511.291 342.64 509.911 344.14C508.551 345.62 506.841 346.36 504.781 346.36C502.921 346.36 501.441 345.76 500.341 344.56V351.4H496.291V331.15H500.011V333.01C501.031 331.55 502.621 330.82 504.781 330.82C506.841 330.82 508.551 331.56 509.911 333.04ZM507.871 338.59C507.871 337.37 507.511 336.38 506.791 335.62C506.071 334.86 505.151 334.48 504.031 334.48C502.951 334.48 502.051 334.84 501.331 335.56C500.631 336.28 500.281 337.28 500.281 338.56C500.281 339.84 500.631 340.85 501.331 341.59C502.051 342.31 502.951 342.67 504.031 342.67C505.131 342.67 506.041 342.29 506.761 341.53C507.501 340.77 507.871 339.79 507.871 338.59ZM524.278 331.15V334.72H523.198C521.958 334.72 520.978 335.05 520.258 335.71C519.558 336.37 519.208 337.33 519.208 338.59V346H515.158V331.15H518.878V332.92C519.918 331.62 521.278 330.97 522.958 330.97C523.458 330.97 523.898 331.03 524.278 331.15ZM540.146 339.94H529.736C529.976 340.88 530.456 341.61 531.176 342.13C531.916 342.63 532.826 342.88 533.906 342.88C535.366 342.88 536.746 342.38 538.046 341.38L539.726 344.14C537.946 345.62 535.966 346.36 533.786 346.36C531.506 346.4 529.566 345.66 527.966 344.14C526.386 342.6 525.616 340.75 525.656 338.59C525.616 336.45 526.366 334.61 527.906 333.07C529.446 331.53 531.286 330.78 533.426 330.82C535.466 330.82 537.136 331.48 538.436 332.8C539.756 334.12 540.416 335.76 540.416 337.72C540.416 338.44 540.326 339.18 540.146 339.94ZM529.736 337.09H536.486C536.466 336.19 536.146 335.47 535.526 334.93C534.926 334.37 534.176 334.09 533.276 334.09C532.416 334.09 531.666 334.36 531.026 334.9C530.386 335.44 529.956 336.17 529.736 337.09ZM548.316 329.08V331.15H551.586V334.57H548.316V346H544.266V334.57H542.166V331.15H544.266V328.72C544.266 326.88 544.766 325.49 545.766 324.55C546.766 323.61 548.176 323.14 549.996 323.14C550.756 323.14 551.496 323.25 552.216 323.47V326.86C551.776 326.8 551.376 326.77 551.016 326.77C550.076 326.77 549.386 326.95 548.946 327.31C548.526 327.67 548.316 328.26 548.316 329.08ZM567.48 339.94H557.07C557.31 340.88 557.79 341.61 558.51 342.13C559.25 342.63 560.16 342.88 561.24 342.88C562.7 342.88 564.08 342.38 565.38 341.38L567.06 344.14C565.28 345.62 563.3 346.36 561.12 346.36C558.84 346.4 556.9 345.66 555.3 344.14C553.72 342.6 552.95 340.75 552.99 338.59C552.95 336.45 553.7 334.61 555.24 333.07C556.78 331.53 558.62 330.78 560.76 330.82C562.8 330.82 564.47 331.48 565.77 332.8C567.09 334.12 567.75 335.76 567.75 337.72C567.75 338.44 567.66 339.18 567.48 339.94ZM557.07 337.09H563.82C563.8 336.19 563.48 335.47 562.86 334.93C562.26 334.37 561.51 334.09 560.61 334.09C559.75 334.09 559 334.36 558.36 334.9C557.72 335.44 557.29 336.17 557.07 337.09ZM580.03 331.15V334.72H578.95C577.71 334.72 576.73 335.05 576.01 335.71C575.31 336.37 574.96 337.33 574.96 338.59V346H570.91V331.15H574.63V332.92C575.67 331.62 577.03 330.97 578.71 330.97C579.21 330.97 579.65 331.03 580.03 331.15ZM595.898 339.94H585.488C585.728 340.88 586.208 341.61 586.928 342.13C587.668 342.63 588.578 342.88 589.658 342.88C591.118 342.88 592.498 342.38 593.798 341.38L595.478 344.14C593.698 345.62 591.718 346.36 589.538 346.36C587.258 346.4 585.318 345.66 583.718 344.14C582.138 342.6 581.368 340.75 581.408 338.59C581.368 336.45 582.118 334.61 583.658 333.07C585.198 331.53 587.038 330.78 589.178 330.82C591.218 330.82 592.888 331.48 594.188 332.8C595.508 334.12 596.168 335.76 596.168 337.72C596.168 338.44 596.078 339.18 595.898 339.94ZM585.488 337.09H592.238C592.218 336.19 591.898 335.47 591.278 334.93C590.678 334.37 589.928 334.09 589.028 334.09C588.168 334.09 587.418 334.36 586.778 334.9C586.138 335.44 585.708 336.17 585.488 337.09ZM612.978 336.79V346H608.958V337.33C608.958 336.47 608.698 335.78 608.178 335.26C607.678 334.72 607.018 334.45 606.198 334.45C605.378 334.45 604.698 334.72 604.158 335.26C603.638 335.78 603.378 336.47 603.378 337.33V346H599.328V331.15H603.048V332.5C604.168 331.38 605.618 330.82 607.398 330.82C609.118 330.82 610.478 331.36 611.478 332.44C612.478 333.52 612.978 334.97 612.978 336.79ZM616.037 338.56C616.037 336.4 616.807 334.57 618.347 333.07C619.887 331.57 621.767 330.82 623.987 330.82C626.907 330.82 629.057 332.04 630.437 334.48L627.617 336.67C626.617 335.23 625.427 334.51 624.047 334.51C622.907 334.51 621.967 334.9 621.227 335.68C620.507 336.44 620.147 337.4 620.147 338.56C620.147 339.74 620.507 340.72 621.227 341.5C621.967 342.26 622.907 342.64 624.047 342.64C625.427 342.64 626.617 341.93 627.617 340.51L630.437 342.67C629.777 343.83 628.887 344.74 627.767 345.4C626.667 346.04 625.407 346.36 623.987 346.36C621.807 346.4 619.927 345.65 618.347 344.11C616.767 342.55 615.997 340.7 616.037 338.56ZM646.787 339.94H636.377C636.617 340.88 637.097 341.61 637.817 342.13C638.557 342.63 639.467 342.88 640.547 342.88C642.007 342.88 643.387 342.38 644.687 341.38L646.367 344.14C644.587 345.62 642.607 346.36 640.427 346.36C638.147 346.4 636.207 345.66 634.607 344.14C633.027 342.6 632.257 340.75 632.297 338.59C632.257 336.45 633.007 334.61 634.547 333.07C636.087 331.53 637.927 330.78 640.067 330.82C642.107 330.82 643.777 331.48 645.077 332.8C646.397 334.12 647.057 335.76 647.057 337.72C647.057 338.44 646.967 339.18 646.787 339.94ZM636.377 337.09H643.127C643.107 336.19 642.787 335.47 642.167 334.93C641.567 334.37 640.817 334.09 639.917 334.09C639.057 334.09 638.307 334.36 637.667 334.9C637.027 335.44 636.597 336.17 636.377 337.09Z"/><path fill="#fff" d="M647.14 124.1C647.1 121.26 648.13 118.83 650.23 116.81C652.33 114.77 654.82 113.78 657.7 113.84C659.58 113.84 661.28 114.28 662.8 115.16C664.34 116.02 665.55 117.22 666.43 118.76L663.37 120.92C661.95 118.7 660.06 117.59 657.7 117.59C655.86 117.59 654.33 118.21 653.11 119.45C651.91 120.69 651.31 122.25 651.31 124.13C651.31 126.01 651.91 127.56 653.11 128.78C654.33 130 655.86 130.61 657.7 130.61C660.06 130.61 661.95 129.5 663.37 127.28L666.43 129.44C665.57 130.98 664.37 132.19 662.83 133.07C661.29 133.93 659.57 134.36 657.67 134.36C654.77 134.42 652.27 133.44 650.17 131.42C648.09 129.38 647.08 126.94 647.14 124.1ZM668.469 126.56C668.429 124.44 669.199 122.61 670.779 121.07C672.359 119.53 674.239 118.78 676.419 118.82C678.599 118.78 680.479 119.53 682.059 121.07C683.659 122.61 684.439 124.44 684.399 126.56C684.439 128.68 683.659 130.52 682.059 132.08C680.459 133.62 678.569 134.37 676.389 134.33C674.209 134.37 672.329 133.62 670.749 132.08C669.189 130.52 668.429 128.68 668.469 126.56ZM679.149 129.47C679.889 128.71 680.259 127.75 680.259 126.59C680.259 125.43 679.889 124.46 679.149 123.68C678.429 122.9 677.519 122.51 676.419 122.51C675.299 122.51 674.379 122.9 673.659 123.68C672.939 124.44 672.579 125.41 672.579 126.59C672.579 127.75 672.939 128.71 673.659 129.47C674.379 130.23 675.299 130.61 676.419 130.61C677.519 130.61 678.429 130.23 679.149 129.47ZM701.211 124.79V134H697.191V125.33C697.191 124.47 696.931 123.78 696.411 123.26C695.911 122.72 695.251 122.45 694.431 122.45C693.611 122.45 692.931 122.72 692.391 123.26C691.871 123.78 691.611 124.47 691.611 125.33V134H687.561V119.15H691.281V120.5C692.401 119.38 693.851 118.82 695.631 118.82C697.351 118.82 698.711 119.36 699.711 120.44C700.711 121.52 701.211 122.97 701.211 124.79ZM709.85 117.08V119.15H713.12V122.57H709.85V134H705.8V122.57H703.7V119.15H705.8V116.72C705.8 114.88 706.3 113.49 707.3 112.55C708.3 111.61 709.71 111.14 711.53 111.14C712.29 111.14 713.03 111.25 713.75 111.47V114.86C713.31 114.8 712.91 114.77 712.55 114.77C711.61 114.77 710.92 114.95 710.48 115.31C710.06 115.67 709.85 116.26 709.85 117.08ZM715.82 134V119.15H719.87V134H715.82ZM715.25 113.75C715.25 113.03 715.5 112.43 716 111.95C716.5 111.47 717.11 111.23 717.83 111.23C718.55 111.23 719.16 111.47 719.66 111.95C720.18 112.43 720.44 113.03 720.44 113.75C720.44 114.45 720.18 115.04 719.66 115.52C719.16 116 718.55 116.24 717.83 116.24C717.11 116.24 716.5 116 716 115.52C715.5 115.04 715.25 114.45 715.25 113.75ZM733.009 119.15V122.72H731.929C730.689 122.72 729.709 123.05 728.989 123.71C728.289 124.37 727.939 125.33 727.939 126.59V134H723.889V119.15H727.609V120.92C728.649 119.62 730.009 118.97 731.689 118.97C732.189 118.97 732.629 119.03 733.009 119.15ZM758.41 124.79V134H754.36V125.36C754.36 124.48 754.12 123.78 753.64 123.26C753.16 122.74 752.52 122.48 751.72 122.48C750.92 122.48 750.26 122.74 749.74 123.26C749.24 123.78 748.99 124.45 748.99 125.27V134H744.94V125.36C744.94 124.48 744.7 123.78 744.22 123.26C743.74 122.74 743.1 122.48 742.3 122.48C741.48 122.48 740.82 122.74 740.32 123.26C739.82 123.78 739.57 124.48 739.57 125.36V134H735.52V119.15H739.24V120.47C740.28 119.37 741.68 118.82 743.44 118.82C745.38 118.82 746.85 119.53 747.85 120.95C749.11 119.53 750.76 118.82 752.8 118.82C754.52 118.82 755.88 119.36 756.88 120.44C757.9 121.52 758.41 122.97 758.41 124.79ZM780.816 119.15H785.076L777.966 135.29C777.286 136.83 776.476 137.96 775.536 138.68C774.596 139.4 773.436 139.76 772.056 139.76C771.216 139.76 770.346 139.64 769.446 139.4V136.01C770.266 136.09 770.846 136.13 771.186 136.13C771.946 136.13 772.566 135.98 773.046 135.68C773.526 135.38 773.936 134.86 774.276 134.12L774.726 133.1L769.026 119.15H773.316L776.946 128.9L780.816 119.15ZM786.008 126.56C785.968 124.44 786.738 122.61 788.318 121.07C789.898 119.53 791.778 118.78 793.958 118.82C796.138 118.78 798.018 119.53 799.598 121.07C801.198 122.61 801.978 124.44 801.938 126.56C801.978 128.68 801.198 130.52 799.598 132.08C797.998 133.62 796.108 134.37 793.928 134.33C791.748 134.37 789.868 133.62 788.288 132.08C786.728 130.52 785.968 128.68 786.008 126.56ZM796.688 129.47C797.428 128.71 797.798 127.75 797.798 126.59C797.798 125.43 797.428 124.46 796.688 123.68C795.968 122.9 795.058 122.51 793.958 122.51C792.838 122.51 791.918 122.9 791.198 123.68C790.478 124.44 790.118 125.41 790.118 126.59C790.118 127.75 790.478 128.71 791.198 129.47C791.918 130.23 792.838 130.61 793.958 130.61C795.058 130.61 795.968 130.23 796.688 129.47ZM804.95 127.46V119.15H809V127.79C809 128.65 809.26 129.34 809.78 129.86C810.32 130.38 811 130.64 811.82 130.64C812.62 130.64 813.28 130.38 813.8 129.86C814.32 129.32 814.58 128.63 814.58 127.79V119.15H818.63V127.46C818.63 129.5 817.98 131.16 816.68 132.44C815.4 133.72 813.78 134.36 811.82 134.36C809.82 134.36 808.17 133.73 806.87 132.47C805.59 131.19 804.95 129.52 804.95 127.46ZM831.622 119.15V122.72H830.542C829.302 122.72 828.322 123.05 827.602 123.71C826.902 124.37 826.552 125.33 826.552 126.59V134H822.502V119.15H826.222V120.92C827.262 119.62 828.622 118.97 830.302 118.97C830.802 118.97 831.242 119.03 831.622 119.15ZM858.141 128.18C858.141 129.88 857.531 131.28 856.311 132.38C855.091 133.46 853.531 134 851.631 134H842.811V114.2H849.831C851.671 114.2 853.171 114.72 854.331 115.76C855.511 116.78 856.101 118.1 856.101 119.72C856.101 121.18 855.611 122.37 854.631 123.29C856.971 124.15 858.141 125.78 858.141 128.18ZM849.501 117.68H846.711V122.21H849.501C850.321 122.21 850.951 122.01 851.391 121.61C851.851 121.21 852.081 120.65 852.081 119.93C852.081 119.23 851.851 118.68 851.391 118.28C850.951 117.88 850.321 117.68 849.501 117.68ZM854.151 128.03C854.151 127.27 853.901 126.67 853.401 126.23C852.901 125.77 852.211 125.54 851.331 125.54H846.711V130.52H851.331C852.211 130.52 852.901 130.3 853.401 129.86C853.901 129.42 854.151 128.81 854.151 128.03ZM873.624 125.18V134H869.904V132.56C868.744 133.76 867.234 134.36 865.374 134.36C863.814 134.36 862.564 133.95 861.624 133.13C860.704 132.31 860.244 131.24 860.244 129.92C860.244 128.58 860.744 127.53 861.744 126.77C862.764 125.99 864.134 125.6 865.854 125.6H869.574V124.94C869.574 124.1 869.334 123.46 868.854 123.02C868.394 122.56 867.714 122.33 866.814 122.33C866.074 122.33 865.404 122.49 864.804 122.81C864.204 123.13 863.564 123.65 862.884 124.37L860.784 121.88C862.504 119.84 864.664 118.82 867.264 118.82C869.224 118.82 870.774 119.38 871.914 120.5C873.054 121.6 873.624 123.16 873.624 125.18ZM869.574 128.45V128.27H866.394C865.014 128.27 864.324 128.77 864.324 129.77C864.324 130.27 864.514 130.67 864.894 130.97C865.294 131.25 865.814 131.39 866.454 131.39C867.354 131.39 868.094 131.12 868.674 130.58C869.274 130.02 869.574 129.31 869.574 128.45ZM886.642 119.15V122.72H885.562C884.322 122.72 883.342 123.05 882.622 123.71C881.922 124.37 881.572 125.33 881.572 126.59V134H877.522V119.15H881.242V120.92C882.282 119.62 883.642 118.97 885.322 118.97C885.822 118.97 886.262 119.03 886.642 119.15ZM898.693 130.61V134C897.733 134.24 896.803 134.36 895.903 134.36C894.003 134.36 892.533 133.89 891.493 132.95C890.473 132.01 889.963 130.62 889.963 128.78V122.57H887.623V119.15H889.963V115.4H894.013V119.15H898.213V122.57H894.013V128.42C894.013 129.26 894.223 129.86 894.643 130.22C895.083 130.56 895.793 130.73 896.773 130.73C897.113 130.73 897.753 130.69 898.693 130.61ZM914.99 127.94H904.58C904.82 128.88 905.3 129.61 906.02 130.13C906.76 130.63 907.67 130.88 908.75 130.88C910.21 130.88 911.59 130.38 912.89 129.38L914.57 132.14C912.79 133.62 910.81 134.36 908.63 134.36C906.35 134.4 904.41 133.66 902.81 132.14C901.23 130.6 900.46 128.75 900.5 126.59C900.46 124.45 901.21 122.61 902.75 121.07C904.29 119.53 906.13 118.78 908.27 118.82C910.31 118.82 911.98 119.48 913.28 120.8C914.6 122.12 915.26 123.76 915.26 125.72C915.26 126.44 915.17 127.18 914.99 127.94ZM904.58 125.09H911.33C911.31 124.19 910.99 123.47 910.37 122.93C909.77 122.37 909.02 122.09 908.12 122.09C907.26 122.09 906.51 122.36 905.87 122.9C905.23 123.44 904.8 124.17 904.58 125.09ZM927.54 119.15V122.72H926.46C925.22 122.72 924.24 123.05 923.52 123.71C922.82 124.37 922.47 125.33 922.47 126.59V134H918.42V119.15H922.14V120.92C923.18 119.62 924.54 118.97 926.22 118.97C926.72 118.97 927.16 119.03 927.54 119.15ZM950.909 125.18V134H947.189V132.56C946.029 133.76 944.519 134.36 942.659 134.36C941.099 134.36 939.849 133.95 938.909 133.13C937.989 132.31 937.529 131.24 937.529 129.92C937.529 128.58 938.029 127.53 939.029 126.77C940.049 125.99 941.419 125.6 943.139 125.6H946.859V124.94C946.859 124.1 946.619 123.46 946.139 123.02C945.679 122.56 944.999 122.33 944.099 122.33C943.359 122.33 942.689 122.49 942.089 122.81C941.489 123.13 940.849 123.65 940.169 124.37L938.069 121.88C939.789 119.84 941.949 118.82 944.549 118.82C946.509 118.82 948.059 119.38 949.199 120.5C950.339 121.6 950.909 123.16 950.909 125.18ZM946.859 128.45V128.27H943.679C942.299 128.27 941.609 128.77 941.609 129.77C941.609 130.27 941.799 130.67 942.179 130.97C942.579 131.25 943.099 131.39 943.739 131.39C944.639 131.39 945.379 131.12 945.959 130.58C946.559 130.02 946.859 129.31 946.859 128.45ZM968.457 124.79V134H964.437V125.33C964.437 124.47 964.177 123.78 963.657 123.26C963.157 122.72 962.497 122.45 961.677 122.45C960.857 122.45 960.177 122.72 959.637 123.26C959.117 123.78 958.857 124.47 958.857 125.33V134H954.807V119.15H958.527V120.5C959.647 119.38 961.097 118.82 962.877 118.82C964.597 118.82 965.957 119.36 966.957 120.44C967.957 121.52 968.457 122.97 968.457 124.79ZM983.156 111.5H987.206V134H983.486V132.17C982.466 133.63 980.876 134.36 978.716 134.36C976.636 134.36 974.916 133.63 973.556 132.17C972.196 130.69 971.516 128.83 971.516 126.59C971.516 124.35 972.196 122.5 973.556 121.04C974.916 119.56 976.636 118.82 978.716 118.82C980.596 118.82 982.076 119.41 983.156 120.59V111.5ZM982.136 129.59C982.856 128.87 983.216 127.87 983.216 126.59C983.216 125.31 982.856 124.31 982.136 123.59C981.416 122.85 980.526 122.48 979.466 122.48C978.366 122.48 977.446 122.86 976.706 123.62C975.986 124.38 975.626 125.36 975.626 126.56C975.626 127.78 975.986 128.77 976.706 129.53C977.426 130.29 978.346 130.67 979.466 130.67C980.546 130.67 981.436 130.31 982.136 129.59ZM1010.82 119.15H1014.54V132.35C1014.54 134.73 1013.85 136.56 1012.47 137.84C1011.09 139.12 1009.22 139.76 1006.86 139.76C1004.08 139.76 1001.65 138.84 999.571 137L1001.7 134.18C1003.42 135.46 1005.03 136.1 1006.53 136.1C1007.75 136.1 1008.71 135.8 1009.41 135.2C1010.13 134.6 1010.49 133.73 1010.49 132.59V131.78C1009.41 132.96 1007.9 133.55 1005.96 133.55C1003.9 133.55 1002.2 132.86 1000.86 131.48C999.521 130.1 998.851 128.33 998.851 126.17C998.851 123.99 999.521 122.22 1000.86 120.86C1002.2 119.5 1003.9 118.82 1005.96 118.82C1008.12 118.82 1009.74 119.55 1010.82 121.01V119.15ZM1010.55 126.11C1010.55 124.89 1010.19 123.95 1009.47 123.29C1008.77 122.61 1007.88 122.27 1006.8 122.27C1005.68 122.27 1004.76 122.62 1004.04 123.32C1003.32 124.02 1002.96 124.96 1002.96 126.14C1002.96 127.32 1003.32 128.28 1004.04 129.02C1004.78 129.76 1005.7 130.13 1006.8 130.13C1007.86 130.13 1008.75 129.77 1009.47 129.05C1010.19 128.33 1010.55 127.35 1010.55 126.11ZM1032.21 127.94H1021.8C1022.04 128.88 1022.52 129.61 1023.24 130.13C1023.98 130.63 1024.89 130.88 1025.97 130.88C1027.43 130.88 1028.81 130.38 1030.11 129.38L1031.79 132.14C1030.01 133.62 1028.03 134.36 1025.85 134.36C1023.57 134.4 1021.63 133.66 1020.03 132.14C1018.45 130.6 1017.68 128.75 1017.72 126.59C1017.68 124.45 1018.43 122.61 1019.97 121.07C1021.51 119.53 1023.35 118.78 1025.49 118.82C1027.53 118.82 1029.2 119.48 1030.5 120.8C1031.82 122.12 1032.48 123.76 1032.48 125.72C1032.48 126.44 1032.39 127.18 1032.21 127.94ZM1021.8 125.09H1028.55C1028.53 124.19 1028.21 123.47 1027.59 122.93C1026.99 122.37 1026.24 122.09 1025.34 122.09C1024.48 122.09 1023.73 122.36 1023.09 122.9C1022.45 123.44 1022.02 124.17 1021.8 125.09ZM1045.18 130.61V134C1044.22 134.24 1043.29 134.36 1042.39 134.36C1040.49 134.36 1039.02 133.89 1037.98 132.95C1036.96 132.01 1036.45 130.62 1036.45 128.78V122.57H1034.11V119.15H1036.45V115.4H1040.5V119.15H1044.7V122.57H1040.5V128.42C1040.5 129.26 1040.71 129.86 1041.13 130.22C1041.57 130.56 1042.28 130.73 1043.26 130.73C1043.6 130.73 1044.24 130.69 1045.18 130.61ZM1056.53 134V119.15H1060.58V134H1056.53ZM1055.96 113.75C1055.96 113.03 1056.21 112.43 1056.71 111.95C1057.21 111.47 1057.82 111.23 1058.54 111.23C1059.26 111.23 1059.87 111.47 1060.37 111.95C1060.89 112.43 1061.15 113.03 1061.15 113.75C1061.15 114.45 1060.89 115.04 1060.37 115.52C1059.87 116 1059.26 116.24 1058.54 116.24C1057.82 116.24 1057.21 116 1056.71 115.52C1056.21 115.04 1055.96 114.45 1055.96 113.75ZM1074.12 130.61V134C1073.16 134.24 1072.23 134.36 1071.33 134.36C1069.43 134.36 1067.96 133.89 1066.92 132.95C1065.9 132.01 1065.39 130.62 1065.39 128.78V122.57H1063.05V119.15H1065.39V115.4H1069.44V119.15H1073.64V122.57H1069.44V128.42C1069.44 129.26 1069.65 129.86 1070.07 130.22C1070.51 130.56 1071.22 130.73 1072.2 130.73C1072.54 130.73 1073.18 130.69 1074.12 130.61ZM1094.67 119.15H1098.96L1091.61 134.36H1090.26L1082.91 119.15H1087.17L1090.92 127.55L1094.67 119.15ZM1114.38 127.94H1103.97C1104.21 128.88 1104.69 129.61 1105.41 130.13C1106.15 130.63 1107.06 130.88 1108.14 130.88C1109.6 130.88 1110.98 130.38 1112.28 129.38L1113.96 132.14C1112.18 133.62 1110.2 134.36 1108.02 134.36C1105.74 134.4 1103.8 133.66 1102.2 132.14C1100.62 130.6 1099.85 128.75 1099.89 126.59C1099.85 124.45 1100.6 122.61 1102.14 121.07C1103.68 119.53 1105.52 118.78 1107.66 118.82C1109.7 118.82 1111.37 119.48 1112.67 120.8C1113.99 122.12 1114.65 123.76 1114.65 125.72C1114.65 126.44 1114.56 127.18 1114.38 127.94ZM1103.97 125.09H1110.72C1110.7 124.19 1110.38 123.47 1109.76 122.93C1109.16 122.37 1108.41 122.09 1107.51 122.09C1106.65 122.09 1105.9 122.36 1105.26 122.9C1104.62 123.44 1104.19 124.17 1103.97 125.09ZM1126.93 119.15V122.72H1125.85C1124.61 122.72 1123.63 123.05 1122.91 123.71C1122.21 124.37 1121.86 125.33 1121.86 126.59V134H1117.81V119.15H1121.53V120.92C1122.57 119.62 1123.93 118.97 1125.61 118.97C1126.11 118.97 1126.55 119.03 1126.93 119.15ZM1129.45 134V119.15H1133.5V134H1129.45ZM1128.88 113.75C1128.88 113.03 1129.13 112.43 1129.63 111.95C1130.13 111.47 1130.74 111.23 1131.46 111.23C1132.18 111.23 1132.79 111.47 1133.29 111.95C1133.81 112.43 1134.07 113.03 1134.07 113.75C1134.07 114.45 1133.81 115.04 1133.29 115.52C1132.79 116 1132.18 116.24 1131.46 116.24C1130.74 116.24 1130.13 116 1129.63 115.52C1129.13 115.04 1128.88 114.45 1128.88 113.75ZM1142.24 117.08V119.15H1145.51V122.57H1142.24V134H1138.19V122.57H1136.09V119.15H1138.19V116.72C1138.19 114.88 1138.69 113.49 1139.69 112.55C1140.69 111.61 1142.1 111.14 1143.92 111.14C1144.68 111.14 1145.42 111.25 1146.14 111.47V114.86C1145.7 114.8 1145.3 114.77 1144.94 114.77C1144 114.77 1143.31 114.95 1142.87 115.31C1142.45 115.67 1142.24 116.26 1142.24 117.08ZM1148.21 134V119.15H1152.26V134H1148.21ZM1147.64 113.75C1147.64 113.03 1147.89 112.43 1148.39 111.95C1148.89 111.47 1149.5 111.23 1150.22 111.23C1150.94 111.23 1151.55 111.47 1152.05 111.95C1152.57 112.43 1152.83 113.03 1152.83 113.75C1152.83 114.45 1152.57 115.04 1152.05 115.52C1151.55 116 1150.94 116.24 1150.22 116.24C1149.5 116.24 1148.89 116 1148.39 115.52C1147.89 115.04 1147.64 114.45 1147.64 113.75ZM1169.93 127.94H1159.52C1159.76 128.88 1160.24 129.61 1160.96 130.13C1161.7 130.63 1162.61 130.88 1163.69 130.88C1165.15 130.88 1166.53 130.38 1167.83 129.38L1169.51 132.14C1167.73 133.62 1165.75 134.36 1163.57 134.36C1161.29 134.4 1159.35 133.66 1157.75 132.14C1156.17 130.6 1155.4 128.75 1155.44 126.59C1155.4 124.45 1156.15 122.61 1157.69 121.07C1159.23 119.53 1161.07 118.78 1163.21 118.82C1165.25 118.82 1166.92 119.48 1168.22 120.8C1169.54 122.12 1170.2 123.76 1170.2 125.72C1170.2 126.44 1170.11 127.18 1169.93 127.94ZM1159.52 125.09H1166.27C1166.25 124.19 1165.93 123.47 1165.31 122.93C1164.71 122.37 1163.96 122.09 1163.06 122.09C1162.2 122.09 1161.45 122.36 1160.81 122.9C1160.17 123.44 1159.74 124.17 1159.52 125.09ZM1184.16 111.5H1188.21V134H1184.49V132.17C1183.47 133.63 1181.88 134.36 1179.72 134.36C1177.64 134.36 1175.92 133.63 1174.56 132.17C1173.2 130.69 1172.52 128.83 1172.52 126.59C1172.52 124.35 1173.2 122.5 1174.56 121.04C1175.92 119.56 1177.64 118.82 1179.72 118.82C1181.6 118.82 1183.08 119.41 1184.16 120.59V111.5ZM1183.14 129.59C1183.86 128.87 1184.22 127.87 1184.22 126.59C1184.22 125.31 1183.86 124.31 1183.14 123.59C1182.42 122.85 1181.53 122.48 1180.47 122.48C1179.37 122.48 1178.45 122.86 1177.71 123.62C1176.99 124.38 1176.63 125.36 1176.63 126.56C1176.63 127.78 1176.99 128.77 1177.71 129.53C1178.43 130.29 1179.35 130.67 1180.47 130.67C1181.55 130.67 1182.44 130.31 1183.14 129.59Z"/><path fill="#fff" d="M1020.61 340.18C1020.61 341.88 1020 343.28 1018.78 344.38C1017.56 345.46 1016 346 1014.1 346H1005.28V326.2H1012.3C1014.14 326.2 1015.64 326.72 1016.8 327.76C1017.98 328.78 1018.57 330.1 1018.57 331.72C1018.57 333.18 1018.08 334.37 1017.1 335.29C1019.44 336.15 1020.61 337.78 1020.61 340.18ZM1011.97 329.68H1009.18V334.21H1011.97C1012.79 334.21 1013.42 334.01 1013.86 333.61C1014.32 333.21 1014.55 332.65 1014.55 331.93C1014.55 331.23 1014.32 330.68 1013.86 330.28C1013.42 329.88 1012.79 329.68 1011.97 329.68ZM1016.62 340.03C1016.62 339.27 1016.37 338.67 1015.87 338.23C1015.37 337.77 1014.68 337.54 1013.8 337.54H1009.18V342.52H1013.8C1014.68 342.52 1015.37 342.3 1015.87 341.86C1016.37 341.42 1016.62 340.81 1016.62 340.03ZM1036.09 337.18V346H1032.37V344.56C1031.21 345.76 1029.7 346.36 1027.84 346.36C1026.28 346.36 1025.03 345.95 1024.09 345.13C1023.17 344.31 1022.71 343.24 1022.71 341.92C1022.71 340.58 1023.21 339.53 1024.21 338.77C1025.23 337.99 1026.6 337.6 1028.32 337.6H1032.04V336.94C1032.04 336.1 1031.8 335.46 1031.32 335.02C1030.86 334.56 1030.18 334.33 1029.28 334.33C1028.54 334.33 1027.87 334.49 1027.27 334.81C1026.67 335.13 1026.03 335.65 1025.35 336.37L1023.25 333.88C1024.97 331.84 1027.13 330.82 1029.73 330.82C1031.69 330.82 1033.24 331.38 1034.38 332.5C1035.52 333.6 1036.09 335.16 1036.09 337.18ZM1032.04 340.45V340.27H1028.86C1027.48 340.27 1026.79 340.77 1026.79 341.77C1026.79 342.27 1026.98 342.67 1027.36 342.97C1027.76 343.25 1028.28 343.39 1028.92 343.39C1029.82 343.39 1030.56 343.12 1031.14 342.58C1031.74 342.02 1032.04 341.31 1032.04 340.45ZM1049.11 331.15V334.72H1048.03C1046.79 334.72 1045.81 335.05 1045.09 335.71C1044.39 336.37 1044.04 337.33 1044.04 338.59V346H1039.99V331.15H1043.71V332.92C1044.75 331.62 1046.11 330.97 1047.79 330.97C1048.29 330.97 1048.73 331.03 1049.11 331.15ZM1061.16 342.61V346C1060.2 346.24 1059.27 346.36 1058.37 346.36C1056.47 346.36 1055 345.89 1053.96 344.95C1052.94 344.01 1052.43 342.62 1052.43 340.78V334.57H1050.09V331.15H1052.43V327.4H1056.48V331.15H1060.68V334.57H1056.48V340.42C1056.48 341.26 1056.69 341.86 1057.11 342.22C1057.55 342.56 1058.26 342.73 1059.24 342.73C1059.58 342.73 1060.22 342.69 1061.16 342.61ZM1077.46 339.94H1067.05C1067.29 340.88 1067.77 341.61 1068.49 342.13C1069.23 342.63 1070.14 342.88 1071.22 342.88C1072.68 342.88 1074.06 342.38 1075.36 341.38L1077.04 344.14C1075.26 345.62 1073.28 346.36 1071.1 346.36C1068.82 346.4 1066.88 345.66 1065.28 344.14C1063.7 342.6 1062.93 340.75 1062.97 338.59C1062.93 336.45 1063.68 334.61 1065.22 333.07C1066.76 331.53 1068.6 330.78 1070.74 330.82C1072.78 330.82 1074.45 331.48 1075.75 332.8C1077.07 334.12 1077.73 335.76 1077.73 337.72C1077.73 338.44 1077.64 339.18 1077.46 339.94ZM1067.05 337.09H1073.8C1073.78 336.19 1073.46 335.47 1072.84 334.93C1072.24 334.37 1071.49 334.09 1070.59 334.09C1069.73 334.09 1068.98 334.36 1068.34 334.9C1067.7 335.44 1067.27 336.17 1067.05 337.09ZM1090.01 331.15V334.72H1088.93C1087.69 334.72 1086.71 335.05 1085.99 335.71C1085.29 336.37 1084.94 337.33 1084.94 338.59V346H1080.89V331.15H1084.61V332.92C1085.65 331.62 1087.01 330.97 1088.69 330.97C1089.19 330.97 1089.63 331.03 1090.01 331.15ZM1099.82 341.98L1102.61 339.88C1104.01 341.8 1105.63 342.76 1107.47 342.76C1108.35 342.76 1109.04 342.57 1109.54 342.19C1110.04 341.79 1110.29 341.25 1110.29 340.57C1110.29 340.01 1110.12 339.58 1109.78 339.28C1109.44 338.96 1108.77 338.57 1107.77 338.11L1105.64 337.15C1102.44 335.73 1100.84 333.83 1100.84 331.45C1100.84 329.77 1101.46 328.42 1102.7 327.4C1103.94 326.36 1105.51 325.84 1107.41 325.84C1108.89 325.84 1110.19 326.18 1111.31 326.86C1112.43 327.52 1113.31 328.43 1113.95 329.59L1111.19 331.72C1110.17 330.2 1108.91 329.44 1107.41 329.44C1106.69 329.44 1106.1 329.61 1105.64 329.95C1105.18 330.29 1104.95 330.76 1104.95 331.36C1104.95 331.86 1105.11 332.27 1105.43 332.59C1105.77 332.89 1106.38 333.24 1107.26 333.64L1109.51 334.63C1111.21 335.39 1112.45 336.22 1113.23 337.12C1114.01 338 1114.4 339.1 1114.4 340.42C1114.4 342.2 1113.75 343.64 1112.45 344.74C1111.15 345.82 1109.49 346.36 1107.47 346.36C1105.81 346.36 1104.31 345.97 1102.97 345.19C1101.65 344.41 1100.6 343.34 1099.82 341.98ZM1117.54 339.46V331.15H1121.59V339.79C1121.59 340.65 1121.85 341.34 1122.37 341.86C1122.91 342.38 1123.59 342.64 1124.41 342.64C1125.21 342.64 1125.87 342.38 1126.39 341.86C1126.91 341.32 1127.17 340.63 1127.17 339.79V331.15H1131.22V339.46C1131.22 341.5 1130.57 343.16 1129.27 344.44C1127.99 345.72 1126.37 346.36 1124.41 346.36C1122.41 346.36 1120.76 345.73 1119.46 344.47C1118.18 343.19 1117.54 341.52 1117.54 339.46ZM1134.25 338.56C1134.25 336.4 1135.02 334.57 1136.56 333.07C1138.1 331.57 1139.98 330.82 1142.2 330.82C1145.12 330.82 1147.27 332.04 1148.65 334.48L1145.83 336.67C1144.83 335.23 1143.64 334.51 1142.26 334.51C1141.12 334.51 1140.18 334.9 1139.44 335.68C1138.72 336.44 1138.36 337.4 1138.36 338.56C1138.36 339.74 1138.72 340.72 1139.44 341.5C1140.18 342.26 1141.12 342.64 1142.26 342.64C1143.64 342.64 1144.83 341.93 1145.83 340.51L1148.65 342.67C1147.99 343.83 1147.1 344.74 1145.98 345.4C1144.88 346.04 1143.62 346.36 1142.2 346.36C1140.02 346.4 1138.14 345.65 1136.56 344.11C1134.98 342.55 1134.21 340.7 1134.25 338.56ZM1150.51 338.56C1150.51 336.4 1151.28 334.57 1152.82 333.07C1154.36 331.57 1156.24 330.82 1158.46 330.82C1161.38 330.82 1163.53 332.04 1164.91 334.48L1162.09 336.67C1161.09 335.23 1159.9 334.51 1158.52 334.51C1157.38 334.51 1156.44 334.9 1155.7 335.68C1154.98 336.44 1154.62 337.4 1154.62 338.56C1154.62 339.74 1154.98 340.72 1155.7 341.5C1156.44 342.26 1157.38 342.64 1158.52 342.64C1159.9 342.64 1161.09 341.93 1162.09 340.51L1164.91 342.67C1164.25 343.83 1163.36 344.74 1162.24 345.4C1161.14 346.04 1159.88 346.36 1158.46 346.36C1156.28 346.4 1154.4 345.65 1152.82 344.11C1151.24 342.55 1150.47 340.7 1150.51 338.56ZM1181.26 339.94H1170.85C1171.09 340.88 1171.57 341.61 1172.29 342.13C1173.03 342.63 1173.94 342.88 1175.02 342.88C1176.48 342.88 1177.86 342.38 1179.16 341.38L1180.84 344.14C1179.06 345.62 1177.08 346.36 1174.9 346.36C1172.62 346.4 1170.68 345.66 1169.08 344.14C1167.5 342.6 1166.73 340.75 1166.77 338.59C1166.73 336.45 1167.48 334.61 1169.02 333.07C1170.56 331.53 1172.4 330.78 1174.54 330.82C1176.58 330.82 1178.25 331.48 1179.55 332.8C1180.87 334.12 1181.53 335.76 1181.53 337.72C1181.53 338.44 1181.44 339.18 1181.26 339.94ZM1170.85 337.09H1177.6C1177.58 336.19 1177.26 335.47 1176.64 334.93C1176.04 334.37 1175.29 334.09 1174.39 334.09C1173.53 334.09 1172.78 334.36 1172.14 334.9C1171.5 335.44 1171.07 336.17 1170.85 337.09ZM1183.34 343.48L1185.38 341.02C1186.66 342.36 1188.05 343.03 1189.55 343.03C1190.11 343.03 1190.56 342.93 1190.9 342.73C1191.26 342.51 1191.44 342.2 1191.44 341.8C1191.44 341.5 1191.33 341.27 1191.11 341.11C1190.91 340.93 1190.51 340.71 1189.91 340.45L1188.32 339.79C1186.9 339.21 1185.87 338.58 1185.23 337.9C1184.59 337.2 1184.27 336.32 1184.27 335.26C1184.27 333.88 1184.77 332.8 1185.77 332.02C1186.77 331.22 1188.09 330.82 1189.73 330.82C1191.93 330.82 1193.71 331.56 1195.07 333.04L1193.03 335.53C1192.03 334.59 1190.92 334.12 1189.7 334.12C1188.64 334.12 1188.11 334.47 1188.11 335.17C1188.11 335.45 1188.22 335.68 1188.44 335.86C1188.66 336.04 1189.07 336.25 1189.67 336.49L1191.11 337.09C1192.59 337.69 1193.65 338.33 1194.29 339.01C1194.95 339.69 1195.28 340.56 1195.28 341.62C1195.28 343.1 1194.73 344.26 1193.63 345.1C1192.55 345.94 1191.17 346.36 1189.49 346.36C1186.83 346.36 1184.78 345.4 1183.34 343.48ZM1196.99 343.48L1199.03 341.02C1200.31 342.36 1201.7 343.03 1203.2 343.03C1203.76 343.03 1204.21 342.93 1204.55 342.73C1204.91 342.51 1205.09 342.2 1205.09 341.8C1205.09 341.5 1204.98 341.27 1204.76 341.11C1204.56 340.93 1204.16 340.71 1203.56 340.45L1201.97 339.79C1200.55 339.21 1199.52 338.58 1198.88 337.9C1198.24 337.2 1197.92 336.32 1197.92 335.26C1197.92 333.88 1198.42 332.8 1199.42 332.02C1200.42 331.22 1201.74 330.82 1203.38 330.82C1205.58 330.82 1207.36 331.56 1208.72 333.04L1206.68 335.53C1205.68 334.59 1204.57 334.12 1203.35 334.12C1202.29 334.12 1201.76 334.47 1201.76 335.17C1201.76 335.45 1201.87 335.68 1202.09 335.86C1202.31 336.04 1202.72 336.25 1203.32 336.49L1204.76 337.09C1206.24 337.69 1207.3 338.33 1207.94 339.01C1208.6 339.69 1208.93 340.56 1208.93 341.62C1208.93 343.1 1208.38 344.26 1207.28 345.1C1206.2 345.94 1204.82 346.36 1203.14 346.36C1200.48 346.36 1198.43 345.4 1196.99 343.48ZM1216.73 329.08V331.15H1220V334.57H1216.73V346H1212.68V334.57H1210.58V331.15H1212.68V328.72C1212.68 326.88 1213.18 325.49 1214.18 324.55C1215.18 323.61 1216.59 323.14 1218.41 323.14C1219.17 323.14 1219.91 323.25 1220.63 323.47V326.86C1220.19 326.8 1219.79 326.77 1219.43 326.77C1218.49 326.77 1217.8 326.95 1217.36 327.31C1216.94 327.67 1216.73 328.26 1216.73 329.08ZM1222.1 339.46V331.15H1226.15V339.79C1226.15 340.65 1226.41 341.34 1226.93 341.86C1227.47 342.38 1228.15 342.64 1228.97 342.64C1229.77 342.64 1230.43 342.38 1230.95 341.86C1231.47 341.32 1231.73 340.63 1231.73 339.79V331.15H1235.78V339.46C1235.78 341.5 1235.13 343.16 1233.83 344.44C1232.55 345.72 1230.93 346.36 1228.97 346.36C1226.97 346.36 1225.32 345.73 1224.02 344.47C1222.74 343.19 1222.1 341.52 1222.1 339.46ZM1239.65 346V323.5H1243.7V346H1239.65Z"/><defs><filter id="filter0_d" width="113" height="113" x="43" y="179" color-interpolation-filters="sRGB" filterUnits="userSpaceOnUse"><feFlood flood-opacity="0" result="BackgroundImageFix"/><feColorMatrix in="SourceAlpha" type="matrix" values="0 0 0 0 0 0 0 0 0 0 0 0 0 0 0 0 0 0 127 0"/><feOffset dy="4"/><feGaussianBlur stdDeviation="24"/><feColorMatrix type="matrix" values="0 0 0 0 1 0 0 0 0 0.286275 0 0 0 0 0.282353 0 0 0 1 0"/><feBlend in2="BackgroundImageFix" mode="normal" result="effect1_dropShadow"/><feBlend in="SourceGraphic" in2="effect1_dropShadow" mode="normal" result="shape"/></filter><filter id="filter1_d" width="113" height="113" x="253" y="179" color-interpolation-filters="sRGB" filterUnits="userSpaceOnUse"><feFlood flood-opacity="0" result="BackgroundImageFix"/><feColorMatrix in="SourceAlpha" type="matrix" values="0 0 0 0 0 0 0 0 0 0 0 0 0 0 0 0 0 0 127 0"/><feOffset dy="4"/><feGaussianBlur stdDeviation="24"/><feColorMatrix type="matrix" values="0 0 0 0 1 0 0 0 0 0.286275 0 0 0 0 0.282353 0 0 0 1 0"/><feBlend in2="BackgroundImageFix" mode="normal" result="effect1_dropShadow"/><feBlend in="SourceGraphic" in2="effect1_dropShadow" mode="normal" result="shape"/></filter><filter id="filter2_d" width="113" height="113" x="573" y="179" color-interpolation-filters="sRGB" filterUnits="userSpaceOnUse"><feFlood flood-opacity="0" result="BackgroundImageFix"/><feColorMatrix in="SourceAlpha" type="matrix" values="0 0 0 0 0 0 0 0 0 0 0 0 0 0 0 0 0 0 127 0"/><feOffset dy="4"/><feGaussianBlur stdDeviation="24"/><feColorMatrix type="matrix" values="0 0 0 0 1 0 0 0 0 0.286275 0 0 0 0 0.282353 0 0 0 1 0"/><feBlend in2="BackgroundImageFix" mode="normal" result="effect1_dropShadow"/><feBlend in="SourceGraphic" in2="effect1_dropShadow" mode="normal" result="shape"/></filter><filter id="filter3_d" width="113" height="113" x="930" y="179" color-interpolation-filters="sRGB" filterUnits="userSpaceOnUse"><feFlood flood-opacity="0" result="BackgroundImageFix"/><feColorMatrix in="SourceAlpha" type="matrix" values="0 0 0 0 0 0 0 0 0 0 0 0 0 0 0 0 0 0 127 0"/><feOffset dy="4"/><feGaussianBlur stdDeviation="24"/><feColorMatrix type="matrix" values="0 0 0 0 1 0 0 0 0 0.286275 0 0 0 0 0.282353 0 0 0 1 0"/><feBlend in2="BackgroundImageFix" mode="normal" result="effect1_dropShadow"/><feBlend in="SourceGraphic" in2="effect1_dropShadow" mode="normal" result="shape"/></filter><linearGradient id="paint0_linear" x1="234.5" x2="234.5" y1="51" y2="87" gradientUnits="userSpaceOnUse"><stop stop-color="#FFBC36"/><stop offset="1" stop-color="#47505D"/></linearGradient><linearGradient id="paint1_linear" x1="452" x2="452" y1="412" y2="448" gradientUnits="userSpaceOnUse"><stop stop-color="#FFBC36"/><stop offset="1" stop-color="#47505D"/></linearGradient><linearGradient id="paint2_linear" x1="773.5" x2="773.5" y1="51" y2="87" gradientUnits="userSpaceOnUse"><stop stop-color="#FFBC36"/><stop offset="1" stop-color="#47505D"/></linearGradient><linearGradient id="paint3_linear" x1="1129" x2="1129" y1="412" y2="448" gradientUnits="userSpaceOnUse"><stop stop-color="#FFBC36"/><stop offset="1" stop-color="#47505D"/></linearGradient></defs></svg>