<svg xmlns="http://www.w3.org/2000/svg" fill="none" viewBox="0 0 266 537"><rect width="67" height="4" x="135" fill="#FFBC36" transform="rotate(90 135 0)"/><rect width="107" height="4" x="135" y="89" fill="#FFBC36" transform="rotate(90 135 89)"/><rect width="109" height="4" x="135" y="218" fill="#FFBC36" transform="rotate(90 135 218)"/><rect width="82" height="4" x="135" y="349" fill="#FFBC36" transform="rotate(90 135 349)"/><rect width="84" height="4" x="135" y="453" fill="#FFBC36" transform="rotate(90 135 453)"/><g filter="url(#filter0_d)"><circle cx="133" cy="78" r="5" fill="#1A2639" transform="rotate(90 133 78)"/></g><g filter="url(#filter1_d)"><circle cx="133" cy="207" r="5" fill="#1A2639" transform="rotate(90 133 207)"/></g><g filter="url(#filter2_d)"><circle cx="133" cy="338" r="5" fill="#1A2639" transform="rotate(90 133 338)"/></g><g filter="url(#filter3_d)"><circle cx="133" cy="442" r="5" fill="#1A2639" transform="rotate(90 133 442)"/></g><line x1="120" x2="0" y1="78.5" y2="78.5" stroke="#1A2639"/><line x1="266" x2="146" y1="207.5" y2="207.5" stroke="#1A2639"/><line x1="120" x2="0" y1="338.5" y2="338.5" stroke="#1A2639"/><line x1="266" x2="146" y1="442.5" y2="442.5" stroke="#1A2639"/><path fill="url(#paint0_linear)" d="M0 63.5175L2.88114 61.3684C4.32687 63.3333 5.99978 64.3158 7.89989 64.3158C8.80863 64.3158 9.52117 64.1213 10.0375 63.7325C10.5538 63.3231 10.812 62.7705 10.812 62.0746C10.812 61.5015 10.6364 61.0614 10.2853 60.7544C9.93424 60.4269 9.24235 60.0278 8.20969 59.557L6.01011 58.5746C2.70558 57.1213 1.05332 55.1769 1.05332 52.7412C1.05332 51.0219 1.69357 49.6404 2.97408 48.5965C4.25458 47.5322 5.87586 47 7.83793 47C9.36627 47 10.7087 47.348 11.8653 48.0439C13.0219 48.7193 13.9307 49.6506 14.5916 50.8377L11.7414 53.0175C10.6881 51.462 9.38693 50.6842 7.83793 50.6842C7.09441 50.6842 6.48514 50.8582 6.01011 51.2061C5.53508 51.5541 5.29757 52.0351 5.29757 52.6491C5.29757 53.1608 5.4628 53.5804 5.79325 53.9079C6.14436 54.2149 6.77428 54.5731 7.68303 54.9825L10.0065 55.9956C11.7621 56.7734 13.0426 57.6228 13.848 58.5439C14.6535 59.4444 15.0563 60.5702 15.0563 61.9211C15.0563 63.7427 14.385 65.2164 13.0426 66.3421C11.7001 67.4474 9.98587 68 7.89989 68C6.18566 68 4.63667 67.6009 3.2529 66.8026C1.88978 66.0044 0.805479 64.9094 0 63.5175Z"/><path fill="url(#paint1_linear)" d="M23.3463 67.6316V51.114H16.8095V47.3684H34.0963V51.114H27.5286V67.6316H23.3463Z"/><path fill="url(#paint2_linear)" d="M36.8523 67.6316V47.3684H50.6074V51.114H41.0346V55.2281H48.0671V58.7588H41.0346V63.886H50.9792V67.6316H36.8523Z"/><path fill="url(#paint3_linear)" d="M54.6114 67.6316V47.3684H62.2944C64.4423 47.3684 66.2082 47.9722 67.592 49.1798C68.9757 50.3874 69.6676 51.9634 69.6676 53.9079C69.6676 55.8319 68.9757 57.4079 67.592 58.636C66.2082 59.864 64.4423 60.4781 62.2944 60.4781H58.7937V67.6316H54.6114ZM58.7937 56.8553H62.2944C63.2651 56.8553 64.0189 56.5892 64.5559 56.057C65.1136 55.5044 65.3924 54.788 65.3924 53.9079C65.3924 53.0482 65.1032 52.3523 64.5249 51.8202C63.9673 51.288 63.2238 51.0219 62.2944 51.0219H58.7937V56.8553Z"/><path fill="url(#paint4_linear)" d="M86.6059 47.3684H88V67.6316H83.8177V52.2807L79.9452 53.5088L78.9538 49.8553L86.6059 47.3684Z"/><path fill="#fff" d="M10.128 103H7.696L4.96 99.272H3.376V103H1.216V92.44H5.184C6.29333 92.44 7.20533 92.7547 7.92 93.384C8.63467 94.0133 8.992 94.8347 8.992 95.848C8.992 96.5093 8.82667 97.1067 8.496 97.64C8.176 98.1627 7.72267 98.568 7.136 98.856L10.128 103ZM3.376 94.344V97.368H5.184C5.68533 97.368 6.07467 97.2293 6.352 96.952C6.64 96.6747 6.784 96.3067 6.784 95.848C6.784 95.4 6.63467 95.0373 6.336 94.76C6.048 94.4827 5.664 94.344 5.184 94.344H3.376ZM18.352 99.768H12.8C12.928 100.269 13.184 100.659 13.568 100.936C13.9627 101.203 14.448 101.336 15.024 101.336C15.8027 101.336 16.5387 101.069 17.232 100.536L18.128 102.008C17.1787 102.797 16.1227 103.192 14.96 103.192C13.744 103.213 12.7093 102.819 11.856 102.008C11.0133 101.187 10.6027 100.2 10.624 99.048C10.6027 97.9067 11.0027 96.9253 11.824 96.104C12.6453 95.2827 13.6267 94.8827 14.768 94.904C15.856 94.904 16.7467 95.256 17.44 95.96C18.144 96.664 18.496 97.5387 18.496 98.584C18.496 98.968 18.448 99.3627 18.352 99.768ZM12.8 98.248H16.4C16.3893 97.768 16.2187 97.384 15.888 97.096C15.568 96.7973 15.168 96.648 14.688 96.648C14.2293 96.648 13.8293 96.792 13.488 97.08C13.1467 97.368 12.9173 97.7573 12.8 98.248ZM26.1494 95.08H28.1334V102.12C28.1334 103.389 27.7654 104.365 27.0294 105.048C26.2934 105.731 25.296 106.072 24.0374 106.072C22.5547 106.072 21.2587 105.581 20.1494 104.6L21.2854 103.096C22.2027 103.779 23.0614 104.12 23.8614 104.12C24.512 104.12 25.024 103.96 25.3974 103.64C25.7814 103.32 25.9734 102.856 25.9734 102.248V101.816C25.3974 102.445 24.592 102.76 23.5574 102.76C22.4587 102.76 21.552 102.392 20.8374 101.656C20.1227 100.92 19.7654 99.976 19.7654 98.824C19.7654 97.6613 20.1227 96.7173 20.8374 95.992C21.552 95.2667 22.4587 94.904 23.5574 94.904C24.7094 94.904 25.5734 95.2933 26.1494 96.072V95.08ZM26.0054 98.792C26.0054 98.1413 25.8134 97.64 25.4294 97.288C25.056 96.9253 24.5814 96.744 24.0054 96.744C23.408 96.744 22.9174 96.9307 22.5334 97.304C22.1494 97.6773 21.9574 98.1787 21.9574 98.808C21.9574 99.4373 22.1494 99.9493 22.5334 100.344C22.928 100.739 23.4187 100.936 24.0054 100.936C24.5707 100.936 25.0454 100.744 25.4294 100.36C25.8134 99.976 26.0054 99.4533 26.0054 98.792ZM30.2751 103V95.08H32.4351V103H30.2751ZM29.9711 92.2C29.9711 91.816 30.1045 91.496 30.3711 91.24C30.6378 90.984 30.9631 90.856 31.3471 90.856C31.7311 90.856 32.0565 90.984 32.3231 91.24C32.6005 91.496 32.7391 91.816 32.7391 92.2C32.7391 92.5733 32.6005 92.888 32.3231 93.144C32.0565 93.4 31.7311 93.528 31.3471 93.528C30.9631 93.528 30.6378 93.4 30.3711 93.144C30.1045 92.888 29.9711 92.5733 29.9711 92.2ZM33.852 101.656L34.94 100.344C35.6227 101.059 36.364 101.416 37.164 101.416C37.4627 101.416 37.7027 101.363 37.884 101.256C38.076 101.139 38.172 100.973 38.172 100.76C38.172 100.6 38.1133 100.477 37.996 100.392C37.8893 100.296 37.676 100.179 37.356 100.04L36.508 99.688C35.7507 99.3787 35.2013 99.0427 34.86 98.68C34.5187 98.3067 34.348 97.8373 34.348 97.272C34.348 96.536 34.6147 95.96 35.148 95.544C35.6813 95.1173 36.3853 94.904 37.26 94.904C38.4333 94.904 39.3827 95.2987 40.108 96.088L39.02 97.416C38.4867 96.9147 37.8947 96.664 37.244 96.664C36.6787 96.664 36.396 96.8507 36.396 97.224C36.396 97.3733 36.4547 97.496 36.572 97.592C36.6893 97.688 36.908 97.8 37.228 97.928L37.996 98.248C38.7853 98.568 39.3507 98.9093 39.692 99.272C40.044 99.6347 40.22 100.099 40.22 100.664C40.22 101.453 39.9267 102.072 39.34 102.52C38.764 102.968 38.028 103.192 37.132 103.192C35.7133 103.192 34.62 102.68 33.852 101.656ZM46.9413 101.192V103C46.4293 103.128 45.9333 103.192 45.4533 103.192C44.4399 103.192 43.6559 102.941 43.1013 102.44C42.5573 101.939 42.2853 101.197 42.2853 100.216V96.904H41.0373V95.08H42.2853V93.08H44.4453V95.08H46.6853V96.904H44.4453V100.024C44.4453 100.472 44.5573 100.792 44.7812 100.984C45.0159 101.165 45.3946 101.256 45.9173 101.256C46.0986 101.256 46.4399 101.235 46.9413 101.192ZM55.6333 99.768H50.0813C50.2093 100.269 50.4653 100.659 50.8493 100.936C51.2439 101.203 51.7293 101.336 52.3053 101.336C53.0839 101.336 53.8199 101.069 54.5133 100.536L55.4093 102.008C54.4599 102.797 53.4039 103.192 52.2413 103.192C51.0253 103.213 49.9906 102.819 49.1373 102.008C48.2946 101.187 47.8839 100.2 47.9053 99.048C47.8839 97.9067 48.2839 96.9253 49.1053 96.104C49.9266 95.2827 50.9079 94.8827 52.0493 94.904C53.1373 94.904 54.0279 95.256 54.7213 95.96C55.4253 96.664 55.7773 97.5387 55.7773 98.584C55.7773 98.968 55.7293 99.3627 55.6333 99.768ZM50.0813 98.248H53.6813C53.6706 97.768 53.4999 97.384 53.1693 97.096C52.8493 96.7973 52.4493 96.648 51.9693 96.648C51.5106 96.648 51.1106 96.792 50.7693 97.08C50.4279 97.368 50.1986 97.7573 50.0813 98.248ZM62.3266 95.08V96.984H61.7506C61.0893 96.984 60.5666 97.16 60.1826 97.512C59.8093 97.864 59.6226 98.376 59.6226 99.048V103H57.4626V95.08H59.4466V96.024C60.0013 95.3307 60.7266 94.984 61.6226 94.984C61.8893 94.984 62.124 95.016 62.3266 95.08ZM73.5581 95.08H75.8301L72.0381 103.688C71.6755 104.509 71.2435 105.112 70.7421 105.496C70.2408 105.88 69.6221 106.072 68.8861 106.072C68.4381 106.072 67.9741 106.008 67.4941 105.88V104.072C67.9315 104.115 68.2408 104.136 68.4221 104.136C68.8275 104.136 69.1581 104.056 69.4141 103.896C69.6701 103.736 69.8888 103.459 70.0701 103.064L70.3101 102.52L67.2701 95.08H69.5581L71.4941 100.28L73.5581 95.08ZM76.3271 99.032C76.3058 97.9013 76.7165 96.9253 77.5591 96.104C78.4018 95.2827 79.4045 94.8827 80.5671 94.904C81.7298 94.8827 82.7325 95.2827 83.5751 96.104C84.4285 96.9253 84.8445 97.9013 84.8231 99.032C84.8445 100.163 84.4285 101.144 83.5751 101.976C82.7218 102.797 81.7138 103.197 80.5511 103.176C79.3885 103.197 78.3858 102.797 77.5431 101.976C76.7111 101.144 76.3058 100.163 76.3271 99.032ZM82.0231 100.584C82.4178 100.179 82.6151 99.6667 82.6151 99.048C82.6151 98.4293 82.4178 97.912 82.0231 97.496C81.6391 97.08 81.1538 96.872 80.5671 96.872C79.9698 96.872 79.4791 97.08 79.0951 97.496C78.7111 97.9013 78.5191 98.4187 78.5191 99.048C78.5191 99.6667 78.7111 100.179 79.0951 100.584C79.4791 100.989 79.9698 101.192 80.5671 101.192C81.1538 101.192 81.6391 100.989 82.0231 100.584ZM86.4295 99.512V95.08H88.5895V99.688C88.5895 100.147 88.7282 100.515 89.0055 100.792C89.2935 101.069 89.6562 101.208 90.0935 101.208C90.5202 101.208 90.8722 101.069 91.1495 100.792C91.4268 100.504 91.5655 100.136 91.5655 99.688V95.08H93.7255V99.512C93.7255 100.6 93.3788 101.485 92.6855 102.168C92.0028 102.851 91.1388 103.192 90.0935 103.192C89.0268 103.192 88.1468 102.856 87.4535 102.184C86.7708 101.501 86.4295 100.611 86.4295 99.512ZM100.655 95.08V96.984H100.079C99.4174 96.984 98.8948 97.16 98.5108 97.512C98.1374 97.864 97.9508 98.376 97.9508 99.048V103H95.7908V95.08H97.7748V96.024C98.3294 95.3307 99.0548 94.984 99.9508 94.984C100.217 94.984 100.452 95.016 100.655 95.08ZM1.216 123V112.44H5.184C6.29333 112.44 7.20533 112.755 7.92 113.384C8.63467 114.013 8.992 114.835 8.992 115.848C8.992 116.851 8.63467 117.672 7.92 118.312C7.20533 118.952 6.29333 119.272 5.184 119.272H3.376V123H1.216ZM3.376 117.384H5.184C5.68533 117.384 6.07467 117.245 6.352 116.968C6.64 116.68 6.784 116.307 6.784 115.848C6.784 115.4 6.63467 115.037 6.336 114.76C6.048 114.483 5.664 114.344 5.184 114.344H3.376V117.384ZM15.436 115.08V116.984H14.86C14.1987 116.984 13.676 117.16 13.292 117.512C12.9187 117.864 12.732 118.376 12.732 119.048V123H10.572V115.08H12.556V116.024C13.1107 115.331 13.836 114.984 14.732 114.984C14.9987 114.984 15.2333 115.016 15.436 115.08ZM16.1709 119.032C16.1495 117.901 16.5602 116.925 17.4029 116.104C18.2455 115.283 19.2482 114.883 20.4109 114.904C21.5735 114.883 22.5762 115.283 23.4189 116.104C24.2722 116.925 24.6882 117.901 24.6669 119.032C24.6882 120.163 24.2722 121.144 23.4189 121.976C22.5655 122.797 21.5575 123.197 20.3949 123.176C19.2322 123.197 18.2295 122.797 17.3869 121.976C16.5549 121.144 16.1495 120.163 16.1709 119.032ZM21.8669 120.584C22.2615 120.179 22.4589 119.667 22.4589 119.048C22.4589 118.429 22.2615 117.912 21.8669 117.496C21.4829 117.08 20.9975 116.872 20.4109 116.872C19.8135 116.872 19.3229 117.08 18.9389 117.496C18.5549 117.901 18.3629 118.419 18.3629 119.048C18.3629 119.667 18.5549 120.179 18.9389 120.584C19.3229 120.989 19.8135 121.192 20.4109 121.192C20.9975 121.192 21.4829 120.989 21.8669 120.584ZM32.1133 111H34.2733V123H32.2893V122.024C31.7453 122.803 30.8973 123.192 29.7453 123.192C28.6359 123.192 27.7186 122.803 26.9933 122.024C26.2679 121.235 25.9053 120.243 25.9053 119.048C25.9053 117.853 26.2679 116.867 26.9933 116.088C27.7186 115.299 28.6359 114.904 29.7453 114.904C30.7479 114.904 31.5373 115.219 32.1133 115.848V111ZM31.5693 120.648C31.9533 120.264 32.1453 119.731 32.1453 119.048C32.1453 118.365 31.9533 117.832 31.5693 117.448C31.1853 117.053 30.7106 116.856 30.1453 116.856C29.5586 116.856 29.0679 117.059 28.6733 117.464C28.2893 117.869 28.0973 118.392 28.0973 119.032C28.0973 119.683 28.2893 120.211 28.6733 120.616C29.0573 121.021 29.5479 121.224 30.1453 121.224C30.7213 121.224 31.1959 121.032 31.5693 120.648ZM36.3358 119.512V115.08H38.4958V119.688C38.4958 120.147 38.6344 120.515 38.9118 120.792C39.1998 121.069 39.5624 121.208 39.9998 121.208C40.4264 121.208 40.7784 121.069 41.0558 120.792C41.3331 120.504 41.4718 120.136 41.4718 119.688V115.08H43.6318V119.512C43.6318 120.6 43.2851 121.485 42.5918 122.168C41.9091 122.851 41.0451 123.192 39.9998 123.192C38.9331 123.192 38.0531 122.856 37.3598 122.184C36.6771 121.501 36.3358 120.611 36.3358 119.512ZM45.249 119.032C45.249 117.88 45.6597 116.904 46.481 116.104C47.3023 115.304 48.305 114.904 49.489 114.904C51.0463 114.904 52.193 115.555 52.929 116.856L51.425 118.024C50.8917 117.256 50.257 116.872 49.521 116.872C48.913 116.872 48.4117 117.08 48.017 117.496C47.633 117.901 47.441 118.413 47.441 119.032C47.441 119.661 47.633 120.184 48.017 120.6C48.4117 121.005 48.913 121.208 49.521 121.208C50.257 121.208 50.8917 120.829 51.425 120.072L52.929 121.224C52.577 121.843 52.1023 122.328 51.505 122.68C50.9183 123.021 50.2463 123.192 49.489 123.192C48.3263 123.213 47.3237 122.813 46.481 121.992C45.6383 121.16 45.2277 120.173 45.249 119.032ZM59.6131 121.192V123C59.1011 123.128 58.6051 123.192 58.1251 123.192C57.1118 123.192 56.3278 122.941 55.7731 122.44C55.2291 121.939 54.9571 121.197 54.9571 120.216V116.904H53.7091V115.08H54.9571V113.08H57.1171V115.08H59.3571V116.904H57.1171V120.024C57.1171 120.472 57.2291 120.792 57.4531 120.984C57.6878 121.165 58.0665 121.256 58.5891 121.256C58.7705 121.256 59.1118 121.235 59.6131 121.192Z"/><path fill="url(#paint5_linear)" d="M146 191.459L148.672 189.448C150.013 191.287 151.565 192.206 153.327 192.206C154.17 192.206 154.831 192.024 155.31 191.66C155.789 191.277 156.028 190.76 156.028 190.109C156.028 189.572 155.865 189.16 155.54 188.873C155.214 188.566 154.572 188.193 153.615 187.752L151.574 186.833C148.509 185.473 146.977 183.653 146.977 181.373C146.977 179.764 147.571 178.471 148.758 177.494C149.946 176.498 151.45 176 153.27 176C154.687 176 155.932 176.326 157.005 176.977C158.078 177.609 158.921 178.481 159.534 179.592L156.89 181.632C155.913 180.176 154.706 179.448 153.27 179.448C152.58 179.448 152.015 179.611 151.574 179.937C151.134 180.262 150.914 180.712 150.914 181.287C150.914 181.766 151.067 182.159 151.373 182.465C151.699 182.753 152.283 183.088 153.126 183.471L155.281 184.419C156.909 185.147 158.097 185.942 158.844 186.804C159.591 187.647 159.965 188.701 159.965 189.965C159.965 191.67 159.342 193.049 158.097 194.103C156.852 195.137 155.262 195.654 153.327 195.654C151.737 195.654 150.301 195.281 149.017 194.534C147.753 193.787 146.747 192.762 146 191.459Z"/><path fill="url(#paint6_linear)" d="M167.654 195.309V179.85H161.591V176.345H177.625V179.85H171.533V195.309H167.654Z"/><path fill="url(#paint7_linear)" d="M180.181 195.309V176.345H192.939V179.85H184.06V183.701H190.583V187.005H184.06V191.804H193.284V195.309H180.181Z"/><path fill="url(#paint8_linear)" d="M196.653 195.309V176.345H203.779C205.771 176.345 207.409 176.91 208.692 178.04C209.976 179.17 210.617 180.645 210.617 182.465C210.617 184.266 209.976 185.741 208.692 186.89C207.409 188.04 205.771 188.614 203.779 188.614H200.532V195.309H196.653ZM200.532 185.224H203.779C204.679 185.224 205.378 184.975 205.876 184.477C206.394 183.959 206.652 183.289 206.652 182.465C206.652 181.661 206.384 181.009 205.848 180.511C205.33 180.013 204.641 179.764 203.779 179.764H200.532V185.224Z"/><path fill="url(#paint9_linear)" d="M226.931 192.005H234V195.309L220.006 195.338V194.505L226.788 187.149C227.746 186.095 228.426 185.214 228.828 184.505C229.249 183.777 229.46 183.069 229.46 182.379C229.46 181.555 229.221 180.885 228.742 180.368C228.263 179.85 227.621 179.592 226.816 179.592C226.012 179.592 225.361 179.86 224.863 180.396C224.384 180.933 224.144 181.632 224.144 182.494C224.144 182.781 224.192 183.241 224.288 183.873H220.38C220.246 183.394 220.179 182.858 220.179 182.264C220.179 180.578 220.801 179.113 222.047 177.868C223.311 176.623 224.92 176 226.874 176C228.77 176 230.341 176.584 231.586 177.753C232.831 178.902 233.454 180.339 233.454 182.063C233.454 183.346 233.109 184.544 232.42 185.655C231.692 186.804 230.676 188.059 229.374 189.419L226.931 192.005Z"/><path fill="url(#paint10_linear)" d="M0 322.602L2.69694 320.572C4.05025 322.428 5.61622 323.356 7.39484 323.356C8.24549 323.356 8.91248 323.172 9.3958 322.805C9.87912 322.418 10.1208 321.896 10.1208 321.239C10.1208 320.697 9.95646 320.282 9.6278 319.992C9.29914 319.682 8.65148 319.305 7.68484 318.861L5.62588 317.933C2.53261 316.56 0.985979 314.724 0.985979 312.423C0.985979 310.799 1.5853 309.494 2.78394 308.508C3.98258 307.503 5.50022 307 7.33685 307C8.76748 307 10.0241 307.329 11.1068 307.986C12.1894 308.624 13.0401 309.504 13.6587 310.625L10.9908 312.684C10.0048 311.215 8.78681 310.48 7.33685 310.48C6.64086 310.48 6.07054 310.644 5.62588 310.973C5.18122 311.302 4.9589 311.756 4.9589 312.336C4.9589 312.819 5.11356 313.216 5.42289 313.525C5.75155 313.815 6.3412 314.153 7.19185 314.54L9.3668 315.497C11.0101 316.231 12.2087 317.034 12.9627 317.904C13.7167 318.754 14.0937 319.818 14.0937 321.094C14.0937 322.814 13.4654 324.206 12.2087 325.27C10.9521 326.314 9.34747 326.836 7.39484 326.836C5.79021 326.836 4.34024 326.459 3.04494 325.705C1.76896 324.951 0.753984 323.916 0 322.602Z"/><path fill="url(#paint11_linear)" d="M21.8538 326.488V310.886H15.7349V307.348H31.9165V310.886H25.7687V326.488H21.8538Z"/><path fill="url(#paint12_linear)" d="M34.4964 326.488V307.348H47.3721V310.886H38.4113V314.772H44.9941V318.107H38.4113V322.95H47.7201V326.488H34.4964Z"/><path fill="url(#paint13_linear)" d="M51.12 326.488V307.348H58.3119C60.3225 307.348 61.9755 307.918 63.2708 309.059C64.5661 310.2 65.2137 311.688 65.2137 313.525C65.2137 315.342 64.5661 316.831 63.2708 317.991C61.9755 319.151 60.3225 319.731 58.3119 319.731H55.0349V326.488H51.12ZM55.0349 316.309H58.3119C59.2205 316.309 59.9262 316.057 60.4288 315.555C60.9508 315.033 61.2118 314.356 61.2118 313.525C61.2118 312.713 60.9412 312.056 60.3998 311.553C59.8778 311.05 59.1819 310.799 58.3119 310.799H55.0349V316.309Z"/><path fill="url(#paint14_linear)" d="M88 320.224C88 322.118 87.2943 323.694 85.883 324.951C84.4911 326.207 82.7898 326.836 80.7792 326.836C79.2325 326.836 77.8502 326.449 76.6322 325.676C75.4143 324.902 74.4766 323.839 73.8193 322.486L76.5452 320.572C77.1446 321.48 77.7632 322.147 78.4012 322.573C79.0585 322.998 79.8125 323.211 80.6632 323.211C81.6491 323.211 82.4515 322.95 83.0701 322.428C83.6888 321.886 83.9981 321.161 83.9981 320.253C83.9981 319.363 83.6598 318.687 82.9831 318.223C82.3258 317.739 81.3591 317.498 80.0832 317.498H77.6762V316.483L81.6781 310.886H75.2983V307.348H87.623V308.392L83.3891 314.366C84.6651 314.695 85.7574 315.381 86.666 316.425C87.5553 317.43 88 318.696 88 320.224Z"/><path fill="url(#paint15_linear)" d="M146 426.304L148.646 424.313C149.973 426.133 151.509 427.044 153.254 427.044C154.088 427.044 154.743 426.864 155.217 426.503C155.691 426.124 155.928 425.612 155.928 424.967C155.928 424.436 155.767 424.028 155.444 423.744C155.122 423.441 154.486 423.071 153.538 422.635L151.519 421.724C148.484 420.378 146.967 418.576 146.967 416.319C146.967 414.726 147.555 413.446 148.731 412.479C149.907 411.493 151.395 411 153.197 411C154.6 411 155.833 411.322 156.895 411.967C157.957 412.593 158.791 413.456 159.398 414.556L156.781 416.575C155.814 415.134 154.619 414.414 153.197 414.414C152.514 414.414 151.955 414.575 151.519 414.897C151.082 415.22 150.864 415.665 150.864 416.234C150.864 416.708 151.016 417.097 151.319 417.4C151.642 417.685 152.22 418.017 153.055 418.396L155.188 419.335C156.8 420.055 157.976 420.842 158.716 421.696C159.455 422.53 159.825 423.573 159.825 424.825C159.825 426.513 159.209 427.878 157.976 428.921C156.743 429.945 155.169 430.457 153.254 430.457C151.68 430.457 150.257 430.087 148.987 429.348C147.735 428.608 146.74 427.594 146 426.304Z"/><path fill="url(#paint16_linear)" d="M167.437 430.116V414.812H161.435V411.341H177.308V414.812H171.277V430.116H167.437Z"/><path fill="url(#paint17_linear)" d="M179.838 430.116V411.341H192.469V414.812H183.679V418.624H190.136V421.895H183.679V426.645H192.81V430.116H179.838Z"/><path fill="url(#paint18_linear)" d="M196.145 430.116V411.341H203.2C205.172 411.341 206.793 411.901 208.064 413.02C209.335 414.139 209.97 415.599 209.97 417.4C209.97 419.183 209.335 420.643 208.064 421.781C206.793 422.919 205.172 423.488 203.2 423.488H199.985V430.116H196.145ZM199.985 420.131H203.2C204.091 420.131 204.783 419.885 205.276 419.392C205.788 418.88 206.044 418.216 206.044 417.4C206.044 416.604 205.779 415.959 205.248 415.466C204.736 414.973 204.053 414.726 203.2 414.726H199.985V420.131Z"/><path fill="url(#paint19_linear)" d="M234 423.801V427.044H231.611V430.116H227.77V427.044H218.44V426.02L224.243 411.341H228.197L223.219 423.801H227.77V418.538H231.611V423.801H234Z"/><path fill="#fff" d="M146.48 230.856L147.968 229.736C148.715 230.76 149.579 231.272 150.56 231.272C151.029 231.272 151.397 231.171 151.664 230.968C151.931 230.755 152.064 230.467 152.064 230.104C152.064 229.805 151.973 229.576 151.792 229.416C151.611 229.245 151.253 229.037 150.72 228.792L149.584 228.28C147.877 227.523 147.024 226.509 147.024 225.24C147.024 224.344 147.355 223.624 148.016 223.08C148.677 222.525 149.515 222.248 150.528 222.248C151.317 222.248 152.011 222.429 152.608 222.792C153.205 223.144 153.675 223.629 154.016 224.248L152.544 225.384C152 224.573 151.328 224.168 150.528 224.168C150.144 224.168 149.829 224.259 149.584 224.44C149.339 224.621 149.216 224.872 149.216 225.192C149.216 225.459 149.301 225.677 149.472 225.848C149.653 226.008 149.979 226.195 150.448 226.408L151.648 226.936C152.555 227.341 153.216 227.784 153.632 228.264C154.048 228.733 154.256 229.32 154.256 230.024C154.256 230.973 153.909 231.741 153.216 232.328C152.523 232.904 151.637 233.192 150.56 233.192C149.675 233.192 148.875 232.984 148.16 232.568C147.456 232.152 146.896 231.581 146.48 230.856ZM163.29 229.768H157.738C157.866 230.269 158.122 230.659 158.506 230.936C158.9 231.203 159.386 231.336 159.962 231.336C160.74 231.336 161.476 231.069 162.17 230.536L163.066 232.008C162.116 232.797 161.06 233.192 159.898 233.192C158.682 233.213 157.647 232.819 156.794 232.008C155.951 231.187 155.54 230.2 155.562 229.048C155.54 227.907 155.94 226.925 156.762 226.104C157.583 225.283 158.564 224.883 159.706 224.904C160.794 224.904 161.684 225.256 162.378 225.96C163.082 226.664 163.434 227.539 163.434 228.584C163.434 228.968 163.386 229.363 163.29 229.768ZM157.738 228.248H161.338C161.327 227.768 161.156 227.384 160.826 227.096C160.506 226.797 160.106 226.648 159.626 226.648C159.167 226.648 158.767 226.792 158.426 227.08C158.084 227.368 157.855 227.757 157.738 228.248ZM165.119 233V221H167.279V233H165.119ZM176.696 229.768H171.144C171.272 230.269 171.528 230.659 171.912 230.936C172.306 231.203 172.792 231.336 173.368 231.336C174.146 231.336 174.882 231.069 175.576 230.536L176.472 232.008C175.522 232.797 174.466 233.192 173.304 233.192C172.088 233.213 171.053 232.819 170.2 232.008C169.357 231.187 168.946 230.2 168.968 229.048C168.946 227.907 169.346 226.925 170.168 226.104C170.989 225.283 171.97 224.883 173.112 224.904C174.2 224.904 175.09 225.256 175.784 225.96C176.488 226.664 176.84 227.539 176.84 228.584C176.84 228.968 176.792 229.363 176.696 229.768ZM171.144 228.248H174.744C174.733 227.768 174.562 227.384 174.232 227.096C173.912 226.797 173.512 226.648 173.032 226.648C172.573 226.648 172.173 226.792 171.832 227.08C171.49 227.368 171.261 227.757 171.144 228.248ZM178.077 229.032C178.077 227.88 178.488 226.904 179.309 226.104C180.13 225.304 181.133 224.904 182.317 224.904C183.874 224.904 185.021 225.555 185.757 226.856L184.253 228.024C183.72 227.256 183.085 226.872 182.349 226.872C181.741 226.872 181.24 227.08 180.845 227.496C180.461 227.901 180.269 228.413 180.269 229.032C180.269 229.661 180.461 230.184 180.845 230.6C181.24 231.005 181.741 231.208 182.349 231.208C183.085 231.208 183.72 230.829 184.253 230.072L185.757 231.224C185.405 231.843 184.93 232.328 184.333 232.68C183.746 233.021 183.074 233.192 182.317 233.192C181.154 233.213 180.152 232.813 179.309 231.992C178.466 231.16 178.056 230.173 178.077 229.032ZM192.441 231.192V233C191.929 233.128 191.433 233.192 190.953 233.192C189.94 233.192 189.156 232.941 188.601 232.44C188.057 231.939 187.785 231.197 187.785 230.216V226.904H186.537V225.08H187.785V223.08H189.945V225.08H192.185V226.904H189.945V230.024C189.945 230.472 190.057 230.792 190.281 230.984C190.516 231.165 190.895 231.256 191.417 231.256C191.599 231.256 191.94 231.235 192.441 231.192ZM203.902 225.08H206.174L202.382 233.688C202.019 234.509 201.587 235.112 201.086 235.496C200.585 235.88 199.966 236.072 199.23 236.072C198.782 236.072 198.318 236.008 197.838 235.88V234.072C198.275 234.115 198.585 234.136 198.766 234.136C199.171 234.136 199.502 234.056 199.758 233.896C200.014 233.736 200.233 233.459 200.414 233.064L200.654 232.52L197.614 225.08H199.902L201.838 230.28L203.902 225.08ZM206.671 229.032C206.65 227.901 207.06 226.925 207.903 226.104C208.746 225.283 209.748 224.883 210.911 224.904C212.074 224.883 213.076 225.283 213.919 226.104C214.772 226.925 215.188 227.901 215.167 229.032C215.188 230.163 214.772 231.144 213.919 231.976C213.066 232.797 212.058 233.197 210.895 233.176C209.732 233.197 208.73 232.797 207.887 231.976C207.055 231.144 206.65 230.163 206.671 229.032ZM212.367 230.584C212.762 230.179 212.959 229.667 212.959 229.048C212.959 228.429 212.762 227.912 212.367 227.496C211.983 227.08 211.498 226.872 210.911 226.872C210.314 226.872 209.823 227.08 209.439 227.496C209.055 227.901 208.863 228.419 208.863 229.048C208.863 229.667 209.055 230.179 209.439 230.584C209.823 230.989 210.314 231.192 210.911 231.192C211.498 231.192 211.983 230.989 212.367 230.584ZM216.773 229.512V225.08H218.933V229.688C218.933 230.147 219.072 230.515 219.349 230.792C219.637 231.069 220 231.208 220.437 231.208C220.864 231.208 221.216 231.069 221.493 230.792C221.771 230.504 221.909 230.136 221.909 229.688V225.08H224.069V229.512C224.069 230.6 223.723 231.485 223.029 232.168C222.347 232.851 221.483 233.192 220.437 233.192C219.371 233.192 218.491 232.856 217.797 232.184C217.115 231.501 216.773 230.611 216.773 229.512ZM230.999 225.08V226.984H230.423C229.761 226.984 229.239 227.16 228.855 227.512C228.481 227.864 228.295 228.376 228.295 229.048V233H226.135V225.08H228.119V226.024C228.673 225.331 229.399 224.984 230.295 224.984C230.561 224.984 230.796 225.016 230.999 225.08ZM154.336 246.088C155.072 246.867 155.44 247.848 155.44 249.032C155.44 250.216 155.072 251.208 154.336 252.008C153.611 252.797 152.699 253.192 151.6 253.192C150.608 253.192 149.819 252.872 149.232 252.232V255.88H147.072V245.08H149.056V246.072C149.6 245.293 150.448 244.904 151.6 244.904C152.699 244.904 153.611 245.299 154.336 246.088ZM153.248 249.048C153.248 248.397 153.056 247.869 152.672 247.464C152.288 247.059 151.797 246.856 151.2 246.856C150.624 246.856 150.144 247.048 149.76 247.432C149.387 247.816 149.2 248.349 149.2 249.032C149.2 249.715 149.387 250.253 149.76 250.648C150.144 251.032 150.624 251.224 151.2 251.224C151.787 251.224 152.272 251.021 152.656 250.616C153.051 250.211 153.248 249.688 153.248 249.048ZM161.999 245.08V246.984H161.423C160.761 246.984 160.239 247.16 159.855 247.512C159.481 247.864 159.295 248.376 159.295 249.048V253H157.135V245.08H159.119V246.024C159.673 245.331 160.399 244.984 161.295 244.984C161.561 244.984 161.796 245.016 161.999 245.08ZM170.461 249.768H164.909C165.037 250.269 165.293 250.659 165.677 250.936C166.072 251.203 166.557 251.336 167.133 251.336C167.912 251.336 168.648 251.069 169.341 250.536L170.237 252.008C169.288 252.797 168.232 253.192 167.069 253.192C165.853 253.213 164.819 252.819 163.965 252.008C163.123 251.187 162.712 250.2 162.733 249.048C162.712 247.907 163.112 246.925 163.933 246.104C164.755 245.283 165.736 244.883 166.877 244.904C167.965 244.904 168.856 245.256 169.549 245.96C170.253 246.664 170.605 247.539 170.605 248.584C170.605 248.968 170.557 249.363 170.461 249.768ZM164.909 248.248H168.509C168.499 247.768 168.328 247.384 167.997 247.096C167.677 246.797 167.277 246.648 166.797 246.648C166.339 246.648 165.939 246.792 165.597 247.08C165.256 247.368 165.027 247.757 164.909 248.248ZM174.819 243.976V245.08H176.563V246.904H174.819V253H172.659V246.904H171.539V245.08H172.659V243.784C172.659 242.803 172.925 242.061 173.459 241.56C173.992 241.059 174.744 240.808 175.715 240.808C176.12 240.808 176.515 240.867 176.899 240.984V242.792C176.664 242.76 176.451 242.744 176.259 242.744C175.757 242.744 175.389 242.84 175.155 243.032C174.931 243.224 174.819 243.539 174.819 243.976ZM185.04 249.768H179.488C179.616 250.269 179.872 250.659 180.256 250.936C180.65 251.203 181.136 251.336 181.712 251.336C182.49 251.336 183.226 251.069 183.92 250.536L184.816 252.008C183.866 252.797 182.81 253.192 181.648 253.192C180.432 253.213 179.397 252.819 178.544 252.008C177.701 251.187 177.29 250.2 177.312 249.048C177.29 247.907 177.69 246.925 178.512 246.104C179.333 245.283 180.314 244.883 181.456 244.904C182.544 244.904 183.434 245.256 184.128 245.96C184.832 246.664 185.184 247.539 185.184 248.584C185.184 248.968 185.136 249.363 185.04 249.768ZM179.488 248.248H183.088C183.077 247.768 182.906 247.384 182.576 247.096C182.256 246.797 181.856 246.648 181.376 246.648C180.917 246.648 180.517 246.792 180.176 247.08C179.834 247.368 179.605 247.757 179.488 248.248ZM191.733 245.08V246.984H191.157C190.496 246.984 189.973 247.16 189.589 247.512C189.216 247.864 189.029 248.376 189.029 249.048V253H186.869V245.08H188.853V246.024C189.408 245.331 190.133 244.984 191.029 244.984C191.296 244.984 191.53 245.016 191.733 245.08ZM200.196 249.768H194.644C194.772 250.269 195.028 250.659 195.412 250.936C195.806 251.203 196.292 251.336 196.868 251.336C197.646 251.336 198.382 251.069 199.076 250.536L199.972 252.008C199.022 252.797 197.966 253.192 196.804 253.192C195.588 253.213 194.553 252.819 193.7 252.008C192.857 251.187 192.446 250.2 192.468 249.048C192.446 247.907 192.846 246.925 193.668 246.104C194.489 245.283 195.47 244.883 196.612 244.904C197.7 244.904 198.59 245.256 199.284 245.96C199.988 246.664 200.34 247.539 200.34 248.584C200.34 248.968 200.292 249.363 200.196 249.768ZM194.644 248.248H198.244C198.233 247.768 198.062 247.384 197.732 247.096C197.412 246.797 197.012 246.648 196.532 246.648C196.073 246.648 195.673 246.792 195.332 247.08C194.99 247.368 194.761 247.757 194.644 248.248ZM209.305 248.088V253H207.161V248.376C207.161 247.917 207.022 247.549 206.745 247.272C206.478 246.984 206.126 246.84 205.689 246.84C205.252 246.84 204.889 246.984 204.601 247.272C204.324 247.549 204.185 247.917 204.185 248.376V253H202.025V245.08H204.009V245.8C204.606 245.203 205.38 244.904 206.329 244.904C207.246 244.904 207.972 245.192 208.505 245.768C209.038 246.344 209.305 247.117 209.305 248.088ZM210.937 249.032C210.937 247.88 211.347 246.904 212.169 246.104C212.99 245.304 213.993 244.904 215.177 244.904C216.734 244.904 217.881 245.555 218.617 246.856L217.113 248.024C216.579 247.256 215.945 246.872 215.209 246.872C214.601 246.872 214.099 247.08 213.705 247.496C213.321 247.901 213.129 248.413 213.129 249.032C213.129 249.661 213.321 250.184 213.705 250.6C214.099 251.005 214.601 251.208 215.209 251.208C215.945 251.208 216.579 250.829 217.113 250.072L218.617 251.224C218.265 251.843 217.79 252.328 217.193 252.68C216.606 253.021 215.934 253.192 215.177 253.192C214.014 253.213 213.011 252.813 212.169 251.992C211.326 251.16 210.915 250.173 210.937 249.032ZM227.336 249.768H221.784C221.912 250.269 222.168 250.659 222.552 250.936C222.947 251.203 223.432 251.336 224.008 251.336C224.787 251.336 225.523 251.069 226.216 250.536L227.112 252.008C226.163 252.797 225.107 253.192 223.944 253.192C222.728 253.213 221.694 252.819 220.84 252.008C219.998 251.187 219.587 250.2 219.608 249.048C219.587 247.907 219.987 246.925 220.808 246.104C221.63 245.283 222.611 244.883 223.752 244.904C224.84 244.904 225.731 245.256 226.424 245.96C227.128 246.664 227.48 247.539 227.48 248.584C227.48 248.968 227.432 249.363 227.336 249.768ZM221.784 248.248H225.384C225.374 247.768 225.203 247.384 224.872 247.096C224.552 246.797 224.152 246.648 223.672 246.648C223.214 246.648 222.814 246.792 222.472 247.08C222.131 247.368 221.902 247.757 221.784 248.248Z"/><path fill="#fff" d="M0.608 358.72C0.586667 357.205 1.136 355.909 2.256 354.832C3.376 353.744 4.704 353.216 6.24 353.248C7.24267 353.248 8.14933 353.483 8.96 353.952C9.78133 354.411 10.4267 355.051 10.896 355.872L9.264 357.024C8.50667 355.84 7.49867 355.248 6.24 355.248C5.25867 355.248 4.44267 355.579 3.792 356.24C3.152 356.901 2.832 357.733 2.832 358.736C2.832 359.739 3.152 360.565 3.792 361.216C4.44267 361.867 5.25867 362.192 6.24 362.192C7.49867 362.192 8.50667 361.6 9.264 360.416L10.896 361.568C10.4373 362.389 9.79733 363.035 8.976 363.504C8.15467 363.963 7.23733 364.192 6.224 364.192C4.67733 364.224 3.344 363.701 2.224 362.624C1.11467 361.536 0.576 360.235 0.608 358.72ZM11.9834 360.032C11.962 358.901 12.3727 357.925 13.2154 357.104C14.058 356.283 15.0607 355.883 16.2234 355.904C17.386 355.883 18.3887 356.283 19.2314 357.104C20.0847 357.925 20.5007 358.901 20.4794 360.032C20.5007 361.163 20.0847 362.144 19.2314 362.976C18.378 363.797 17.37 364.197 16.2074 364.176C15.0447 364.197 14.042 363.797 13.1994 362.976C12.3674 362.144 11.962 361.163 11.9834 360.032ZM17.6794 361.584C18.074 361.179 18.2714 360.667 18.2714 360.048C18.2714 359.429 18.074 358.912 17.6794 358.496C17.2954 358.08 16.81 357.872 16.2234 357.872C15.626 357.872 15.1354 358.08 14.7514 358.496C14.3674 358.901 14.1754 359.419 14.1754 360.048C14.1754 360.667 14.3674 361.179 14.7514 361.584C15.1354 361.989 15.626 362.192 16.2234 362.192C16.81 362.192 17.2954 361.989 17.6794 361.584ZM29.4458 359.088V364H27.3018V359.376C27.3018 358.917 27.1631 358.549 26.8858 358.272C26.6191 357.984 26.2671 357.84 25.8298 357.84C25.3924 357.84 25.0298 357.984 24.7418 358.272C24.4644 358.549 24.3258 358.917 24.3258 359.376V364H22.1658V356.08H24.1498V356.8C24.7471 356.203 25.5204 355.904 26.4698 355.904C27.3871 355.904 28.1124 356.192 28.6458 356.768C29.1791 357.344 29.4458 358.117 29.4458 359.088ZM34.0531 354.976V356.08H35.7971V357.904H34.0531V364H31.8931V357.904H30.7731V356.08H31.8931V354.784C31.8931 353.803 32.1598 353.061 32.6931 352.56C33.2265 352.059 33.9785 351.808 34.9491 351.808C35.3545 351.808 35.7491 351.867 36.1331 351.984V353.792C35.8985 353.76 35.6851 353.744 35.4931 353.744C34.9918 353.744 34.6238 353.84 34.3891 354.032C34.1651 354.224 34.0531 354.539 34.0531 354.976ZM37.2371 364V356.08H39.3971V364H37.2371ZM36.9331 353.2C36.9331 352.816 37.0665 352.496 37.3331 352.24C37.5998 351.984 37.9251 351.856 38.3091 351.856C38.6931 351.856 39.0185 351.984 39.2851 352.24C39.5625 352.496 39.7011 352.816 39.7011 353.2C39.7011 353.573 39.5625 353.888 39.2851 354.144C39.0185 354.4 38.6931 354.528 38.3091 354.528C37.9251 354.528 37.5998 354.4 37.3331 354.144C37.0665 353.888 36.9331 353.573 36.9331 353.2ZM46.4048 356.08V357.984H45.8288C45.1674 357.984 44.6448 358.16 44.2608 358.512C43.8874 358.864 43.7008 359.376 43.7008 360.048V364H41.5408V356.08H43.5248V357.024C44.0794 356.331 44.8048 355.984 45.7008 355.984C45.9674 355.984 46.2021 356.016 46.4048 356.08ZM59.9519 359.088V364H57.7919V359.392C57.7919 358.923 57.6639 358.549 57.4079 358.272C57.1519 357.995 56.8105 357.856 56.3839 357.856C55.9572 357.856 55.6052 357.995 55.3279 358.272C55.0612 358.549 54.9279 358.907 54.9279 359.344V364H52.7679V359.392C52.7679 358.923 52.6399 358.549 52.3839 358.272C52.1279 357.995 51.7865 357.856 51.3599 357.856C50.9225 357.856 50.5705 357.995 50.3039 358.272C50.0372 358.549 49.9039 358.923 49.9039 359.392V364H47.7439V356.08H49.7279V356.784C50.2825 356.197 51.0292 355.904 51.9679 355.904C53.0025 355.904 53.7865 356.283 54.3199 357.04C54.9919 356.283 55.8719 355.904 56.9599 355.904C57.8772 355.904 58.6025 356.192 59.1359 356.768C59.6799 357.344 59.9519 358.117 59.9519 359.088ZM71.9019 356.08H74.1739L70.3819 364.688C70.0192 365.509 69.5872 366.112 69.0859 366.496C68.5845 366.88 67.9659 367.072 67.2299 367.072C66.7819 367.072 66.3179 367.008 65.8379 366.88V365.072C66.2752 365.115 66.5845 365.136 66.7659 365.136C67.1712 365.136 67.5019 365.056 67.7579 364.896C68.0139 364.736 68.2325 364.459 68.4139 364.064L68.6539 363.52L65.6139 356.08H67.9019L69.8379 361.28L71.9019 356.08ZM74.6709 360.032C74.6495 358.901 75.0602 357.925 75.9029 357.104C76.7455 356.283 77.7482 355.883 78.9109 355.904C80.0735 355.883 81.0762 356.283 81.9189 357.104C82.7722 357.925 83.1882 358.901 83.1669 360.032C83.1882 361.163 82.7722 362.144 81.9189 362.976C81.0655 363.797 80.0575 364.197 78.8949 364.176C77.7322 364.197 76.7295 363.797 75.8869 362.976C75.0549 362.144 74.6495 361.163 74.6709 360.032ZM80.3669 361.584C80.7615 361.179 80.9589 360.667 80.9589 360.048C80.9589 359.429 80.7615 358.912 80.3669 358.496C79.9829 358.08 79.4975 357.872 78.9109 357.872C78.3135 357.872 77.8229 358.08 77.4389 358.496C77.0549 358.901 76.8629 359.419 76.8629 360.048C76.8629 360.667 77.0549 361.179 77.4389 361.584C77.8229 361.989 78.3135 362.192 78.9109 362.192C79.4975 362.192 79.9829 361.989 80.3669 361.584ZM84.7733 360.512V356.08H86.9333V360.688C86.9333 361.147 87.0719 361.515 87.3493 361.792C87.6373 362.069 87.9999 362.208 88.4373 362.208C88.8639 362.208 89.2159 362.069 89.4933 361.792C89.7706 361.504 89.9093 361.136 89.9093 360.688V356.08H92.0693V360.512C92.0693 361.6 91.7226 362.485 91.0293 363.168C90.3466 363.851 89.4826 364.192 88.4373 364.192C87.3706 364.192 86.4906 363.856 85.7973 363.184C85.1146 362.501 84.7733 361.611 84.7733 360.512ZM98.9985 356.08V357.984H98.4225C97.7612 357.984 97.2385 358.16 96.8545 358.512C96.4812 358.864 96.2945 359.376 96.2945 360.048V364H94.1345V356.08H96.1185V357.024C96.6732 356.331 97.3985 355.984 98.2945 355.984C98.5612 355.984 98.7958 356.016 98.9985 356.08ZM9.392 380.896C9.392 381.803 9.06667 382.549 8.416 383.136C7.76533 383.712 6.93333 384 5.92 384H1.216V373.44H4.96C5.94133 373.44 6.74133 373.717 7.36 374.272C7.98933 374.816 8.304 375.52 8.304 376.384C8.304 377.163 8.04267 377.797 7.52 378.288C8.768 378.747 9.392 379.616 9.392 380.896ZM4.784 375.296H3.296V377.712H4.784C5.22133 377.712 5.55733 377.605 5.792 377.392C6.03733 377.179 6.16 376.88 6.16 376.496C6.16 376.123 6.03733 375.829 5.792 375.616C5.55733 375.403 5.22133 375.296 4.784 375.296ZM7.264 380.816C7.264 380.411 7.13067 380.091 6.864 379.856C6.59733 379.611 6.22933 379.488 5.76 379.488H3.296V382.144H5.76C6.22933 382.144 6.59733 382.027 6.864 381.792C7.13067 381.557 7.264 381.232 7.264 380.816ZM17.6495 379.296V384H15.6655V383.232C15.0468 383.872 14.2415 384.192 13.2495 384.192C12.4175 384.192 11.7508 383.973 11.2495 383.536C10.7588 383.099 10.5135 382.528 10.5135 381.824C10.5135 381.109 10.7802 380.549 11.3135 380.144C11.8575 379.728 12.5882 379.52 13.5055 379.52H15.4895V379.168C15.4895 378.72 15.3615 378.379 15.1055 378.144C14.8602 377.899 14.4975 377.776 14.0175 377.776C13.6228 377.776 13.2655 377.861 12.9455 378.032C12.6255 378.203 12.2842 378.48 11.9215 378.864L10.8015 377.536C11.7188 376.448 12.8708 375.904 14.2575 375.904C15.3028 375.904 16.1295 376.203 16.7375 376.8C17.3455 377.387 17.6495 378.219 17.6495 379.296ZM15.4895 381.04V380.944H13.7935C13.0575 380.944 12.6895 381.211 12.6895 381.744C12.6895 382.011 12.7908 382.224 12.9935 382.384C13.2068 382.533 13.4842 382.608 13.8255 382.608C14.3055 382.608 14.7002 382.464 15.0095 382.176C15.3295 381.877 15.4895 381.499 15.4895 381.04ZM24.5923 376.08V377.984H24.0163C23.3549 377.984 22.8323 378.16 22.4483 378.512C22.0749 378.864 21.8883 379.376 21.8883 380.048V384H19.7283V376.08H21.7123V377.024C22.2669 376.331 22.9923 375.984 23.8883 375.984C24.1549 375.984 24.3896 376.016 24.5923 376.08ZM31.0194 382.192V384C30.5074 384.128 30.0114 384.192 29.5314 384.192C28.518 384.192 27.734 383.941 27.1794 383.44C26.6354 382.939 26.3634 382.197 26.3634 381.216V377.904H25.1154V376.08H26.3634V374.08H28.5234V376.08H30.7634V377.904H28.5234V381.024C28.5234 381.472 28.6354 381.792 28.8594 381.984C29.094 382.165 29.4727 382.256 29.9954 382.256C30.1767 382.256 30.518 382.235 31.0194 382.192ZM39.7114 380.768H34.1594C34.2874 381.269 34.5434 381.659 34.9274 381.936C35.322 382.203 35.8074 382.336 36.3834 382.336C37.162 382.336 37.898 382.069 38.5914 381.536L39.4874 383.008C38.538 383.797 37.482 384.192 36.3194 384.192C35.1034 384.213 34.0687 383.819 33.2154 383.008C32.3727 382.187 31.962 381.2 31.9834 380.048C31.962 378.907 32.362 377.925 33.1834 377.104C34.0047 376.283 34.986 375.883 36.1274 375.904C37.2154 375.904 38.106 376.256 38.7994 376.96C39.5034 377.664 39.8554 378.539 39.8554 379.584C39.8554 379.968 39.8074 380.363 39.7114 380.768ZM34.1594 379.248H37.7594C37.7487 378.768 37.578 378.384 37.2474 378.096C36.9274 377.797 36.5274 377.648 36.0474 377.648C35.5887 377.648 35.1887 377.792 34.8474 378.08C34.506 378.368 34.2767 378.757 34.1594 379.248ZM46.4048 376.08V377.984H45.8288C45.1674 377.984 44.6448 378.16 44.2608 378.512C43.8874 378.864 43.7008 379.376 43.7008 380.048V384H41.5408V376.08H43.5248V377.024C44.0794 376.331 44.8048 375.984 45.7008 375.984C45.9674 375.984 46.2021 376.016 46.4048 376.08ZM58.8683 379.296V384H56.8843V383.232C56.2656 383.872 55.4603 384.192 54.4683 384.192C53.6363 384.192 52.9696 383.973 52.4683 383.536C51.9776 383.099 51.7323 382.528 51.7323 381.824C51.7323 381.109 51.9989 380.549 52.5323 380.144C53.0763 379.728 53.8069 379.52 54.7243 379.52H56.7083V379.168C56.7083 378.72 56.5803 378.379 56.3243 378.144C56.0789 377.899 55.7163 377.776 55.2363 377.776C54.8416 377.776 54.4843 377.861 54.1643 378.032C53.8443 378.203 53.5029 378.48 53.1403 378.864L52.0203 377.536C52.9376 376.448 54.0896 375.904 55.4763 375.904C56.5216 375.904 57.3483 376.203 57.9563 376.8C58.5643 377.387 58.8683 378.219 58.8683 379.296ZM56.7083 381.04V380.944H55.0123C54.2763 380.944 53.9083 381.211 53.9083 381.744C53.9083 382.011 54.0096 382.224 54.2123 382.384C54.4256 382.533 54.7029 382.608 55.0443 382.608C55.5243 382.608 55.9189 382.464 56.2283 382.176C56.5483 381.877 56.7083 381.499 56.7083 381.04ZM68.227 379.088V384H66.083V379.376C66.083 378.917 65.9443 378.549 65.667 378.272C65.4003 377.984 65.0483 377.84 64.611 377.84C64.1737 377.84 63.811 377.984 63.523 378.272C63.2457 378.549 63.107 378.917 63.107 379.376V384H60.947V376.08H62.931V376.8C63.5283 376.203 64.3017 375.904 65.251 375.904C66.1683 375.904 66.8937 376.192 67.427 376.768C67.9603 377.344 68.227 378.117 68.227 379.088ZM76.0664 372H78.2264V384H76.2424V383.024C75.6984 383.803 74.8504 384.192 73.6984 384.192C72.589 384.192 71.6717 383.803 70.9464 383.024C70.221 382.235 69.8584 381.243 69.8584 380.048C69.8584 378.853 70.221 377.867 70.9464 377.088C71.6717 376.299 72.589 375.904 73.6984 375.904C74.701 375.904 75.4904 376.219 76.0664 376.848V372ZM75.5224 381.648C75.9064 381.264 76.0984 380.731 76.0984 380.048C76.0984 379.365 75.9064 378.832 75.5224 378.448C75.1384 378.053 74.6637 377.856 74.0984 377.856C73.5117 377.856 73.021 378.059 72.6264 378.464C72.2424 378.869 72.0504 379.392 72.0504 380.032C72.0504 380.683 72.2424 381.211 72.6264 381.616C73.0104 382.021 73.501 382.224 74.0984 382.224C74.6744 382.224 75.149 382.032 75.5224 381.648ZM90.8213 376.08H92.8053V383.12C92.8053 384.389 92.4373 385.365 91.7013 386.048C90.9653 386.731 89.9679 387.072 88.7093 387.072C87.2266 387.072 85.9306 386.581 84.8213 385.6L85.9573 384.096C86.8746 384.779 87.7333 385.12 88.5333 385.12C89.1839 385.12 89.6959 384.96 90.0693 384.64C90.4533 384.32 90.6453 383.856 90.6453 383.248V382.816C90.0693 383.445 89.2639 383.76 88.2293 383.76C87.1306 383.76 86.2239 383.392 85.5093 382.656C84.7946 381.92 84.4373 380.976 84.4373 379.824C84.4373 378.661 84.7946 377.717 85.5093 376.992C86.2239 376.267 87.1306 375.904 88.2293 375.904C89.3813 375.904 90.2453 376.293 90.8213 377.072V376.08ZM90.6773 379.792C90.6773 379.141 90.4853 378.64 90.1013 378.288C89.7279 377.925 89.2533 377.744 88.6773 377.744C88.0799 377.744 87.5893 377.931 87.2053 378.304C86.8213 378.677 86.6293 379.179 86.6293 379.808C86.6293 380.437 86.8213 380.949 87.2053 381.344C87.5999 381.739 88.0906 381.936 88.6773 381.936C89.2426 381.936 89.7173 381.744 90.1013 381.36C90.4853 380.976 90.6773 380.453 90.6773 379.792ZM102.227 380.768H96.675C96.803 381.269 97.059 381.659 97.443 381.936C97.8377 382.203 98.323 382.336 98.899 382.336C99.6777 382.336 100.414 382.069 101.107 381.536L102.003 383.008C101.054 383.797 99.9977 384.192 98.835 384.192C97.619 384.213 96.5843 383.819 95.731 383.008C94.8883 382.187 94.4777 381.2 94.499 380.048C94.4777 378.907 94.8777 377.925 95.699 377.104C96.5203 376.283 97.5017 375.883 98.643 375.904C99.731 375.904 100.622 376.256 101.315 376.96C102.019 377.664 102.371 378.539 102.371 379.584C102.371 379.968 102.323 380.363 102.227 380.768ZM96.675 379.248H100.275C100.264 378.768 100.094 378.384 99.763 378.096C99.443 377.797 99.043 377.648 98.563 377.648C98.1043 377.648 97.7043 377.792 97.363 378.08C97.0217 378.368 96.7923 378.757 96.675 379.248ZM109.144 382.192V384C108.632 384.128 108.136 384.192 107.656 384.192C106.643 384.192 105.859 383.941 105.304 383.44C104.76 382.939 104.488 382.197 104.488 381.216V377.904H103.24V376.08H104.488V374.08H106.648V376.08H108.888V377.904H106.648V381.024C106.648 381.472 106.76 381.792 106.984 381.984C107.219 382.165 107.598 382.256 108.12 382.256C108.302 382.256 108.643 382.235 109.144 382.192ZM1.072 404V396.08H3.232V404H1.072ZM0.768 393.2C0.768 392.816 0.901333 392.496 1.168 392.24C1.43467 391.984 1.76 391.856 2.144 391.856C2.528 391.856 2.85333 391.984 3.12 392.24C3.39733 392.496 3.536 392.816 3.536 393.2C3.536 393.573 3.39733 393.888 3.12 394.144C2.85333 394.4 2.528 394.528 2.144 394.528C1.76 394.528 1.43467 394.4 1.168 394.144C0.901333 393.888 0.768 393.573 0.768 393.2ZM10.4569 402.192V404C9.94488 404.128 9.44888 404.192 8.96888 404.192C7.95554 404.192 7.17154 403.941 6.61688 403.44C6.07288 402.939 5.80088 402.197 5.80088 401.216V397.904H4.55288V396.08H5.80088V394.08H7.96088V396.08H10.2009V397.904H7.96088V401.024C7.96088 401.472 8.07288 401.792 8.29688 401.984C8.53154 402.165 8.91021 402.256 9.43288 402.256C9.61421 402.256 9.95554 402.235 10.4569 402.192ZM21.4171 396.08H23.7051L19.7851 404.192H19.0651L15.1451 396.08H17.4171L19.4171 400.56L21.4171 396.08ZM31.9301 400.768H26.3781C26.5061 401.269 26.7621 401.659 27.1461 401.936C27.5408 402.203 28.0261 402.336 28.6021 402.336C29.3808 402.336 30.1168 402.069 30.8101 401.536L31.7061 403.008C30.7568 403.797 29.7008 404.192 28.5381 404.192C27.3221 404.213 26.2875 403.819 25.4341 403.008C24.5915 402.187 24.1808 401.2 24.2021 400.048C24.1808 398.907 24.5808 397.925 25.4021 397.104C26.2235 396.283 27.2048 395.883 28.3461 395.904C29.4341 395.904 30.3248 396.256 31.0181 396.96C31.7221 397.664 32.0741 398.539 32.0741 399.584C32.0741 399.968 32.0261 400.363 31.9301 400.768ZM26.3781 399.248H29.9781C29.9675 398.768 29.7968 398.384 29.4661 398.096C29.1461 397.797 28.7461 397.648 28.2661 397.648C27.8075 397.648 27.4075 397.792 27.0661 398.08C26.7248 398.368 26.4955 398.757 26.3781 399.248ZM38.6235 396.08V397.984H38.0475C37.3862 397.984 36.8635 398.16 36.4795 398.512C36.1062 398.864 35.9195 399.376 35.9195 400.048V404H33.7595V396.08H35.7435V397.024C36.2982 396.331 37.0235 395.984 37.9195 395.984C38.1862 395.984 38.4208 396.016 38.6235 396.08ZM39.9626 404V396.08H42.1226V404H39.9626ZM39.6586 393.2C39.6586 392.816 39.792 392.496 40.0586 392.24C40.3253 391.984 40.6506 391.856 41.0346 391.856C41.4186 391.856 41.744 391.984 42.0106 392.24C42.288 392.496 42.4266 392.816 42.4266 393.2C42.4266 393.573 42.288 393.888 42.0106 394.144C41.744 394.4 41.4186 394.528 41.0346 394.528C40.6506 394.528 40.3253 394.4 40.0586 394.144C39.792 393.888 39.6586 393.573 39.6586 393.2ZM46.7875 394.976V396.08H48.5315V397.904H46.7875V404H44.6275V397.904H43.5075V396.08H44.6275V394.784C44.6275 393.803 44.8942 393.061 45.4275 392.56C45.9608 392.059 46.7128 391.808 47.6835 391.808C48.0888 391.808 48.4835 391.867 48.8675 391.984V393.792C48.6328 393.76 48.4195 393.744 48.2275 393.744C47.7262 393.744 47.3582 393.84 47.1235 394.032C46.8995 394.224 46.7875 394.539 46.7875 394.976ZM49.9715 404V396.08H52.1315V404H49.9715ZM49.6675 393.2C49.6675 392.816 49.8008 392.496 50.0675 392.24C50.3342 391.984 50.6595 391.856 51.0435 391.856C51.4275 391.856 51.7528 391.984 52.0195 392.24C52.2968 392.496 52.4355 392.816 52.4355 393.2C52.4355 393.573 52.2968 393.888 52.0195 394.144C51.7528 394.4 51.4275 394.528 51.0435 394.528C50.6595 394.528 50.3342 394.4 50.0675 394.144C49.8008 393.888 49.6675 393.573 49.6675 393.2ZM61.5551 400.768H56.0031C56.1311 401.269 56.3871 401.659 56.7711 401.936C57.1658 402.203 57.6511 402.336 58.2271 402.336C59.0058 402.336 59.7418 402.069 60.4351 401.536L61.3311 403.008C60.3818 403.797 59.3258 404.192 58.1631 404.192C56.9471 404.213 55.9125 403.819 55.0591 403.008C54.2165 402.187 53.8058 401.2 53.8271 400.048C53.8058 398.907 54.2058 397.925 55.0271 397.104C55.8485 396.283 56.8298 395.883 57.9711 395.904C59.0591 395.904 59.9498 396.256 60.6431 396.96C61.3471 397.664 61.6991 398.539 61.6991 399.584C61.6991 399.968 61.6511 400.363 61.5551 400.768ZM56.0031 399.248H59.6031C59.5925 398.768 59.4218 398.384 59.0911 398.096C58.7711 397.797 58.3711 397.648 57.8911 397.648C57.4325 397.648 57.0325 397.792 56.6911 398.08C56.3498 398.368 56.1205 398.757 56.0031 399.248ZM69.1445 392H71.3045V404H69.3205V403.024C68.7765 403.803 67.9285 404.192 66.7765 404.192C65.6672 404.192 64.7498 403.803 64.0245 403.024C63.2992 402.235 62.9365 401.243 62.9365 400.048C62.9365 398.853 63.2992 397.867 64.0245 397.088C64.7498 396.299 65.6672 395.904 66.7765 395.904C67.7792 395.904 68.5685 396.219 69.1445 396.848V392ZM68.6005 401.648C68.9845 401.264 69.1765 400.731 69.1765 400.048C69.1765 399.365 68.9845 398.832 68.6005 398.448C68.2165 398.053 67.7418 397.856 67.1765 397.856C66.5898 397.856 66.0992 398.059 65.7045 398.464C65.3205 398.869 65.1285 399.392 65.1285 400.032C65.1285 400.683 65.3205 401.211 65.7045 401.616C66.0885 402.021 66.5792 402.224 67.1765 402.224C67.7525 402.224 68.2272 402.032 68.6005 401.648Z"/><path fill="#fff" d="M155.392 464.896C155.392 465.803 155.067 466.549 154.416 467.136C153.765 467.712 152.933 468 151.92 468H147.216V457.44H150.96C151.941 457.44 152.741 457.717 153.36 458.272C153.989 458.816 154.304 459.52 154.304 460.384C154.304 461.163 154.043 461.797 153.52 462.288C154.768 462.747 155.392 463.616 155.392 464.896ZM150.784 459.296H149.296V461.712H150.784C151.221 461.712 151.557 461.605 151.792 461.392C152.037 461.179 152.16 460.88 152.16 460.496C152.16 460.123 152.037 459.829 151.792 459.616C151.557 459.403 151.221 459.296 150.784 459.296ZM153.264 464.816C153.264 464.411 153.131 464.091 152.864 463.856C152.597 463.611 152.229 463.488 151.76 463.488H149.296V466.144H151.76C152.229 466.144 152.597 466.027 152.864 465.792C153.131 465.557 153.264 465.232 153.264 464.816ZM163.65 463.296V468H161.666V467.232C161.047 467.872 160.242 468.192 159.25 468.192C158.418 468.192 157.751 467.973 157.25 467.536C156.759 467.099 156.514 466.528 156.514 465.824C156.514 465.109 156.78 464.549 157.314 464.144C157.858 463.728 158.588 463.52 159.506 463.52H161.49V463.168C161.49 462.72 161.362 462.379 161.106 462.144C160.86 461.899 160.498 461.776 160.018 461.776C159.623 461.776 159.266 461.861 158.946 462.032C158.626 462.203 158.284 462.48 157.922 462.864L156.802 461.536C157.719 460.448 158.871 459.904 160.258 459.904C161.303 459.904 162.13 460.203 162.738 460.8C163.346 461.387 163.65 462.219 163.65 463.296ZM161.49 465.04V464.944H159.794C159.058 464.944 158.69 465.211 158.69 465.744C158.69 466.011 158.791 466.224 158.994 466.384C159.207 466.533 159.484 466.608 159.826 466.608C160.306 466.608 160.7 466.464 161.01 466.176C161.33 465.877 161.49 465.499 161.49 465.04ZM170.592 460.08V461.984H170.016C169.355 461.984 168.832 462.16 168.448 462.512C168.075 462.864 167.888 463.376 167.888 464.048V468H165.728V460.08H167.712V461.024C168.267 460.331 168.992 459.984 169.888 459.984C170.155 459.984 170.39 460.016 170.592 460.08ZM177.019 466.192V468C176.507 468.128 176.011 468.192 175.531 468.192C174.518 468.192 173.734 467.941 173.179 467.44C172.635 466.939 172.363 466.197 172.363 465.216V461.904H171.115V460.08H172.363V458.08H174.523V460.08H176.763V461.904H174.523V465.024C174.523 465.472 174.635 465.792 174.859 465.984C175.094 466.165 175.473 466.256 175.995 466.256C176.177 466.256 176.518 466.235 177.019 466.192ZM185.711 464.768H180.159C180.287 465.269 180.543 465.659 180.927 465.936C181.322 466.203 181.807 466.336 182.383 466.336C183.162 466.336 183.898 466.069 184.591 465.536L185.487 467.008C184.538 467.797 183.482 468.192 182.319 468.192C181.103 468.213 180.069 467.819 179.215 467.008C178.373 466.187 177.962 465.2 177.983 464.048C177.962 462.907 178.362 461.925 179.183 461.104C180.005 460.283 180.986 459.883 182.127 459.904C183.215 459.904 184.106 460.256 184.799 460.96C185.503 461.664 185.855 462.539 185.855 463.584C185.855 463.968 185.807 464.363 185.711 464.768ZM180.159 463.248H183.759C183.749 462.768 183.578 462.384 183.247 462.096C182.927 461.797 182.527 461.648 182.047 461.648C181.589 461.648 181.189 461.792 180.847 462.08C180.506 462.368 180.277 462.757 180.159 463.248ZM192.405 460.08V461.984H191.829C191.167 461.984 190.645 462.16 190.261 462.512C189.887 462.864 189.701 463.376 189.701 464.048V468H187.541V460.08H189.525V461.024C190.079 460.331 190.805 459.984 191.701 459.984C191.967 459.984 192.202 460.016 192.405 460.08ZM146.48 485.856L147.968 484.736C148.715 485.76 149.579 486.272 150.56 486.272C151.029 486.272 151.397 486.171 151.664 485.968C151.931 485.755 152.064 485.467 152.064 485.104C152.064 484.805 151.973 484.576 151.792 484.416C151.611 484.245 151.253 484.037 150.72 483.792L149.584 483.28C147.877 482.523 147.024 481.509 147.024 480.24C147.024 479.344 147.355 478.624 148.016 478.08C148.677 477.525 149.515 477.248 150.528 477.248C151.317 477.248 152.011 477.429 152.608 477.792C153.205 478.144 153.675 478.629 154.016 479.248L152.544 480.384C152 479.573 151.328 479.168 150.528 479.168C150.144 479.168 149.829 479.259 149.584 479.44C149.339 479.621 149.216 479.872 149.216 480.192C149.216 480.459 149.301 480.677 149.472 480.848C149.653 481.008 149.979 481.195 150.448 481.408L151.648 481.936C152.555 482.341 153.216 482.784 153.632 483.264C154.048 483.733 154.256 484.32 154.256 485.024C154.256 485.973 153.909 486.741 153.216 487.328C152.523 487.904 151.637 488.192 150.56 488.192C149.675 488.192 148.875 487.984 148.16 487.568C147.456 487.152 146.896 486.581 146.48 485.856ZM155.93 484.512V480.08H158.09V484.688C158.09 485.147 158.228 485.515 158.506 485.792C158.794 486.069 159.156 486.208 159.594 486.208C160.02 486.208 160.372 486.069 160.65 485.792C160.927 485.504 161.066 485.136 161.066 484.688V480.08H163.226V484.512C163.226 485.6 162.879 486.485 162.186 487.168C161.503 487.851 160.639 488.192 159.594 488.192C158.527 488.192 157.647 487.856 156.954 487.184C156.271 486.501 155.93 485.611 155.93 484.512ZM164.843 484.032C164.843 482.88 165.253 481.904 166.075 481.104C166.896 480.304 167.899 479.904 169.083 479.904C170.64 479.904 171.787 480.555 172.523 481.856L171.019 483.024C170.485 482.256 169.851 481.872 169.115 481.872C168.507 481.872 168.005 482.08 167.611 482.496C167.227 482.901 167.035 483.413 167.035 484.032C167.035 484.661 167.227 485.184 167.611 485.6C168.005 486.005 168.507 486.208 169.115 486.208C169.851 486.208 170.485 485.829 171.019 485.072L172.523 486.224C172.171 486.843 171.696 487.328 171.099 487.68C170.512 488.021 169.84 488.192 169.083 488.192C167.92 488.213 166.917 487.813 166.075 486.992C165.232 486.16 164.821 485.173 164.843 484.032ZM173.515 484.032C173.515 482.88 173.925 481.904 174.747 481.104C175.568 480.304 176.571 479.904 177.755 479.904C179.312 479.904 180.459 480.555 181.195 481.856L179.691 483.024C179.157 482.256 178.523 481.872 177.787 481.872C177.179 481.872 176.677 482.08 176.283 482.496C175.899 482.901 175.707 483.413 175.707 484.032C175.707 484.661 175.899 485.184 176.283 485.6C176.677 486.005 177.179 486.208 177.787 486.208C178.523 486.208 179.157 485.829 179.691 485.072L181.195 486.224C180.843 486.843 180.368 487.328 179.771 487.68C179.184 488.021 178.512 488.192 177.755 488.192C176.592 488.213 175.589 487.813 174.747 486.992C173.904 486.16 173.493 485.173 173.515 484.032ZM189.915 484.768H184.363C184.491 485.269 184.747 485.659 185.131 485.936C185.525 486.203 186.011 486.336 186.587 486.336C187.365 486.336 188.101 486.069 188.795 485.536L189.691 487.008C188.741 487.797 187.685 488.192 186.523 488.192C185.307 488.213 184.272 487.819 183.419 487.008C182.576 486.187 182.165 485.2 182.187 484.048C182.165 482.907 182.565 481.925 183.387 481.104C184.208 480.283 185.189 479.883 186.331 479.904C187.419 479.904 188.309 480.256 189.003 480.96C189.707 481.664 190.059 482.539 190.059 483.584C190.059 483.968 190.011 484.363 189.915 484.768ZM184.363 483.248H187.963C187.952 482.768 187.781 482.384 187.451 482.096C187.131 481.797 186.731 481.648 186.251 481.648C185.792 481.648 185.392 481.792 185.051 482.08C184.709 482.368 184.48 482.757 184.363 483.248ZM191.024 486.656L192.112 485.344C192.795 486.059 193.536 486.416 194.336 486.416C194.635 486.416 194.875 486.363 195.056 486.256C195.248 486.139 195.344 485.973 195.344 485.76C195.344 485.6 195.285 485.477 195.168 485.392C195.061 485.296 194.848 485.179 194.528 485.04L193.68 484.688C192.923 484.379 192.373 484.043 192.032 483.68C191.691 483.307 191.52 482.837 191.52 482.272C191.52 481.536 191.787 480.96 192.32 480.544C192.853 480.117 193.557 479.904 194.432 479.904C195.605 479.904 196.555 480.299 197.28 481.088L196.192 482.416C195.659 481.915 195.067 481.664 194.416 481.664C193.851 481.664 193.568 481.851 193.568 482.224C193.568 482.373 193.627 482.496 193.744 482.592C193.861 482.688 194.08 482.8 194.4 482.928L195.168 483.248C195.957 483.568 196.523 483.909 196.864 484.272C197.216 484.635 197.392 485.099 197.392 485.664C197.392 486.453 197.099 487.072 196.512 487.52C195.936 487.968 195.2 488.192 194.304 488.192C192.885 488.192 191.792 487.68 191.024 486.656ZM198.305 486.656L199.393 485.344C200.076 486.059 200.817 486.416 201.617 486.416C201.916 486.416 202.156 486.363 202.337 486.256C202.529 486.139 202.625 485.973 202.625 485.76C202.625 485.6 202.566 485.477 202.449 485.392C202.342 485.296 202.129 485.179 201.809 485.04L200.961 484.688C200.204 484.379 199.654 484.043 199.313 483.68C198.972 483.307 198.801 482.837 198.801 482.272C198.801 481.536 199.068 480.96 199.601 480.544C200.134 480.117 200.838 479.904 201.713 479.904C202.886 479.904 203.836 480.299 204.561 481.088L203.473 482.416C202.94 481.915 202.348 481.664 201.697 481.664C201.132 481.664 200.849 481.851 200.849 482.224C200.849 482.373 200.908 482.496 201.025 482.592C201.142 482.688 201.361 482.8 201.681 482.928L202.449 483.248C203.238 483.568 203.804 483.909 204.145 484.272C204.497 484.635 204.673 485.099 204.673 485.664C204.673 486.453 204.38 487.072 203.793 487.52C203.217 487.968 202.481 488.192 201.585 488.192C200.166 488.192 199.073 487.68 198.305 486.656ZM208.834 478.976V480.08H210.578V481.904H208.834V488H206.674V481.904H205.554V480.08H206.674V478.784C206.674 477.803 206.941 477.061 207.474 476.56C208.008 476.059 208.76 475.808 209.73 475.808C210.136 475.808 210.53 475.867 210.914 475.984V477.792C210.68 477.76 210.466 477.744 210.274 477.744C209.773 477.744 209.405 477.84 209.17 478.032C208.946 478.224 208.834 478.539 208.834 478.976ZM211.695 484.512V480.08H213.855V484.688C213.855 485.147 213.994 485.515 214.271 485.792C214.559 486.069 214.922 486.208 215.359 486.208C215.786 486.208 216.138 486.069 216.415 485.792C216.692 485.504 216.831 485.136 216.831 484.688V480.08H218.991V484.512C218.991 485.6 218.644 486.485 217.951 487.168C217.268 487.851 216.404 488.192 215.359 488.192C214.292 488.192 213.412 487.856 212.719 487.184C212.036 486.501 211.695 485.611 211.695 484.512ZM221.056 488V476H223.216V488H221.056Z"/><defs><filter id="filter0_d" width="106" height="106" x="80" y="29" color-interpolation-filters="sRGB" filterUnits="userSpaceOnUse"><feFlood flood-opacity="0" result="BackgroundImageFix"/><feColorMatrix in="SourceAlpha" type="matrix" values="0 0 0 0 0 0 0 0 0 0 0 0 0 0 0 0 0 0 127 0"/><feOffset dy="4"/><feGaussianBlur stdDeviation="24"/><feColorMatrix type="matrix" values="0 0 0 0 1 0 0 0 0 0.286275 0 0 0 0 0.282353 0 0 0 1 0"/><feBlend in2="BackgroundImageFix" mode="normal" result="effect1_dropShadow"/><feBlend in="SourceGraphic" in2="effect1_dropShadow" mode="normal" result="shape"/></filter><filter id="filter1_d" width="106" height="106" x="80" y="158" color-interpolation-filters="sRGB" filterUnits="userSpaceOnUse"><feFlood flood-opacity="0" result="BackgroundImageFix"/><feColorMatrix in="SourceAlpha" type="matrix" values="0 0 0 0 0 0 0 0 0 0 0 0 0 0 0 0 0 0 127 0"/><feOffset dy="4"/><feGaussianBlur stdDeviation="24"/><feColorMatrix type="matrix" values="0 0 0 0 1 0 0 0 0 0.286275 0 0 0 0 0.282353 0 0 0 1 0"/><feBlend in2="BackgroundImageFix" mode="normal" result="effect1_dropShadow"/><feBlend in="SourceGraphic" in2="effect1_dropShadow" mode="normal" result="shape"/></filter><filter id="filter2_d" width="106" height="106" x="80" y="289" color-interpolation-filters="sRGB" filterUnits="userSpaceOnUse"><feFlood flood-opacity="0" result="BackgroundImageFix"/><feColorMatrix in="SourceAlpha" type="matrix" values="0 0 0 0 0 0 0 0 0 0 0 0 0 0 0 0 0 0 127 0"/><feOffset dy="4"/><feGaussianBlur stdDeviation="24"/><feColorMatrix type="matrix" values="0 0 0 0 1 0 0 0 0 0.286275 0 0 0 0 0.282353 0 0 0 1 0"/><feBlend in2="BackgroundImageFix" mode="normal" result="effect1_dropShadow"/><feBlend in="SourceGraphic" in2="effect1_dropShadow" mode="normal" result="shape"/></filter><filter id="filter3_d" width="106" height="106" x="80" y="393" color-interpolation-filters="sRGB" filterUnits="userSpaceOnUse"><feFlood flood-opacity="0" result="BackgroundImageFix"/><feColorMatrix in="SourceAlpha" type="matrix" values="0 0 0 0 0 0 0 0 0 0 0 0 0 0 0 0 0 0 127 0"/><feOffset dy="4"/><feGaussianBlur stdDeviation="24"/><feColorMatrix type="matrix" values="0 0 0 0 1 0 0 0 0 0.286275 0 0 0 0 0.282353 0 0 0 1 0"/><feBlend in2="BackgroundImageFix" mode="normal" result="effect1_dropShadow"/><feBlend in="SourceGraphic" in2="effect1_dropShadow" mode="normal" result="shape"/></filter><linearGradient id="paint0_linear" x1="44.96" x2="44.96" y1="58.421" y2="72.237" gradientUnits="userSpaceOnUse"><stop stop-color="#FFBC36"/><stop offset="1" stop-color="#47505D"/></linearGradient><linearGradient id="paint1_linear" x1="44.96" x2="44.96" y1="58.421" y2="72.237" gradientUnits="userSpaceOnUse"><stop stop-color="#FFBC36"/><stop offset="1" stop-color="#47505D"/></linearGradient><linearGradient id="paint2_linear" x1="44.96" x2="44.96" y1="58.421" y2="72.237" gradientUnits="userSpaceOnUse"><stop stop-color="#FFBC36"/><stop offset="1" stop-color="#47505D"/></linearGradient><linearGradient id="paint3_linear" x1="44.96" x2="44.96" y1="58.421" y2="72.237" gradientUnits="userSpaceOnUse"><stop stop-color="#FFBC36"/><stop offset="1" stop-color="#47505D"/></linearGradient><linearGradient id="paint4_linear" x1="44.96" x2="44.96" y1="58.421" y2="72.237" gradientUnits="userSpaceOnUse"><stop stop-color="#FFBC36"/><stop offset="1" stop-color="#47505D"/></linearGradient><linearGradient id="paint5_linear" x1="190.394" x2="190.394" y1="186.689" y2="199.62" gradientUnits="userSpaceOnUse"><stop stop-color="#FFBC36"/><stop offset="1" stop-color="#47505D"/></linearGradient><linearGradient id="paint6_linear" x1="190.394" x2="190.394" y1="186.689" y2="199.62" gradientUnits="userSpaceOnUse"><stop stop-color="#FFBC36"/><stop offset="1" stop-color="#47505D"/></linearGradient><linearGradient id="paint7_linear" x1="190.394" x2="190.394" y1="186.689" y2="199.62" gradientUnits="userSpaceOnUse"><stop stop-color="#FFBC36"/><stop offset="1" stop-color="#47505D"/></linearGradient><linearGradient id="paint8_linear" x1="190.394" x2="190.394" y1="186.689" y2="199.62" gradientUnits="userSpaceOnUse"><stop stop-color="#FFBC36"/><stop offset="1" stop-color="#47505D"/></linearGradient><linearGradient id="paint9_linear" x1="190.394" x2="190.394" y1="186.689" y2="199.62" gradientUnits="userSpaceOnUse"><stop stop-color="#FFBC36"/><stop offset="1" stop-color="#47505D"/></linearGradient><linearGradient id="paint10_linear" x1="44.26" x2="44.26" y1="317.788" y2="330.837" gradientUnits="userSpaceOnUse"><stop stop-color="#FFBC36"/><stop offset="1" stop-color="#47505D"/></linearGradient><linearGradient id="paint11_linear" x1="44.26" x2="44.26" y1="317.788" y2="330.837" gradientUnits="userSpaceOnUse"><stop stop-color="#FFBC36"/><stop offset="1" stop-color="#47505D"/></linearGradient><linearGradient id="paint12_linear" x1="44.26" x2="44.26" y1="317.788" y2="330.837" gradientUnits="userSpaceOnUse"><stop stop-color="#FFBC36"/><stop offset="1" stop-color="#47505D"/></linearGradient><linearGradient id="paint13_linear" x1="44.26" x2="44.26" y1="317.788" y2="330.837" gradientUnits="userSpaceOnUse"><stop stop-color="#FFBC36"/><stop offset="1" stop-color="#47505D"/></linearGradient><linearGradient id="paint14_linear" x1="44.26" x2="44.26" y1="317.788" y2="330.837" gradientUnits="userSpaceOnUse"><stop stop-color="#FFBC36"/><stop offset="1" stop-color="#47505D"/></linearGradient><linearGradient id="paint15_linear" x1="189.95" x2="189.95" y1="421.582" y2="434.383" gradientUnits="userSpaceOnUse"><stop stop-color="#FFBC36"/><stop offset="1" stop-color="#47505D"/></linearGradient><linearGradient id="paint16_linear" x1="189.95" x2="189.95" y1="421.582" y2="434.383" gradientUnits="userSpaceOnUse"><stop stop-color="#FFBC36"/><stop offset="1" stop-color="#47505D"/></linearGradient><linearGradient id="paint17_linear" x1="189.95" x2="189.95" y1="421.582" y2="434.383" gradientUnits="userSpaceOnUse"><stop stop-color="#FFBC36"/><stop offset="1" stop-color="#47505D"/></linearGradient><linearGradient id="paint18_linear" x1="189.95" x2="189.95" y1="421.582" y2="434.383" gradientUnits="userSpaceOnUse"><stop stop-color="#FFBC36"/><stop offset="1" stop-color="#47505D"/></linearGradient><linearGradient id="paint19_linear" x1="189.95" x2="189.95" y1="421.582" y2="434.383" gradientUnits="userSpaceOnUse"><stop stop-color="#FFBC36"/><stop offset="1" stop-color="#47505D"/></linearGradient></defs></svg>