<svg width="762" height="425" viewBox="0 0 762 425" fill="none" xmlns="http://www.w3.org/2000/svg">
<path d="M503.958 109.453C510.051 110.459 516.144 112.226 522.238 113.109C525.341 113.594 528.486 113.752 531.622 113.582C524.584 107.336 519.953 101.608 519.953 95.3013C519.953 72.0549 543.717 78.1636 543.717 57.0955H540.671C539.781 60.9371 538.054 64.5348 535.613 67.6316C533.171 70.7284 530.077 73.2479 526.549 75.0102C518.841 78.8643 509.914 79.5803 501.322 78.9405C496.496 78.6583 491.733 77.7047 487.17 76.107C485.776 75.5991 484.417 74.9985 483.103 74.3095C489.516 78.6815 496.569 82.627 496.569 95.3013C496.569 100.024 493.172 104.594 487.749 109.621C493.083 108.448 498.601 108.391 503.958 109.453Z" fill="#00887B"/>
<path d="M501.353 78.9557C509.944 79.6108 518.871 78.9557 526.579 75.0254C530.107 73.2632 533.202 70.7436 535.643 67.6468C538.084 64.55 539.811 60.9523 540.701 57.1107H472.851C472.851 66.7079 477.771 70.6686 483.133 74.3247C484.448 75.0138 485.806 75.6143 487.201 76.1223C491.763 77.7199 496.527 78.6736 501.353 78.9557Z" fill="#009687"/>
<path d="M527.082 249.739C572.311 231.672 592.282 178.827 566.202 142.861C553.817 130.674 540.686 121.64 531.591 113.582C528.455 113.752 525.31 113.594 522.207 113.109C516.114 112.226 510.021 110.459 503.927 109.453C498.579 108.4 493.072 108.463 487.749 109.636C468.707 127.322 424.636 150.858 415.009 208.213C412.571 222.715 413.699 235.801 418.406 247.043C433.426 259.215 480.94 268.203 527.082 249.739Z" fill="#009687"/>
<path d="M599.853 208.213C595.847 178.294 581.573 158.048 566.248 142.861C592.328 178.827 572.341 231.672 527.128 249.739C480.94 268.203 433.426 259.215 418.436 247.043C426.571 266.466 445.476 280.359 475.486 286.391C486.022 288.473 496.737 289.519 507.477 289.514C574.535 289.21 606.419 257.356 599.853 208.213Z" fill="#00887B"/>
<path d="M543.732 57.0346C543.732 62.7167 527.844 67.3325 508.33 67.3325C488.815 67.3325 472.851 62.7624 472.851 57.0346C472.851 51.3067 488.815 46.7367 508.33 46.7367C527.844 46.7367 543.732 51.322 543.732 57.0346Z" fill="#4CB5AB"/>
<path d="M541.188 57.0346C541.188 62.3054 526.442 66.586 508.33 66.586C490.217 66.586 475.395 62.3054 475.395 57.0346C475.395 51.7637 490.217 47.4679 508.33 47.4679C526.442 47.4679 541.188 51.7333 541.188 57.0346Z" fill="#00786C"/>
<path d="M526.473 80.0678L515.809 80.6467C516.445 81.0501 516.981 81.5938 517.374 82.2361C517.767 82.8783 518.009 83.6021 518.079 84.352C518.15 85.1019 518.048 85.858 517.781 86.5623C517.514 87.2667 517.09 87.9007 516.54 88.4158L526.884 87.8674C527.918 87.8128 528.889 87.3496 529.581 86.5797C530.274 85.8098 530.633 84.7962 530.578 83.7619C530.524 82.7276 530.061 81.7574 529.291 81.0646C528.521 80.3718 527.507 80.0132 526.473 80.0678Z" fill="#B1DEDB"/>
<path d="M515.809 80.6466L490.232 82.0024C489.198 82.059 488.228 82.5241 487.537 83.2954C487.195 83.6774 486.931 84.123 486.761 84.6069C486.591 85.0907 486.518 85.6033 486.546 86.1155C486.574 86.6276 486.702 87.1292 486.924 87.5916C487.146 88.0541 487.457 88.4683 487.839 88.8106C488.61 89.502 489.624 89.8586 490.659 89.802L516.556 88.4158C517.105 87.9007 517.53 87.2667 517.796 86.5623C518.063 85.8579 518.165 85.1018 518.095 84.352C518.024 83.6021 517.783 82.8783 517.389 82.236C516.996 81.5938 516.461 81.0501 515.825 80.6466H515.809Z" fill="#DEF0F0"/>
<path d="M526.183 88.1111L514.667 88.7357C515.464 89.3061 516.069 90.1056 516.401 91.0281C516.733 91.9505 516.776 92.9522 516.525 93.8999C516.184 95.0078 515.446 95.9513 514.453 96.5505L526.64 95.9107C527.675 95.8562 528.645 95.393 529.338 94.6231C530.03 93.8531 530.389 92.8395 530.335 91.8053C530.28 90.771 529.817 89.8007 529.047 89.1079C528.277 88.4151 527.263 88.0566 526.229 88.1111H526.183Z" fill="#B1DEDB"/>
<path d="M516.525 93.8998C516.776 92.9522 516.733 91.9505 516.401 91.0281C516.069 90.1056 515.464 89.306 514.667 88.7357L489.943 90.061C488.935 90.1482 488 90.6236 487.336 91.387C486.672 92.1503 486.331 93.1418 486.384 94.152C486.438 95.1623 486.882 96.1123 487.622 96.8014C488.363 97.4905 489.343 97.8649 490.354 97.8453L514.453 96.5505C515.446 95.9512 516.184 95.0078 516.525 93.8998Z" fill="#DEF0F0"/>
<path d="M516.86 101.334C517.095 100.387 516.959 99.3872 516.48 98.5378C516.002 97.6883 515.217 97.0537 514.286 96.7638L488.998 98.1653C487.99 98.2524 487.056 98.7279 486.392 99.4913C485.728 100.255 485.387 101.246 485.44 102.256C485.493 103.267 485.937 104.217 486.678 104.906C487.418 105.595 488.398 105.969 489.409 105.95L513.783 104.655L514.21 104.457C514.847 104.153 515.413 103.718 515.87 103.179C516.327 102.641 516.664 102.012 516.86 101.334Z" fill="#DEF0F0"/>
<path d="M525.285 96.2458L514.286 96.8247C515.217 97.1146 516.002 97.7492 516.48 98.5987C516.959 99.4482 517.095 100.448 516.86 101.395C516.673 102.07 516.346 102.699 515.899 103.239C515.453 103.78 514.898 104.221 514.271 104.533L513.844 104.731L525.711 104.091C526.233 104.078 526.747 103.961 527.223 103.746C527.698 103.531 528.126 103.222 528.48 102.839C528.834 102.455 529.108 102.004 529.285 101.513C529.462 101.022 529.538 100.5 529.509 99.9791C529.481 99.4579 529.348 98.9477 529.118 98.4787C528.889 98.0098 528.568 97.5917 528.174 97.2492C527.78 96.9067 527.321 96.6469 526.825 96.485C526.328 96.3231 525.805 96.2625 525.285 96.3068V96.2458Z" fill="#B1DEDB"/>
<path d="M761.679 303.453H707.737V323.15H761.679V303.453Z" fill="#333333"/>
<path d="M761.679 246.19H707.737V303.453H761.679V246.19Z" fill="#4D4D4D"/>
<path d="M707.722 303.453H665.266V251.598V246.19H707.722V303.453Z" fill="white"/>
<path d="M693.235 312.38C693.235 313.371 692.941 314.34 692.39 315.164C691.84 315.989 691.057 316.631 690.141 317.01C689.225 317.39 688.217 317.489 687.245 317.295C686.273 317.102 685.38 316.625 684.679 315.924C683.978 315.223 683.501 314.33 683.307 313.358C683.114 312.385 683.213 311.378 683.593 310.462C683.972 309.546 684.614 308.763 685.439 308.213C686.263 307.662 687.232 307.368 688.223 307.368C688.882 307.366 689.534 307.494 690.143 307.746C690.752 307.997 691.306 308.366 691.771 308.832C692.237 309.297 692.606 309.851 692.857 310.46C693.109 311.069 693.237 311.721 693.235 312.38Z" fill="white"/>
<path d="M533.48 336.19C543.397 336.19 551.395 330.782 555.98 328.025C561.038 324.978 589.951 313.157 612.893 308.785C635.835 304.413 652.988 300.589 652.988 300.589C652.988 300.589 662.356 288.539 662.417 251.537C663.347 251.537 664.306 251.537 665.281 251.537V310.735C618.057 310.735 576.606 324.445 557.397 332.062C547.571 335.977 540.046 336.952 533.48 336.19Z" fill="#FEB8A3"/>
<path d="M688.223 317.377C689.216 317.38 690.187 317.088 691.013 316.538C691.84 315.989 692.484 315.206 692.866 314.29C693.247 313.373 693.347 312.364 693.155 311.391C692.962 310.417 692.484 309.523 691.782 308.821C691.08 308.119 690.186 307.641 689.212 307.448C688.239 307.256 687.23 307.356 686.313 307.737C685.397 308.119 684.614 308.763 684.065 309.59C683.515 310.416 683.223 311.387 683.226 312.38C683.226 313.705 683.753 314.976 684.69 315.913C685.627 316.85 686.898 317.377 688.223 317.377ZM707.737 323.15H665.281V303.453H707.737V323.15Z" fill="#E3F1FC"/>
<path d="M479.751 277.51C476.354 279.384 473.49 290.748 483.423 292.439C493.355 294.13 496.935 293.612 496.935 293.612C498.717 291.556 501.139 284.304 498.9 277.952C491.832 276.962 482.25 276.124 479.751 277.51ZM580.887 294.404C552.751 305.51 515.505 295.653 489.927 295.653C479.873 295.653 475.12 291.845 473.978 287.062C474.801 293.78 479.371 299.081 488.297 299.599C498.001 300.178 518.353 301.701 529.839 303.316C541.326 304.931 566.156 305.174 576.942 302.158C587.727 299.142 593.942 295.364 592.739 291.388C591.535 287.412 584.117 287.199 580.857 294.328L580.887 294.404ZM575.129 251.887C616.26 232.906 630.869 250.516 662.417 251.537C662.417 288.539 652.988 300.589 652.988 300.589C652.988 300.589 635.835 304.413 612.893 308.785C589.951 313.157 561.099 324.993 555.98 328.025C551.41 330.782 543.397 336.251 533.48 336.19C527.383 335.284 521.506 333.259 516.144 330.218L495.716 319.692C466.468 304.641 416.989 279.232 407.194 274.768C399.836 271.417 399.013 266.74 402.35 263.693C404.939 261.271 410.073 259.839 416.608 260.753C431.537 262.825 458.104 270.625 475.791 277.51C477.381 274.671 479.681 272.294 482.467 270.612C485.252 268.929 488.427 267.999 491.679 267.913C509.183 267.928 532.825 271.432 575.129 251.887Z" fill="#FECBBB"/>
<path d="M488.297 299.599C479.371 299.081 474.801 293.78 473.978 287.062C475.12 291.845 479.873 295.654 489.927 295.654C515.505 295.654 552.751 305.51 580.887 294.404V294.328C584.147 287.199 591.551 287.427 592.769 291.388C593.988 295.349 587.773 299.142 576.972 302.158C566.172 305.174 541.356 304.946 529.87 303.316C518.384 301.686 498.001 300.178 488.297 299.599Z" fill="#FEB8A3"/>
<path d="M400.643 276.398C409.311 280.968 451.402 299.706 477.832 311.679C461.639 305.586 409.631 286.681 396.271 282.141C385.318 278.409 389.066 269.497 394.839 270.427C395.403 272.407 397.094 274.524 400.643 276.398Z" fill="#FEAA90"/>
<path d="M498.9 277.922C501.139 284.274 498.717 291.525 496.935 293.582C496.935 293.582 493.355 294.115 483.423 292.409C473.49 290.703 476.354 279.354 479.751 277.48C482.25 276.124 491.832 276.962 498.9 277.922Z" fill="#FAE8E6"/>
<path d="M402.35 263.693C399.013 266.74 399.836 271.417 407.194 274.768C416.989 279.232 466.468 304.641 495.716 319.692L495.64 319.844C491.801 318.016 485.494 315.137 477.893 311.71C451.463 299.736 409.372 280.968 400.643 276.398C397.033 274.494 395.342 272.377 394.885 270.411C393.925 266.298 398.404 262.886 402.258 263.632L402.35 263.693Z" fill="#FEAA90"/>
<path d="M246.022 176.466C253.137 177.624 260.083 179.665 267.197 180.701C270.79 181.251 274.429 181.429 278.059 181.234C269.924 173.998 264.562 167.387 264.562 160.09C264.562 133.202 292.058 140.286 292.058 115.912H288.539C287.512 120.357 285.515 124.52 282.692 128.104C279.869 131.688 276.289 134.605 272.209 136.645C263.297 141.093 252.954 141.962 243.006 141.215C237.424 140.871 231.915 139.769 226.63 137.94C225.016 137.346 223.443 136.644 221.923 135.838C229.357 140.911 237.522 145.481 237.522 160.212C237.522 165.68 233.577 170.967 227.3 176.786C233.453 175.392 239.826 175.284 246.022 176.466Z" fill="#FE9F00"/>
<path d="M243.006 141.17C252.954 141.931 263.297 141.063 272.209 136.6C276.289 134.559 279.869 131.643 282.692 128.059C285.515 124.475 287.512 120.312 288.539 115.867H210.01C210.01 126.972 215.708 131.542 221.923 135.777C223.443 136.583 225.016 137.285 226.63 137.879C231.914 139.714 237.424 140.821 243.006 141.17Z" fill="#FEB200"/>
<path d="M229.479 337.79C192.705 326.608 148.634 288.265 158.14 247.333C150.712 260.843 145.657 275.528 143.196 290.748C135.579 336.54 158.307 370.207 213.148 381.251C225.333 383.637 237.72 384.841 250.136 384.846C304.078 384.602 338.338 366.718 351.683 336.754C319.525 349.687 266.42 349.017 229.479 337.79Z" fill="#FE9F00"/>
<path d="M356.999 290.748C348.651 228.291 301.655 202.165 278.059 181.234C274.429 181.429 270.79 181.251 267.197 180.701C260.083 179.665 253.137 177.654 246.022 176.466C239.835 175.243 233.461 175.311 227.3 176.664C210.848 191.897 178.248 211.016 158.14 247.333C148.634 288.265 192.705 326.547 229.479 337.79C266.253 349.032 319.524 349.687 351.606 336.754C357.471 323.622 359.33 308.115 356.999 290.748Z" fill="#FEB200"/>
<path d="M292.058 115.76C292.058 122.341 273.656 127.688 251.08 127.688C228.504 127.688 209.949 122.341 209.949 115.76C209.949 109.179 228.443 103.847 251.08 103.847C273.717 103.847 292.058 109.179 292.058 115.76Z" fill="#FEC007"/>
<path d="M289.103 115.76C289.103 121.854 272.041 126.835 251.019 126.835C229.997 126.835 212.935 121.869 212.935 115.76C212.935 109.651 230.088 104.7 251.019 104.7C271.95 104.7 289.103 109.651 289.103 115.76Z" fill="#FE9F00"/>
<path d="M272.087 142.449L259.748 143.12C260.483 143.587 261.101 144.217 261.555 144.96C262.009 145.704 262.287 146.541 262.368 147.408C262.449 148.276 262.33 149.15 262.021 149.964C261.713 150.779 261.221 151.512 260.586 152.107L272.575 151.468C273.231 151.534 273.894 151.457 274.517 151.243C275.141 151.028 275.711 150.682 276.188 150.226C276.665 149.771 277.038 149.217 277.281 148.604C277.524 147.991 277.632 147.332 277.596 146.674C277.56 146.015 277.383 145.372 277.075 144.789C276.767 144.205 276.337 143.695 275.814 143.294C275.29 142.893 274.686 142.609 274.043 142.464C273.4 142.318 272.732 142.313 272.087 142.449Z" fill="#4E342E"/>
<path d="M259.748 143.12L230.149 144.643C229.082 144.868 228.131 145.468 227.468 146.333C226.805 147.198 226.472 148.272 226.531 149.361C226.59 150.45 227.036 151.481 227.789 152.27C228.542 153.058 229.552 153.552 230.637 153.661L260.586 152.062C261.221 151.466 261.712 150.733 262.021 149.919C262.33 149.104 262.449 148.23 262.368 147.363C262.287 146.495 262.009 145.658 261.555 144.915C261.101 144.171 260.483 143.542 259.748 143.074V143.12Z" fill="#5D4037"/>
<path d="M271.737 151.757L258.423 152.473C259.347 153.134 260.047 154.062 260.431 155.131C260.815 156.201 260.863 157.362 260.571 158.46C260.167 159.735 259.311 160.818 258.164 161.507L272.224 160.745C273.291 160.519 274.242 159.92 274.905 159.055C275.569 158.189 275.901 157.116 275.842 156.027C275.783 154.938 275.337 153.906 274.584 153.118C273.832 152.329 272.822 151.836 271.737 151.727V151.757Z" fill="#4E342E"/>
<path d="M260.571 158.46C260.863 157.362 260.815 156.201 260.431 155.131C260.047 154.062 259.347 153.134 258.423 152.473L229.799 153.996C229.139 153.923 228.472 153.994 227.842 154.205C227.213 154.416 226.637 154.761 226.155 155.217C225.672 155.672 225.295 156.228 225.049 156.844C224.803 157.46 224.694 158.123 224.73 158.786C224.766 159.448 224.946 160.095 225.257 160.681C225.568 161.267 226.003 161.779 226.532 162.18C227.061 162.581 227.67 162.862 228.319 163.003C228.967 163.145 229.638 163.144 230.286 162.999L258.164 161.476C259.305 160.795 260.16 159.724 260.571 158.46Z" fill="#5D4037"/>
<path d="M260.967 167.067C261.219 165.972 261.044 164.822 260.478 163.851C259.912 162.88 258.997 162.162 257.92 161.842L228.717 163.365C227.65 163.591 226.699 164.19 226.036 165.055C225.373 165.92 225.04 166.994 225.099 168.083C225.158 169.172 225.604 170.203 226.357 170.992C227.11 171.781 228.12 172.274 229.205 172.383L257.402 170.86L257.905 170.616C258.634 170.271 259.284 169.777 259.811 169.165C260.338 168.554 260.732 167.839 260.967 167.067Z" fill="#5D4037"/>
<path d="M270.716 161.171L257.981 161.842C259.058 162.162 259.973 162.88 260.539 163.851C261.105 164.822 261.279 165.972 261.028 167.067C260.802 167.849 260.414 168.575 259.889 169.197C259.364 169.819 258.714 170.323 257.981 170.677L257.478 170.921L271.188 170.174C271.848 170.248 272.515 170.177 273.145 169.966C273.774 169.755 274.35 169.41 274.832 168.954C275.315 168.498 275.692 167.943 275.938 167.327C276.184 166.71 276.293 166.048 276.257 165.385C276.221 164.723 276.041 164.076 275.73 163.49C275.419 162.903 274.984 162.392 274.455 161.991C273.926 161.59 273.317 161.309 272.668 161.167C272.02 161.026 271.349 161.027 270.701 161.171H270.716Z" fill="#4E342E"/>
<path d="M63.9049 391.991H0V411.688H63.9049V391.991Z" fill="#546E7A"/>
<path d="M63.9049 334.728H0V391.991H63.9049V334.728Z" fill="#607D8A"/>
<path d="M63.9049 391.991H106.361V340.136V334.728H63.9049V391.991Z" fill="white"/>
<path d="M78.4073 400.918C78.4073 401.909 78.7012 402.878 79.2519 403.702C79.8026 404.526 80.5854 405.169 81.5012 405.548C82.417 405.927 83.4247 406.027 84.3969 405.833C85.3691 405.64 86.2621 405.162 86.963 404.462C87.664 403.761 88.1413 402.868 88.3347 401.895C88.5281 400.923 88.4288 399.915 88.0495 399C87.6701 398.084 87.0278 397.301 86.2036 396.75C85.3794 396.2 84.4104 395.906 83.4191 395.906C82.7604 395.904 82.1078 396.032 81.4988 396.283C80.8898 396.534 80.3365 396.903 79.8707 397.369C79.4049 397.835 79.0358 398.388 78.7847 398.997C78.5335 399.606 78.4053 400.259 78.4073 400.918Z" fill="white"/>
<path d="M238.162 424.728C228.245 424.728 220.247 419.32 215.662 416.562C210.604 413.516 181.691 401.695 158.749 397.322C135.807 392.95 118.654 389.127 118.654 389.127C118.654 389.127 109.286 377.077 109.225 340.075C108.296 340.075 107.336 340.075 106.361 340.075V399.333C153.585 399.333 195.036 413.044 214.245 420.66C224.071 424.514 231.551 425.489 238.162 424.728Z" fill="#FE8965"/>
<path d="M88.3548 400.918C88.3638 399.921 88.0756 398.945 87.527 398.113C86.9784 397.281 86.1943 396.632 85.2748 396.248C84.3554 395.864 83.3424 395.763 82.3651 395.957C81.3879 396.151 80.4908 396.633 79.7884 397.339C79.086 398.046 78.6102 398.946 78.4218 399.925C78.2333 400.903 78.3408 401.916 78.7305 402.833C79.1202 403.75 79.7744 404.53 80.6095 405.073C81.4447 405.617 82.4228 405.899 83.4191 405.884C84.7285 405.868 85.9792 405.339 86.9023 404.41C87.8253 403.481 88.3469 402.227 88.3548 400.918ZM63.9811 391.991H106.361V411.688H63.9811V391.991Z" fill="#E3F1FC"/>
<path d="M272.681 366.49C270.442 372.842 272.864 380.093 274.646 382.15C274.646 382.15 278.226 382.683 288.159 380.977C298.091 379.271 295.227 367.922 291.83 366.048C289.438 364.662 279.811 365.499 272.681 366.49ZM190.725 382.866C187.465 375.736 180.061 375.965 178.842 379.926C177.624 383.886 183.839 387.68 194.64 390.696C205.44 393.712 230.256 393.484 241.742 391.854C253.228 390.224 273.58 388.715 283.284 388.137C292.211 387.619 296.781 382.317 297.603 375.599C296.461 380.383 291.708 384.191 281.654 384.191C256.077 384.191 218.83 394.047 190.694 382.942L190.725 382.866ZM279.902 356.466C283.155 356.552 286.329 357.482 289.115 359.165C291.9 360.847 294.2 363.224 295.791 366.063C313.477 359.162 339.968 351.363 354.973 349.306C361.508 348.392 366.642 349.824 369.232 352.246C372.568 355.293 371.745 359.97 364.387 363.321C354.592 367.785 305.114 393.194 275.865 408.245L255.437 418.771C250.075 421.812 244.198 423.837 238.101 424.743C228.184 424.743 220.186 419.335 215.601 416.578C210.543 413.531 181.63 401.71 158.688 397.338C135.747 392.966 118.654 389.127 118.654 389.127C118.654 389.127 109.286 377.077 109.225 340.075C140.774 339.054 155.444 321.444 196.513 340.425C238.817 359.97 262.459 356.466 279.963 356.466H279.902Z" fill="#FEAA90"/>
<path d="M283.345 388.137C292.272 387.619 296.842 382.317 297.664 375.599C296.522 380.383 291.769 384.191 281.715 384.191C256.138 384.191 218.891 394.047 190.755 382.942V382.866C187.495 375.736 180.091 375.965 178.873 379.926C177.654 383.886 183.869 387.68 194.67 390.696C205.471 393.712 230.286 393.484 241.772 391.854C253.258 390.224 273.641 388.716 283.345 388.137Z" fill="#FE8965"/>
<path d="M370.938 364.966C362.27 369.536 320.18 388.274 293.749 400.247C309.943 394.154 361.95 375.249 375.31 370.709C386.263 366.977 382.515 358.065 376.742 358.995C376.27 360.945 374.548 363.062 370.938 364.966Z" fill="#FE8965"/>
<path d="M272.681 366.49C270.442 372.842 272.864 380.093 274.646 382.15C274.646 382.15 278.226 382.683 288.159 380.977C298.091 379.271 295.227 367.922 291.83 366.048C289.438 364.662 279.811 365.499 272.681 366.49Z" fill="#FECBBB"/>
<path d="M369.293 352.231C372.629 355.278 371.806 359.954 364.448 363.306C354.653 367.769 305.174 393.179 275.926 408.23L276.002 408.382C279.841 406.554 286.148 403.675 293.749 400.247C320.18 388.274 362.3 369.536 370.938 364.966C374.548 363.062 376.239 360.945 376.696 358.98C377.656 354.866 373.177 351.454 369.323 352.201L369.293 352.231Z" fill="#FE8965"/>
<path d="M393.377 85.1405H386.156V77.9198C386.156 76.9865 385.785 76.0915 385.126 75.4315C384.466 74.7716 383.571 74.4008 382.637 74.4008C381.704 74.4008 380.809 74.7716 380.149 75.4315C379.489 76.0915 379.118 76.9865 379.118 77.9198V85.1405H371.898C370.964 85.1405 370.069 85.5113 369.409 86.1712C368.749 86.8312 368.379 87.7262 368.379 88.6595C368.379 89.5928 368.749 90.4878 369.409 91.1478C370.069 91.8077 370.964 92.1785 371.898 92.1785H379.118V99.4144C379.118 100.348 379.489 101.243 380.149 101.903C380.809 102.563 381.704 102.933 382.637 102.933C383.571 102.933 384.466 102.563 385.126 101.903C385.785 101.243 386.156 100.348 386.156 99.4144V92.1785H393.377C394.31 92.1785 395.205 91.8077 395.865 91.1478C396.525 90.4878 396.896 89.5928 396.896 88.6595C396.896 87.7262 396.525 86.8312 395.865 86.1712C395.205 85.5113 394.31 85.1405 393.377 85.1405Z" fill="#009687"/>
<path d="M465.478 362.011H458.242V354.79C458.242 353.857 457.871 352.962 457.211 352.302C456.551 351.642 455.656 351.271 454.723 351.271C453.789 351.271 452.894 351.642 452.234 352.302C451.574 352.962 451.204 353.857 451.204 354.79V362.011H443.983C443.05 362.011 442.155 362.382 441.495 363.042C440.835 363.702 440.464 364.597 440.464 365.53C440.464 366.463 440.835 367.358 441.495 368.018C442.155 368.678 443.05 369.049 443.983 369.049H451.204V376.27C451.204 377.203 451.574 378.098 452.234 378.758C452.894 379.418 453.789 379.789 454.723 379.789C455.656 379.789 456.551 379.418 457.211 378.758C457.871 378.098 458.242 377.203 458.242 376.27V369.049H465.478C466.411 369.049 467.306 368.678 467.966 368.018C468.626 367.358 468.996 366.463 468.996 365.53C468.996 364.597 468.626 363.702 467.966 363.042C467.306 362.382 466.411 362.011 465.478 362.011Z" fill="#4CB5AB"/>
<path d="M340.836 165.726C340.836 166.833 340.508 167.914 339.893 168.834C339.278 169.754 338.404 170.47 337.382 170.893C336.359 171.316 335.234 171.425 334.149 171.208C333.064 170.991 332.068 170.457 331.287 169.674C330.506 168.891 329.974 167.893 329.76 166.808C329.546 165.722 329.659 164.597 330.085 163.576C330.51 162.555 331.229 161.683 332.151 161.07C333.072 160.458 334.154 160.132 335.261 160.135C335.994 160.135 336.721 160.28 337.398 160.561C338.075 160.842 338.691 161.255 339.209 161.774C339.727 162.293 340.137 162.91 340.416 163.588C340.696 164.266 340.838 164.993 340.836 165.726Z" fill="#4CB5AB"/>
<path d="M350.54 417.933C350.54 418.992 350.226 420.026 349.638 420.906C349.05 421.785 348.214 422.471 347.236 422.875C346.258 423.279 345.182 423.384 344.144 423.177C343.107 422.969 342.154 422.458 341.407 421.709C340.66 420.96 340.152 420.005 339.947 418.967C339.742 417.929 339.85 416.853 340.258 415.877C340.665 414.9 341.352 414.066 342.234 413.48C343.115 412.894 344.15 412.583 345.208 412.586C345.91 412.586 346.604 412.725 347.252 412.994C347.9 413.263 348.489 413.657 348.984 414.153C349.479 414.65 349.872 415.24 350.139 415.888C350.406 416.537 350.542 417.232 350.54 417.933Z" fill="#009687"/>
<path d="M552.507 369.14C552.507 369.957 552.265 370.755 551.811 371.434C551.358 372.113 550.713 372.642 549.959 372.954C549.204 373.267 548.374 373.349 547.573 373.189C546.772 373.03 546.037 372.637 545.46 372.059C544.882 371.482 544.489 370.746 544.33 369.946C544.17 369.145 544.252 368.315 544.565 367.56C544.877 366.806 545.406 366.161 546.085 365.708C546.764 365.254 547.562 365.012 548.379 365.012C549.472 365.016 550.52 365.452 551.293 366.226C552.067 366.999 552.503 368.047 552.507 369.14Z" fill="#009687"/>
<path d="M589.159 98.5004C591.977 98.5004 594.262 96.2156 594.262 93.3972C594.262 90.5787 591.977 88.2939 589.159 88.2939C586.341 88.2939 584.056 90.5787 584.056 93.3972C584.056 96.2156 586.341 98.5004 589.159 98.5004Z" fill="#009687"/>
<path d="M259.763 53.5765C259.763 54.2002 259.578 54.8099 259.232 55.3285C258.885 55.847 258.393 56.2512 257.817 56.4898C257.24 56.7285 256.606 56.791 255.995 56.6693C255.383 56.5476 254.821 56.2473 254.38 55.8063C253.939 55.3653 253.639 54.8034 253.517 54.1917C253.395 53.58 253.458 52.946 253.696 52.3698C253.935 51.7936 254.339 51.3011 254.858 50.9546C255.376 50.6081 255.986 50.4232 256.61 50.4232C257.446 50.4232 258.248 50.7554 258.84 51.3468C259.431 51.9382 259.763 52.7402 259.763 53.5765Z" fill="#009687"/>
<path d="M157.576 166.93C160.925 166.93 163.639 164.215 163.639 160.867C163.639 157.518 160.925 154.804 157.576 154.804C154.228 154.804 151.513 157.518 151.513 160.867C151.513 164.215 154.228 166.93 157.576 166.93Z" fill="#009687"/>
<path d="M558.128 7.70822C558.131 9.23706 557.68 10.7324 556.833 12.0048C555.985 13.2773 554.779 14.2696 553.367 14.856C551.956 15.4425 550.401 15.5967 548.902 15.2992C547.402 15.0017 546.025 14.2658 544.943 13.1847C543.862 12.1037 543.127 10.7261 542.829 9.22646C542.531 7.72685 542.686 6.17267 543.272 4.76078C543.859 3.34889 544.851 2.1428 546.123 1.2953C547.396 0.447796 548.891 -0.00299751 550.42 1.50006e-05C552.463 0.00404083 554.421 0.81745 555.866 2.26215C557.311 3.70684 558.124 5.66511 558.128 7.70822Z" fill="#4CB5AB"/>
</svg>
