<svg viewBox="0 0 1310 463" fill="none"
    xmlns="http://www.w3.org/2000/svg">
    <rect y="228" width="83" height="8" fill="#FFBC36"/>
    <rect x="116" y="228" width="177" height="8" fill="#FFBC36"/>
    <rect x="326" y="228" width="287" height="8" fill="#FFBC36"/>
    <rect x="646" y="228" width="324" height="8" fill="#FFBC36"/>
    <rect x="1003" y="228" width="307" height="8" fill="#FFBC36"/>
    <g filter="url(#filter0_d)">
        <circle cx="99.5" cy="231.5" r="8.5" fill="#1A2639"/>
    </g>
    <g filter="url(#filter1_d)">
        <circle cx="309.5" cy="231.5" r="8.5" fill="#1A2639"/>
    </g>
    <g filter="url(#filter2_d)">
        <circle cx="629.5" cy="231.5" r="8.5" fill="#1A2639"/>
    </g>
    <g filter="url(#filter3_d)">
        <circle cx="986.5" cy="231.5" r="8.5" fill="#1A2639"/>
    </g>
    <line x1="100.5" y1="2.18558e-08" x2="100.5" y2="215" stroke="#1A2639"/>
    <line x1="310.5" y1="248" x2="310.5" y2="463" stroke="#1A2639"/>
    <line x1="630.5" y1="2.18558e-08" x2="630.5" y2="215" stroke="#1A2639"/>
    <line x1="987.5" y1="244" x2="987.5" y2="459" stroke="#1A2639"/>
    <path d="M130.94 133.36L128.33 127.66C127.67 126.24 126.84 125.23 125.84 124.63C124.84 124.03 123.56 123.73 122 123.73H121.55V133H118.7V112.06C119.78 111.96 120.79 111.89 121.73 111.85C122.69 111.79 123.73 111.76 124.85 111.76C126.13 111.76 127.25 111.9 128.21 112.18C129.17 112.44 129.97 112.82 130.61 113.32C131.25 113.82 131.73 114.41 132.05 115.09C132.39 115.77 132.56 116.52 132.56 117.34C132.56 118.8 132.12 119.98 131.24 120.88C130.38 121.76 129.13 122.42 127.49 122.86C127.89 123.04 128.26 123.25 128.6 123.49C128.94 123.71 129.26 123.99 129.56 124.33C129.86 124.65 130.15 125.04 130.43 125.5C130.73 125.96 131.03 126.52 131.33 127.18L133.61 132.1L130.94 133.36ZM124.85 114.16C124.17 114.16 123.56 114.17 123.02 114.19C122.48 114.21 121.99 114.24 121.55 114.28V121.33H124.85C126.29 121.33 127.46 121.01 128.36 120.37C129.26 119.73 129.71 118.81 129.71 117.61C129.71 116.61 129.29 115.79 128.45 115.15C127.61 114.49 126.41 114.16 124.85 114.16ZM138.626 126.31C138.806 127.77 139.316 128.91 140.156 129.73C140.996 130.55 142.106 130.96 143.486 130.96C144.386 130.96 145.196 130.87 145.916 130.69C146.636 130.49 147.326 130.24 147.986 129.94L148.616 132.25C147.896 132.59 147.086 132.86 146.186 133.06C145.286 133.26 144.276 133.36 143.156 133.36C142.036 133.36 141.026 133.18 140.126 132.82C139.226 132.44 138.456 131.91 137.816 131.23C137.196 130.53 136.716 129.68 136.376 128.68C136.036 127.66 135.866 126.5 135.866 125.2C135.866 124.04 136.036 122.96 136.376 121.96C136.716 120.96 137.196 120.1 137.816 119.38C138.436 118.64 139.176 118.07 140.036 117.67C140.896 117.25 141.856 117.04 142.916 117.04C144.036 117.04 145.016 117.23 145.856 117.61C146.696 117.99 147.396 118.51 147.956 119.17C148.516 119.83 148.936 120.6 149.216 121.48C149.496 122.36 149.636 123.29 149.636 124.27C149.636 124.97 149.606 125.65 149.546 126.31H138.626ZM142.856 119.38C141.676 119.38 140.706 119.78 139.946 120.58C139.206 121.38 138.756 122.56 138.596 124.12H147.146C147.146 122.6 146.766 121.43 146.006 120.61C145.246 119.79 144.196 119.38 142.856 119.38ZM159.414 117.04C160.314 117.04 161.114 117.19 161.814 117.49C162.534 117.79 163.154 118.16 163.674 118.6V117.4H166.134V132.64C166.134 133.94 165.964 135.05 165.624 135.97C165.284 136.89 164.794 137.64 164.154 138.22C163.534 138.82 162.784 139.26 161.904 139.54C161.024 139.82 160.044 139.96 158.964 139.96C158.024 139.96 157.124 139.85 156.264 139.63C155.404 139.41 154.634 139.08 153.954 138.64L154.944 136.3C155.424 136.68 155.984 136.99 156.624 137.23C157.264 137.49 158.044 137.62 158.964 137.62C160.384 137.62 161.494 137.25 162.294 136.51C163.114 135.77 163.524 134.57 163.524 132.91V130.99C163.124 131.47 162.544 131.93 161.784 132.37C161.044 132.79 160.154 133 159.114 133C158.234 133 157.374 132.83 156.534 132.49C155.694 132.13 154.954 131.62 154.314 130.96C153.674 130.28 153.154 129.46 152.754 128.5C152.374 127.52 152.184 126.4 152.184 125.14C152.184 123.98 152.374 122.91 152.754 121.93C153.134 120.93 153.644 120.07 154.284 119.35C154.944 118.63 155.714 118.07 156.594 117.67C157.474 117.25 158.414 117.04 159.414 117.04ZM159.714 130.6C160.514 130.6 161.234 130.42 161.874 130.06C162.514 129.7 163.034 129.28 163.434 128.8V120.64C162.974 120.32 162.444 120.03 161.844 119.77C161.244 119.51 160.524 119.38 159.684 119.38C159.064 119.38 158.464 119.51 157.884 119.77C157.324 120.01 156.824 120.37 156.384 120.85C155.944 121.33 155.594 121.92 155.334 122.62C155.074 123.3 154.944 124.09 154.944 124.99C154.944 125.85 155.074 126.63 155.334 127.33C155.594 128.01 155.944 128.6 156.384 129.1C156.824 129.58 157.324 129.95 157.884 130.21C158.464 130.47 159.074 130.6 159.714 130.6ZM173.483 133H170.783V117.4H173.483V133ZM172.133 114.73C171.613 114.73 171.163 114.55 170.783 114.19C170.423 113.81 170.243 113.36 170.243 112.84C170.243 112.26 170.413 111.8 170.753 111.46C171.093 111.12 171.553 110.95 172.133 110.95C172.653 110.95 173.093 111.14 173.453 111.52C173.833 111.88 174.023 112.32 174.023 112.84C174.023 113.42 173.853 113.88 173.513 114.22C173.173 114.56 172.713 114.73 172.133 114.73ZM178.073 129.49C178.593 129.95 179.243 130.32 180.023 130.6C180.823 130.88 181.673 131.02 182.573 131.02C183.693 131.02 184.533 130.84 185.093 130.48C185.673 130.1 185.963 129.62 185.963 129.04C185.963 128.74 185.903 128.46 185.783 128.2C185.683 127.94 185.483 127.69 185.183 127.45C184.903 127.21 184.513 126.98 184.013 126.76C183.513 126.52 182.863 126.26 182.063 125.98C180.583 125.48 179.483 124.89 178.763 124.21C178.043 123.51 177.683 122.55 177.683 121.33C177.683 120.73 177.813 120.17 178.073 119.65C178.353 119.13 178.743 118.68 179.243 118.3C179.763 117.9 180.383 117.59 181.103 117.37C181.843 117.15 182.683 117.04 183.623 117.04C184.643 117.04 185.533 117.15 186.293 117.37C187.073 117.57 187.773 117.83 188.393 118.15L187.643 120.37C187.103 120.05 186.483 119.79 185.783 119.59C185.103 119.39 184.343 119.29 183.503 119.29C182.463 119.29 181.673 119.5 181.133 119.92C180.593 120.34 180.323 120.8 180.323 121.3C180.323 121.54 180.363 121.76 180.443 121.96C180.543 122.16 180.713 122.35 180.953 122.53C181.193 122.71 181.513 122.89 181.913 123.07C182.313 123.25 182.813 123.44 183.413 123.64C184.393 123.98 185.223 124.33 185.903 124.69C186.583 125.03 187.133 125.41 187.553 125.83C187.973 126.25 188.273 126.71 188.453 127.21C188.633 127.69 188.723 128.23 188.723 128.83C188.723 129.53 188.573 130.16 188.273 130.72C187.973 131.28 187.553 131.76 187.013 132.16C186.473 132.54 185.813 132.83 185.033 133.03C184.273 133.25 183.423 133.36 182.483 133.36C181.283 133.36 180.213 133.21 179.273 132.91C178.333 132.61 177.553 132.22 176.933 131.74L178.073 129.49ZM193.546 113.05H195.616V117.97H199.936V120.31H195.616V127.84C195.616 128.42 195.676 128.91 195.796 129.31C195.936 129.71 196.116 130.03 196.336 130.27C196.556 130.51 196.816 130.69 197.116 130.81C197.436 130.91 197.766 130.96 198.106 130.96C198.606 130.96 199.076 130.88 199.516 130.72C199.956 130.56 200.376 130.37 200.776 130.15L201.526 132.31C201.126 132.55 200.586 132.78 199.906 133C199.226 133.24 198.516 133.36 197.776 133.36C196.276 133.36 195.086 132.87 194.206 131.89C193.346 130.91 192.916 129.49 192.916 127.63V120.31H190.216V117.97H192.976L193.546 113.05ZM205.364 126.31C205.544 127.77 206.054 128.91 206.894 129.73C207.734 130.55 208.844 130.96 210.224 130.96C211.124 130.96 211.934 130.87 212.654 130.69C213.374 130.49 214.064 130.24 214.724 129.94L215.354 132.25C214.634 132.59 213.824 132.86 212.924 133.06C212.024 133.26 211.014 133.36 209.894 133.36C208.774 133.36 207.764 133.18 206.864 132.82C205.964 132.44 205.194 131.91 204.554 131.23C203.934 130.53 203.454 129.68 203.114 128.68C202.774 127.66 202.604 126.5 202.604 125.2C202.604 124.04 202.774 122.96 203.114 121.96C203.454 120.96 203.934 120.1 204.554 119.38C205.174 118.64 205.914 118.07 206.774 117.67C207.634 117.25 208.594 117.04 209.654 117.04C210.774 117.04 211.754 117.23 212.594 117.61C213.434 117.99 214.134 118.51 214.694 119.17C215.254 119.83 215.674 120.6 215.954 121.48C216.234 122.36 216.374 123.29 216.374 124.27C216.374 124.97 216.344 125.65 216.284 126.31H205.364ZM209.594 119.38C208.414 119.38 207.444 119.78 206.684 120.58C205.944 121.38 205.494 122.56 205.334 124.12H213.884C213.884 122.6 213.504 121.43 212.744 120.61C211.984 119.79 210.934 119.38 209.594 119.38ZM228.432 120.01C228.052 119.85 227.602 119.77 227.082 119.77C226.522 119.77 225.972 119.89 225.432 120.13C224.912 120.37 224.442 120.73 224.022 121.21C223.622 121.69 223.292 122.31 223.032 123.07C222.792 123.81 222.672 124.69 222.672 125.71V133H219.972V117.4H222.582V120.79C222.762 120.31 223.002 119.84 223.302 119.38C223.602 118.92 223.952 118.52 224.352 118.18C224.772 117.84 225.252 117.57 225.792 117.37C226.332 117.15 226.932 117.04 227.592 117.04C227.892 117.04 228.182 117.06 228.462 117.1C228.762 117.12 229.022 117.16 229.242 117.22L228.432 120.01ZM241.339 139.96C240.739 139.96 240.209 139.9 239.749 139.78C239.309 139.66 238.959 139.52 238.699 139.36L239.299 137.11C239.539 137.25 239.829 137.37 240.169 137.47C240.529 137.57 240.939 137.62 241.399 137.62C241.819 137.62 242.209 137.56 242.569 137.44C242.949 137.32 243.309 137.11 243.649 136.81C243.989 136.51 244.309 136.1 244.609 135.58C244.929 135.06 245.239 134.41 245.539 133.63L246.229 131.83H244.789L238.699 118.12L241.099 117.04L246.919 130.03L251.449 117.16L253.939 118.12L248.209 133.78C247.769 134.98 247.299 135.97 246.799 136.75C246.319 137.55 245.799 138.19 245.239 138.67C244.679 139.15 244.069 139.48 243.409 139.66C242.769 139.86 242.079 139.96 241.339 139.96ZM267.646 125.2C267.646 124.42 267.516 123.68 267.256 122.98C267.016 122.28 266.666 121.67 266.206 121.15C265.766 120.63 265.236 120.22 264.616 119.92C264.016 119.6 263.356 119.44 262.636 119.44C261.056 119.44 259.826 119.96 258.946 121C258.066 122.04 257.626 123.42 257.626 125.14C257.626 125.92 257.746 126.67 257.986 127.39C258.246 128.09 258.596 128.71 259.036 129.25C259.496 129.77 260.026 130.19 260.626 130.51C261.246 130.81 261.916 130.96 262.636 130.96C263.416 130.96 264.116 130.82 264.736 130.54C265.356 130.26 265.876 129.87 266.296 129.37C266.736 128.85 267.066 128.24 267.286 127.54C267.526 126.84 267.646 126.06 267.646 125.2ZM254.866 125.2C254.866 123.94 255.066 122.81 255.466 121.81C255.866 120.79 256.406 119.93 257.086 119.23C257.786 118.53 258.606 117.99 259.546 117.61C260.506 117.23 261.536 117.04 262.636 117.04C263.716 117.04 264.726 117.23 265.666 117.61C266.626 117.99 267.456 118.53 268.156 119.23C268.856 119.93 269.406 120.78 269.806 121.78C270.206 122.78 270.406 123.9 270.406 125.14C270.406 126.38 270.206 127.51 269.806 128.53C269.426 129.53 268.886 130.39 268.186 131.11C267.486 131.83 266.656 132.39 265.696 132.79C264.756 133.17 263.736 133.36 262.636 133.36C261.516 133.36 260.476 133.16 259.516 132.76C258.576 132.36 257.756 131.8 257.056 131.08C256.376 130.36 255.836 129.5 255.436 128.5C255.056 127.5 254.866 126.4 254.866 125.2ZM287.946 133.15C286.986 133.15 286.226 132.96 285.666 132.58C285.106 132.2 284.716 131.65 284.496 130.93C283.796 131.65 282.986 132.24 282.066 132.7C281.166 133.14 280.176 133.36 279.096 133.36C278.416 133.36 277.756 133.25 277.116 133.03C276.496 132.83 275.936 132.5 275.436 132.04C274.956 131.58 274.566 130.98 274.266 130.24C273.986 129.5 273.846 128.6 273.846 127.54V117.4H276.546V127.18C276.546 128.4 276.796 129.34 277.296 130C277.816 130.64 278.586 130.96 279.606 130.96C280.446 130.96 281.246 130.8 282.006 130.48C282.766 130.14 283.446 129.69 284.046 129.13V117.4H286.746V128.95C286.746 129.39 286.796 129.75 286.896 130.03C286.996 130.29 287.126 130.5 287.286 130.66C287.446 130.8 287.636 130.9 287.856 130.96C288.076 131.02 288.296 131.05 288.516 131.05L287.946 133.15ZM300.465 117.4C302.305 117.4 303.455 118.13 303.915 119.59C304.055 119.37 304.265 119.11 304.545 118.81C304.845 118.51 305.205 118.23 305.625 117.97C306.045 117.71 306.525 117.49 307.065 117.31C307.605 117.13 308.205 117.04 308.865 117.04C309.765 117.04 310.625 117.22 311.445 117.58C312.285 117.94 313.015 118.46 313.635 119.14C314.275 119.82 314.785 120.66 315.165 121.66C315.545 122.66 315.735 123.79 315.735 125.05C315.735 126.29 315.545 127.42 315.165 128.44C314.805 129.46 314.305 130.34 313.665 131.08C313.045 131.8 312.325 132.36 311.505 132.76C310.685 133.16 309.825 133.36 308.925 133.36C307.985 133.36 307.115 133.18 306.315 132.82C305.535 132.44 304.885 132.01 304.365 131.53V139.6H301.665V121.39C301.665 120.71 301.495 120.23 301.155 119.95C300.835 119.65 300.415 119.5 299.895 119.5L300.465 117.4ZM312.975 125.14C312.975 124.24 312.845 123.44 312.585 122.74C312.345 122.02 312.005 121.41 311.565 120.91C311.145 120.41 310.645 120.03 310.065 119.77C309.505 119.51 308.905 119.38 308.265 119.38C307.405 119.38 306.625 119.6 305.925 120.04C305.245 120.46 304.725 120.92 304.365 121.42V129.1C304.885 129.64 305.475 130.09 306.135 130.45C306.815 130.79 307.565 130.96 308.385 130.96C309.065 130.96 309.685 130.82 310.245 130.54C310.805 130.26 311.285 129.87 311.685 129.37C312.105 128.85 312.425 128.24 312.645 127.54C312.865 126.82 312.975 126.02 312.975 125.14ZM327.954 120.01C327.574 119.85 327.124 119.77 326.604 119.77C326.044 119.77 325.494 119.89 324.954 120.13C324.434 120.37 323.964 120.73 323.544 121.21C323.144 121.69 322.814 122.31 322.554 123.07C322.314 123.81 322.194 124.69 322.194 125.71V133H319.494V117.4H322.104V120.79C322.284 120.31 322.524 119.84 322.824 119.38C323.124 118.92 323.474 118.52 323.874 118.18C324.294 117.84 324.774 117.57 325.314 117.37C325.854 117.15 326.454 117.04 327.114 117.04C327.414 117.04 327.704 117.06 327.984 117.1C328.284 117.12 328.544 117.16 328.764 117.22L327.954 120.01ZM342.148 125.2C342.148 124.42 342.018 123.68 341.758 122.98C341.518 122.28 341.168 121.67 340.708 121.15C340.268 120.63 339.738 120.22 339.118 119.92C338.518 119.6 337.858 119.44 337.138 119.44C335.558 119.44 334.328 119.96 333.448 121C332.568 122.04 332.128 123.42 332.128 125.14C332.128 125.92 332.248 126.67 332.488 127.39C332.748 128.09 333.098 128.71 333.538 129.25C333.998 129.77 334.528 130.19 335.128 130.51C335.748 130.81 336.418 130.96 337.138 130.96C337.918 130.96 338.618 130.82 339.238 130.54C339.858 130.26 340.378 129.87 340.798 129.37C341.238 128.85 341.568 128.24 341.788 127.54C342.028 126.84 342.148 126.06 342.148 125.2ZM329.368 125.2C329.368 123.94 329.568 122.81 329.968 121.81C330.368 120.79 330.908 119.93 331.588 119.23C332.288 118.53 333.108 117.99 334.048 117.61C335.008 117.23 336.038 117.04 337.138 117.04C338.218 117.04 339.228 117.23 340.168 117.61C341.128 117.99 341.958 118.53 342.658 119.23C343.358 119.93 343.908 120.78 344.308 121.78C344.708 122.78 344.908 123.9 344.908 125.14C344.908 126.38 344.708 127.51 344.308 128.53C343.928 129.53 343.388 130.39 342.688 131.11C341.988 131.83 341.158 132.39 340.198 132.79C339.258 133.17 338.238 133.36 337.138 133.36C336.018 133.36 334.978 133.16 334.018 132.76C333.078 132.36 332.258 131.8 331.558 131.08C330.878 130.36 330.338 129.5 329.938 128.5C329.558 127.5 329.368 126.4 329.368 125.2ZM354.408 133.36C353.448 133.36 352.538 133.17 351.678 132.79C350.838 132.41 350.098 131.87 349.458 131.17C348.838 130.47 348.348 129.63 347.988 128.65C347.628 127.65 347.448 126.53 347.448 125.29C347.448 124.11 347.628 123.02 347.988 122.02C348.368 121 348.868 120.13 349.488 119.41C350.128 118.67 350.868 118.09 351.708 117.67C352.548 117.25 353.438 117.04 354.378 117.04C355.418 117.04 356.308 117.25 357.048 117.67C357.808 118.09 358.398 118.52 358.818 118.96V110.8H361.518V129.22C361.518 129.98 361.698 130.48 362.058 130.72C362.438 130.94 362.848 131.05 363.288 131.05L362.718 133.15C360.818 133.15 359.658 132.39 359.238 130.87C358.778 131.51 358.158 132.09 357.378 132.61C356.598 133.11 355.608 133.36 354.408 133.36ZM355.008 130.96C355.748 130.96 356.448 130.79 357.108 130.45C357.788 130.09 358.358 129.63 358.818 129.07V121.33C358.438 120.85 357.908 120.41 357.228 120.01C356.568 119.59 355.818 119.38 354.978 119.38C354.258 119.38 353.598 119.53 352.998 119.83C352.418 120.13 351.918 120.54 351.498 121.06C351.078 121.58 350.758 122.2 350.538 122.92C350.318 123.62 350.208 124.38 350.208 125.2C350.208 126.04 350.328 126.81 350.568 127.51C350.808 128.21 351.138 128.82 351.558 129.34C351.998 129.84 352.508 130.24 353.088 130.54C353.688 130.82 354.328 130.96 355.008 130.96ZM380.846 133.15C379.886 133.15 379.126 132.96 378.566 132.58C378.006 132.2 377.616 131.65 377.396 130.93C376.696 131.65 375.886 132.24 374.966 132.7C374.066 133.14 373.076 133.36 371.996 133.36C371.316 133.36 370.656 133.25 370.016 133.03C369.396 132.83 368.836 132.5 368.336 132.04C367.856 131.58 367.466 130.98 367.166 130.24C366.886 129.5 366.746 128.6 366.746 127.54V117.4H369.446V127.18C369.446 128.4 369.696 129.34 370.196 130C370.716 130.64 371.486 130.96 372.506 130.96C373.346 130.96 374.146 130.8 374.906 130.48C375.666 130.14 376.346 129.69 376.946 129.13V117.4H379.646V128.95C379.646 129.39 379.696 129.75 379.796 130.03C379.896 130.29 380.026 130.5 380.186 130.66C380.346 130.8 380.536 130.9 380.756 130.96C380.976 131.02 381.196 131.05 381.416 131.05L380.846 133.15ZM394.669 120.25C394.089 119.97 393.549 119.77 393.049 119.65C392.549 119.51 391.989 119.44 391.369 119.44C390.669 119.44 390.009 119.57 389.389 119.83C388.789 120.09 388.269 120.47 387.829 120.97C387.389 121.45 387.039 122.04 386.779 122.74C386.539 123.44 386.419 124.24 386.419 125.14C386.419 125.96 386.529 126.72 386.749 127.42C386.989 128.12 387.319 128.74 387.739 129.28C388.159 129.8 388.659 130.21 389.239 130.51C389.819 130.81 390.469 130.96 391.189 130.96C391.949 130.96 392.599 130.88 393.139 130.72C393.679 130.56 394.259 130.31 394.879 129.97L395.719 132.25C395.079 132.59 394.379 132.86 393.619 133.06C392.859 133.26 391.989 133.36 391.009 133.36C389.889 133.36 388.879 133.16 387.979 132.76C387.079 132.36 386.309 131.8 385.669 131.08C385.029 130.36 384.529 129.5 384.169 128.5C383.829 127.5 383.659 126.4 383.659 125.2C383.659 124.08 383.829 123.03 384.169 122.05C384.529 121.05 385.039 120.18 385.699 119.44C386.359 118.7 387.149 118.12 388.069 117.7C389.009 117.26 390.059 117.04 391.219 117.04C392.119 117.04 392.899 117.12 393.559 117.28C394.219 117.44 394.859 117.67 395.479 117.97L394.669 120.25ZM400.089 113.05H402.159V117.97H406.479V120.31H402.159V127.84C402.159 128.42 402.219 128.91 402.339 129.31C402.479 129.71 402.659 130.03 402.879 130.27C403.099 130.51 403.359 130.69 403.659 130.81C403.979 130.91 404.309 130.96 404.649 130.96C405.149 130.96 405.619 130.88 406.059 130.72C406.499 130.56 406.919 130.37 407.319 130.15L408.069 132.31C407.669 132.55 407.129 132.78 406.449 133C405.769 133.24 405.059 133.36 404.319 133.36C402.819 133.36 401.629 132.87 400.749 131.89C399.889 130.91 399.459 129.49 399.459 127.63V120.31H396.759V117.97H399.519L400.089 113.05Z" fill="white"/>
    <path d="M118.4 64.28L125.84 58.68C129.573 63.8 133.893 66.36 138.8 66.36C141.147 66.36 142.987 65.8533 144.32 64.84C145.653 63.7733 146.32 62.3333 146.32 60.52C146.32 59.0267 145.867 57.88 144.96 57.08C144.053 56.2267 142.267 55.1867 139.6 53.96L133.92 51.4C125.387 47.6133 121.12 42.5467 121.12 36.2C121.12 31.72 122.773 28.12 126.08 25.4C129.387 22.6267 133.573 21.24 138.64 21.24C142.587 21.24 146.053 22.1467 149.04 23.96C152.027 25.72 154.373 28.1467 156.08 31.24L148.72 36.92C146 32.8667 142.64 30.84 138.64 30.84C136.72 30.84 135.147 31.2933 133.92 32.2C132.693 33.1067 132.08 34.36 132.08 35.96C132.08 37.2933 132.507 38.3867 133.36 39.24C134.267 40.04 135.893 40.9733 138.24 42.04L144.24 44.68C148.773 46.7067 152.08 48.92 154.16 51.32C156.24 53.6667 157.28 56.6 157.28 60.12C157.28 64.8667 155.547 68.7067 152.08 71.64C148.613 74.52 144.187 75.96 138.8 75.96C134.373 75.96 130.373 74.92 126.8 72.84C123.28 70.76 120.48 67.9067 118.4 64.28ZM178.688 75V31.96H161.808V22.2H206.448V31.96H189.488V75H178.688ZM213.564 75V22.2H249.084V31.96H224.364V42.68H242.524V51.88H224.364V65.24H250.044V75H213.564ZM259.424 75V22.2H279.264C284.81 22.2 289.37 23.7733 292.944 26.92C296.517 30.0667 298.304 34.1733 298.304 39.24C298.304 44.2533 296.517 48.36 292.944 51.56C289.37 54.76 284.81 56.36 279.264 56.36H270.224V75H259.424ZM270.224 46.92H279.264C281.77 46.92 283.717 46.2267 285.104 44.84C286.544 43.4 287.264 41.5333 287.264 39.24C287.264 37 286.517 35.1867 285.024 33.8C283.584 32.4133 281.664 31.72 279.264 31.72H270.224V46.92ZM342.044 22.2H345.644V75H334.844V35L324.844 38.2L322.284 28.68L342.044 22.2Z" fill="url(#paint0_linear)"/>
    <path d="M328.4 425.28L335.84 419.68C339.573 424.8 343.893 427.36 348.8 427.36C351.147 427.36 352.987 426.853 354.32 425.84C355.653 424.773 356.32 423.333 356.32 421.52C356.32 420.027 355.867 418.88 354.96 418.08C354.053 417.227 352.267 416.187 349.6 414.96L343.92 412.4C335.387 408.613 331.12 403.547 331.12 397.2C331.12 392.72 332.773 389.12 336.08 386.4C339.387 383.627 343.573 382.24 348.64 382.24C352.587 382.24 356.053 383.147 359.04 384.96C362.027 386.72 364.373 389.147 366.08 392.24L358.72 397.92C356 393.867 352.64 391.84 348.64 391.84C346.72 391.84 345.147 392.293 343.92 393.2C342.693 394.107 342.08 395.36 342.08 396.96C342.08 398.293 342.507 399.387 343.36 400.24C344.267 401.04 345.893 401.973 348.24 403.04L354.24 405.68C358.773 407.707 362.08 409.92 364.16 412.32C366.24 414.667 367.28 417.6 367.28 421.12C367.28 425.867 365.547 429.707 362.08 432.64C358.613 435.52 354.187 436.96 348.8 436.96C344.373 436.96 340.373 435.92 336.8 433.84C333.28 431.76 330.48 428.907 328.4 425.28ZM388.688 436V392.96H371.808V383.2H416.448V392.96H399.488V436H388.688ZM423.564 436V383.2H459.084V392.96H434.364V403.68H452.524V412.88H434.364V426.24H460.044V436H423.564ZM469.424 436V383.2H489.264C494.81 383.2 499.37 384.773 502.944 387.92C506.517 391.067 508.304 395.173 508.304 400.24C508.304 405.253 506.517 409.36 502.944 412.56C499.37 415.76 494.81 417.36 489.264 417.36H480.224V436H469.424ZM480.224 407.92H489.264C491.77 407.92 493.717 407.227 495.104 405.84C496.544 404.4 497.264 402.533 497.264 400.24C497.264 398 496.517 396.187 495.024 394.8C493.584 393.413 491.664 392.72 489.264 392.72H480.224V407.92ZM553.724 426.8H573.404V436L534.444 436.08V433.76L553.324 413.28C555.99 410.347 557.884 407.893 559.004 405.92C560.177 403.893 560.764 401.92 560.764 400C560.764 397.707 560.097 395.84 558.764 394.4C557.43 392.96 555.644 392.24 553.404 392.24C551.164 392.24 549.35 392.987 547.964 394.48C546.63 395.973 545.964 397.92 545.964 400.32C545.964 401.12 546.097 402.4 546.364 404.16H535.484C535.11 402.827 534.924 401.333 534.924 399.68C534.924 394.987 536.657 390.907 540.124 387.44C543.644 383.973 548.124 382.24 553.564 382.24C558.844 382.24 563.217 383.867 566.684 387.12C570.15 390.32 571.884 394.32 571.884 399.12C571.884 402.693 570.924 406.027 569.004 409.12C566.977 412.32 564.15 415.813 560.524 419.6L553.724 426.8Z" fill="url(#paint1_linear)"/>
    <path d="M651.4 64.28L658.84 58.68C662.573 63.8 666.893 66.36 671.8 66.36C674.147 66.36 675.987 65.8533 677.32 64.84C678.653 63.7733 679.32 62.3333 679.32 60.52C679.32 59.0267 678.867 57.88 677.96 57.08C677.053 56.2267 675.267 55.1867 672.6 53.96L666.92 51.4C658.387 47.6133 654.12 42.5467 654.12 36.2C654.12 31.72 655.773 28.12 659.08 25.4C662.387 22.6267 666.573 21.24 671.64 21.24C675.587 21.24 679.053 22.1467 682.04 23.96C685.027 25.72 687.373 28.1467 689.08 31.24L681.72 36.92C679 32.8667 675.64 30.84 671.64 30.84C669.72 30.84 668.147 31.2933 666.92 32.2C665.693 33.1067 665.08 34.36 665.08 35.96C665.08 37.2933 665.507 38.3867 666.36 39.24C667.267 40.04 668.893 40.9733 671.24 42.04L677.24 44.68C681.773 46.7067 685.08 48.92 687.16 51.32C689.24 53.6667 690.28 56.6 690.28 60.12C690.28 64.8667 688.547 68.7067 685.08 71.64C681.613 74.52 677.187 75.96 671.8 75.96C667.373 75.96 663.373 74.92 659.8 72.84C656.28 70.76 653.48 67.9067 651.4 64.28ZM711.688 75V31.96H694.808V22.2H739.448V31.96H722.488V75H711.688ZM746.564 75V22.2H782.084V31.96H757.364V42.68H775.524V51.88H757.364V65.24H783.044V75H746.564ZM792.424 75V22.2H812.264C817.81 22.2 822.37 23.7733 825.944 26.92C829.517 30.0667 831.304 34.1733 831.304 39.24C831.304 44.2533 829.517 48.36 825.944 51.56C822.37 54.76 817.81 56.36 812.264 56.36H803.224V75H792.424ZM803.224 46.92H812.264C814.77 46.92 816.717 46.2267 818.104 44.84C819.544 43.4 820.264 41.5333 820.264 39.24C820.264 37 819.517 35.1867 818.024 33.8C816.584 32.4133 814.664 31.72 812.264 31.72H803.224V46.92ZM894.164 57.72C894.164 62.9467 892.217 67.2933 888.324 70.76C884.484 74.2267 879.79 75.96 874.244 75.96C869.977 75.96 866.164 74.8933 862.804 72.76C859.444 70.6267 856.857 67.6933 855.044 63.96L862.564 58.68C864.217 61.1867 865.924 63.0267 867.684 64.2C869.497 65.3733 871.577 65.96 873.924 65.96C876.644 65.96 878.857 65.24 880.564 63.8C882.27 62.3067 883.124 60.3067 883.124 57.8C883.124 55.3467 882.19 53.48 880.324 52.2C878.51 50.8667 875.844 50.2 872.324 50.2H865.684V47.4L876.724 31.96H859.124V22.2H893.124V25.08L881.444 41.56C884.964 42.4667 887.977 44.36 890.484 47.24C892.937 50.0133 894.164 53.5067 894.164 57.72Z" fill="url(#paint2_linear)"/>
    <path d="M1005.4 425.28L1012.84 419.68C1016.57 424.8 1020.89 427.36 1025.8 427.36C1028.15 427.36 1029.99 426.853 1031.32 425.84C1032.65 424.773 1033.32 423.333 1033.32 421.52C1033.32 420.027 1032.87 418.88 1031.96 418.08C1031.05 417.227 1029.27 416.187 1026.6 414.96L1020.92 412.4C1012.39 408.613 1008.12 403.547 1008.12 397.2C1008.12 392.72 1009.77 389.12 1013.08 386.4C1016.39 383.627 1020.57 382.24 1025.64 382.24C1029.59 382.24 1033.05 383.147 1036.04 384.96C1039.03 386.72 1041.37 389.147 1043.08 392.24L1035.72 397.92C1033 393.867 1029.64 391.84 1025.64 391.84C1023.72 391.84 1022.15 392.293 1020.92 393.2C1019.69 394.107 1019.08 395.36 1019.08 396.96C1019.08 398.293 1019.51 399.387 1020.36 400.24C1021.27 401.04 1022.89 401.973 1025.24 403.04L1031.24 405.68C1035.77 407.707 1039.08 409.92 1041.16 412.32C1043.24 414.667 1044.28 417.6 1044.28 421.12C1044.28 425.867 1042.55 429.707 1039.08 432.64C1035.61 435.52 1031.19 436.96 1025.8 436.96C1021.37 436.96 1017.37 435.92 1013.8 433.84C1010.28 431.76 1007.48 428.907 1005.4 425.28ZM1065.69 436V392.96H1048.81V383.2H1093.45V392.96H1076.49V436H1065.69ZM1100.56 436V383.2H1136.08V392.96H1111.36V403.68H1129.52V412.88H1111.36V426.24H1137.04V436H1100.56ZM1146.42 436V383.2H1166.26C1171.81 383.2 1176.37 384.773 1179.94 387.92C1183.52 391.067 1185.3 395.173 1185.3 400.24C1185.3 405.253 1183.52 409.36 1179.94 412.56C1176.37 415.76 1171.81 417.36 1166.26 417.36H1157.22V436H1146.42ZM1157.22 407.92H1166.26C1168.77 407.92 1170.72 407.227 1172.1 405.84C1173.54 404.4 1174.26 402.533 1174.26 400.24C1174.26 398 1173.52 396.187 1172.02 394.8C1170.58 393.413 1168.66 392.72 1166.26 392.72H1157.22V407.92ZM1252.88 418.24V427.36H1246.16V436H1235.36V427.36H1209.12V424.48L1225.44 383.2H1236.56L1222.56 418.24H1235.36V403.44H1246.16V418.24H1252.88Z" fill="url(#paint3_linear)"/>
    <path d="M326.9 341.98L329.69 339.88C331.09 341.8 332.71 342.76 334.55 342.76C335.43 342.76 336.12 342.57 336.62 342.19C337.12 341.79 337.37 341.25 337.37 340.57C337.37 340.01 337.2 339.58 336.86 339.28C336.52 338.96 335.85 338.57 334.85 338.11L332.72 337.15C329.52 335.73 327.92 333.83 327.92 331.45C327.92 329.77 328.54 328.42 329.78 327.4C331.02 326.36 332.59 325.84 334.49 325.84C335.97 325.84 337.27 326.18 338.39 326.86C339.51 327.52 340.39 328.43 341.03 329.59L338.27 331.72C337.25 330.2 335.99 329.44 334.49 329.44C333.77 329.44 333.18 329.61 332.72 329.95C332.26 330.29 332.03 330.76 332.03 331.36C332.03 331.86 332.19 332.27 332.51 332.59C332.85 332.89 333.46 333.24 334.34 333.64L336.59 334.63C338.29 335.39 339.53 336.22 340.31 337.12C341.09 338 341.48 339.1 341.48 340.42C341.48 342.2 340.83 343.64 339.53 344.74C338.23 345.82 336.57 346.36 334.55 346.36C332.89 346.36 331.39 345.97 330.05 345.19C328.73 344.41 327.68 343.34 326.9 341.98ZM358.418 339.94H348.008C348.248 340.88 348.728 341.61 349.448 342.13C350.188 342.63 351.098 342.88 352.178 342.88C353.638 342.88 355.018 342.38 356.318 341.38L357.998 344.14C356.218 345.62 354.238 346.36 352.058 346.36C349.778 346.4 347.838 345.66 346.238 344.14C344.658 342.6 343.888 340.75 343.928 338.59C343.888 336.45 344.638 334.61 346.178 333.07C347.718 331.53 349.558 330.78 351.698 330.82C353.738 330.82 355.408 331.48 356.708 332.8C358.028 334.12 358.688 335.76 358.688 337.72C358.688 338.44 358.598 339.18 358.418 339.94ZM348.008 337.09H354.758C354.738 336.19 354.418 335.47 353.798 334.93C353.198 334.37 352.448 334.09 351.548 334.09C350.688 334.09 349.938 334.36 349.298 334.9C348.658 335.44 348.228 336.17 348.008 337.09ZM361.848 346V323.5H365.898V346H361.848ZM383.555 339.94H373.145C373.385 340.88 373.865 341.61 374.585 342.13C375.325 342.63 376.235 342.88 377.315 342.88C378.775 342.88 380.155 342.38 381.455 341.38L383.135 344.14C381.355 345.62 379.375 346.36 377.195 346.36C374.915 346.4 372.975 345.66 371.375 344.14C369.795 342.6 369.025 340.75 369.065 338.59C369.025 336.45 369.775 334.61 371.315 333.07C372.855 331.53 374.695 330.78 376.835 330.82C378.875 330.82 380.545 331.48 381.845 332.8C383.165 334.12 383.825 335.76 383.825 337.72C383.825 338.44 383.735 339.18 383.555 339.94ZM373.145 337.09H379.895C379.875 336.19 379.555 335.47 378.935 334.93C378.335 334.37 377.585 334.09 376.685 334.09C375.825 334.09 375.075 334.36 374.435 334.9C373.795 335.44 373.365 336.17 373.145 337.09ZM386.145 338.56C386.145 336.4 386.915 334.57 388.455 333.07C389.995 331.57 391.875 330.82 394.095 330.82C397.015 330.82 399.165 332.04 400.545 334.48L397.725 336.67C396.725 335.23 395.535 334.51 394.155 334.51C393.015 334.51 392.075 334.9 391.335 335.68C390.615 336.44 390.255 337.4 390.255 338.56C390.255 339.74 390.615 340.72 391.335 341.5C392.075 342.26 393.015 342.64 394.155 342.64C395.535 342.64 396.725 341.93 397.725 340.51L400.545 342.67C399.885 343.83 398.995 344.74 397.875 345.4C396.775 346.04 395.515 346.36 394.095 346.36C391.915 346.4 390.035 345.65 388.455 344.11C386.875 342.55 386.105 340.7 386.145 338.56ZM413.077 342.61V346C412.117 346.24 411.187 346.36 410.287 346.36C408.387 346.36 406.917 345.89 405.877 344.95C404.857 344.01 404.347 342.62 404.347 340.78V334.57H402.007V331.15H404.347V327.4H408.397V331.15H412.597V334.57H408.397V340.42C408.397 341.26 408.607 341.86 409.027 342.22C409.467 342.56 410.177 342.73 411.157 342.73C411.497 342.73 412.137 342.69 413.077 342.61ZM434.566 331.15H438.826L431.716 347.29C431.036 348.83 430.226 349.96 429.286 350.68C428.346 351.4 427.186 351.76 425.806 351.76C424.966 351.76 424.096 351.64 423.196 351.4V348.01C424.016 348.09 424.596 348.13 424.936 348.13C425.696 348.13 426.316 347.98 426.796 347.68C427.276 347.38 427.686 346.86 428.026 346.12L428.476 345.1L422.776 331.15H427.066L430.696 340.9L434.566 331.15ZM439.758 338.56C439.718 336.44 440.488 334.61 442.068 333.07C443.648 331.53 445.528 330.78 447.708 330.82C449.888 330.78 451.768 331.53 453.348 333.07C454.948 334.61 455.728 336.44 455.688 338.56C455.728 340.68 454.948 342.52 453.348 344.08C451.748 345.62 449.858 346.37 447.678 346.33C445.498 346.37 443.618 345.62 442.038 344.08C440.478 342.52 439.718 340.68 439.758 338.56ZM450.438 341.47C451.178 340.71 451.548 339.75 451.548 338.59C451.548 337.43 451.178 336.46 450.438 335.68C449.718 334.9 448.808 334.51 447.708 334.51C446.588 334.51 445.668 334.9 444.948 335.68C444.228 336.44 443.868 337.41 443.868 338.59C443.868 339.75 444.228 340.71 444.948 341.47C445.668 342.23 446.588 342.61 447.708 342.61C448.808 342.61 449.718 342.23 450.438 341.47ZM458.7 339.46V331.15H462.75V339.79C462.75 340.65 463.01 341.34 463.53 341.86C464.07 342.38 464.75 342.64 465.57 342.64C466.37 342.64 467.03 342.38 467.55 341.86C468.07 341.32 468.33 340.63 468.33 339.79V331.15H472.38V339.46C472.38 341.5 471.73 343.16 470.43 344.44C469.15 345.72 467.53 346.36 465.57 346.36C463.57 346.36 461.92 345.73 460.62 344.47C459.34 343.19 458.7 341.52 458.7 339.46ZM485.372 331.15V334.72H484.292C483.052 334.72 482.072 335.05 481.352 335.71C480.652 336.37 480.302 337.33 480.302 338.59V346H476.252V331.15H479.972V332.92C481.012 331.62 482.372 330.97 484.052 330.97C484.552 330.97 484.992 331.03 485.372 331.15ZM509.911 333.04C511.291 334.5 511.981 336.34 511.981 338.56C511.981 340.78 511.291 342.64 509.911 344.14C508.551 345.62 506.841 346.36 504.781 346.36C502.921 346.36 501.441 345.76 500.341 344.56V351.4H496.291V331.15H500.011V333.01C501.031 331.55 502.621 330.82 504.781 330.82C506.841 330.82 508.551 331.56 509.911 333.04ZM507.871 338.59C507.871 337.37 507.511 336.38 506.791 335.62C506.071 334.86 505.151 334.48 504.031 334.48C502.951 334.48 502.051 334.84 501.331 335.56C500.631 336.28 500.281 337.28 500.281 338.56C500.281 339.84 500.631 340.85 501.331 341.59C502.051 342.31 502.951 342.67 504.031 342.67C505.131 342.67 506.041 342.29 506.761 341.53C507.501 340.77 507.871 339.79 507.871 338.59ZM524.278 331.15V334.72H523.198C521.958 334.72 520.978 335.05 520.258 335.71C519.558 336.37 519.208 337.33 519.208 338.59V346H515.158V331.15H518.878V332.92C519.918 331.62 521.278 330.97 522.958 330.97C523.458 330.97 523.898 331.03 524.278 331.15ZM540.146 339.94H529.736C529.976 340.88 530.456 341.61 531.176 342.13C531.916 342.63 532.826 342.88 533.906 342.88C535.366 342.88 536.746 342.38 538.046 341.38L539.726 344.14C537.946 345.62 535.966 346.36 533.786 346.36C531.506 346.4 529.566 345.66 527.966 344.14C526.386 342.6 525.616 340.75 525.656 338.59C525.616 336.45 526.366 334.61 527.906 333.07C529.446 331.53 531.286 330.78 533.426 330.82C535.466 330.82 537.136 331.48 538.436 332.8C539.756 334.12 540.416 335.76 540.416 337.72C540.416 338.44 540.326 339.18 540.146 339.94ZM529.736 337.09H536.486C536.466 336.19 536.146 335.47 535.526 334.93C534.926 334.37 534.176 334.09 533.276 334.09C532.416 334.09 531.666 334.36 531.026 334.9C530.386 335.44 529.956 336.17 529.736 337.09ZM548.316 329.08V331.15H551.586V334.57H548.316V346H544.266V334.57H542.166V331.15H544.266V328.72C544.266 326.88 544.766 325.49 545.766 324.55C546.766 323.61 548.176 323.14 549.996 323.14C550.756 323.14 551.496 323.25 552.216 323.47V326.86C551.776 326.8 551.376 326.77 551.016 326.77C550.076 326.77 549.386 326.95 548.946 327.31C548.526 327.67 548.316 328.26 548.316 329.08ZM567.48 339.94H557.07C557.31 340.88 557.79 341.61 558.51 342.13C559.25 342.63 560.16 342.88 561.24 342.88C562.7 342.88 564.08 342.38 565.38 341.38L567.06 344.14C565.28 345.62 563.3 346.36 561.12 346.36C558.84 346.4 556.9 345.66 555.3 344.14C553.72 342.6 552.95 340.75 552.99 338.59C552.95 336.45 553.7 334.61 555.24 333.07C556.78 331.53 558.62 330.78 560.76 330.82C562.8 330.82 564.47 331.48 565.77 332.8C567.09 334.12 567.75 335.76 567.75 337.72C567.75 338.44 567.66 339.18 567.48 339.94ZM557.07 337.09H563.82C563.8 336.19 563.48 335.47 562.86 334.93C562.26 334.37 561.51 334.09 560.61 334.09C559.75 334.09 559 334.36 558.36 334.9C557.72 335.44 557.29 336.17 557.07 337.09ZM580.03 331.15V334.72H578.95C577.71 334.72 576.73 335.05 576.01 335.71C575.31 336.37 574.96 337.33 574.96 338.59V346H570.91V331.15H574.63V332.92C575.67 331.62 577.03 330.97 578.71 330.97C579.21 330.97 579.65 331.03 580.03 331.15ZM595.898 339.94H585.488C585.728 340.88 586.208 341.61 586.928 342.13C587.668 342.63 588.578 342.88 589.658 342.88C591.118 342.88 592.498 342.38 593.798 341.38L595.478 344.14C593.698 345.62 591.718 346.36 589.538 346.36C587.258 346.4 585.318 345.66 583.718 344.14C582.138 342.6 581.368 340.75 581.408 338.59C581.368 336.45 582.118 334.61 583.658 333.07C585.198 331.53 587.038 330.78 589.178 330.82C591.218 330.82 592.888 331.48 594.188 332.8C595.508 334.12 596.168 335.76 596.168 337.72C596.168 338.44 596.078 339.18 595.898 339.94ZM585.488 337.09H592.238C592.218 336.19 591.898 335.47 591.278 334.93C590.678 334.37 589.928 334.09 589.028 334.09C588.168 334.09 587.418 334.36 586.778 334.9C586.138 335.44 585.708 336.17 585.488 337.09ZM612.978 336.79V346H608.958V337.33C608.958 336.47 608.698 335.78 608.178 335.26C607.678 334.72 607.018 334.45 606.198 334.45C605.378 334.45 604.698 334.72 604.158 335.26C603.638 335.78 603.378 336.47 603.378 337.33V346H599.328V331.15H603.048V332.5C604.168 331.38 605.618 330.82 607.398 330.82C609.118 330.82 610.478 331.36 611.478 332.44C612.478 333.52 612.978 334.97 612.978 336.79ZM616.037 338.56C616.037 336.4 616.807 334.57 618.347 333.07C619.887 331.57 621.767 330.82 623.987 330.82C626.907 330.82 629.057 332.04 630.437 334.48L627.617 336.67C626.617 335.23 625.427 334.51 624.047 334.51C622.907 334.51 621.967 334.9 621.227 335.68C620.507 336.44 620.147 337.4 620.147 338.56C620.147 339.74 620.507 340.72 621.227 341.5C621.967 342.26 622.907 342.64 624.047 342.64C625.427 342.64 626.617 341.93 627.617 340.51L630.437 342.67C629.777 343.83 628.887 344.74 627.767 345.4C626.667 346.04 625.407 346.36 623.987 346.36C621.807 346.4 619.927 345.65 618.347 344.11C616.767 342.55 615.997 340.7 616.037 338.56ZM646.787 339.94H636.377C636.617 340.88 637.097 341.61 637.817 342.13C638.557 342.63 639.467 342.88 640.547 342.88C642.007 342.88 643.387 342.38 644.687 341.38L646.367 344.14C644.587 345.62 642.607 346.36 640.427 346.36C638.147 346.4 636.207 345.66 634.607 344.14C633.027 342.6 632.257 340.75 632.297 338.59C632.257 336.45 633.007 334.61 634.547 333.07C636.087 331.53 637.927 330.78 640.067 330.82C642.107 330.82 643.777 331.48 645.077 332.8C646.397 334.12 647.057 335.76 647.057 337.72C647.057 338.44 646.967 339.18 646.787 339.94ZM636.377 337.09H643.127C643.107 336.19 642.787 335.47 642.167 334.93C641.567 334.37 640.817 334.09 639.917 334.09C639.057 334.09 638.307 334.36 637.667 334.9C637.027 335.44 636.597 336.17 636.377 337.09Z" fill="white"/>
    <path d="M647.14 124.1C647.1 121.26 648.13 118.83 650.23 116.81C652.33 114.77 654.82 113.78 657.7 113.84C659.58 113.84 661.28 114.28 662.8 115.16C664.34 116.02 665.55 117.22 666.43 118.76L663.37 120.92C661.95 118.7 660.06 117.59 657.7 117.59C655.86 117.59 654.33 118.21 653.11 119.45C651.91 120.69 651.31 122.25 651.31 124.13C651.31 126.01 651.91 127.56 653.11 128.78C654.33 130 655.86 130.61 657.7 130.61C660.06 130.61 661.95 129.5 663.37 127.28L666.43 129.44C665.57 130.98 664.37 132.19 662.83 133.07C661.29 133.93 659.57 134.36 657.67 134.36C654.77 134.42 652.27 133.44 650.17 131.42C648.09 129.38 647.08 126.94 647.14 124.1ZM668.469 126.56C668.429 124.44 669.199 122.61 670.779 121.07C672.359 119.53 674.239 118.78 676.419 118.82C678.599 118.78 680.479 119.53 682.059 121.07C683.659 122.61 684.439 124.44 684.399 126.56C684.439 128.68 683.659 130.52 682.059 132.08C680.459 133.62 678.569 134.37 676.389 134.33C674.209 134.37 672.329 133.62 670.749 132.08C669.189 130.52 668.429 128.68 668.469 126.56ZM679.149 129.47C679.889 128.71 680.259 127.75 680.259 126.59C680.259 125.43 679.889 124.46 679.149 123.68C678.429 122.9 677.519 122.51 676.419 122.51C675.299 122.51 674.379 122.9 673.659 123.68C672.939 124.44 672.579 125.41 672.579 126.59C672.579 127.75 672.939 128.71 673.659 129.47C674.379 130.23 675.299 130.61 676.419 130.61C677.519 130.61 678.429 130.23 679.149 129.47ZM701.211 124.79V134H697.191V125.33C697.191 124.47 696.931 123.78 696.411 123.26C695.911 122.72 695.251 122.45 694.431 122.45C693.611 122.45 692.931 122.72 692.391 123.26C691.871 123.78 691.611 124.47 691.611 125.33V134H687.561V119.15H691.281V120.5C692.401 119.38 693.851 118.82 695.631 118.82C697.351 118.82 698.711 119.36 699.711 120.44C700.711 121.52 701.211 122.97 701.211 124.79ZM709.85 117.08V119.15H713.12V122.57H709.85V134H705.8V122.57H703.7V119.15H705.8V116.72C705.8 114.88 706.3 113.49 707.3 112.55C708.3 111.61 709.71 111.14 711.53 111.14C712.29 111.14 713.03 111.25 713.75 111.47V114.86C713.31 114.8 712.91 114.77 712.55 114.77C711.61 114.77 710.92 114.95 710.48 115.31C710.06 115.67 709.85 116.26 709.85 117.08ZM715.82 134V119.15H719.87V134H715.82ZM715.25 113.75C715.25 113.03 715.5 112.43 716 111.95C716.5 111.47 717.11 111.23 717.83 111.23C718.55 111.23 719.16 111.47 719.66 111.95C720.18 112.43 720.44 113.03 720.44 113.75C720.44 114.45 720.18 115.04 719.66 115.52C719.16 116 718.55 116.24 717.83 116.24C717.11 116.24 716.5 116 716 115.52C715.5 115.04 715.25 114.45 715.25 113.75ZM733.009 119.15V122.72H731.929C730.689 122.72 729.709 123.05 728.989 123.71C728.289 124.37 727.939 125.33 727.939 126.59V134H723.889V119.15H727.609V120.92C728.649 119.62 730.009 118.97 731.689 118.97C732.189 118.97 732.629 119.03 733.009 119.15ZM758.41 124.79V134H754.36V125.36C754.36 124.48 754.12 123.78 753.64 123.26C753.16 122.74 752.52 122.48 751.72 122.48C750.92 122.48 750.26 122.74 749.74 123.26C749.24 123.78 748.99 124.45 748.99 125.27V134H744.94V125.36C744.94 124.48 744.7 123.78 744.22 123.26C743.74 122.74 743.1 122.48 742.3 122.48C741.48 122.48 740.82 122.74 740.32 123.26C739.82 123.78 739.57 124.48 739.57 125.36V134H735.52V119.15H739.24V120.47C740.28 119.37 741.68 118.82 743.44 118.82C745.38 118.82 746.85 119.53 747.85 120.95C749.11 119.53 750.76 118.82 752.8 118.82C754.52 118.82 755.88 119.36 756.88 120.44C757.9 121.52 758.41 122.97 758.41 124.79ZM780.816 119.15H785.076L777.966 135.29C777.286 136.83 776.476 137.96 775.536 138.68C774.596 139.4 773.436 139.76 772.056 139.76C771.216 139.76 770.346 139.64 769.446 139.4V136.01C770.266 136.09 770.846 136.13 771.186 136.13C771.946 136.13 772.566 135.98 773.046 135.68C773.526 135.38 773.936 134.86 774.276 134.12L774.726 133.1L769.026 119.15H773.316L776.946 128.9L780.816 119.15ZM786.008 126.56C785.968 124.44 786.738 122.61 788.318 121.07C789.898 119.53 791.778 118.78 793.958 118.82C796.138 118.78 798.018 119.53 799.598 121.07C801.198 122.61 801.978 124.44 801.938 126.56C801.978 128.68 801.198 130.52 799.598 132.08C797.998 133.62 796.108 134.37 793.928 134.33C791.748 134.37 789.868 133.62 788.288 132.08C786.728 130.52 785.968 128.68 786.008 126.56ZM796.688 129.47C797.428 128.71 797.798 127.75 797.798 126.59C797.798 125.43 797.428 124.46 796.688 123.68C795.968 122.9 795.058 122.51 793.958 122.51C792.838 122.51 791.918 122.9 791.198 123.68C790.478 124.44 790.118 125.41 790.118 126.59C790.118 127.75 790.478 128.71 791.198 129.47C791.918 130.23 792.838 130.61 793.958 130.61C795.058 130.61 795.968 130.23 796.688 129.47ZM804.95 127.46V119.15H809V127.79C809 128.65 809.26 129.34 809.78 129.86C810.32 130.38 811 130.64 811.82 130.64C812.62 130.64 813.28 130.38 813.8 129.86C814.32 129.32 814.58 128.63 814.58 127.79V119.15H818.63V127.46C818.63 129.5 817.98 131.16 816.68 132.44C815.4 133.72 813.78 134.36 811.82 134.36C809.82 134.36 808.17 133.73 806.87 132.47C805.59 131.19 804.95 129.52 804.95 127.46ZM831.622 119.15V122.72H830.542C829.302 122.72 828.322 123.05 827.602 123.71C826.902 124.37 826.552 125.33 826.552 126.59V134H822.502V119.15H826.222V120.92C827.262 119.62 828.622 118.97 830.302 118.97C830.802 118.97 831.242 119.03 831.622 119.15ZM858.141 128.18C858.141 129.88 857.531 131.28 856.311 132.38C855.091 133.46 853.531 134 851.631 134H842.811V114.2H849.831C851.671 114.2 853.171 114.72 854.331 115.76C855.511 116.78 856.101 118.1 856.101 119.72C856.101 121.18 855.611 122.37 854.631 123.29C856.971 124.15 858.141 125.78 858.141 128.18ZM849.501 117.68H846.711V122.21H849.501C850.321 122.21 850.951 122.01 851.391 121.61C851.851 121.21 852.081 120.65 852.081 119.93C852.081 119.23 851.851 118.68 851.391 118.28C850.951 117.88 850.321 117.68 849.501 117.68ZM854.151 128.03C854.151 127.27 853.901 126.67 853.401 126.23C852.901 125.77 852.211 125.54 851.331 125.54H846.711V130.52H851.331C852.211 130.52 852.901 130.3 853.401 129.86C853.901 129.42 854.151 128.81 854.151 128.03ZM873.624 125.18V134H869.904V132.56C868.744 133.76 867.234 134.36 865.374 134.36C863.814 134.36 862.564 133.95 861.624 133.13C860.704 132.31 860.244 131.24 860.244 129.92C860.244 128.58 860.744 127.53 861.744 126.77C862.764 125.99 864.134 125.6 865.854 125.6H869.574V124.94C869.574 124.1 869.334 123.46 868.854 123.02C868.394 122.56 867.714 122.33 866.814 122.33C866.074 122.33 865.404 122.49 864.804 122.81C864.204 123.13 863.564 123.65 862.884 124.37L860.784 121.88C862.504 119.84 864.664 118.82 867.264 118.82C869.224 118.82 870.774 119.38 871.914 120.5C873.054 121.6 873.624 123.16 873.624 125.18ZM869.574 128.45V128.27H866.394C865.014 128.27 864.324 128.77 864.324 129.77C864.324 130.27 864.514 130.67 864.894 130.97C865.294 131.25 865.814 131.39 866.454 131.39C867.354 131.39 868.094 131.12 868.674 130.58C869.274 130.02 869.574 129.31 869.574 128.45ZM886.642 119.15V122.72H885.562C884.322 122.72 883.342 123.05 882.622 123.71C881.922 124.37 881.572 125.33 881.572 126.59V134H877.522V119.15H881.242V120.92C882.282 119.62 883.642 118.97 885.322 118.97C885.822 118.97 886.262 119.03 886.642 119.15ZM898.693 130.61V134C897.733 134.24 896.803 134.36 895.903 134.36C894.003 134.36 892.533 133.89 891.493 132.95C890.473 132.01 889.963 130.62 889.963 128.78V122.57H887.623V119.15H889.963V115.4H894.013V119.15H898.213V122.57H894.013V128.42C894.013 129.26 894.223 129.86 894.643 130.22C895.083 130.56 895.793 130.73 896.773 130.73C897.113 130.73 897.753 130.69 898.693 130.61ZM914.99 127.94H904.58C904.82 128.88 905.3 129.61 906.02 130.13C906.76 130.63 907.67 130.88 908.75 130.88C910.21 130.88 911.59 130.38 912.89 129.38L914.57 132.14C912.79 133.62 910.81 134.36 908.63 134.36C906.35 134.4 904.41 133.66 902.81 132.14C901.23 130.6 900.46 128.75 900.5 126.59C900.46 124.45 901.21 122.61 902.75 121.07C904.29 119.53 906.13 118.78 908.27 118.82C910.31 118.82 911.98 119.48 913.28 120.8C914.6 122.12 915.26 123.76 915.26 125.72C915.26 126.44 915.17 127.18 914.99 127.94ZM904.58 125.09H911.33C911.31 124.19 910.99 123.47 910.37 122.93C909.77 122.37 909.02 122.09 908.12 122.09C907.26 122.09 906.51 122.36 905.87 122.9C905.23 123.44 904.8 124.17 904.58 125.09ZM927.54 119.15V122.72H926.46C925.22 122.72 924.24 123.05 923.52 123.71C922.82 124.37 922.47 125.33 922.47 126.59V134H918.42V119.15H922.14V120.92C923.18 119.62 924.54 118.97 926.22 118.97C926.72 118.97 927.16 119.03 927.54 119.15ZM950.909 125.18V134H947.189V132.56C946.029 133.76 944.519 134.36 942.659 134.36C941.099 134.36 939.849 133.95 938.909 133.13C937.989 132.31 937.529 131.24 937.529 129.92C937.529 128.58 938.029 127.53 939.029 126.77C940.049 125.99 941.419 125.6 943.139 125.6H946.859V124.94C946.859 124.1 946.619 123.46 946.139 123.02C945.679 122.56 944.999 122.33 944.099 122.33C943.359 122.33 942.689 122.49 942.089 122.81C941.489 123.13 940.849 123.65 940.169 124.37L938.069 121.88C939.789 119.84 941.949 118.82 944.549 118.82C946.509 118.82 948.059 119.38 949.199 120.5C950.339 121.6 950.909 123.16 950.909 125.18ZM946.859 128.45V128.27H943.679C942.299 128.27 941.609 128.77 941.609 129.77C941.609 130.27 941.799 130.67 942.179 130.97C942.579 131.25 943.099 131.39 943.739 131.39C944.639 131.39 945.379 131.12 945.959 130.58C946.559 130.02 946.859 129.31 946.859 128.45ZM968.457 124.79V134H964.437V125.33C964.437 124.47 964.177 123.78 963.657 123.26C963.157 122.72 962.497 122.45 961.677 122.45C960.857 122.45 960.177 122.72 959.637 123.26C959.117 123.78 958.857 124.47 958.857 125.33V134H954.807V119.15H958.527V120.5C959.647 119.38 961.097 118.82 962.877 118.82C964.597 118.82 965.957 119.36 966.957 120.44C967.957 121.52 968.457 122.97 968.457 124.79ZM983.156 111.5H987.206V134H983.486V132.17C982.466 133.63 980.876 134.36 978.716 134.36C976.636 134.36 974.916 133.63 973.556 132.17C972.196 130.69 971.516 128.83 971.516 126.59C971.516 124.35 972.196 122.5 973.556 121.04C974.916 119.56 976.636 118.82 978.716 118.82C980.596 118.82 982.076 119.41 983.156 120.59V111.5ZM982.136 129.59C982.856 128.87 983.216 127.87 983.216 126.59C983.216 125.31 982.856 124.31 982.136 123.59C981.416 122.85 980.526 122.48 979.466 122.48C978.366 122.48 977.446 122.86 976.706 123.62C975.986 124.38 975.626 125.36 975.626 126.56C975.626 127.78 975.986 128.77 976.706 129.53C977.426 130.29 978.346 130.67 979.466 130.67C980.546 130.67 981.436 130.31 982.136 129.59ZM1010.82 119.15H1014.54V132.35C1014.54 134.73 1013.85 136.56 1012.47 137.84C1011.09 139.12 1009.22 139.76 1006.86 139.76C1004.08 139.76 1001.65 138.84 999.571 137L1001.7 134.18C1003.42 135.46 1005.03 136.1 1006.53 136.1C1007.75 136.1 1008.71 135.8 1009.41 135.2C1010.13 134.6 1010.49 133.73 1010.49 132.59V131.78C1009.41 132.96 1007.9 133.55 1005.96 133.55C1003.9 133.55 1002.2 132.86 1000.86 131.48C999.521 130.1 998.851 128.33 998.851 126.17C998.851 123.99 999.521 122.22 1000.86 120.86C1002.2 119.5 1003.9 118.82 1005.96 118.82C1008.12 118.82 1009.74 119.55 1010.82 121.01V119.15ZM1010.55 126.11C1010.55 124.89 1010.19 123.95 1009.47 123.29C1008.77 122.61 1007.88 122.27 1006.8 122.27C1005.68 122.27 1004.76 122.62 1004.04 123.32C1003.32 124.02 1002.96 124.96 1002.96 126.14C1002.96 127.32 1003.32 128.28 1004.04 129.02C1004.78 129.76 1005.7 130.13 1006.8 130.13C1007.86 130.13 1008.75 129.77 1009.47 129.05C1010.19 128.33 1010.55 127.35 1010.55 126.11ZM1032.21 127.94H1021.8C1022.04 128.88 1022.52 129.61 1023.24 130.13C1023.98 130.63 1024.89 130.88 1025.97 130.88C1027.43 130.88 1028.81 130.38 1030.11 129.38L1031.79 132.14C1030.01 133.62 1028.03 134.36 1025.85 134.36C1023.57 134.4 1021.63 133.66 1020.03 132.14C1018.45 130.6 1017.68 128.75 1017.72 126.59C1017.68 124.45 1018.43 122.61 1019.97 121.07C1021.51 119.53 1023.35 118.78 1025.49 118.82C1027.53 118.82 1029.2 119.48 1030.5 120.8C1031.82 122.12 1032.48 123.76 1032.48 125.72C1032.48 126.44 1032.39 127.18 1032.21 127.94ZM1021.8 125.09H1028.55C1028.53 124.19 1028.21 123.47 1027.59 122.93C1026.99 122.37 1026.24 122.09 1025.34 122.09C1024.48 122.09 1023.73 122.36 1023.09 122.9C1022.45 123.44 1022.02 124.17 1021.8 125.09ZM1045.18 130.61V134C1044.22 134.24 1043.29 134.36 1042.39 134.36C1040.49 134.36 1039.02 133.89 1037.98 132.95C1036.96 132.01 1036.45 130.62 1036.45 128.78V122.57H1034.11V119.15H1036.45V115.4H1040.5V119.15H1044.7V122.57H1040.5V128.42C1040.5 129.26 1040.71 129.86 1041.13 130.22C1041.57 130.56 1042.28 130.73 1043.26 130.73C1043.6 130.73 1044.24 130.69 1045.18 130.61ZM1056.53 134V119.15H1060.58V134H1056.53ZM1055.96 113.75C1055.96 113.03 1056.21 112.43 1056.71 111.95C1057.21 111.47 1057.82 111.23 1058.54 111.23C1059.26 111.23 1059.87 111.47 1060.37 111.95C1060.89 112.43 1061.15 113.03 1061.15 113.75C1061.15 114.45 1060.89 115.04 1060.37 115.52C1059.87 116 1059.26 116.24 1058.54 116.24C1057.82 116.24 1057.21 116 1056.71 115.52C1056.21 115.04 1055.96 114.45 1055.96 113.75ZM1074.12 130.61V134C1073.16 134.24 1072.23 134.36 1071.33 134.36C1069.43 134.36 1067.96 133.89 1066.92 132.95C1065.9 132.01 1065.39 130.62 1065.39 128.78V122.57H1063.05V119.15H1065.39V115.4H1069.44V119.15H1073.64V122.57H1069.44V128.42C1069.44 129.26 1069.65 129.86 1070.07 130.22C1070.51 130.56 1071.22 130.73 1072.2 130.73C1072.54 130.73 1073.18 130.69 1074.12 130.61ZM1094.67 119.15H1098.96L1091.61 134.36H1090.26L1082.91 119.15H1087.17L1090.92 127.55L1094.67 119.15ZM1114.38 127.94H1103.97C1104.21 128.88 1104.69 129.61 1105.41 130.13C1106.15 130.63 1107.06 130.88 1108.14 130.88C1109.6 130.88 1110.98 130.38 1112.28 129.38L1113.96 132.14C1112.18 133.62 1110.2 134.36 1108.02 134.36C1105.74 134.4 1103.8 133.66 1102.2 132.14C1100.62 130.6 1099.85 128.75 1099.89 126.59C1099.85 124.45 1100.6 122.61 1102.14 121.07C1103.68 119.53 1105.52 118.78 1107.66 118.82C1109.7 118.82 1111.37 119.48 1112.67 120.8C1113.99 122.12 1114.65 123.76 1114.65 125.72C1114.65 126.44 1114.56 127.18 1114.38 127.94ZM1103.97 125.09H1110.72C1110.7 124.19 1110.38 123.47 1109.76 122.93C1109.16 122.37 1108.41 122.09 1107.51 122.09C1106.65 122.09 1105.9 122.36 1105.26 122.9C1104.62 123.44 1104.19 124.17 1103.97 125.09ZM1126.93 119.15V122.72H1125.85C1124.61 122.72 1123.63 123.05 1122.91 123.71C1122.21 124.37 1121.86 125.33 1121.86 126.59V134H1117.81V119.15H1121.53V120.92C1122.57 119.62 1123.93 118.97 1125.61 118.97C1126.11 118.97 1126.55 119.03 1126.93 119.15ZM1129.45 134V119.15H1133.5V134H1129.45ZM1128.88 113.75C1128.88 113.03 1129.13 112.43 1129.63 111.95C1130.13 111.47 1130.74 111.23 1131.46 111.23C1132.18 111.23 1132.79 111.47 1133.29 111.95C1133.81 112.43 1134.07 113.03 1134.07 113.75C1134.07 114.45 1133.81 115.04 1133.29 115.52C1132.79 116 1132.18 116.24 1131.46 116.24C1130.74 116.24 1130.13 116 1129.63 115.52C1129.13 115.04 1128.88 114.45 1128.88 113.75ZM1142.24 117.08V119.15H1145.51V122.57H1142.24V134H1138.19V122.57H1136.09V119.15H1138.19V116.72C1138.19 114.88 1138.69 113.49 1139.69 112.55C1140.69 111.61 1142.1 111.14 1143.92 111.14C1144.68 111.14 1145.42 111.25 1146.14 111.47V114.86C1145.7 114.8 1145.3 114.77 1144.94 114.77C1144 114.77 1143.31 114.95 1142.87 115.31C1142.45 115.67 1142.24 116.26 1142.24 117.08ZM1148.21 134V119.15H1152.26V134H1148.21ZM1147.64 113.75C1147.64 113.03 1147.89 112.43 1148.39 111.95C1148.89 111.47 1149.5 111.23 1150.22 111.23C1150.94 111.23 1151.55 111.47 1152.05 111.95C1152.57 112.43 1152.83 113.03 1152.83 113.75C1152.83 114.45 1152.57 115.04 1152.05 115.52C1151.55 116 1150.94 116.24 1150.22 116.24C1149.5 116.24 1148.89 116 1148.39 115.52C1147.89 115.04 1147.64 114.45 1147.64 113.75ZM1169.93 127.94H1159.52C1159.76 128.88 1160.24 129.61 1160.96 130.13C1161.7 130.63 1162.61 130.88 1163.69 130.88C1165.15 130.88 1166.53 130.38 1167.83 129.38L1169.51 132.14C1167.73 133.62 1165.75 134.36 1163.57 134.36C1161.29 134.4 1159.35 133.66 1157.75 132.14C1156.17 130.6 1155.4 128.75 1155.44 126.59C1155.4 124.45 1156.15 122.61 1157.69 121.07C1159.23 119.53 1161.07 118.78 1163.21 118.82C1165.25 118.82 1166.92 119.48 1168.22 120.8C1169.54 122.12 1170.2 123.76 1170.2 125.72C1170.2 126.44 1170.11 127.18 1169.93 127.94ZM1159.52 125.09H1166.27C1166.25 124.19 1165.93 123.47 1165.31 122.93C1164.71 122.37 1163.96 122.09 1163.06 122.09C1162.2 122.09 1161.45 122.36 1160.81 122.9C1160.17 123.44 1159.74 124.17 1159.52 125.09ZM1184.16 111.5H1188.21V134H1184.49V132.17C1183.47 133.63 1181.88 134.36 1179.72 134.36C1177.64 134.36 1175.92 133.63 1174.56 132.17C1173.2 130.69 1172.52 128.83 1172.52 126.59C1172.52 124.35 1173.2 122.5 1174.56 121.04C1175.92 119.56 1177.64 118.82 1179.72 118.82C1181.6 118.82 1183.08 119.41 1184.16 120.59V111.5ZM1183.14 129.59C1183.86 128.87 1184.22 127.87 1184.22 126.59C1184.22 125.31 1183.86 124.31 1183.14 123.59C1182.42 122.85 1181.53 122.48 1180.47 122.48C1179.37 122.48 1178.45 122.86 1177.71 123.62C1176.99 124.38 1176.63 125.36 1176.63 126.56C1176.63 127.78 1176.99 128.77 1177.71 129.53C1178.43 130.29 1179.35 130.67 1180.47 130.67C1181.55 130.67 1182.44 130.31 1183.14 129.59Z" fill="white"/>
    <path d="M1020.61 340.18C1020.61 341.88 1020 343.28 1018.78 344.38C1017.56 345.46 1016 346 1014.1 346H1005.28V326.2H1012.3C1014.14 326.2 1015.64 326.72 1016.8 327.76C1017.98 328.78 1018.57 330.1 1018.57 331.72C1018.57 333.18 1018.08 334.37 1017.1 335.29C1019.44 336.15 1020.61 337.78 1020.61 340.18ZM1011.97 329.68H1009.18V334.21H1011.97C1012.79 334.21 1013.42 334.01 1013.86 333.61C1014.32 333.21 1014.55 332.65 1014.55 331.93C1014.55 331.23 1014.32 330.68 1013.86 330.28C1013.42 329.88 1012.79 329.68 1011.97 329.68ZM1016.62 340.03C1016.62 339.27 1016.37 338.67 1015.87 338.23C1015.37 337.77 1014.68 337.54 1013.8 337.54H1009.18V342.52H1013.8C1014.68 342.52 1015.37 342.3 1015.87 341.86C1016.37 341.42 1016.62 340.81 1016.62 340.03ZM1036.09 337.18V346H1032.37V344.56C1031.21 345.76 1029.7 346.36 1027.84 346.36C1026.28 346.36 1025.03 345.95 1024.09 345.13C1023.17 344.31 1022.71 343.24 1022.71 341.92C1022.71 340.58 1023.21 339.53 1024.21 338.77C1025.23 337.99 1026.6 337.6 1028.32 337.6H1032.04V336.94C1032.04 336.1 1031.8 335.46 1031.32 335.02C1030.86 334.56 1030.18 334.33 1029.28 334.33C1028.54 334.33 1027.87 334.49 1027.27 334.81C1026.67 335.13 1026.03 335.65 1025.35 336.37L1023.25 333.88C1024.97 331.84 1027.13 330.82 1029.73 330.82C1031.69 330.82 1033.24 331.38 1034.38 332.5C1035.52 333.6 1036.09 335.16 1036.09 337.18ZM1032.04 340.45V340.27H1028.86C1027.48 340.27 1026.79 340.77 1026.79 341.77C1026.79 342.27 1026.98 342.67 1027.36 342.97C1027.76 343.25 1028.28 343.39 1028.92 343.39C1029.82 343.39 1030.56 343.12 1031.14 342.58C1031.74 342.02 1032.04 341.31 1032.04 340.45ZM1049.11 331.15V334.72H1048.03C1046.79 334.72 1045.81 335.05 1045.09 335.71C1044.39 336.37 1044.04 337.33 1044.04 338.59V346H1039.99V331.15H1043.71V332.92C1044.75 331.62 1046.11 330.97 1047.79 330.97C1048.29 330.97 1048.73 331.03 1049.11 331.15ZM1061.16 342.61V346C1060.2 346.24 1059.27 346.36 1058.37 346.36C1056.47 346.36 1055 345.89 1053.96 344.95C1052.94 344.01 1052.43 342.62 1052.43 340.78V334.57H1050.09V331.15H1052.43V327.4H1056.48V331.15H1060.68V334.57H1056.48V340.42C1056.48 341.26 1056.69 341.86 1057.11 342.22C1057.55 342.56 1058.26 342.73 1059.24 342.73C1059.58 342.73 1060.22 342.69 1061.16 342.61ZM1077.46 339.94H1067.05C1067.29 340.88 1067.77 341.61 1068.49 342.13C1069.23 342.63 1070.14 342.88 1071.22 342.88C1072.68 342.88 1074.06 342.38 1075.36 341.38L1077.04 344.14C1075.26 345.62 1073.28 346.36 1071.1 346.36C1068.82 346.4 1066.88 345.66 1065.28 344.14C1063.7 342.6 1062.93 340.75 1062.97 338.59C1062.93 336.45 1063.68 334.61 1065.22 333.07C1066.76 331.53 1068.6 330.78 1070.74 330.82C1072.78 330.82 1074.45 331.48 1075.75 332.8C1077.07 334.12 1077.73 335.76 1077.73 337.72C1077.73 338.44 1077.64 339.18 1077.46 339.94ZM1067.05 337.09H1073.8C1073.78 336.19 1073.46 335.47 1072.84 334.93C1072.24 334.37 1071.49 334.09 1070.59 334.09C1069.73 334.09 1068.98 334.36 1068.34 334.9C1067.7 335.44 1067.27 336.17 1067.05 337.09ZM1090.01 331.15V334.72H1088.93C1087.69 334.72 1086.71 335.05 1085.99 335.71C1085.29 336.37 1084.94 337.33 1084.94 338.59V346H1080.89V331.15H1084.61V332.92C1085.65 331.62 1087.01 330.97 1088.69 330.97C1089.19 330.97 1089.63 331.03 1090.01 331.15ZM1099.82 341.98L1102.61 339.88C1104.01 341.8 1105.63 342.76 1107.47 342.76C1108.35 342.76 1109.04 342.57 1109.54 342.19C1110.04 341.79 1110.29 341.25 1110.29 340.57C1110.29 340.01 1110.12 339.58 1109.78 339.28C1109.44 338.96 1108.77 338.57 1107.77 338.11L1105.64 337.15C1102.44 335.73 1100.84 333.83 1100.84 331.45C1100.84 329.77 1101.46 328.42 1102.7 327.4C1103.94 326.36 1105.51 325.84 1107.41 325.84C1108.89 325.84 1110.19 326.18 1111.31 326.86C1112.43 327.52 1113.31 328.43 1113.95 329.59L1111.19 331.72C1110.17 330.2 1108.91 329.44 1107.41 329.44C1106.69 329.44 1106.1 329.61 1105.64 329.95C1105.18 330.29 1104.95 330.76 1104.95 331.36C1104.95 331.86 1105.11 332.27 1105.43 332.59C1105.77 332.89 1106.38 333.24 1107.26 333.64L1109.51 334.63C1111.21 335.39 1112.45 336.22 1113.23 337.12C1114.01 338 1114.4 339.1 1114.4 340.42C1114.4 342.2 1113.75 343.64 1112.45 344.74C1111.15 345.82 1109.49 346.36 1107.47 346.36C1105.81 346.36 1104.31 345.97 1102.97 345.19C1101.65 344.41 1100.6 343.34 1099.82 341.98ZM1117.54 339.46V331.15H1121.59V339.79C1121.59 340.65 1121.85 341.34 1122.37 341.86C1122.91 342.38 1123.59 342.64 1124.41 342.64C1125.21 342.64 1125.87 342.38 1126.39 341.86C1126.91 341.32 1127.17 340.63 1127.17 339.79V331.15H1131.22V339.46C1131.22 341.5 1130.57 343.16 1129.27 344.44C1127.99 345.72 1126.37 346.36 1124.41 346.36C1122.41 346.36 1120.76 345.73 1119.46 344.47C1118.18 343.19 1117.54 341.52 1117.54 339.46ZM1134.25 338.56C1134.25 336.4 1135.02 334.57 1136.56 333.07C1138.1 331.57 1139.98 330.82 1142.2 330.82C1145.12 330.82 1147.27 332.04 1148.65 334.48L1145.83 336.67C1144.83 335.23 1143.64 334.51 1142.26 334.51C1141.12 334.51 1140.18 334.9 1139.44 335.68C1138.72 336.44 1138.36 337.4 1138.36 338.56C1138.36 339.74 1138.72 340.72 1139.44 341.5C1140.18 342.26 1141.12 342.64 1142.26 342.64C1143.64 342.64 1144.83 341.93 1145.83 340.51L1148.65 342.67C1147.99 343.83 1147.1 344.74 1145.98 345.4C1144.88 346.04 1143.62 346.36 1142.2 346.36C1140.02 346.4 1138.14 345.65 1136.56 344.11C1134.98 342.55 1134.21 340.7 1134.25 338.56ZM1150.51 338.56C1150.51 336.4 1151.28 334.57 1152.82 333.07C1154.36 331.57 1156.24 330.82 1158.46 330.82C1161.38 330.82 1163.53 332.04 1164.91 334.48L1162.09 336.67C1161.09 335.23 1159.9 334.51 1158.52 334.51C1157.38 334.51 1156.44 334.9 1155.7 335.68C1154.98 336.44 1154.62 337.4 1154.62 338.56C1154.62 339.74 1154.98 340.72 1155.7 341.5C1156.44 342.26 1157.38 342.64 1158.52 342.64C1159.9 342.64 1161.09 341.93 1162.09 340.51L1164.91 342.67C1164.25 343.83 1163.36 344.74 1162.24 345.4C1161.14 346.04 1159.88 346.36 1158.46 346.36C1156.28 346.4 1154.4 345.65 1152.82 344.11C1151.24 342.55 1150.47 340.7 1150.51 338.56ZM1181.26 339.94H1170.85C1171.09 340.88 1171.57 341.61 1172.29 342.13C1173.03 342.63 1173.94 342.88 1175.02 342.88C1176.48 342.88 1177.86 342.38 1179.16 341.38L1180.84 344.14C1179.06 345.62 1177.08 346.36 1174.9 346.36C1172.62 346.4 1170.68 345.66 1169.08 344.14C1167.5 342.6 1166.73 340.75 1166.77 338.59C1166.73 336.45 1167.48 334.61 1169.02 333.07C1170.56 331.53 1172.4 330.78 1174.54 330.82C1176.58 330.82 1178.25 331.48 1179.55 332.8C1180.87 334.12 1181.53 335.76 1181.53 337.72C1181.53 338.44 1181.44 339.18 1181.26 339.94ZM1170.85 337.09H1177.6C1177.58 336.19 1177.26 335.47 1176.64 334.93C1176.04 334.37 1175.29 334.09 1174.39 334.09C1173.53 334.09 1172.78 334.36 1172.14 334.9C1171.5 335.44 1171.07 336.17 1170.85 337.09ZM1183.34 343.48L1185.38 341.02C1186.66 342.36 1188.05 343.03 1189.55 343.03C1190.11 343.03 1190.56 342.93 1190.9 342.73C1191.26 342.51 1191.44 342.2 1191.44 341.8C1191.44 341.5 1191.33 341.27 1191.11 341.11C1190.91 340.93 1190.51 340.71 1189.91 340.45L1188.32 339.79C1186.9 339.21 1185.87 338.58 1185.23 337.9C1184.59 337.2 1184.27 336.32 1184.27 335.26C1184.27 333.88 1184.77 332.8 1185.77 332.02C1186.77 331.22 1188.09 330.82 1189.73 330.82C1191.93 330.82 1193.71 331.56 1195.07 333.04L1193.03 335.53C1192.03 334.59 1190.92 334.12 1189.7 334.12C1188.64 334.12 1188.11 334.47 1188.11 335.17C1188.11 335.45 1188.22 335.68 1188.44 335.86C1188.66 336.04 1189.07 336.25 1189.67 336.49L1191.11 337.09C1192.59 337.69 1193.65 338.33 1194.29 339.01C1194.95 339.69 1195.28 340.56 1195.28 341.62C1195.28 343.1 1194.73 344.26 1193.63 345.1C1192.55 345.94 1191.17 346.36 1189.49 346.36C1186.83 346.36 1184.78 345.4 1183.34 343.48ZM1196.99 343.48L1199.03 341.02C1200.31 342.36 1201.7 343.03 1203.2 343.03C1203.76 343.03 1204.21 342.93 1204.55 342.73C1204.91 342.51 1205.09 342.2 1205.09 341.8C1205.09 341.5 1204.98 341.27 1204.76 341.11C1204.56 340.93 1204.16 340.71 1203.56 340.45L1201.97 339.79C1200.55 339.21 1199.52 338.58 1198.88 337.9C1198.24 337.2 1197.92 336.32 1197.92 335.26C1197.92 333.88 1198.42 332.8 1199.42 332.02C1200.42 331.22 1201.74 330.82 1203.38 330.82C1205.58 330.82 1207.36 331.56 1208.72 333.04L1206.68 335.53C1205.68 334.59 1204.57 334.12 1203.35 334.12C1202.29 334.12 1201.76 334.47 1201.76 335.17C1201.76 335.45 1201.87 335.68 1202.09 335.86C1202.31 336.04 1202.72 336.25 1203.32 336.49L1204.76 337.09C1206.24 337.69 1207.3 338.33 1207.94 339.01C1208.6 339.69 1208.93 340.56 1208.93 341.62C1208.93 343.1 1208.38 344.26 1207.28 345.1C1206.2 345.94 1204.82 346.36 1203.14 346.36C1200.48 346.36 1198.43 345.4 1196.99 343.48ZM1216.73 329.08V331.15H1220V334.57H1216.73V346H1212.68V334.57H1210.58V331.15H1212.68V328.72C1212.68 326.88 1213.18 325.49 1214.18 324.55C1215.18 323.61 1216.59 323.14 1218.41 323.14C1219.17 323.14 1219.91 323.25 1220.63 323.47V326.86C1220.19 326.8 1219.79 326.77 1219.43 326.77C1218.49 326.77 1217.8 326.95 1217.36 327.31C1216.94 327.67 1216.73 328.26 1216.73 329.08ZM1222.1 339.46V331.15H1226.15V339.79C1226.15 340.65 1226.41 341.34 1226.93 341.86C1227.47 342.38 1228.15 342.64 1228.97 342.64C1229.77 342.64 1230.43 342.38 1230.95 341.86C1231.47 341.32 1231.73 340.63 1231.73 339.79V331.15H1235.78V339.46C1235.78 341.5 1235.13 343.16 1233.83 344.44C1232.55 345.72 1230.93 346.36 1228.97 346.36C1226.97 346.36 1225.32 345.73 1224.02 344.47C1222.74 343.19 1222.1 341.52 1222.1 339.46ZM1239.65 346V323.5H1243.7V346H1239.65Z" fill="white"/>
    <defs>
        <filter id="filter0_d" x="43" y="179" width="113" height="113" filterUnits="userSpaceOnUse" color-interpolation-filters="sRGB">
            <feFlood flood-opacity="0" result="BackgroundImageFix"/>
            <feColorMatrix in="SourceAlpha" type="matrix" values="0 0 0 0 0 0 0 0 0 0 0 0 0 0 0 0 0 0 127 0"/>
            <feOffset dy="4"/>
            <feGaussianBlur stdDeviation="24"/>
            <feColorMatrix type="matrix" values="0 0 0 0 1 0 0 0 0 0.286275 0 0 0 0 0.282353 0 0 0 1 0"/>
            <feBlend mode="normal" in2="BackgroundImageFix" result="effect1_dropShadow"/>
            <feBlend mode="normal" in="SourceGraphic" in2="effect1_dropShadow" result="shape"/>
        </filter>
        <filter id="filter1_d" x="253" y="179" width="113" height="113" filterUnits="userSpaceOnUse" color-interpolation-filters="sRGB">
            <feFlood flood-opacity="0" result="BackgroundImageFix"/>
            <feColorMatrix in="SourceAlpha" type="matrix" values="0 0 0 0 0 0 0 0 0 0 0 0 0 0 0 0 0 0 127 0"/>
            <feOffset dy="4"/>
            <feGaussianBlur stdDeviation="24"/>
            <feColorMatrix type="matrix" values="0 0 0 0 1 0 0 0 0 0.286275 0 0 0 0 0.282353 0 0 0 1 0"/>
            <feBlend mode="normal" in2="BackgroundImageFix" result="effect1_dropShadow"/>
            <feBlend mode="normal" in="SourceGraphic" in2="effect1_dropShadow" result="shape"/>
        </filter>
        <filter id="filter2_d" x="573" y="179" width="113" height="113" filterUnits="userSpaceOnUse" color-interpolation-filters="sRGB">
            <feFlood flood-opacity="0" result="BackgroundImageFix"/>
            <feColorMatrix in="SourceAlpha" type="matrix" values="0 0 0 0 0 0 0 0 0 0 0 0 0 0 0 0 0 0 127 0"/>
            <feOffset dy="4"/>
            <feGaussianBlur stdDeviation="24"/>
            <feColorMatrix type="matrix" values="0 0 0 0 1 0 0 0 0 0.286275 0 0 0 0 0.282353 0 0 0 1 0"/>
            <feBlend mode="normal" in2="BackgroundImageFix" result="effect1_dropShadow"/>
            <feBlend mode="normal" in="SourceGraphic" in2="effect1_dropShadow" result="shape"/>
        </filter>
        <filter id="filter3_d" x="930" y="179" width="113" height="113" filterUnits="userSpaceOnUse" color-interpolation-filters="sRGB">
            <feFlood flood-opacity="0" result="BackgroundImageFix"/>
            <feColorMatrix in="SourceAlpha" type="matrix" values="0 0 0 0 0 0 0 0 0 0 0 0 0 0 0 0 0 0 127 0"/>
            <feOffset dy="4"/>
            <feGaussianBlur stdDeviation="24"/>
            <feColorMatrix type="matrix" values="0 0 0 0 1 0 0 0 0 0.286275 0 0 0 0 0.282353 0 0 0 1 0"/>
            <feBlend mode="normal" in2="BackgroundImageFix" result="effect1_dropShadow"/>
            <feBlend mode="normal" in="SourceGraphic" in2="effect1_dropShadow" result="shape"/>
        </filter>
        <linearGradient id="paint0_linear" x1="234.5" y1="51" x2="234.5" y2="87" gradientUnits="userSpaceOnUse">
            <stop stop-color="#FFBC36"/>
            <stop offset="1" stop-color="#47505D"/>
        </linearGradient>
        <linearGradient id="paint1_linear" x1="452" y1="412" x2="452" y2="448" gradientUnits="userSpaceOnUse">
            <stop stop-color="#FFBC36"/>
            <stop offset="1" stop-color="#47505D"/>
        </linearGradient>
        <linearGradient id="paint2_linear" x1="773.5" y1="51" x2="773.5" y2="87" gradientUnits="userSpaceOnUse">
            <stop stop-color="#FFBC36"/>
            <stop offset="1" stop-color="#47505D"/>
        </linearGradient>
        <linearGradient id="paint3_linear" x1="1129" y1="412" x2="1129" y2="448" gradientUnits="userSpaceOnUse">
            <stop stop-color="#FFBC36"/>
            <stop offset="1" stop-color="#47505D"/>
        </linearGradient>
    </defs>
</svg>
