<svg viewBox="0 0 812 928" fill="none"
    xmlns="http://www.w3.org/2000/svg">
    <path fill-rule="evenodd" clip-rule="evenodd" d="M680.499 784.928C566.854 806.544 453.515 806.645 357.867 756.985C249.844 700.899 144.608 619.957 143.383 506.057C142.153 391.616 250.476 300.665 352.121 222.49C453.658 144.398 569.872 64.4259 697.124 80.1751C825.47 96.0598 899.868 198.861 959.736 297.691C1021.89 400.299 1092.87 518.982 1029.7 629.199C967.82 737.178 812.656 759.791 680.499 784.928Z" fill="#47505D"/>
    <path fill-rule="evenodd" clip-rule="evenodd" d="M644.719 794.515C531.209 816.095 417.997 816.162 322.443 766.477C214.525 710.363 109.383 629.395 108.126 515.504C106.862 401.072 215.035 310.162 316.542 232.023C417.94 153.969 533.999 74.0382 661.111 89.8247C789.317 105.747 863.662 208.562 923.492 307.402C985.609 410.021 1056.54 528.716 993.481 638.904C931.7 746.856 776.719 769.421 644.719 794.515Z" stroke="#96ADF1" stroke-width="0.5"/>
    <path fill-rule="evenodd" clip-rule="evenodd" d="M661.307 790.071C547.797 811.65 434.586 811.717 339.032 762.032C231.114 705.918 125.972 624.95 124.714 511.059C123.451 396.627 231.624 305.717 333.13 227.578C434.528 149.524 550.587 69.5932 677.7 85.3797C805.905 101.302 880.251 204.117 940.081 302.957C1002.2 405.576 1073.13 524.271 1010.07 634.46C948.289 742.411 793.307 764.976 661.307 790.071Z" stroke="#6286ED" stroke-width="0.5"/>
    <path fill-rule="evenodd" clip-rule="evenodd" d="M637.461 796.46C523.951 818.04 410.74 818.107 315.186 768.422C207.268 712.307 102.126 631.34 100.868 517.448C99.6046 403.016 207.777 312.106 309.284 233.968C410.682 155.914 526.741 75.9829 653.854 91.7694C782.059 107.692 856.405 210.507 916.234 309.347C978.351 411.965 1049.28 530.661 986.223 640.849C924.443 748.801 769.461 771.365 637.461 796.46Z" stroke="#AABEFA" stroke-width="0.5"/>
    <path fill-rule="evenodd" clip-rule="evenodd" d="M617.255 801.874C503.61 823.49 390.27 823.591 294.623 773.931C186.6 717.845 81.3636 636.903 80.1391 523.003C78.9088 408.562 187.232 317.612 288.877 239.436C390.414 161.345 506.628 81.3721 633.88 97.1213C762.226 113.006 836.624 215.807 896.492 314.637C958.648 417.245 1029.62 535.929 966.459 646.145C904.576 754.124 749.412 776.737 617.255 801.874Z" stroke="#C7D5FF" stroke-width="0.5"/>
</svg>
