<svg viewBox="0 0 813 928" fill="none"
    xmlns="http://www.w3.org/2000/svg">
    <path fill-rule="evenodd" clip-rule="evenodd" d="M681.499 784.928C567.854 806.544 454.515 806.645 358.867 756.985C250.844 700.899 145.608 619.957 144.383 506.057C143.153 391.616 251.476 300.665 353.121 222.49C454.658 144.398 570.872 64.4259 698.124 80.1751C826.47 96.0598 900.868 198.861 960.736 297.691C1022.89 400.299 1093.87 518.982 1030.7 629.199C968.82 737.178 813.656 759.791 681.499 784.928Z" fill="#E5E5E5"/>
    <path fill-rule="evenodd" clip-rule="evenodd" d="M645.718 794.515C532.209 816.095 418.997 816.162 323.443 766.477C215.525 710.363 110.383 629.395 109.126 515.504C107.862 401.072 216.035 310.162 317.542 232.023C418.94 153.969 534.999 74.0382 662.111 89.8247C790.317 105.747 864.662 208.562 924.492 307.402C986.609 410.021 1057.54 528.716 994.481 638.904C932.7 746.856 777.718 769.421 645.718 794.515Z" stroke="#96ADF1" stroke-width="0.5"/>
    <path fill-rule="evenodd" clip-rule="evenodd" d="M662.307 790.071C548.797 811.65 435.586 811.717 340.032 762.032C232.114 705.918 126.972 624.95 125.714 511.059C124.451 396.627 232.623 305.717 334.13 227.578C435.528 149.524 551.587 69.5932 678.7 85.3797C806.905 101.302 881.251 204.117 941.081 302.957C1003.2 405.576 1074.13 524.271 1011.07 634.46C949.289 742.411 794.307 764.976 662.307 790.071Z" stroke="#6286ED" stroke-width="0.5"/>
    <path fill-rule="evenodd" clip-rule="evenodd" d="M638.461 796.46C524.951 818.04 411.74 818.107 316.186 768.422C208.268 712.307 103.126 631.34 101.868 517.448C100.605 403.016 208.777 312.106 310.284 233.968C411.682 155.914 527.741 75.9829 654.854 91.7694C783.059 107.692 857.405 210.507 917.234 309.347C979.351 411.965 1050.28 530.661 987.223 640.849C925.443 748.801 770.461 771.365 638.461 796.46Z" stroke="#AABEFA" stroke-width="0.5"/>
    <path fill-rule="evenodd" clip-rule="evenodd" d="M618.255 801.874C504.61 823.49 391.27 823.591 295.623 773.931C187.6 717.845 82.3636 636.903 81.1391 523.003C79.9088 408.562 188.232 317.612 289.877 239.436C391.414 161.345 507.628 81.3721 634.88 97.1213C763.226 113.006 837.624 215.807 897.492 314.637C959.648 417.245 1030.62 535.929 967.459 646.145C905.576 754.124 750.412 776.737 618.255 801.874Z" stroke="#C7D5FF" stroke-width="0.5"/>
</svg>
