<svg width="50" height="50" viewBox="0 0 50 50" fill="none" xmlns="http://www.w3.org/2000/svg">
<path d="M24.6224 0.754883C10.998 0.754883 -7.62939e-06 11.7529 -7.62939e-06 25.3773C-7.62939e-06 39.0018 10.998 49.9998 24.6224 49.9998C38.2469 49.9998 49.2449 39.0018 49.2449 25.3773C49.2449 11.7529 38.2469 0.754883 24.6224 0.754883ZM38.411 31.1226C38.2469 36.2112 35.2922 39.0018 30.3677 39.1659C28.8903 39.1659 28.3979 39.3301 24.6224 39.3301C20.847 39.3301 20.3546 39.3301 18.8772 39.1659C13.7886 39.0018 10.998 36.0471 10.8339 31.1226C10.8339 29.6452 10.6697 29.1528 10.6697 25.3773C10.6697 21.6019 10.6697 21.1094 10.8339 19.6321C10.998 14.5435 13.9527 11.7529 18.8772 11.5888H24.6224C28.3979 11.5888 28.8903 11.5888 30.3677 11.7529C35.4563 11.9171 38.2469 14.8718 38.411 19.7962V25.5415C38.5752 29.1528 38.5752 29.6452 38.411 31.1226Z" fill="white"/>
<path d="M24.6228 20.7812C21.9964 20.7812 20.0266 22.9152 20.0266 25.3774C20.0266 28.0038 22.1606 29.9736 24.6228 29.9736C27.2492 29.9736 29.219 27.8397 29.219 25.3774C29.219 22.9152 27.2492 20.7812 24.6228 20.7812Z" fill="white"/>
<path d="M30.2038 14.0513C28.7264 14.0513 28.234 14.0513 24.6227 14.0513C20.8473 14.0513 20.519 14.0513 19.0416 14.0513C15.2662 14.2154 13.4605 16.0211 13.2964 19.7965V25.3776C13.2964 25.3776 13.2964 29.4813 13.2964 30.9587C13.4605 34.7341 15.2662 36.5398 19.0416 36.7039H24.6227H30.2038C33.9792 36.5398 35.7849 34.7341 35.949 30.9587C35.949 29.4813 35.949 28.9889 35.949 25.3776C35.949 21.6022 35.949 21.2739 35.949 19.7965C35.7849 16.0211 33.9792 14.2154 30.2038 14.0513ZM24.6227 32.6002C20.6831 32.6002 17.4001 29.3172 17.4001 25.3776C17.4001 21.438 20.6831 18.155 24.6227 18.155C28.5623 18.155 31.8453 21.438 31.8453 25.3776C31.8453 29.3172 28.5623 32.6002 24.6227 32.6002ZM32.0094 19.6324C31.0245 19.6324 30.3679 18.8116 30.3679 17.8267C30.3679 17.006 31.0245 16.3494 32.0094 16.1852C32.9943 16.1852 33.6509 17.006 33.6509 17.8267C33.6509 18.8116 32.9943 19.6324 32.0094 19.6324Z" fill="white"/>
</svg>
