<svg viewBox="0 0 50 50" fill="none"
    xmlns="http://www.w3.org/2000/svg">
    <path fill-rule="evenodd" clip-rule="evenodd" d="M24.7042 0C11.1061 0 0.0817719 11.0243 0.0817719 24.6224C0.0817719 38.2206 11.1061 49.2449 24.7042 49.2449C38.3024 49.2449 49.3267 38.2206 49.3267 24.6224C49.3267 11.0243 38.3024 0 24.7042 0ZM18.135 36.5266H12.7295V19.0611H18.135V36.5266ZM15.4068 16.7728C14.5555 16.7693 13.7405 16.4279 13.1409 15.8237C12.5412 15.2195 12.2061 14.4018 12.2091 13.5506C12.2091 11.7712 13.6405 10.3283 15.4068 10.3283C17.1714 10.3283 18.6028 11.7712 18.6028 13.5506C18.6045 13.972 18.5232 14.3896 18.3635 14.7796C18.2039 15.1696 17.9689 15.5244 17.6721 15.8236C17.3754 16.1228 17.0226 16.3606 16.6339 16.5235C16.2452 16.6864 15.8282 16.7711 15.4068 16.7728ZM38.3943 36.5266H33.0151V27.3588C33.0151 24.8441 32.0598 23.4406 30.0703 23.4406C27.9068 23.4406 26.7758 24.9015 26.7758 27.3588V36.5266H21.5919V19.0611H26.7758V21.4133C26.7758 21.4133 28.3352 18.5276 32.0401 18.5276C35.7433 18.5276 38.3927 20.7896 38.3927 25.4678L38.3943 36.5266Z" fill="white"/>
</svg>
