<svg xmlns="http://www.w3.org/2000/svg" fill="none" viewBox="0 0 63 52"><path fill="#fff" d="M48.4629 37.3984H62.9887C63.0099 37.9967 62.994 38.5696 62.9982 39.1903H60.8603V50.211H58.9566V44.286H55.6315V44.7257C55.6315 44.9652 55.6315 45.2069 55.6081 45.4444C55.5272 46.2003 54.9491 46.5857 54.1463 46.4207C54.0008 46.3891 53.8611 46.3352 53.7321 46.261C52.9612 45.839 52.3774 45.1422 52.0967 44.3094C52.0325 44.1027 52.003 43.8869 52.0094 43.6706C52.0094 43.0828 52.3437 42.7017 52.924 42.6059C53.1391 42.5753 53.3562 42.5607 53.5735 42.5622H58.9374V39.2275H48.6535V42.5281H48.2531C47.5078 42.5537 46.7689 42.5654 46.0279 42.6133C45.5596 42.652 45.1041 42.786 44.6896 43.0073C43.281 43.7291 43.4119 45.8096 44.4213 46.5336C44.9086 46.8794 45.481 47.0859 46.0769 47.1309C46.3782 47.1575 46.6848 47.1309 46.9861 47.1309V46.5719C46.9861 45.7957 47.4024 45.2942 48.1658 45.1718C49.1528 45.0206 50.1377 45.5668 50.3261 46.5644C50.3972 46.8966 50.3656 47.2425 50.2355 47.5562C50.1054 47.87 49.8831 48.1368 49.5979 48.3212L49.3945 48.4532C49.8046 49.2188 50.2757 49.9501 50.8031 50.6401L49.2241 51.4323C48.6818 50.589 48.1918 49.7133 47.757 48.8099C47.0443 48.8916 46.3242 48.883 45.6137 48.7843C44.8744 48.6804 44.1646 48.4244 43.529 48.0327C42.4846 47.3651 41.9213 46.3994 41.7989 45.1771C41.7393 44.5841 41.7531 43.9868 41.9511 43.4129C42.2886 42.4366 42.9647 41.7754 43.8964 41.3602C44.6928 41.0056 45.5403 40.8959 46.3995 40.8395L46.7189 40.8182V39.2094H40.8737C40.8549 39.1249 40.8421 39.0392 40.8353 38.9529V37.7519C40.8353 37.4325 40.8726 37.4037 41.1984 37.4026H46.6444C46.3654 36.4135 46.0992 35.4702 45.5509 34.6344C45.0675 33.9008 44.3797 33.6474 43.5333 33.7826C43.1979 33.8359 42.87 33.9381 42.4899 34.0297C42.3057 33.4909 42.1172 32.9362 41.9245 32.3719C42.2403 32.2216 42.5782 32.1231 42.9253 32.0802C43.4784 31.9831 44.0432 31.9741 44.5991 32.0536C45.3441 32.1609 46.0249 32.5346 46.5155 33.1055C46.9331 33.5769 47.2656 34.1173 47.4983 34.7025C47.806 35.4755 48.0711 36.2666 48.35 37.0502C48.394 37.1641 48.4316 37.2804 48.4629 37.3984Z"/><path fill="#fff" d="M29.8519 37.4312V39.1752C29.5176 39.1975 29.179 39.1826 28.8415 39.1858C28.504 39.189 28.1803 39.1858 27.7991 39.1858C27.7746 39.7107 27.7906 40.2196 27.7874 40.7275V50.0778H26.1659V44.1495H22.5821C22.5821 44.2975 22.5704 44.4423 22.5661 44.586C22.5597 44.8607 22.5736 45.1365 22.5448 45.408C22.4575 46.2331 21.8176 46.4226 21.2097 46.2768C21.0875 46.2463 20.97 46.1993 20.8604 46.1373C20.1208 45.7305 19.5622 45.0593 19.2964 44.2581C19.2362 44.0616 19.2092 43.8565 19.2165 43.6512C19.2229 43.154 19.4987 42.8335 19.9885 42.7505C20.2142 42.7158 20.4425 42.6998 20.6709 42.7025H26.1393V39.2103H11.8914V42.6823H17.0179C17.0967 42.9677 17.1074 44.0526 17.0382 44.4423H11.8946V48.3444H17.9378V50.0746H9.69275V37.4312H29.8519Z"/><path fill="#fff" d="M2.20461 48.3423H7.90611C7.98809 48.6053 8.00193 49.6434 7.93486 50.0756H0.0688117C0.00173528 49.8265 -0.0291409 38.169 0.0358061 37.4749C0.266847 37.3971 1.69781 37.3758 2.20461 37.4493V48.3423Z"/><path fill="#fff" d="M31.6671 45.1345V43.9441H36.9768C37.0063 44.3402 37.0116 44.7377 36.9928 45.1345H31.6671Z"/><path fill="#fff" fill-rule="evenodd" d="M16.2735 7.37178L16.222 10.3302C16.222 10.3302 19.4038 10.8866 21.3527 10.0392C23.3016 9.1918 27.5156 5.97936 27.5156 5.97936C26.9415 5.47698 26.3733 4.99953 25.7816 4.52298C24.5327 3.51612 23.1318 2.45702 22.2638 1.97116C19.7739 0.57757 16.9333 0.0232432 13.8938 0.213775C12.3762 0.430094 10.9055 0.910231 9.54461 1.63364C7.49671 2.72397 5.67112 4.41668 4.29277 6.61236C2.97641 8.71303 2.19996 11.1228 2.03614 13.6162C1.87756 15.9898 2.24221 18.3696 3.1029 20.578C4.12825 23.2136 5.47833 24.9745 6.83664 26.1894C7.53937 26.8179 8.35161 27.3948 9.29832 27.9194C11.1318 28.9349 13.1609 29.5265 15.2887 29.6913C17.1855 29.7127 19.0428 29.4268 20.8277 28.8052C24.1328 27.6542 26.2362 25.6648 28.6643 23.1514C30.2935 21.4653 34.946 16.426 35.4926 15.7722C35.8702 15.3203 37.6453 13.4973 39.2497 12.3658C39.8354 11.9478 40.4574 11.5863 41.108 11.2857C41.8737 10.9344 42.8295 10.6338 43.9359 10.4131C44.6038 10.28 45.2217 10.2008 45.7733 10.1845C46.2697 10.1698 46.708 10.2035 47.2488 10.247L47.37 7.75434L55.4904 14.6089L47.37 21.6713L47.3741 18.7427C46.9352 18.6219 46.5705 18.6394 46.1176 18.588C45.3207 18.4979 43.8004 18.5027 43.0067 18.6388C42.1237 18.6147 40.67 19.1231 39.3752 19.9414C37.8965 20.8467 36.5588 22.5226 35.8465 23.4433C37.6821 24.997 39.638 27.2386 41.794 28.2569C43.634 29.1254 45.6039 29.6675 47.6203 29.86C50.4697 29.7971 53.238 28.8726 55.58 27.202C57.8288 25.5945 59.6653 23.316 60.7086 20.62C61.1779 19.4078 61.5082 18.0295 61.6524 16.4431C61.8125 14.6762 61.6878 12.8942 61.283 11.1692C60.6292 8.666 59.3829 6.38744 57.6314 4.5449C55.3943 2.19157 52.6733 0.583245 49.8746 0.151916C47.0759 -0.279414 44.1485 0.212784 41.6334 1.56428C38.6049 3.37769 35.9893 5.67487 33.629 8.08916C32.1996 9.55154 30.5154 11.6514 28.6643 13.4054C27.0869 14.9009 25.3997 16.2692 23.6177 17.498C21.4127 18.899 18.7645 19.3641 16.2324 18.7949V22.6452L7.69828 14.9663L16.2735 7.37178Z" clip-rule="evenodd"/></svg>