<svg xmlns="http://www.w3.org/2000/svg" fill="none" viewBox="0 0 147 128"><path fill="url(#paint0_linear)" d="M7.93351 64.0861C3.57477 83.9984 16.1877 103.873 36.2432 108.263C56.2987 112.653 76.0612 99.8655 80.4199 79.9532C84.7787 60.0409 72.1971 40.0233 52.1416 35.6332C47.844 34.6925 43.3582 34.6113 39.0336 35.1658C41.8686 26.3289 46.4855 17.5819 52.9824 9.84686C53.5376 9.36793 53.7257 8.5084 53.5647 7.87267C53.5155 7.41155 53.1798 6.88771 52.75 6.79364C52.2084 6.52496 51.4608 6.51143 50.6191 6.92765C40.3932 12.4954 30.843 20.4628 23.4773 30.1093C16.7295 38.9903 11.8618 48.8834 8.98615 59.9631C8.52932 61.3643 8.21573 62.7969 7.93351 64.0861Z"/><path fill="url(#paint1_linear)" d="M59.5045 75.3748C55.1458 95.2871 67.7586 115.161 87.8142 119.552C107.87 123.942 127.632 111.154 131.991 91.2419C136.35 71.3296 123.768 51.312 103.713 46.9219C99.415 45.9812 94.9292 45.9 90.6045 46.4545C93.4396 37.6176 98.0564 28.8706 104.553 21.1356C105.109 20.6566 105.297 19.7971 105.136 19.1614C105.086 18.7002 104.751 18.1764 104.321 18.0823C103.779 17.8137 103.032 17.8001 102.19 18.2163C91.9642 23.7841 82.414 31.7515 75.0483 41.398C68.3005 50.279 63.4328 60.1721 60.5571 71.2518C60.1003 72.653 59.7867 74.0855 59.5045 75.3748Z"/><defs><linearGradient id="paint0_linear" x1="36.243" x2="58.205" y1="108.263" y2="7.934" gradientUnits="userSpaceOnUse"><stop stop-color="#F2F2F2" stop-opacity=".6"/><stop offset="1" stop-color="#EBEBEB" stop-opacity="0"/></linearGradient><linearGradient id="paint1_linear" x1="87.814" x2="109.776" y1="119.552" y2="19.222" gradientUnits="userSpaceOnUse"><stop stop-color="#F2F2F2" stop-opacity=".6"/><stop offset="1" stop-color="#EBEBEB" stop-opacity="0"/></linearGradient></defs></svg>