<svg viewBox="0 0 165 166" fill="none"
    xmlns="http://www.w3.org/2000/svg">
    <path d="M100.116 149.483C86.9769 153.004 73.0891 152.55 60.2085 148.178C47.3279 143.806 36.033 135.713 27.7521 124.921C19.4713 114.13 14.5764 101.126 13.6864 87.5526C12.7965 73.9794 15.9516 60.4471 22.7526 48.6671C29.5536 36.887 39.6951 27.3883 51.8946 21.3721C64.0941 15.3559 77.8037 13.0924 91.2896 14.8679C104.776 16.6433 117.432 22.3781 127.659 31.3468C137.885 40.3155 145.223 52.1154 148.743 65.2543C153.442 82.8713 150.961 101.633 141.845 117.423C132.729 133.213 117.722 144.743 100.116 149.483V149.483ZM65.0319 18.5437C52.2726 21.9615 40.8133 29.0862 32.1033 39.0168C23.3933 48.9474 17.8237 61.2379 16.099 74.334C14.3743 87.4301 16.5719 100.743 22.4138 112.591C28.2558 124.438 37.4797 134.286 48.9191 140.891C60.3585 147.496 73.4996 150.56 86.6805 149.696C99.8613 148.832 112.49 144.078 122.969 136.037C133.449 127.995 141.308 117.027 145.553 104.518C149.799 92.0099 150.239 78.5235 146.82 65.7647C142.216 48.6693 131.021 34.0975 115.688 25.2453C100.356 16.393 82.1387 13.983 65.0319 18.5437V18.5437Z" fill="#98FF83"/>
    <path d="M160.468 62.094C159.376 61.4377 158.561 60.4058 158.176 59.1917C157.791 57.9775 157.861 56.6645 158.374 55.4987C158.657 54.8498 158.805 54.1504 158.81 53.4426C158.815 52.7349 158.676 52.0335 158.402 51.3809C158.128 50.7283 157.725 50.1381 157.216 49.6459C156.707 49.1537 156.104 48.7697 155.443 48.5173C154.251 48.0652 153.265 47.1936 152.669 46.066C152.074 44.9384 151.911 43.6323 152.211 42.393C152.377 41.7015 152.401 40.9833 152.281 40.2822C152.16 39.5812 151.898 38.9121 151.511 38.3157C151.123 37.7193 150.618 37.2082 150.026 36.8135C149.435 36.4188 148.769 36.1488 148.069 36.0201C146.816 35.7881 145.691 35.1072 144.905 34.105C144.118 33.1028 143.724 31.8482 143.797 30.5763C143.837 29.8646 143.731 29.1521 143.486 28.4827C143.241 27.8132 142.862 27.2009 142.372 26.6832C141.881 26.1655 141.291 25.7534 140.636 25.4721C139.981 25.1908 139.275 25.0463 138.562 25.0475C137.29 25.0431 136.063 24.5759 135.111 23.733C134.159 22.8901 133.546 21.7292 133.387 20.4674C133.3 19.761 133.07 19.0798 132.711 18.4653C132.352 17.8509 131.872 17.316 131.299 16.8935C130.727 16.4709 130.074 16.1696 129.381 16.0078C128.688 15.846 127.969 15.8273 127.269 15.9527V15.9527C126.019 16.1693 124.732 15.9245 123.649 15.2638C122.566 14.603 121.76 13.5713 121.38 12.3606C121.169 11.6812 120.821 11.0521 120.358 10.5116C119.896 9.97115 119.327 9.53071 118.689 9.21718C118.05 8.90365 117.354 8.72362 116.644 8.68809C115.933 8.65256 115.223 8.76228 114.556 9.01053C113.357 9.45222 112.037 9.43989 110.846 8.97586C109.655 8.51182 108.676 7.62815 108.091 6.49147C107.762 5.86167 107.307 5.30561 106.756 4.85721C106.204 4.40882 105.567 4.07747 104.883 3.8834C104.199 3.68932 103.483 3.63657 102.778 3.72837C102.073 3.82017 101.394 4.05459 100.783 4.41734C99.6846 5.0643 98.388 5.28833 97.1364 5.04741C95.8848 4.80648 94.7641 4.11715 93.9846 3.10873C93.548 2.54731 93.0016 2.08075 92.3787 1.73751C91.7558 1.39428 91.0695 1.18157 90.3617 1.11238C89.6539 1.04319 88.9394 1.11897 88.2618 1.33508C87.5843 1.5512 86.9579 1.90312 86.4208 2.36937C85.4584 3.20492 84.2242 3.66062 82.9497 3.65099C81.6752 3.64135 80.448 3.16704 79.4983 2.31703C78.9665 1.84393 78.3437 1.48428 77.6681 1.26007C76.9925 1.03587 76.2782 0.951819 75.5691 1.01306C74.8599 1.0743 74.1706 1.27955 73.5435 1.61626C72.9163 1.95297 72.3644 2.41405 71.9215 2.97133C71.1238 3.96454 69.9913 4.63277 68.7362 4.85079C67.4811 5.0688 66.1896 4.82164 65.1037 4.15562C64.4978 3.78329 63.8225 3.53831 63.1188 3.43564C62.4151 3.33296 61.6979 3.37474 61.011 3.55843C60.324 3.74211 59.6816 4.06385 59.1231 4.50401C58.5646 4.94416 58.1016 5.49351 57.7624 6.11852C57.1547 7.23813 56.1596 8.0977 54.9635 8.53614C53.7674 8.97458 52.4525 8.9618 51.2652 8.50018C50.6009 8.24303 49.8911 8.12419 49.1792 8.15094C48.4673 8.17768 47.7684 8.34945 47.1253 8.65572C46.4821 8.96198 45.9082 9.39631 45.4388 9.9321C44.9693 10.4679 44.6141 11.0939 44.395 11.7717C43.9977 12.9824 43.1724 14.0066 42.0738 14.6523C40.9752 15.2979 39.6789 15.5207 38.4278 15.2787C37.7298 15.1431 37.0115 15.151 36.3168 15.3021C35.622 15.4532 34.9652 15.7443 34.3866 16.1576C33.8081 16.5709 33.3197 17.0977 32.9515 17.7059C32.5832 18.3141 32.3427 18.991 32.2447 19.6953C32.0698 20.9554 31.442 22.1086 30.4787 22.9395C29.5153 23.7704 28.2824 24.222 27.0103 24.21C26.3016 24.2024 25.5989 24.3387 24.9445 24.6108C24.2902 24.8829 23.6979 25.285 23.2036 25.7928C22.7092 26.3006 22.3232 26.9035 22.0688 27.5649C21.8143 28.2263 21.6969 28.9325 21.7235 29.6407C21.7764 30.914 21.3629 32.1628 20.5606 33.153C19.7584 34.1432 18.6224 34.8067 17.3658 35.019C16.6646 35.1362 15.9945 35.395 15.3966 35.7797C14.7986 36.1644 14.2853 36.6669 13.8879 37.2565C13.4906 37.8461 13.2175 38.5105 13.0854 39.2091C12.9533 39.9077 12.9648 40.6259 13.1194 41.3199C13.3995 42.5632 13.2164 43.8659 12.6045 44.9838C11.9925 46.1016 10.9938 46.9579 9.79558 47.3919C9.12615 47.6333 8.51299 48.0088 7.99357 48.4953C7.47415 48.9817 7.05939 49.569 6.77462 50.2212C6.48986 50.8734 6.34108 51.5768 6.33738 52.2885C6.33367 53.0001 6.47512 53.705 6.75308 54.3602C7.24378 55.5304 7.29269 56.839 6.89069 58.0426C6.4887 59.2462 5.66318 60.2627 4.56771 60.9032C3.95227 61.2605 3.41615 61.7396 2.99213 62.3111C2.56811 62.8827 2.26508 63.5347 2.10157 64.2273C1.93807 64.9199 1.91751 65.6386 2.04116 66.3394C2.16481 67.0402 2.43007 67.7085 2.82073 68.3033C3.51884 69.3691 3.80431 70.6528 3.62363 71.9139C3.44296 73.1751 2.80853 74.327 1.83927 75.1539C1.29792 75.6152 0.856267 76.182 0.541279 76.8198C0.22629 77.4575 0.0445739 78.1527 0.00722277 78.863C-0.0301283 79.5733 0.0776688 80.2837 0.324035 80.9509C0.570402 81.6182 0.950169 82.2282 1.44015 82.7438C2.31625 83.6668 2.82606 84.8774 2.87423 86.1491C2.9224 87.4208 2.50563 88.6665 1.70187 89.6532C1.25076 90.2039 0.916712 90.8408 0.720147 91.5249C0.523582 92.2091 0.468633 92.9262 0.558661 93.6323C0.648688 94.3384 0.881801 95.0188 1.24374 95.6318C1.60568 96.2447 2.08885 96.7774 2.66369 97.1973C3.69245 97.9493 4.41157 99.0507 4.68621 100.295C4.96085 101.539 4.77216 102.841 4.1555 103.956V103.956C3.81139 104.578 3.59764 105.264 3.52732 105.972C3.45699 106.679 3.53156 107.394 3.74646 108.072C3.96137 108.749 4.31211 109.376 4.77729 109.914C5.24246 110.452 5.81232 110.889 6.4521 111.199C7.59811 111.756 8.50156 112.712 8.99302 113.888C9.48449 115.064 9.53022 116.378 9.12165 117.585C8.89368 118.259 8.80545 118.972 8.86234 119.681C8.91924 120.391 9.12007 121.081 9.45256 121.709C9.78506 122.338 10.2422 122.893 10.7962 123.339C11.3502 123.785 11.9893 124.114 12.6745 124.305V124.305C13.9013 124.648 14.9609 125.427 15.6547 126.495C16.3485 127.564 16.6289 128.848 16.4433 130.109C16.3398 130.812 16.3806 131.529 16.5632 132.215C16.7458 132.902 17.0663 133.545 17.5052 134.104C17.9442 134.663 18.4923 135.126 19.1163 135.467C19.7403 135.807 20.427 136.016 21.1346 136.082C22.403 136.201 23.5845 136.778 24.4577 137.706C25.331 138.633 25.8361 139.847 25.8783 141.121C25.8982 141.831 26.0626 142.531 26.3617 143.176C26.6608 143.821 27.0881 144.398 27.6178 144.873C28.1474 145.348 28.7681 145.709 29.4422 145.936C30.1162 146.162 30.8293 146.249 31.538 146.191C32.8072 146.081 34.0729 146.438 35.0979 147.195C36.123 147.951 36.837 149.055 37.1061 150.3C37.2584 150.994 37.5502 151.649 37.9637 152.227C38.3773 152.804 38.904 153.291 39.5118 153.658C40.1196 154.026 40.7958 154.265 41.4992 154.363C42.2026 154.461 42.9185 154.414 43.6033 154.226C44.8321 153.892 46.1405 154.018 47.2834 154.579C48.4264 155.14 49.3256 156.099 49.8127 157.275C50.0844 157.933 50.4874 158.528 50.997 159.025C51.5066 159.522 52.1121 159.909 52.7765 160.164C53.4409 160.419 54.1503 160.535 54.8613 160.507C55.5724 160.478 56.2701 160.305 56.9118 159.997C58.067 159.442 59.3859 159.329 60.6185 159.681C61.851 160.034 62.9115 160.826 63.5988 161.908C63.9834 162.507 64.486 163.021 65.0761 163.419C65.6662 163.817 66.3312 164.091 67.0306 164.223C67.73 164.355 68.449 164.343 69.1437 164.188C69.8384 164.033 70.4942 163.738 71.0709 163.321V163.321C72.1017 162.575 73.3691 162.229 74.6359 162.35C75.9028 162.47 77.0825 163.048 77.9542 163.975C78.4393 164.496 79.0255 164.912 79.677 165.199C80.3284 165.485 81.0314 165.635 81.743 165.641C82.4546 165.646 83.1598 165.507 83.8156 165.231C84.4714 164.954 85.064 164.547 85.5571 164.034C86.4405 163.116 87.6283 162.552 88.8978 162.447C90.1674 162.343 91.4316 162.704 92.4535 163.465C93.0242 163.889 93.6753 164.193 94.3671 164.357C95.059 164.521 95.777 164.543 96.4775 164.42C97.1779 164.298 97.8461 164.034 98.4411 163.645C99.0362 163.255 99.5458 162.749 99.9387 162.156C100.65 161.103 101.719 160.344 102.949 160.021C104.178 159.699 105.482 159.834 106.619 160.403C107.256 160.72 107.951 160.903 108.662 160.942C109.372 160.981 110.083 160.875 110.752 160.63C111.42 160.385 112.031 160.007 112.548 159.518C113.064 159.029 113.476 158.439 113.758 157.786C114.262 156.616 115.175 155.67 116.327 155.126C117.478 154.582 118.789 154.476 120.013 154.828C120.695 155.024 121.41 155.079 122.115 154.99C122.819 154.901 123.498 154.669 124.11 154.309C124.722 153.949 125.255 153.469 125.675 152.896C126.095 152.324 126.395 151.673 126.556 150.981C126.844 149.739 127.575 148.645 128.612 147.905C129.649 147.164 130.921 146.827 132.189 146.957C132.897 147.029 133.611 146.956 134.29 146.742C134.968 146.529 135.596 146.179 136.135 145.715C136.673 145.251 137.112 144.682 137.424 144.043C137.735 143.404 137.913 142.708 137.947 141.997C138.009 140.724 138.532 139.518 139.42 138.603C140.308 137.689 141.499 137.13 142.769 137.031C143.477 136.976 144.165 136.777 144.794 136.447C145.422 136.118 145.977 135.664 146.424 135.113C146.871 134.562 147.202 133.926 147.396 133.244C147.59 132.561 147.643 131.846 147.552 131.142V131.142C147.386 129.88 147.685 128.6 148.395 127.543C149.104 126.485 150.175 125.723 151.406 125.398C152.094 125.217 152.738 124.897 153.298 124.459C153.859 124.021 154.324 123.473 154.666 122.849C155.008 122.226 155.219 121.538 155.286 120.83C155.353 120.122 155.275 119.407 155.057 118.73C154.668 117.518 154.735 116.205 155.244 115.038C155.754 113.871 156.671 112.929 157.825 112.39C158.467 112.089 159.042 111.661 159.514 111.13C159.986 110.6 160.345 109.98 160.57 109.307C160.794 108.634 160.88 107.922 160.82 107.214C160.761 106.507 160.559 105.819 160.226 105.193C159.627 104.069 159.458 102.766 159.75 101.526C160.043 100.287 160.777 99.1969 161.816 98.4601C162.397 98.0493 162.888 97.5244 163.259 96.9174C163.63 96.3105 163.874 95.6343 163.975 94.9301C164.076 94.2259 164.032 93.5085 163.847 92.8217C163.661 92.1349 163.337 91.4932 162.896 90.9356C162.105 89.9373 161.705 88.6849 161.771 87.413C161.837 86.1411 162.365 84.937 163.255 84.0262C163.754 83.5183 164.143 82.9141 164.4 82.2507C164.657 81.5872 164.775 80.8784 164.749 80.1675C164.723 79.4565 164.552 78.7584 164.247 78.1158C163.941 77.4731 163.508 76.8995 162.974 76.4298C162.018 75.5883 161.401 74.427 161.24 73.1635C161.078 71.9 161.383 70.621 162.097 69.5661C162.505 68.9761 162.787 68.3086 162.926 67.6051C163.064 66.9016 163.057 66.1771 162.904 65.4765C162.752 64.7759 162.457 64.1141 162.038 63.5322C161.618 62.9504 161.084 62.4609 160.468 62.094V62.094ZM100.894 152.348C87.1879 156.023 72.7001 155.55 59.2625 150.991C45.825 146.431 34.0414 137.989 25.4019 126.732C16.7624 115.475 11.6551 101.909 10.7258 87.7497C9.79655 73.5901 13.0871 59.4729 20.1812 47.1835C27.2754 34.8941 37.8546 24.9844 50.5809 18.7076C63.3073 12.4308 77.6091 10.0689 91.6778 11.9206C105.747 13.7722 118.95 19.7543 129.619 29.1102C140.288 38.4661 147.943 50.7757 151.615 64.4822C154.055 73.582 154.678 83.0732 153.449 92.4137C152.22 101.754 149.163 110.761 144.453 118.92C139.743 127.08 133.472 134.231 125.998 139.967C118.524 145.702 109.994 149.91 100.894 152.348V152.348Z" fill="#98FF83"/>
    <path d="M93.4548 124.619C85.2336 126.823 76.5436 126.539 68.4837 123.804C60.4238 121.069 53.3559 116.005 48.174 109.253C42.9921 102.501 39.9288 94.3635 39.3716 85.8704C38.8144 77.3772 40.7883 68.9096 45.0436 61.5383C49.2989 54.167 55.6445 48.2232 63.278 44.4584C70.9115 40.6936 79.4899 39.277 87.9285 40.3877C96.3671 41.4984 104.287 45.0866 110.686 50.6984C117.085 56.3103 121.677 63.6937 123.88 71.9151C126.819 82.9381 125.267 94.677 119.563 104.557C113.86 114.437 104.47 121.652 93.4548 124.619ZM71.6927 43.4072C63.851 45.5072 56.8081 49.8854 51.4548 55.9882C46.1014 62.091 42.6781 69.6442 41.6176 77.6926C40.5571 85.7411 41.9071 93.9233 45.4969 101.204C49.0868 108.486 54.7552 114.539 61.7853 118.598C68.8154 122.658 76.8914 124.541 84.9921 124.011C93.0927 123.481 100.854 120.56 107.295 115.618C113.736 110.677 118.566 103.936 121.176 96.2489C123.786 88.5618 124.057 80.2734 121.956 72.432C119.127 61.9258 112.247 52.9703 102.824 47.5293C93.4019 42.0883 82.2064 40.6059 71.6927 43.4072V43.4072Z" fill="#98FF83"/>
    <path d="M27.344 77.2085L28.1292 72.347L30.5566 72.7396L29.7715 77.6011L27.344 77.2085Z" fill="#98FF83"/>
    <path d="M36.7725 63.2913C35.8952 63.9272 34.8568 64.3036 33.7758 64.3775C32.6649 64.4363 31.558 64.2033 30.5651 63.7017C29.5722 63.2001 28.7278 62.4473 28.1161 61.5182C27.5412 60.6039 27.2288 59.5491 27.2131 58.4691C27.2214 57.3919 27.4591 56.3289 27.9104 55.3507C28.3617 54.3725 29.0162 53.5018 29.8303 52.7963C30.5376 52.2084 31.3775 51.8019 32.2774 51.6121L33.043 54.4059C32.5129 54.5043 32.0128 54.7238 31.5815 55.0472C31.1502 55.3707 30.7995 55.7894 30.5566 56.2707C30.2767 56.7976 30.1391 57.3885 30.1575 57.985C30.183 58.5509 30.3691 59.0978 30.694 59.5618C31.0529 60.0589 31.5295 60.4591 32.0811 60.7265C32.6242 61.0102 33.2285 61.1562 33.8412 61.1518C34.4089 61.1421 34.9615 60.967 35.4312 60.648C36.1197 60.1651 36.6146 59.4536 36.8279 58.6401C37.0411 57.8266 36.9589 56.9638 36.5958 56.2053L39.2719 55.1715C39.6539 56.0094 39.8247 56.9283 39.7692 57.8476C39.7072 58.8462 39.4352 59.8205 38.9709 60.7068C38.4607 61.7353 37.7058 62.6227 36.7725 63.2913V63.2913Z" fill="#98FF83"/>
    <path d="M46.3383 45.9002L48.3012 47.5817L42.1246 54.7791L33.1606 47.0518L39.1998 40.0115L41.1627 41.693L37.2827 46.2077L38.7876 47.5163L42.2096 43.5382L44.1006 45.1608L40.6982 49.1717L42.3339 50.5784L46.3383 45.9002Z" fill="#98FF83"/>
    <path d="M52.1876 40.6658L50.7023 41.7192L52.5148 44.2775L49.7929 46.2404L42.9685 36.5502L47.372 33.4292C48.1378 32.8592 49.0168 32.4599 49.9499 32.258C50.7381 32.0854 51.5597 32.1492 52.3119 32.4412C53.0445 32.7639 53.6778 33.2758 54.147 33.9244C54.6162 34.573 54.9042 35.3347 54.9815 36.1314C55.0171 36.9026 54.8309 37.6679 54.445 38.3364L58.6652 39.8937L55.747 41.9744L52.1876 40.6658ZM50.2247 35.1958C49.6681 35.1811 49.1248 35.3669 48.6936 35.7192L47.2411 36.7399L49.204 39.5862L50.7154 38.5131C51.1908 38.2284 51.5483 37.7826 51.7231 37.2568C51.778 37.0236 51.7789 36.7809 51.7256 36.5473C51.6723 36.3136 51.5662 36.0953 51.4155 35.909C51.2894 35.7076 51.12 35.5368 50.9197 35.4089C50.7194 35.2811 50.4932 35.1993 50.2574 35.1696L50.2247 35.1958Z" fill="#98FF83"/>
    <path d="M59.1298 29.8499L55.7471 31.1977L54.7656 28.7376L64.5801 24.8118L65.5616 27.2719L62.2116 28.5805L65.6074 37.0865L62.5126 38.3296L59.1298 29.8499Z" fill="#98FF83"/>
    <path d="M68.179 24.0529L71.4505 23.3594L73.8976 34.9078L70.626 35.6014L68.179 24.0529Z" fill="#98FF83"/>
    <path d="M79.5899 25.0146L79.675 27.6318L84.9094 27.4551L85.001 30.0331L79.7666 30.2097L79.9105 34.2533L76.5671 34.3711L76.1614 22.5937L85.4132 22.2731L85.5048 24.851L79.5899 25.0146Z" fill="#98FF83"/>
    <path d="M89.3785 22.7378L92.6893 23.2089L91.0274 34.8947L87.7559 34.4302L89.3785 22.7378Z" fill="#98FF83"/>
    <path d="M103.511 35.8106L102.7 38.2576L93.7031 35.274L97.4261 24.0724L106.213 26.9906L105.396 29.4377L99.775 27.5794L99.1207 29.4704L104.1 31.1192L103.341 33.4682L98.3618 31.8193L97.7075 33.8673L103.511 35.8106Z" fill="#98FF83"/>
    <path d="M111.016 29.15L115.694 32.1991C116.704 32.8268 117.557 33.6773 118.187 34.6854C118.743 35.5826 119.029 36.6205 119.012 37.6756C118.951 38.7699 118.604 39.8292 118.006 40.7477C117.407 41.6661 116.579 42.4117 115.603 42.91C114.645 43.3556 113.58 43.5147 112.534 43.368C111.362 43.1958 110.244 42.762 109.262 42.0987L104.584 39.0496L111.016 29.15ZM110.597 39.7824C111.324 40.3047 112.225 40.523 113.11 40.3909C113.966 40.1747 114.709 39.6455 115.194 38.9078C115.678 38.17 115.868 37.2774 115.727 36.4062C115.492 35.5445 114.928 34.8093 114.157 34.3583L112.39 33.2067L108.857 38.6309L110.597 39.7824Z" fill="#98FF83"/>
    <path d="M124.344 47.2087L127.406 51.0626L125.443 52.5936L122.381 48.7398L124.344 47.2087Z" fill="#98FF83"/>
    <path d="M39.3897 115.079L42.3864 119.005L40.4235 120.503L37.4268 116.564L39.3897 115.079Z" fill="#98FF83"/>
    <path d="M47.6337 131.456C47.1287 130.5 46.902 129.421 46.9794 128.342C47.0523 127.229 47.4353 126.16 48.0852 125.254C48.7034 124.326 49.5662 123.588 50.5781 123.121C51.5634 122.675 52.6523 122.51 53.7253 122.643C54.8752 122.786 55.9708 123.216 56.9117 123.893C57.7471 124.447 58.4561 125.172 58.9924 126.019C59.4814 126.81 59.7689 127.709 59.8299 128.636L56.9902 129.016C56.9647 128.477 56.8156 127.952 56.5547 127.48C56.2938 127.008 55.9279 126.602 55.4854 126.294C54.9996 125.946 54.431 125.732 53.8365 125.672C53.2723 125.615 52.7035 125.724 52.2008 125.986C51.67 126.277 51.2202 126.695 50.8922 127.203C50.5388 127.701 50.314 128.279 50.2379 128.885C50.1716 129.448 50.2693 130.018 50.5192 130.527C50.7904 131.057 51.1938 131.508 51.6904 131.836C52.1347 132.141 52.6433 132.339 53.1767 132.415C53.7101 132.491 54.2539 132.443 54.7656 132.274L55.4199 135.062C54.5399 135.33 53.6072 135.377 52.7046 135.199C51.7236 135.002 50.7958 134.598 49.9827 134.015C48.9969 133.373 48.1889 132.493 47.6337 131.456V131.456Z" fill="#98FF83"/>
    <path d="M67.7932 139.367L66.8706 141.781L57.9983 138.457L62.14 127.4L70.8095 130.671L69.9066 133.086L64.345 130.959L63.6449 132.824L68.5587 134.663L67.682 136.998L62.7681 135.16L62.0092 137.182L67.7932 139.367Z" fill="#98FF83"/>
    <path d="M76.7959 140.303L74.99 140.106L74.6432 143.221L71.3259 142.854L72.6345 131.123L77.9998 131.718C78.9518 131.798 79.8756 132.081 80.7086 132.549C81.4088 132.937 81.9815 133.519 82.3576 134.226C82.7337 134.933 82.897 135.733 82.8278 136.53C82.7586 137.328 82.4598 138.088 81.9676 138.719C81.4754 139.35 80.8108 139.825 80.0543 140.087L82.1742 144.052L78.6214 143.659L76.7959 140.303ZM78.9878 134.931C78.5826 134.549 78.0523 134.328 77.496 134.309L75.6509 134.1L75.2714 137.541L77.1165 137.744C77.6623 137.845 78.2261 137.748 78.7064 137.47C78.8999 137.33 79.0593 137.149 79.1726 136.939C79.2859 136.73 79.3503 136.497 79.3607 136.259C79.4009 136.024 79.3883 135.783 79.3238 135.553C79.2593 135.323 79.1445 135.111 78.9878 134.931V134.931Z" fill="#98FF83"/>
    <path d="M87.5268 134.407L83.9281 134.879L83.5879 132.261L94.0567 130.894L94.4035 133.511L90.8245 133.976L92.0087 143.057L88.698 143.489L87.5268 134.407Z" fill="#98FF83"/>
    <path d="M95.313 130.305L98.4994 129.311L102.026 140.578L98.8397 141.572L95.313 130.305Z" fill="#98FF83"/>
    <path d="M105.003 129.317L106.201 131.62L110.82 129.212L112.011 131.502L107.391 133.91L109.263 137.496L106.299 139.04L100.848 128.571L109.06 124.292L110.251 126.582L105.003 129.317Z" fill="#98FF83"/>
    <path d="M110.27 123.166L112.887 121.119L120.085 130.455L117.467 132.503L110.27 123.166Z" fill="#98FF83"/>
    <path d="M128.054 118.743L129.971 120.464L123.657 127.531L114.857 119.679L121.027 112.776L122.95 114.497L118.985 118.933L120.464 120.242L123.965 116.316L125.823 117.978L122.329 121.904L123.932 123.343L128.054 118.743Z" fill="#98FF83"/>
    <path d="M122.165 111.33L124.691 106.351C125.206 105.284 125.958 104.348 126.889 103.616C127.722 102.962 128.727 102.564 129.781 102.471C130.873 102.418 131.96 102.65 132.935 103.145C133.91 103.639 134.74 104.379 135.343 105.291C135.889 106.198 136.161 107.243 136.128 108.301C136.083 109.487 135.773 110.647 135.218 111.697L132.693 116.676L122.165 111.33ZM132.778 110.61C133.219 109.832 133.341 108.912 133.118 108.046C132.802 107.225 132.193 106.55 131.409 106.153C130.624 105.755 129.72 105.662 128.872 105.893C128.041 106.222 127.372 106.863 127.007 107.679L126.052 109.557L131.823 112.488L132.778 110.61Z" fill="#98FF83"/>
    <path d="M134.761 94.8354L135.461 89.9608L137.901 90.3141L137.195 95.1887L134.761 94.8354Z" fill="#98FF83"/>
    <path d="M72.4384 46.1945C65.148 48.147 58.6003 52.2175 53.6234 57.8913C48.6465 63.5652 45.4639 70.5875 44.4781 78.0701C43.4923 85.5528 44.7475 93.1597 48.0851 99.929C51.4227 106.698 56.6927 112.326 63.2286 116.1C69.7646 119.874 77.2729 121.625 84.8041 121.132C92.3353 120.638 99.551 117.923 105.539 113.328C111.527 108.734 116.018 102.467 118.444 95.3205C120.87 88.1737 121.122 80.468 119.169 73.1779C116.549 63.4032 110.155 55.0692 101.391 50.0089C92.628 44.9487 82.2134 43.5766 72.4384 46.1945V46.1945ZM79.9563 114.32L52.7046 98.6171L60.6413 84.8768L74.1526 92.6826L95.4567 55.7146L109.197 63.6447L79.9563 114.32Z" fill="#98FF83"/>
</svg>
