<svg viewBox="0 0 28 28" fill="none"
    xmlns="http://www.w3.org/2000/svg">
    <path fill-rule="evenodd" clip-rule="evenodd" d="M18.662 3.5371C16.4058 2.53178 13.885 2.28273 11.4756 2.82709C9.06628 3.37145 6.89744 4.68006 5.29258 6.55775C3.68771 8.43544 2.73281 10.7816 2.57029 13.2463C2.40776 15.7111 3.04632 18.1623 4.39074 20.2345C5.73515 22.3066 7.71338 23.8887 10.0304 24.7447C12.3474 25.6007 14.8791 25.6848 17.2478 24.9845C19.6165 24.2841 21.6954 22.8368 23.1743 20.8585C24.6533 18.8801 25.4531 16.4766 25.4545 14.0066V12.8364C25.4545 12.1335 26.0244 11.5636 26.7273 11.5636C27.4302 11.5636 28 12.1335 28 12.8364V14.0073C27.9983 17.0263 27.0207 19.9646 25.2131 22.3826C23.4054 24.8006 20.8646 26.5695 17.9695 27.4255C15.0744 28.2815 11.9802 28.1787 9.14826 27.1324C6.31635 26.0862 3.89852 24.1525 2.25534 21.6199C0.612173 19.0873 -0.168292 16.0913 0.0303475 13.0788C0.228987 10.0664 1.39609 7.19887 3.35759 4.90391C5.31909 2.60896 7.9699 1.00955 10.9147 0.344218C13.8594 -0.321113 16.9404 -0.016715 19.698 1.21201C20.3401 1.4981 20.6286 2.2505 20.3425 2.89256C20.0565 3.53461 19.3041 3.82319 18.662 3.5371Z" fill="white"/>
    <path fill-rule="evenodd" clip-rule="evenodd" d="M27.6268 2.92506C28.1241 3.42185 28.1245 4.22769 27.6277 4.72497L14.9004 17.465C14.6618 17.7038 14.338 17.8381 14.0003 17.8382C13.6627 17.8383 13.3388 17.7042 13.1 17.4654L9.28187 13.6472C8.78484 13.1502 8.78484 12.3444 9.28187 11.8473C9.7789 11.3503 10.5847 11.3503 11.0818 11.8473L13.9996 14.7651L25.8269 2.92596C26.3237 2.42868 27.1295 2.42828 27.6268 2.92506Z" fill="white"/>
</svg>
