<svg xmlns="http://www.w3.org/2000/svg" width="50" height="50" fill="none" viewBox="0 0 50 50"><path fill="#fff" fill-rule="evenodd" d="M24.6224 0C11.0243 0 0 11.0243 0 24.6224C0 38.2206 11.0243 49.2449 24.6224 49.2449C38.2206 49.2449 49.2449 38.2206 49.2449 24.6224C49.2449 11.0243 38.2206 0 24.6224 0ZM37.0059 20.3792C37.367 28.4127 31.3756 37.3687 20.7731 37.3687C17.669 37.3707 14.6299 36.4789 12.019 34.7997C15.0388 35.1622 18.079 34.3121 20.4727 32.436C19.2808 32.4136 18.1257 32.0191 17.1691 31.3077C16.2125 30.5963 15.5023 29.6036 15.1379 28.4685C15.9942 28.6333 16.8768 28.6002 17.7183 28.3716C14.9721 27.8201 13.0762 25.3463 13.1385 22.7003C13.9068 23.127 14.7882 23.3848 15.7239 23.4143C14.5156 22.6063 13.6604 21.3683 13.3323 19.9523C13.0042 18.5362 13.2278 17.0483 13.9576 15.7912C15.3914 17.5554 17.1802 18.9983 19.2078 20.0263C21.2355 21.0543 23.4567 21.6443 25.7272 21.758C24.8949 18.1861 27.605 14.7456 31.2919 14.7456C32.9333 14.7456 34.4173 15.4399 35.4596 16.5496C36.739 16.2979 37.9659 15.8294 39.0873 15.1641C38.6609 16.4866 37.7683 17.6091 36.5758 18.3224C37.7078 18.1887 38.8133 17.886 39.8555 17.4245C39.0889 18.571 38.1239 19.5715 37.0059 20.3792Z" clip-rule="evenodd"/></svg>