<svg xmlns="http://www.w3.org/2000/svg" fill="none" viewBox="0 0 847 440"><path fill="#E2B548" d="M520.326 426.621H306.503C305.672 426.621 304.85 426.785 304.082 427.103C303.314 427.421 302.617 427.887 302.029 428.474C301.442 429.062 300.975 429.759 300.657 430.527C300.339 431.295 300.176 432.118 300.176 432.949C300.176 433.78 300.339 434.602 300.657 435.37C300.975 436.138 301.442 436.835 302.029 437.423C302.617 438.01 303.314 438.476 304.082 438.794C304.85 439.112 305.672 439.276 306.503 439.276H520.455C521.286 439.276 522.109 439.112 522.876 438.794C523.644 438.476 524.342 438.01 524.929 437.423C525.517 436.835 525.983 436.138 526.301 435.37C526.619 434.602 526.783 433.78 526.783 432.949C526.783 432.118 526.619 431.295 526.301 430.527C525.983 429.759 525.517 429.062 524.929 428.474C524.342 427.887 523.644 427.421 522.876 427.103C522.109 426.785 521.286 426.621 520.455 426.621H520.326Z"/><path fill="#E8E8E8" d="M337.729 260.538H325.306V423.149H337.729V260.538Z"/><path fill="#E8E8E8" d="M501.395 260.512H488.972V423.123H501.395V260.512Z"/><path fill="#FFCD26" d="M526.654 276.227H300.047V316.764H526.654V276.227Z"/><path fill="#444" d="M325.691 276.227L325.305 276.896L302.002 316.764H300.047V276.227H325.691Z"/><path fill="#444" d="M382.973 276.227L359.258 316.764H328.315L337.729 300.663L352.004 276.227H382.973Z"/><path fill="#444" d="M440.23 276.227L416.514 316.764H385.571L409.261 276.227H440.23Z"/><path fill="#444" d="M497.486 276.227L473.77 316.764H442.802L466.517 276.227H497.486Z"/><path fill="#444" d="M526.654 276.227V316.764H500.058L523.773 276.227H526.654Z"/><path fill="#FFCD26" d="M526.654 348.736H300.047V389.248H526.654V348.736Z"/><path fill="#444" d="M325.691 348.736L325.305 349.405L302.002 389.273H300.047V348.736H325.691Z"/><path fill="#444" d="M382.973 348.736L359.258 389.273H328.315L337.729 373.146L352.004 348.736H382.973Z"/><path fill="#444" d="M440.23 348.736L416.514 389.273H385.571L409.261 348.736H440.23Z"/><path fill="#444" d="M497.486 348.736L473.77 389.273H442.802L466.517 348.736H497.486Z"/><path fill="#444" d="M526.654 348.736V389.273H500.058L523.773 348.736H526.654Z"/><path fill="#AEAEAE" d="M509.523 423.124H480.87V431.2H509.523V423.124Z"/><path fill="#AEAEAE" d="M345.857 423.124H317.203V431.226H345.857V423.124Z"/><path fill="#FAA436" d="M344.134 253.926C344.074 255.972 343.442 257.959 342.31 259.664C341.178 261.369 339.591 262.723 337.73 263.572C335.799 264.513 333.678 264.997 331.531 264.987C329.371 265.003 327.238 264.51 325.306 263.546C323.443 262.706 321.854 261.358 320.721 259.657C319.588 257.956 318.958 255.969 318.901 253.926C318.901 247.856 324.56 242.917 331.531 242.917C338.501 242.917 344.134 247.779 344.134 253.926Z"/><path fill="#FAA436" d="M507.8 253.927C507.8 260.023 502.141 264.935 495.171 264.935C488.2 264.935 482.567 260.023 482.567 253.927C482.567 247.831 488.226 242.892 495.171 242.892C502.116 242.892 507.8 247.779 507.8 253.927Z"/><g style="mix-blend-mode:multiply" opacity=".3"><path fill="#444" d="M337.729 316.764V348.736H412.887V389.273H337.729V423.123H345.857V431.225H317.203V423.123H325.305V389.273H300.047V348.736H325.305V316.764H300.047V276.227H325.305V263.366C323.469 262.54 321.898 261.22 320.767 259.553C319.636 257.886 318.99 255.938 318.901 253.926C318.901 247.856 324.559 242.917 331.53 242.917C338.501 242.917 344.134 247.856 344.134 253.926C344.073 255.972 343.441 257.959 342.309 259.664C341.177 261.369 339.591 262.723 337.729 263.572V276.433H412.887V316.97L337.729 316.764Z"/></g><path fill="#E2B548" d="M840.92 427.276H509.549C507.946 427.276 506.409 427.913 505.275 429.047C504.142 430.18 503.505 431.718 503.505 433.321C503.505 434.924 504.142 436.462 505.275 437.595C506.409 438.729 507.946 439.365 509.549 439.365H840.92C842.523 439.365 844.061 438.729 845.194 437.595C846.328 436.462 846.965 434.924 846.965 433.321C846.965 431.718 846.328 430.18 845.194 429.047C844.061 427.913 842.523 427.276 840.92 427.276Z"/><path fill="#AEAEAE" d="M773.812 244.833L723.732 79.0577L723.372 77.7974H625.116L625.502 79.0577L630.183 94.4906L641.449 131.813L644.253 141.124L658.399 187.911L661.229 197.274L669.974 226.211L674.63 241.644L733.198 435.481H742.535L735.23 411.251H814.786L822.117 435.481H831.454L773.812 244.833ZM637.282 87.1086H716.864L719.076 94.4906L730.368 131.838H650.786L637.282 87.1086ZM653.615 141.124H733.172L747.293 187.911H667.736L653.615 141.124ZM679.337 226.159L674.707 210.726L670.591 197.222H750.174L763.523 241.283H755.807C747.422 241.283 736.31 241.283 725.198 241.283C708.093 241.283 691.04 241.438 684.044 241.515L679.337 226.159ZM686.796 250.826C716.376 250.62 755.678 250.44 766.327 250.672L780.088 296.147H700.351L686.796 250.826ZM703.309 305.484H782.892L796.576 350.754H716.942L703.309 305.484ZM732.426 401.914L719.745 360.246H799.353L811.983 402.069L732.426 401.914Z"/><path fill="#E8E8E8" d="M625.887 77.7974L625.502 79.0577L575.447 244.782L517.857 435.43H527.168L534.499 411.2H614.081L606.776 435.43H616.087L674.655 241.592L679.311 226.159L688.082 197.248L690.86 187.911L704.981 141.15L707.759 131.838L719.025 94.4906L723.681 79.0577L724.066 77.7974H625.887ZM616.859 401.889H537.302L549.932 360.246H629.488L616.859 401.889ZM632.292 350.729H552.555L566.265 305.459H646.027L632.292 350.729ZM648.78 296.122H569.249L582.958 250.646C593.658 250.415 632.935 250.646 662.515 250.8L648.78 296.122ZM674.501 210.726L669.82 226.159L665.164 241.592C658.245 241.592 641.166 241.412 624.01 241.361C612.898 241.361 601.761 241.361 593.427 241.361H585.71L599.034 197.3H678.617L674.501 210.726ZM681.549 187.911H601.941L616.062 141.15H695.799L681.549 187.911ZM698.474 131.838H618.891L630.183 94.5164L632.421 87.1086H711.977L698.474 131.838Z"/><path fill="#E2B548" d="M807.456 426.271H675.993C674.336 426.271 672.746 426.93 671.574 428.102C670.402 429.274 669.743 430.864 669.743 432.522C669.743 434.179 670.402 435.769 671.574 436.941C672.746 438.113 674.336 438.772 675.993 438.772H756.888C758.042 438.769 759.173 438.445 760.155 437.837C761.136 437.228 761.928 436.358 762.444 435.325H807.456C808.657 435.325 809.808 434.848 810.657 433.999C811.506 433.15 811.983 431.999 811.983 430.798C811.983 429.598 811.506 428.446 810.657 427.597C809.808 426.748 808.657 426.271 807.456 426.271Z"/><path fill="#E8E8E8" d="M801.643 356.025V427.454C801.643 428.03 801.416 428.582 801.012 428.991C800.607 429.4 800.058 429.634 799.482 429.64H734.947C734.376 429.627 733.833 429.391 733.434 428.982C733.035 428.574 732.812 428.025 732.812 427.454V356.025H801.643Z"/><path fill="#E8E8E8" d="M800.357 356H797.784C797.784 347.937 794.581 340.204 788.88 334.502C783.178 328.801 775.445 325.597 767.382 325.597C759.318 325.597 751.585 328.801 745.883 334.502C740.182 340.204 736.979 347.937 736.979 356H734.406C734.406 347.227 737.892 338.814 744.095 332.611C750.298 326.407 758.712 322.922 767.484 322.922C776.257 322.922 784.671 326.407 790.874 332.611C797.077 338.814 800.562 347.227 800.562 356H800.357Z"/><path fill="#FAA436" d="M801.643 356.025V369.915C799.534 370.455 796.756 368.475 794.235 368.063C793.137 367.905 792.017 368.063 791.006 368.519C789.995 368.974 789.134 369.708 788.525 370.635C787.342 372.539 787.342 375.136 785.593 376.525C784.535 377.108 783.335 377.38 782.129 377.312C780.924 377.244 779.762 376.837 778.776 376.14C776.828 374.726 774.586 373.768 772.217 373.336C771.285 373.319 770.36 373.493 769.497 373.847C768.635 374.201 767.853 374.727 767.202 375.394C766.527 376.005 765.961 376.727 765.53 377.529C764.344 379.95 763.595 382.563 763.318 385.245C762.983 387.251 762.366 389.566 760.437 390.389C759.291 390.81 758.033 390.81 756.887 390.389C754.872 389.774 753.037 388.677 751.541 387.193C750.044 385.71 748.93 383.885 748.296 381.876C747.062 377.786 747.473 372.333 743.512 370.404C741.639 369.841 739.704 369.513 737.751 369.426C735.801 369.054 734.049 367.995 732.812 366.443V356.154L801.643 356.025Z"/><g style="mix-blend-mode:multiply" opacity=".2"><path fill="#444" d="M767.202 322.948V325.52C759.15 325.534 751.431 328.739 745.737 334.433C740.043 340.127 736.838 347.845 736.825 355.898H734.253C734.287 347.169 737.769 338.808 743.941 332.636C750.113 326.464 758.474 322.982 767.202 322.948Z"/></g><g style="mix-blend-mode:multiply" opacity=".2"><path fill="#444" d="M732.812 356.025H767.202V429.64H734.947C734.376 429.627 733.833 429.391 733.434 428.982C733.035 428.574 732.812 428.025 732.812 427.454V356.025Z"/></g><path fill="#E8E8E8" d="M750.509 360.965V431.751C750.502 432.319 750.271 432.862 749.867 433.262C749.463 433.661 748.917 433.885 748.348 433.885H684.405C683.843 433.879 683.306 433.651 682.912 433.251C682.517 432.851 682.295 432.312 682.295 431.751V360.965H750.509Z"/><path fill="#E8E8E8" d="M749.171 360.964H746.599C746.599 352.976 743.425 345.315 737.777 339.666C732.128 334.018 724.467 330.844 716.479 330.844C708.49 330.844 700.829 334.018 695.181 339.666C689.532 345.315 686.359 352.976 686.359 360.964H683.787C684.026 352.429 687.584 344.323 693.706 338.371C699.828 332.418 708.03 329.088 716.569 329.088C725.107 329.088 733.31 332.418 739.431 338.371C745.553 344.323 749.112 352.429 749.351 360.964H749.171Z"/><path fill="#FFCD26" d="M750.509 360.965V374.829C748.4 375.395 745.673 373.44 743.178 373.003C742.085 372.853 740.971 373.015 739.966 373.47C738.96 373.925 738.103 374.654 737.494 375.575C736.336 377.452 736.336 380.05 734.587 381.413C733.539 381.992 732.349 382.265 731.153 382.201C729.958 382.137 728.804 381.74 727.822 381.053C725.898 379.647 723.683 378.689 721.341 378.25C720.416 378.232 719.498 378.406 718.644 378.76C717.789 379.114 717.018 379.641 716.376 380.307C715.715 380.922 715.152 381.633 714.705 382.417C713.522 384.838 712.781 387.451 712.518 390.133C712.184 392.139 711.566 394.429 709.663 395.277C708.522 395.675 707.28 395.675 706.139 395.277C704.149 394.667 702.338 393.583 700.859 392.118C699.381 390.653 698.28 388.851 697.651 386.866C696.417 382.802 696.828 377.401 692.893 375.497C691.046 374.937 689.136 374.609 687.208 374.52C685.268 374.157 683.524 373.107 682.295 371.562V361.273L750.509 360.965Z"/><g style="mix-blend-mode:multiply" opacity=".2"><path fill="#444" d="M686.282 360.965H716.376V433.988H684.405C683.843 433.981 683.306 433.754 682.912 433.354C682.517 432.954 682.295 432.415 682.295 431.853V360.965H683.607C683.621 352.278 687.078 343.951 693.22 337.808C699.363 331.666 707.69 328.209 716.376 328.196V330.768C712.416 330.768 708.494 331.55 704.836 333.068C701.178 334.587 697.856 336.813 695.06 339.618C692.264 342.424 690.05 345.754 688.543 349.417C687.037 353.08 686.269 357.004 686.282 360.965Z"/></g><path fill="#E2B548" d="M303.296 424.226H74.5284C72.6046 424.226 70.7597 424.99 69.3994 426.35C68.0391 427.71 67.2749 429.555 67.2749 431.479C67.2749 433.403 68.0391 435.248 69.3994 436.608C70.7597 437.968 72.6046 438.733 74.5284 438.733H303.296C305.219 438.733 307.064 437.968 308.425 436.608C309.785 435.248 310.549 433.403 310.549 431.479C310.549 429.555 309.785 427.71 308.425 426.35C307.064 424.99 305.219 424.226 303.296 424.226Z"/><path fill="#E8E8E8" d="M152.619 119.553H141.404V421.858H152.619V119.553Z"/><path fill="#FFCD26" d="M150.098 130.357C186.095 130.357 215.276 101.175 215.276 65.1784C215.276 29.1814 186.095 0 150.098 0C114.101 0 84.9194 29.1814 84.9194 65.1784C84.9194 101.175 114.101 130.357 150.098 130.357Z"/><path fill="#FFCD26" d="M205.452 73.8114C210.222 43.2416 189.308 14.5925 158.738 9.82178C128.168 5.05108 99.5192 25.9654 94.7485 56.5352C89.9778 87.105 110.892 115.754 141.462 120.525C172.032 125.296 200.681 104.381 205.452 73.8114Z"/><path fill="#444" d="M150.099 122.82C138.698 122.82 127.554 119.439 118.074 113.106C108.595 106.772 101.207 97.7694 96.8443 87.2367C92.4815 76.7041 91.34 65.1142 93.5641 53.9327C95.7883 42.7513 101.278 32.4805 109.34 24.4191C117.401 16.3577 127.672 10.8679 138.853 8.64373C150.035 6.41961 161.624 7.56111 172.157 11.9239C182.69 16.2867 191.692 23.6748 198.026 33.154C204.36 42.6331 207.741 53.7776 207.741 65.1781C207.727 80.4615 201.65 95.1151 190.843 105.922C180.036 116.729 165.382 122.806 150.099 122.82ZM150.099 10.7771C139.339 10.7771 128.821 13.9676 119.875 19.9453C110.929 25.923 103.956 34.4193 99.8385 44.3597C95.721 54.3002 94.6437 65.2385 96.7428 75.7912C98.8419 86.344 104.023 96.0374 111.631 103.645C119.239 111.254 128.933 116.435 139.485 118.534C150.038 120.633 160.976 119.556 170.917 115.438C180.857 111.321 189.354 104.348 195.331 95.4017C201.309 86.4555 204.5 75.9376 204.5 65.1781C204.479 50.7563 198.741 36.9311 188.543 26.7333C178.346 16.5356 164.52 10.7975 150.099 10.7771Z"/><path fill="#444" d="M188.989 52.9606L184.385 48.3307C183.907 48.7867 183.271 49.0411 182.61 49.0411C181.949 49.0411 181.314 48.7867 180.836 48.3307L180.218 47.7134L181.376 46.5559C181.456 46.477 181.519 46.3829 181.563 46.2791C181.606 46.1753 181.629 46.064 181.629 45.9515C181.629 45.839 181.606 45.7276 181.563 45.6239C181.519 45.5201 181.456 45.426 181.376 45.347L169.57 33.438C169.57 33.438 160.67 26.8018 152.568 31.5603L154.857 33.5666C157.525 33.4733 160.175 34.0387 162.573 35.2127C162.987 35.3736 163.352 35.6389 163.633 35.9828C163.914 36.3267 164.101 36.7375 164.176 37.1751C164.252 37.6128 164.212 38.0624 164.062 38.4803C163.912 38.8982 163.656 39.27 163.319 39.5597L162.162 40.7171C161.892 40.9849 161.678 41.3035 161.532 41.6545C161.385 42.0054 161.31 42.3818 161.31 42.762C161.31 43.1422 161.385 43.5186 161.532 43.8696C161.678 44.2205 161.892 44.5391 162.162 44.8069L163.293 45.9643L139.192 70.0397L138.781 69.6282C138.559 69.4067 138.258 69.2823 137.945 69.2823C137.631 69.2823 137.331 69.4067 137.109 69.6282L115.503 91.2342C115.185 91.5435 114.932 91.9134 114.759 92.322C114.587 92.7307 114.498 93.1698 114.498 93.6135C114.498 94.0571 114.587 94.4963 114.759 94.9049C114.932 95.3136 115.185 95.6835 115.503 95.9927L119.541 100.057C119.853 100.376 120.225 100.629 120.635 100.802C121.046 100.975 121.488 101.064 121.933 101.064C122.379 101.064 122.82 100.975 123.231 100.802C123.642 100.629 124.014 100.376 124.325 100.057L145.931 78.4506C146.153 78.2288 146.277 77.9282 146.277 77.6147C146.277 77.3012 146.153 77.0006 145.931 76.7787L145.597 76.4444L169.672 52.3433L172.013 54.6582C172.092 54.7383 172.186 54.8019 172.29 54.8453C172.394 54.8888 172.505 54.9111 172.618 54.9111C172.73 54.9111 172.841 54.8888 172.945 54.8453C173.049 54.8019 173.143 54.7383 173.222 54.6582L174.379 53.5008L174.997 54.1181C175.453 54.5964 175.707 55.232 175.707 55.8929C175.707 56.5537 175.453 57.1893 174.997 57.6676L179.627 62.2718C179.756 62.4072 179.912 62.5149 180.084 62.5885C180.257 62.6621 180.442 62.7001 180.63 62.7001C180.817 62.7001 181.003 62.6621 181.175 62.5885C181.348 62.5149 181.503 62.4072 181.633 62.2718L188.938 54.9669C189.077 54.8407 189.188 54.6878 189.266 54.5173C189.345 54.3468 189.387 54.1622 189.392 53.9747C189.397 53.7873 189.364 53.6008 189.294 53.4265C189.225 53.2522 189.121 53.0937 188.989 52.9606Z"/><path fill="#444" d="M149.609 56.2787L142.87 62.992L131.913 52.0603C129.701 52.9224 127.286 53.1187 124.964 52.6251C122.642 52.1315 120.516 50.9696 118.846 49.2824C115.271 45.7071 115.194 39.714 116.891 35.3671L124.814 44.7554C124.946 44.8996 125.107 45.0148 125.286 45.0935C125.466 45.1723 125.659 45.2129 125.855 45.2129C126.051 45.2129 126.245 45.1723 126.424 45.0935C126.604 45.0148 126.765 44.8996 126.897 44.7554L131.475 40.177C131.616 40.0447 131.727 39.8853 131.804 39.7084C131.88 39.5314 131.919 39.3408 131.919 39.1481C131.919 38.9555 131.88 38.7648 131.804 38.5879C131.727 38.411 131.616 38.2515 131.475 38.1193L122.061 30.197C126.408 28.4994 132.35 28.5766 136.002 32.1519C137.685 33.8243 138.842 35.9522 139.331 38.2738C139.82 40.5954 139.62 43.0093 138.755 45.2184L149.609 56.2787Z"/><path fill="#444" d="M169.209 87.196C169.069 87.3282 168.957 87.4877 168.881 87.6646C168.805 87.8415 168.765 88.0322 168.765 88.2248C168.765 88.4175 168.805 88.6082 168.881 88.7851C168.957 88.962 169.069 89.1215 169.209 89.2537L178.623 97.1759C174.276 98.8736 168.335 98.7964 164.682 95.2211C162.999 93.5487 161.842 91.4207 161.353 89.0992C160.864 86.7776 161.065 84.3637 161.93 82.1546L152.645 72.8948L159.384 66.1558L168.643 75.4155C170.86 74.5612 173.278 74.369 175.602 74.8621C177.926 75.3552 180.057 76.5125 181.736 78.1934C185.311 81.743 185.388 87.7876 183.69 92.1345L175.768 82.7204C175.636 82.5762 175.475 82.4611 175.295 82.3823C175.116 82.3036 174.922 82.2629 174.726 82.2629C174.531 82.2629 174.337 82.3036 174.158 82.3823C173.978 82.4611 173.817 82.5762 173.685 82.7204L169.209 87.196Z"/><path fill="#AEAEAE" d="M161.467 421.833H132.556C131.683 421.83 130.817 421.999 130.009 422.331C129.201 422.663 128.466 423.151 127.847 423.768C127.228 424.384 126.737 425.117 126.402 425.924C126.067 426.731 125.895 427.596 125.895 428.469V433.459H168.104V428.521C168.114 427.644 167.95 426.774 167.62 425.961C167.291 425.149 166.803 424.41 166.186 423.787C165.568 423.165 164.833 422.672 164.023 422.336C163.213 422.001 162.344 421.83 161.467 421.833Z"/><g style="mix-blend-mode:multiply" opacity=".2"><path fill="#444" d="M147.012 0V433.511H125.869V428.521C125.869 427.644 126.042 426.775 126.378 425.965C126.714 425.156 127.207 424.42 127.829 423.801C128.45 423.182 129.188 422.692 129.999 422.359C130.81 422.025 131.679 421.856 132.556 421.859H141.404V129.765C125.21 127.678 110.388 119.588 99.8726 107.097C89.3569 94.6048 83.913 78.621 84.6179 62.3076C85.3229 45.9943 92.1253 30.5397 103.679 19.0016C115.233 7.46347 130.697 0.682407 147.012 0V0Z"/></g><path fill="#E2B548" d="M91.9342 425.266H7.1817C6.25998 425.209 5.33636 425.342 4.46775 425.655C3.59914 425.969 2.80393 426.457 2.13111 427.09C1.45829 427.722 0.922104 428.486 0.555592 429.333C0.18908 430.181 0 431.095 0 432.018C0 432.942 0.18908 433.855 0.555592 434.703C0.922104 435.551 1.45829 436.314 2.13111 436.947C2.80393 437.579 3.59914 438.067 4.46775 438.381C5.33636 438.695 6.25998 438.827 7.1817 438.77H91.9342C92.8559 438.827 93.7795 438.695 94.6481 438.381C95.5167 438.067 96.3119 437.579 96.9847 436.947C97.6576 436.314 98.1938 435.551 98.5603 434.703C98.9268 433.855 99.1159 432.942 99.1159 432.018C99.1159 431.095 98.9268 430.181 98.5603 429.333C98.1938 428.486 97.6576 427.722 96.9847 427.09C96.3119 426.457 95.5167 425.969 94.6481 425.655C93.7795 425.342 92.8559 425.209 91.9342 425.266Z"/><path fill="#FFCD26" d="M73.6718 395.017L68.3217 374.234L61.6084 348.101L57.3129 331.356C55.4353 323.974 47.6159 323.974 45.7125 331.356L41.417 348.101L34.7037 374.311L29.3793 395.094L22.666 421.202H80.3851L73.6718 395.017Z"/><path fill="#FFCD26" d="M90.3144 421.176H12.7383V432.237H90.3144V421.176Z"/><path fill="#444" d="M80.3851 421.202H22.666L29.3793 395.018H73.6718L80.3851 421.202Z"/><path fill="#444" d="M68.3222 374.235H34.7041L41.4174 348.024H61.6088L68.3222 374.235Z"/><g style="mix-blend-mode:multiply" opacity=".2"><path fill="#444" d="M51.5264 325.75V432.263H12.7383V421.177H22.6668L29.3801 395.018L34.7045 374.235L41.4178 348.102L45.7133 331.332C45.9011 329.878 46.5798 328.532 47.637 327.517C48.6942 326.502 50.0664 325.879 51.5264 325.75Z"/></g><path fill="#FAA436" d="M287.348 414.862H215.045L223.456 391.404L230.092 372.756L238.503 349.247L243.904 334.225C244.44 332.727 245.426 331.431 246.726 330.514C248.027 329.598 249.58 329.106 251.171 329.106C252.762 329.106 254.314 329.598 255.615 330.514C256.916 331.431 257.902 332.727 258.437 334.225L263.916 349.247L272.327 372.756L279.014 391.404L287.348 414.862Z"/><path fill="#FAA436" d="M299.746 414.863H202.673V432.225H299.746V414.863Z"/><path fill="#fff" d="M287.348 414.862H215.097L223.508 391.404H278.938L287.348 414.862Z"/><path fill="#fff" d="M272.249 372.757H230.143L238.554 349.247H263.838L272.249 372.757Z"/><g style="mix-blend-mode:multiply" opacity=".2"><path fill="#444" d="M251.209 329.235V432.121H202.673V414.734H215.045L223.456 391.276L230.092 372.627L238.503 349.118L243.904 334.097C244.456 332.621 245.458 331.356 246.77 330.483C248.081 329.61 249.635 329.174 251.209 329.235Z"/></g></svg>