<svg viewBox="0 0 26 26" fill="none"
    xmlns="http://www.w3.org/2000/svg">
    <circle cx="13" cy="13" r="13" fill="white"/>
    <path fill-rule="evenodd" clip-rule="evenodd" d="M12.9998 6.36734C9.33378 6.36734 6.36719 9.33228 6.36719 13C6.36719 14.3832 6.789 15.6626 7.53827 16.762C7.56615 16.8033 7.58436 16.8504 7.59154 16.8997C7.59872 16.9491 7.59468 16.9994 7.57972 17.0469L6.90609 19.301L9.11352 18.5393C9.16071 18.5236 9.21082 18.5187 9.26015 18.525C9.30948 18.5312 9.35677 18.5485 9.39852 18.5756C10.4325 19.2465 11.6703 19.6326 12.9998 19.6326C16.6676 19.6326 19.6325 16.6678 19.6325 13C19.6325 9.33218 16.6676 6.36734 12.9998 6.36734ZM10.2846 9.25876L11.4919 11.2537L10.9893 11.7512C10.9381 11.8028 10.9054 11.8698 10.896 11.9419C10.8866 12.014 10.9012 12.0872 10.9375 12.1502C11.7045 13.4785 12.6134 14.5119 13.8859 15.0727C13.9469 15.0998 14.0146 15.1078 14.0803 15.0958C14.1459 15.0838 14.2064 15.0523 14.2538 15.0053L14.7875 14.4716L16.7359 15.6893C16.5201 16.1749 16.2389 16.464 15.9172 16.6324C15.5445 16.8275 15.0893 16.8645 14.5699 16.7568C13.5311 16.5414 12.2762 15.7249 11.2536 14.6789C10.231 13.6329 9.43962 12.361 9.23788 11.3263C9.13701 10.8089 9.18157 10.3634 9.37261 10.0101C9.53709 9.70597 9.8165 9.44557 10.2846 9.25876Z" fill="#2F3A4B"/>
</svg>
