<svg xmlns="http://www.w3.org/2000/svg" fill="none" viewBox="0 0 63 54"><path fill-rule="evenodd" stroke="#FFBC36" stroke-width="2" d="M15.2743 8.37167L15.2228 11.3301C15.2228 11.3301 18.4047 11.8868 20.3537 11.0394C22.3028 10.192 26.5169 6.97923 26.5169 6.97923C25.9426 6.47699 25.3744 5.99942 24.7828 5.5227C23.5339 4.51595 22.1329 3.45673 21.2649 2.97088C18.7749 1.57706 15.9342 1.0226 12.8945 1.21323C11.3732 1.43073 9.90145 1.91127 8.54509 2.63332C6.49714 3.72359 4.6716 5.41636 3.29308 7.61221C1.97536 9.71136 1.20297 12.1202 1.03635 14.6164C0.877309 16.9872 1.24149 19.364 2.10312 21.5786C3.1285 24.2143 4.47862 25.9754 5.83682 27.1903C6.53958 27.819 7.35186 28.3958 8.29874 28.9205C10.1323 29.936 12.1614 30.5276 14.2893 30.6924C16.1862 30.7139 18.0436 30.428 19.8286 29.8064C23.1339 28.6553 25.2374 26.6659 27.6654 24.1524C29.2945 22.4662 33.9475 17.4265 34.4939 16.7728C34.8715 16.3208 36.6468 14.4978 38.2512 13.366C38.8357 12.9489 39.4579 12.5872 40.1098 12.2858C40.8753 11.9344 41.8311 11.6338 42.9379 11.4132C43.6055 11.2802 44.2234 11.2008 44.7749 11.1846C45.2717 11.1699 45.7098 11.2036 46.2505 11.247L46.372 8.75423L54.4925 15.6095L46.3722 22.6721L46.3761 19.7431C45.9372 19.6223 45.5727 19.6399 45.1196 19.5886C44.3226 19.4984 42.8025 19.5032 42.0086 19.6394C41.1257 19.6152 39.6719 20.1237 38.3771 20.9419C36.8983 21.8474 35.5606 23.5231 34.8482 24.4443C36.6838 25.9978 38.6398 28.2396 40.7957 29.2579C42.6306 30.125 44.6021 30.6676 46.6224 30.8614C49.4826 30.7947 52.2564 29.8683 54.5823 28.203C56.8314 26.5956 58.6678 24.3166 59.7114 21.6208C60.1806 20.4085 60.5109 19.0299 60.655 17.4435C60.8153 15.677 60.6907 13.8962 60.2859 12.1693C59.6319 9.66598 58.3855 7.38732 56.6339 5.54482C54.3965 3.19129 51.6754 1.58276 48.8768 1.15138C46.0491 0.720243 43.1577 1.21581 40.6351 2.56396C37.6065 4.37727 34.9909 6.67465 32.6307 9.08916C31.2007 10.5516 29.5169 12.6516 27.6656 14.4057C26.0919 15.8984 24.4046 17.2668 22.6189 18.4985C21.5342 19.1906 20.3232 19.6616 19.0556 19.8841C17.7881 20.1067 16.4891 20.0765 15.2332 19.7953V23.6459L6.69869 15.9668L15.2743 8.37167Z" clip-rule="evenodd"/><path fill="#fff" d="M48.4629 39.3984H62.9887C63.0099 39.9967 62.994 40.5696 62.9982 41.1903H60.8603V52.211H58.9566V46.286H55.6315V46.7257C55.6315 46.9652 55.6315 47.2069 55.6081 47.4444C55.5272 48.2003 54.9491 48.5857 54.1463 48.4207C54.0008 48.3891 53.8611 48.3352 53.7321 48.261C52.9612 47.839 52.3774 47.1422 52.0967 46.3094C52.0325 46.1027 52.003 45.8869 52.0094 45.6706C52.0094 45.0828 52.3437 44.7017 52.924 44.6059C53.1391 44.5753 53.3562 44.5607 53.5735 44.5622H58.9374V41.2275H48.6535V44.5281H48.2531C47.5078 44.5537 46.7689 44.5654 46.0279 44.6133C45.5596 44.652 45.1041 44.786 44.6896 45.0073C43.281 45.7291 43.4119 47.8096 44.4213 48.5336C44.9086 48.8794 45.481 49.0859 46.0769 49.1309C46.3782 49.1575 46.6848 49.1309 46.9861 49.1309V48.5719C46.9861 47.7957 47.4024 47.2942 48.1658 47.1718C49.1528 47.0206 50.1377 47.5668 50.3261 48.5644C50.3972 48.8966 50.3656 49.2425 50.2355 49.5562C50.1054 49.87 49.8831 50.1368 49.5979 50.3212L49.3945 50.4532C49.8046 51.2188 50.2757 51.9501 50.8031 52.6401L49.2241 53.4323C48.6818 52.589 48.1918 51.7133 47.757 50.8099C47.0443 50.8916 46.3242 50.883 45.6137 50.7843C44.8744 50.6804 44.1646 50.4244 43.529 50.0327C42.4846 49.3651 41.9213 48.3994 41.7989 47.1771C41.7393 46.5841 41.7531 45.9868 41.9511 45.4129C42.2886 44.4366 42.9647 43.7754 43.8964 43.3602C44.6928 43.0056 45.5403 42.8959 46.3995 42.8395L46.7189 42.8182V41.2094H40.8737C40.8549 41.1249 40.8421 41.0392 40.8353 40.9529V39.7519C40.8353 39.4325 40.8726 39.4037 41.1984 39.4026H46.6444C46.3654 38.4135 46.0992 37.4702 45.5509 36.6344C45.0675 35.9008 44.3797 35.6474 43.5333 35.7826C43.1979 35.8359 42.87 35.9381 42.4899 36.0297C42.3057 35.4909 42.1172 34.9362 41.9245 34.3719C42.2403 34.2216 42.5782 34.1231 42.9253 34.0802C43.4784 33.9831 44.0432 33.9741 44.5991 34.0536C45.3441 34.1609 46.0249 34.5346 46.5155 35.1055C46.9331 35.5769 47.2656 36.1173 47.4983 36.7025C47.806 37.4755 48.0711 38.2666 48.35 39.0502C48.394 39.1641 48.4316 39.2804 48.4629 39.3984Z"/><path fill="#fff" d="M29.8519 39.4312V41.1752C29.5176 41.1975 29.179 41.1826 28.8415 41.1858C28.504 41.189 28.1803 41.1858 27.7991 41.1858C27.7746 41.7107 27.7906 42.2196 27.7874 42.7275V52.0778H26.1659V46.1495H22.5821C22.5821 46.2975 22.5704 46.4423 22.5661 46.586C22.5597 46.8607 22.5736 47.1365 22.5448 47.408C22.4575 48.2331 21.8176 48.4226 21.2097 48.2768C21.0875 48.2463 20.97 48.1993 20.8604 48.1373C20.1208 47.7305 19.5622 47.0593 19.2964 46.2581C19.2362 46.0616 19.2092 45.8565 19.2165 45.6512C19.2229 45.154 19.4987 44.8335 19.9885 44.7505C20.2142 44.7158 20.4425 44.6998 20.6709 44.7025H26.1393V41.2103H11.8914V44.6823H17.0179C17.0967 44.9677 17.1074 46.0526 17.0382 46.4423H11.8946V50.3444H17.9378V52.0746H9.69275V39.4312H29.8519Z"/><path fill="#fff" d="M2.20461 50.3423H7.90611C7.98809 50.6053 8.00193 51.6434 7.93486 52.0756H0.0688117C0.00173528 51.8265 -0.0291409 40.169 0.0358061 39.4749C0.266847 39.3971 1.69781 39.3758 2.20461 39.4493V50.3423Z"/><path fill="#fff" d="M31.6671 47.1345V45.9441H36.9768C37.0063 46.3402 37.0116 46.7377 36.9928 47.1345H31.6671Z"/></svg>