<svg viewBox="2 0 59.72 29.86" width="59.72" height="29.86">
    <path fill="#fff" fill-rule="evenodd" d="M16.2735 7.37178L16.222 10.3302C16.222 10.3302 19.4038 10.8866 21.3527 10.0392C23.3016 9.1918 27.5156 5.97936 27.5156 5.97936C26.9415 5.47698 26.3733 4.99953 25.7816 4.52298C24.5327 3.51612 23.1318 2.45702 22.2638 1.97116C19.7739 0.57757 16.9333 0.0232432 13.8938 0.213775C12.3762 0.430094 10.9055 0.910231 9.54461 1.63364C7.49671 2.72397 5.67112 4.41668 4.29277 6.61236C2.97641 8.71303 2.19996 11.1228 2.03614 13.6162C1.87756 15.9898 2.24221 18.3696 3.1029 20.578C4.12825 23.2136 5.47833 24.9745 6.83664 26.1894C7.53937 26.8179 8.35161 27.3948 9.29832 27.9194C11.1318 28.9349 13.1609 29.5265 15.2887 29.6913C17.1855 29.7127 19.0428 29.4268 20.8277 28.8052C24.1328 27.6542 26.2362 25.6648 28.6643 23.1514C30.2935 21.4653 34.946 16.426 35.4926 15.7722C35.8702 15.3203 37.6453 13.4973 39.2497 12.3658C39.8354 11.9478 40.4574 11.5863 41.108 11.2857C41.8737 10.9344 42.8295 10.6338 43.9359 10.4131C44.6038 10.28 45.2217 10.2008 45.7733 10.1845C46.2697 10.1698 46.708 10.2035 47.2488 10.247L47.37 7.75434L55.4904 14.6089L47.37 21.6713L47.3741 18.7427C46.9352 18.6219 46.5705 18.6394 46.1176 18.588C45.3207 18.4979 43.8004 18.5027 43.0067 18.6388C42.1237 18.6147 40.67 19.1231 39.3752 19.9414C37.8965 20.8467 36.5588 22.5226 35.8465 23.4433C37.6821 24.997 39.638 27.2386 41.794 28.2569C43.634 29.1254 45.6039 29.6675 47.6203 29.86C50.4697 29.7971 53.238 28.8726 55.58 27.202C57.8288 25.5945 59.6653 23.316 60.7086 20.62C61.1779 19.4078 61.5082 18.0295 61.6524 16.4431C61.8125 14.6762 61.6878 12.8942 61.283 11.1692C60.6292 8.666 59.3829 6.38744 57.6314 4.5449C55.3943 2.19157 52.6733 0.583245 49.8746 0.151916C47.0759 -0.279414 44.1485 0.212784 41.6334 1.56428C38.6049 3.37769 35.9893 5.67487 33.629 8.08916C32.1996 9.55154 30.5154 11.6514 28.6643 13.4054C27.0869 14.9009 25.3997 16.2692 23.6177 17.498C21.4127 18.899 18.7645 19.3641 16.2324 18.7949V22.6452L7.69828 14.9663L16.2735 7.37178Z" clip-rule="evenodd"></path>
</svg>